<svg width="47" height="55" viewBox="0 0 47 55" fill="none" xmlns="http://www.w3.org/2000/svg">
<path d="M17.7772 9.58643C16.0276 13.3843 15.4841 17.6271 16.2197 21.7433C16.9554 25.8595 18.9349 29.6514 21.8916 32.6082C24.8484 35.5649 28.6402 37.5444 32.7565 38.2801C36.8727 39.0157 41.1155 38.4722 44.9134 36.7226C42.6543 46.8953 33.5793 54.4998 22.7271 54.4998C10.1749 54.4998 0 44.3249 0 31.7727C0 20.9204 7.6045 11.8455 17.7772 9.58643Z" fill="#153388"/>
<path d="M34.5 5L32.828 4.582C32.1248 4.40613 31.4826 4.04249 30.9701 3.52994C30.4575 3.01739 30.0939 2.3752 29.918 1.672L29.5 0H27.5L27.08 1.672C26.9043 2.37495 26.541 3.01698 26.0288 3.5295C25.5166 4.04203 24.8748 4.40582 24.172 4.582L22.5 5V7L24.172 7.418C24.8752 7.59387 25.5174 7.95751 26.0299 8.47006C26.5425 8.98261 26.9061 9.6248 27.082 10.328L27.5 12H29.5L29.918 10.328C30.0939 9.6248 30.4575 8.98261 30.9701 8.47006C31.4826 7.95751 32.1248 7.59387 32.828 7.418L34.5 7V5Z" fill="#F7CFFF"/>
<path d="M46.5 23.5L44.828 23.082C44.1248 22.9061 43.4826 22.5425 42.9701 22.0299C42.4575 21.5174 42.0939 20.8752 41.918 20.172L41.5 18.5H39.5L39.082 20.172C38.9061 20.8752 38.5425 21.5174 38.0299 22.0299C37.5174 22.5425 36.8752 22.9061 36.172 23.082L34.5 23.5V25.5L36.172 25.918C36.8752 26.0939 37.5174 26.4575 38.0299 26.9701C38.5425 27.4826 38.9061 28.1248 39.082 28.828L39.5 30.5H41.5L41.918 28.828C42.0939 28.1248 42.4575 27.4826 42.9701 26.9701C43.4826 26.4575 44.1248 26.0939 44.828 25.918L46.5 25.5V23.5Z" fill="#F7CFFF"/>
</svg>
