<svg width="51" height="51" viewBox="0 0 51 51" fill="none" xmlns="http://www.w3.org/2000/svg">
<path d="M20.0051 40.5102C31.0536 40.5102 40.0102 31.5536 40.0102 20.5051C40.0102 9.45658 31.0536 0.5 20.0051 0.5C8.95658 0.5 0 9.45658 0 20.5051C0 31.5536 8.95658 40.5102 20.0051 40.5102Z" fill="#153388"/>
<path d="M50.0011 35.5274C50.0011 43.7898 43.291 50.4999 35.0286 50.4999C29.9209 50.4999 25.4392 47.9461 22.7351 44.0652C33.6515 42.8384 42.3396 34.1503 43.5664 23.2339C47.4473 25.938 50.0011 30.4197 50.0011 35.5274Z" fill="#F7CFFF"/>
<path d="M23.6606 19.8043L17.6516 17.7011C17.0506 17.5008 16.9255 17.4508 16.9255 16.5745C16.9255 15.9235 17.3761 15.3977 17.952 15.3977H21.7077C22.5089 15.3977 23.1598 16.1238 23.1598 17.0251C23.1598 18.0517 24.0111 18.903 25.0377 18.903C26.0642 18.903 26.9155 18.0517 26.9155 17.0251C26.9155 14.1458 24.6871 11.7923 21.908 11.6671V11.5419C21.908 10.5153 21.0567 9.66406 20.0301 9.66406C19.0036 9.66406 18.1523 10.4903 18.1523 11.5419V11.6671H17.927C15.298 11.6671 13.1448 13.8704 13.1448 16.5995C13.1448 18.9781 14.1964 20.5054 16.3746 21.2565L22.4087 23.3597C23.0096 23.56 23.1348 23.61 23.1348 24.4864C23.1348 25.1373 22.6841 25.6631 22.1083 25.6631H18.3526C17.5514 25.6631 16.9004 24.937 16.9004 24.0357C16.9004 23.0091 16.0491 22.1579 15.0226 22.1579C13.9961 22.1579 13.1448 23.0091 13.1448 24.0357C13.1448 26.915 15.3731 29.2685 18.1523 29.3937V29.544C18.1523 30.5705 19.0036 31.4218 20.0301 31.4218C21.0567 31.4218 21.908 30.5705 21.908 29.544V29.4188H22.1333C24.7622 29.4188 26.9155 27.2155 26.9155 24.4864C26.9155 22.1078 25.8389 20.5805 23.6606 19.8043Z" fill="white"/>
</svg>
