<svg width="43" height="56" viewBox="0 0 43 56" fill="none" xmlns="http://www.w3.org/2000/svg">
<path d="M36.2292 27.1702C37.7255 26.8148 38.6508 25.3138 38.2954 23.8175C37.94 22.3211 36.439 21.3959 34.9427 21.7509C34.9427 21.7509 29.546 22.9896 25.9461 23.8443C24.8925 24.094 24.0226 23.0156 24.4838 22.0362C25.8891 19.0544 26.8538 14.6304 24.2559 13.1639C23.0034 12.4568 21.4722 12.7258 20.5998 14.4597C18.8933 17.8527 17.0818 19.8979 15.7814 21.0589C14.5108 22.1931 13.5583 23.6391 13.0472 25.2639L11.1904 31.1636L15.4998 51L40.0884 43.4277C41.5847 43.0723 42.51 41.5713 42.1546 40.0746C41.7996 38.5782 40.2982 37.6534 38.8019 38.0084C40.2982 37.6534 41.2234 36.152 40.868 34.6557C40.513 33.1593 39.0121 32.2341 37.5153 32.5895C39.0121 32.2341 39.9369 30.7331 39.5819 29.2368C39.2265 27.74 37.7255 26.8148 36.2292 27.1702Z" fill="#153388"/>
<path d="M8.90627 55.8958L14.2517 54.6268C16.3108 54.138 17.5835 52.0727 17.095 50.0136L12.0055 28.5747L3.00566 30.711C0.906336 31.2095 -0.391949 33.3155 0.106553 35.4153L4.29346 53.0529C4.78231 55.1115 6.84765 56.3846 8.90627 55.8958Z" fill="#F7CFFF"/>
<path d="M12.8774 49.4475C12.8774 50.9266 11.6781 52.1259 10.199 52.1259C8.71983 52.1259 7.521 50.9266 7.521 49.4475C7.521 47.9684 8.71983 46.7695 10.199 46.7695C11.6781 46.7695 12.8774 47.9684 12.8774 49.4475Z" fill="white"/>
<path d="M40.3341 8.8148L40.6163 10.7839L42.4607 11.6762C43.1855 12.027 43.1781 13.0258 42.4482 13.3667L40.5908 14.2336L40.2795 16.1985C40.1572 16.9708 39.1685 17.273 38.6062 16.7095L37.1763 15.2764L35.1396 15.5984C34.339 15.725 33.7352 14.9125 34.1179 14.2237L35.0912 12.471L34.144 10.7049C33.7716 10.0109 34.3871 9.20694 35.1857 9.34429L37.2176 9.69431L38.6687 8.28087C39.2388 7.72549 40.2233 8.04072 40.3341 8.8148Z" fill="#F7CFFF"/>
<path d="M20 2C19.8292 2.32562 19.4877 2.52871 19.1201 2.5241C17.87 2.50857 16.4343 2.82616 16.1137 4.09088C15.5259 6.41218 17.1502 8.57487 22.5519 8.79349C23.1234 8.81657 23.6559 8.49934 23.9076 7.98573C26.2868 3.13164 25.1585 0.673544 22.8372 0.0856646C21.5725 -0.23492 20.5816 0.893059 20 2Z" fill="#F7CFFF"/>
</svg>
