<svg width="40" height="51" viewBox="0 0 40 51" fill="none" xmlns="http://www.w3.org/2000/svg">
<path d="M34.625 14.775L34.275 14.575L30.8 12.575L23.625 8.425C21.425 7.15 18.075 7.15 15.875 8.425L8.7 12.575L5.225 14.6L4.775 14.85C0.300001 17.85 0 18.4 0 23.225V34.75C0 39.575 0.300001 40.125 4.875 43.2L15.875 49.55C16.975 50.2 18.35 50.5 19.75 50.5C21.125 50.5 22.525 50.2 23.625 49.55L34.725 43.125C39.2 40.125 39.5 39.575 39.5 34.75V23.225C39.5 18.4 39.2 17.85 34.625 14.775Z" fill="#153388"/>
<path d="M5.2251 14.6L8.7001 12.575L15.5501 8.625L15.8751 8.425C18.0751 7.15 21.4251 7.15 23.6251 8.425L23.9501 8.625L30.8001 12.575L34.2751 14.575V9.225C34.2751 3.6 31.1751 0.5 25.5501 0.5H13.9251C8.3001 0.5 5.2251 3.6 5.2251 9.225V14.6Z" fill="#F7CFFF"/>
<path d="M26.8499 28.8492L25.2999 30.7492C25.0499 31.0242 24.8749 31.5742 24.8999 31.9492L25.0499 34.3992C25.1499 35.8992 24.0749 36.6742 22.6749 36.1242L20.3999 35.2242C20.0499 35.0992 19.4499 35.0992 19.0999 35.2242L16.8249 36.1242C15.4249 36.6742 14.3499 35.8992 14.4499 34.3992L14.5999 31.9492C14.6249 31.5742 14.4499 31.0242 14.1999 30.7492L12.6499 28.8492C11.6749 27.6992 12.0999 26.4242 13.5499 26.0492L15.9249 25.4492C16.2999 25.3492 16.7499 24.9992 16.9499 24.6742L18.2749 22.6242C19.0999 21.3492 20.3999 21.3492 21.2249 22.6242L22.5499 24.6742C22.7499 24.9992 23.1999 25.3492 23.5749 25.4492L25.9499 26.0492C27.3999 26.4242 27.8249 27.6992 26.8499 28.8492Z" fill="#F7CFFF"/>
</svg>
