<svg width="89" height="30" viewBox="0 0 89 30" fill="none" xmlns="http://www.w3.org/2000/svg">
<path fill-rule="evenodd" clip-rule="evenodd" d="M66.6496 0.244629C65.2454 0.527007 64.7264 1.16808 64.7798 2.0839C64.8485 3.37369 66.268 5.83114 66.9473 6.9225C68.1302 8.83809 69.5345 10.5629 71.0913 12.1579C72.3506 13.4019 73.1443 13.6767 74.4952 11.8374C75.6476 10.3187 76.7084 8.81519 77.6166 6.93013C78.0134 6.10589 78.3874 5.20533 78.7156 4.19029C79.0666 3.00736 78.9445 1.96179 77.7845 1.19861C78.8987 1.74047 79.3872 2.74024 79.4559 3.84686C79.5245 4.91532 79.204 6.07536 78.9598 6.93013C78.3569 9.05941 77.5784 11.204 76.5939 13.1348C75.8536 14.5925 74.9073 16.3478 73.9609 17.6452C71.8698 20.5224 69.8703 19.5914 67.5196 17.6452C66.0314 16.4089 64.5966 14.852 63.3679 13.1425C62.1239 11.4253 60.7578 8.87625 59.9489 6.91486C58.8422 4.23608 59.7046 2.86235 61.0707 1.99232C62.5742 1.03834 64.8332 0.49648 66.6496 0.244629Z" fill="url(#paint0_linear_1248_9487)"/>
<path fill-rule="evenodd" clip-rule="evenodd" d="M66.6031 6.35781C68.7782 6.02964 74.4334 5.67857 76.4177 6.70887C77.0816 7.0523 77.0969 7.51785 77.0358 8.04445C77.2343 7.68575 77.4251 7.31179 77.6159 6.9302C78.0127 6.10596 78.3867 5.2054 78.7148 4.19036C79.0659 3.00743 78.9438 1.96186 77.7838 1.19868H77.7761C77.3488 0.977354 76.8527 0.809453 76.41 0.679711C75.105 0.298119 73.6549 0.145482 72.1973 0.0386364C71.5943 -0.00715473 70.9685 0.000476968 70.3274 0.000476968C69.175 0.000476968 67.9082 0.0767956 66.6489 0.244696C65.2446 0.527075 64.7257 1.16815 64.7791 2.08397C64.8402 3.18296 65.8781 5.12908 66.6031 6.35781Z" fill="url(#paint1_linear_1248_9487)"/>
<path fill-rule="evenodd" clip-rule="evenodd" d="M60.9176 29.9402C62.0548 29.8029 63.0164 29.2228 63.3369 27.5057C63.543 26.4067 63.5125 24.6361 63.2072 23.6058C63.0622 23.125 62.8485 22.7205 62.5356 22.4534C62.0014 22.0107 61.4137 21.9268 60.8947 21.9115C60.0171 21.881 59.5439 22.0336 58.9105 22.545C58.7884 22.6442 58.6815 22.69 58.6815 22.5144L58.6586 18.8511L56.6285 18.8817L56.6362 29.3831C57.5062 29.9707 59.895 30.0623 60.9176 29.9402ZM6.4873 29.7418C6.91469 29.7418 6.83074 29.78 7.09022 29.4213C8.85318 27.002 10.5246 21.8428 10.5017 18.9656C9.67742 18.9275 8.85318 19.0648 8.0213 19.2633C7.22759 23.9874 6.52546 25.2314 5.25094 27.643C3.97643 25.2314 3.2743 23.9874 2.48058 19.2633C1.64871 19.0648 0.81684 18.9275 0.000232546 18.9656C-0.022663 21.8428 1.64871 27.002 3.41167 29.4213C3.67115 29.78 3.5872 29.7418 4.01458 29.7418H6.4873ZM64.8251 22.3007L65.0236 24.1477C65.8249 24.0713 66.4813 23.8576 67.3284 23.7966C68.5953 23.7508 69.4043 23.7203 69.3661 24.6437C68.4197 24.6437 67.4581 24.6437 66.4736 24.6514C65.2754 24.659 64.2833 25.2314 64.413 27.6583C64.5733 30.5813 68.0382 30.36 69.618 29.1923V29.8486H71.4572C71.4114 26.8646 71.6251 23.7355 71.0909 22.8884C70.0682 21.2704 66.7102 21.8657 64.8251 22.3007ZM21.4839 29.4976C21.4152 28.8947 21.3465 28.2917 21.2778 27.6965C20.446 27.8491 19.0188 28.0628 18.1793 28.0323C17.21 28.0017 16.8514 27.5362 16.8514 26.1548C17.1566 26.5059 17.5916 26.7501 18.1335 26.7577C19.4004 26.773 20.5833 26.7959 21.8273 26.7501C21.8807 24.4529 22.0792 22.4457 19.782 21.9497C18.8509 21.7513 17.6069 21.7513 16.7216 22.0184C15.7524 22.3084 15.2716 22.7663 14.9892 23.7355C14.4702 25.5366 14.6152 28.2154 15.7753 29.2457C17.1185 30.4134 19.8049 29.9936 21.4839 29.4976ZM17.7901 23.7203H18.8051C19.3088 23.7203 19.7286 24.1324 19.7286 24.6437V25.0558H16.8666V24.6437C16.8666 24.14 17.2787 23.7203 17.7901 23.7203ZM82.6837 29.8257L82.7447 26.4448C82.7447 26.2388 82.9355 26.5135 82.9813 26.5975C83.6529 27.7194 84.2711 28.5665 85.2632 29.5586C85.5456 29.841 85.599 29.8181 86.0951 29.8181H88.2244C86.6675 28.536 85.8051 27.5057 84.9809 25.9488C84.813 25.5901 84.8206 25.6282 85.0572 25.2924C85.3625 24.9337 85.7517 24.4606 86.1791 23.9645L87.9954 21.8276C88.0031 21.8123 88.0107 21.797 88.0183 21.7818H86.0875C85.7364 21.7818 85.744 21.7284 85.4998 21.9955C84.7672 22.7892 83.92 23.7126 83.2408 24.4682C83.1568 24.5598 83.0576 24.6285 82.9737 24.6895C82.6913 24.8879 82.7447 24.8345 82.7447 24.5521L82.7295 18.813L80.6765 18.8283L80.6536 29.8181H82.6837V29.8257ZM34.9923 29.5663L34.8091 27.7728C33.8856 27.8491 32.9011 28.1086 31.9166 27.9941C30.9321 27.8873 30.81 27.3607 30.8024 26.5593C30.7947 26.0785 30.7795 25.529 30.81 25.0482C30.8482 24.3919 31.039 23.9721 31.9166 23.8729C32.9011 23.7661 33.8856 24.0179 34.8091 24.0942L34.9923 22.3007C31.4587 21.4689 29.2531 21.881 28.7647 24.6208C28.6655 25.1932 28.7112 27.0783 28.8486 27.6201C29.4744 30.0165 31.6266 30.36 34.9923 29.5663ZM23.9032 21.9115C23.4758 21.9115 23.0408 21.9115 22.6134 21.9115C22.6134 22.545 22.6058 23.1784 22.6058 23.8118C23.0484 23.8118 23.4605 23.8195 23.9108 23.8195C23.9108 24.4606 23.9108 25.1398 23.9108 25.7885C23.9108 26.4677 23.9032 27.1012 23.9032 27.6583C23.9108 28.4596 24.0634 29.1541 24.5137 29.5128C24.7045 29.6655 24.9793 29.7418 25.3151 29.78C26.1164 29.8715 27.1162 29.8257 27.7954 29.6044C27.7725 29.0626 27.7496 28.5207 27.7267 27.9712C26.933 28.0475 25.9561 28.2231 25.9638 27.8109C25.9638 26.4296 25.9638 25.2008 25.9638 23.8118C26.5972 23.8118 27.2001 23.8042 27.8412 23.8042C27.8412 23.1708 27.8412 22.545 27.8336 21.9115C27.2078 21.9115 26.5896 21.9039 25.9638 21.9039C25.9638 21.2781 25.9638 20.6446 25.9638 20.0188C25.2769 20.0188 24.5824 20.0188 23.8955 20.0188C23.9032 20.6523 23.9032 21.2781 23.9032 21.9115ZM11.2877 29.8257L13.2949 29.8639L13.3712 21.9344L11.2801 21.942L11.2877 29.8257ZM38.6632 21.8047H40.4643C41.8685 21.8047 43.021 22.9571 43.021 24.3613V27.3912C43.021 28.7954 41.8685 29.9479 40.4643 29.9479H38.6632C37.2589 29.9479 36.1065 28.7954 36.1065 27.3912V24.3613C36.0989 22.9571 37.2513 21.8047 38.6632 21.8047ZM39.0524 23.7203C38.5487 23.7203 38.1289 24.1324 38.1289 24.6437V27.1088C38.1289 27.6125 38.5411 28.0323 39.0524 28.0323H40.0674C40.5711 28.0323 40.9909 27.6201 40.9909 27.1088V24.6437C40.9909 24.14 40.5788 23.7203 40.0674 23.7203H39.0524ZM46.3713 29.8257C46.3866 27.8033 46.4095 25.7885 46.4248 23.7661C46.9285 23.7661 47.4322 23.7661 47.9359 23.7661C48.3327 23.7737 48.7296 24.0255 48.7296 24.4529V24.7353L48.7372 29.8257H50.7673L50.8207 23.7584C51.3702 23.7584 51.9273 23.7584 52.4768 23.7584C52.9653 23.7584 53.2858 24.0332 53.2858 24.4987L53.2934 29.8257H55.3006L55.3693 24.1019C55.3846 22.8808 54.713 21.881 53.3316 21.8886C52.8966 21.8963 52.4539 21.8963 52.0189 21.9039C51.3549 21.9115 51.0039 22.026 50.5994 22.4534C50.2941 22.7663 50.4468 22.7739 50.1644 22.4763C49.7599 22.0413 49.2714 21.8963 48.6456 21.8963C48.3404 21.8963 48.0275 21.8963 47.7222 21.8963C47.1574 21.9192 46.7987 22.0947 46.379 22.5221C46.0432 22.8655 46.0813 22.9723 46.0813 22.4381C46.0813 22.2702 46.0813 22.1099 46.0813 21.942C45.5089 21.942 44.9213 21.9497 44.3565 21.9497C44.3565 24.575 44.3642 27.2004 44.3642 29.8257H46.3713ZM74.8076 29.8257C74.8229 27.8033 74.8458 25.7885 74.861 23.7661C75.3724 23.7661 75.8837 23.7661 76.3874 23.7661C76.8377 23.7737 77.1964 24.0408 77.1964 24.4987C77.1964 26.2769 77.204 28.0475 77.204 29.8257C77.8909 29.8257 78.5777 29.8257 79.257 29.8257C79.2722 28.0628 79.2875 26.2922 79.3104 24.5292C79.3257 23.1326 78.7762 21.8886 77.1124 21.8886C76.7995 21.8886 76.4866 21.8886 76.1737 21.8886C75.6242 21.9115 75.2655 22.0794 74.8534 22.4763C74.5023 22.8197 74.51 23.0029 74.51 22.461V21.9344H72.7546C72.7546 24.5598 72.7623 27.2004 72.7623 29.8257C73.4491 29.8257 74.1284 29.8257 74.8076 29.8257ZM67.1681 26.4143C67.916 26.4143 68.664 26.4143 69.4043 26.4143C69.4043 26.8035 69.4043 27.1928 69.4043 27.582C69.4043 28.0704 67.9924 28.0857 67.0918 28.0704C66.4355 28.0552 66.5118 28.0704 66.4813 27.4904C66.4736 27.2691 66.4813 27.0554 66.4813 26.8341C66.4813 26.3838 66.5728 26.4143 67.1681 26.4143ZM61.345 25.0024V26.0861V27.1775C61.345 27.6812 60.9329 28.1009 60.4216 28.1009C60.0781 28.1009 59.7271 28.1009 59.3836 28.1009C58.6586 28.1009 58.651 28.1086 58.651 27.0783V26.0938V24.7506C58.651 23.7203 58.6586 23.7279 59.3836 23.7279C59.7271 23.7279 60.0781 23.7279 60.4216 23.7279C60.9253 23.7279 61.345 24.14 61.345 24.6514V25.0024Z" fill="#004522"/>
<defs>
<linearGradient id="paint0_linear_1248_9487" x1="77.0265" y1="12.4906" x2="61.059" y2="1.31004" gradientUnits="userSpaceOnUse">
<stop stop-color="#006840"/>
<stop offset="0.4" stop-color="#007A48"/>
<stop offset="1" stop-color="#86C440"/>
</linearGradient>
<linearGradient id="paint1_linear_1248_9487" x1="67.0106" y1="0.145101" x2="76.4595" y2="6.76122" gradientUnits="userSpaceOnUse">
<stop stop-color="#006840"/>
<stop offset="0.3" stop-color="#007A48"/>
<stop offset="1" stop-color="#86C440"/>
</linearGradient>
</defs>
</svg>
