<svg width="94" height="30" viewBox="0 0 94 30" fill="none" xmlns="http://www.w3.org/2000/svg">
<path d="M24.8037 4.5957H20.0928V25.8317H24.8037V4.5957Z" fill="#21409A"/>
<path d="M53.1918 18.366C52.6656 16.9848 47.8807 4.58691 47.8807 4.58691H42.7588L42.8492 4.80889L50.9638 25.8229H55.4034L63.5755 4.58691H58.4453C58.4371 4.59514 54.0304 16.0805 53.1918 18.366Z" fill="#21409A"/>
<path d="M37.826 21.3921C36.7325 22.1485 35.0554 22.5431 32.7123 22.5431H31.8983V7.88427H32.5643C35.6473 7.88427 36.7243 8.1227 37.9164 8.97773C39.4785 10.1369 40.3829 12.4143 40.3829 15.2178C40.3829 18.0213 39.4456 20.2904 37.826 21.3921ZM41.5667 6.68395C39.5772 5.1712 37.1683 4.5957 32.9096 4.5957H27.1957V25.8317H32.6054C36.8148 25.8317 39.0263 25.4041 40.9419 24.2038C43.6796 22.4773 45.102 19.3203 45.102 15.1849C45.1102 11.3784 43.9098 8.47622 41.5667 6.68395Z" fill="#21409A"/>
<path d="M11.3785 22.1811C10.5152 22.5511 9.08468 22.51 6.59359 22.51H4.7191V17.0263H6.62647C8.62428 17.0263 10.2603 17.1003 11.2387 17.4045C12.4308 17.7744 13.0474 18.5226 13.0474 19.7722C13.0556 21.2357 12.365 21.7618 11.3785 22.1811ZM4.72732 7.86761H6.19896C8.61606 7.86761 10.2439 7.78539 11.14 8.24579C11.9704 8.65686 12.4801 9.24059 12.4801 10.3751C12.4801 11.4193 12.0115 12.0112 11.1729 12.4552C10.433 12.8498 8.56673 13.0389 6.37983 13.0307H4.71088V7.86761H4.72732ZM13.2447 14.9134C15.9085 14.1817 17.2403 12.5949 17.2239 10.2189C17.2239 8.14714 16.0976 6.36309 14.1737 5.50806C12.5459 4.76813 10.8358 4.52148 7.20197 4.52148H0V25.7574H8.04056C11.436 25.7574 13.1461 25.4861 14.6999 24.7051C16.6895 23.6774 17.783 21.918 17.783 19.8216C17.7994 17.2483 16.2455 15.5957 13.2447 14.9134Z" fill="#21409A"/>
<path d="M78.6146 0.961914L64.5312 15.0041L78.6063 29.0463H78.6146L92.7061 15.0123L78.6146 0.961914Z" fill="white"/>
<path d="M76.2614 5.57422V17.3062L78.7196 17.3144H80.9722V5.58244L78.7196 5.57422" fill="#ED1D24"/>
<path d="M73.6803 7.90918H76.0398V15.0125H73.6803V7.90918ZM82.4772 15.0125H81.2029V7.90918H82.4772C83.768 7.90918 84.7546 9.50414 84.7628 11.4608C84.7792 13.3764 83.7762 15.0125 82.4772 15.0125Z" fill="#21409A"/>
<path d="M78.613 29.0463L64.5297 15.0041L78.613 0.961907V0.970129L92.7045 15.0123L78.613 29.0463ZM63.5677 15.0041L63.6911 15.1274L78.0457 29.4409L78.613 30L79.1802 29.4409L93.6664 15.0041L78.6212 0" fill="#ED1D24"/>
<path d="M78.613 21.7784L71.8221 15.0039H65.1627L76.8947 26.7112L77.018 26.8345L78.613 28.4213L92.0715 15.0039H85.4039" fill="#ED1D24"/>
</svg>
