<svg width="9" height="8" viewBox="0 0 9 8" fill="none" xmlns="http://www.w3.org/2000/svg">
<path d="M7.82822 3.75421C6.97491 3.51188 6.19791 3.055 5.57132 2.42713C4.94472 1.79925 4.48942 1.02132 4.24882 0.16753C4.2293 0.118121 4.19536 0.0757317 4.15143 0.0458562C4.1075 0.0159807 4.05559 0 4.00247 0C3.94934 0 3.89743 0.0159807 3.8535 0.0458562C3.80957 0.0757317 3.77563 0.118121 3.75611 0.16753C3.51551 1.02132 3.06021 1.79925 2.43361 2.42713C1.80702 3.055 1.03002 3.51188 0.176715 3.75421C0.125472 3.7703 0.0807126 3.80232 0.0489281 3.84562C0.0171436 3.88891 0 3.94123 0 3.99494C0 4.04865 0.0171436 4.10095 0.0489281 4.14425C0.0807126 4.18754 0.125472 4.21957 0.176715 4.23566C1.02832 4.48153 1.80318 4.94045 2.4281 5.56907C3.05301 6.1977 3.50734 6.97525 3.74816 7.8283C3.7686 7.87901 3.80374 7.92246 3.84905 7.95305C3.89437 7.98365 3.94779 8 4.00247 8C4.05714 8 4.11056 7.98365 4.15588 7.95305C4.20119 7.92246 4.23633 7.87901 4.25677 7.8283C4.49754 6.97523 4.95185 6.19763 5.57677 5.569C6.2017 4.94038 6.97658 4.48147 7.82822 4.23566C7.87946 4.21957 7.92422 4.18754 7.956 4.14425C7.98779 4.10095 8.00493 4.04865 8.00493 3.99494C8.00493 3.94123 7.98779 3.88891 7.956 3.84562C7.92422 3.80232 7.87946 3.7703 7.82822 3.75421V3.75421Z" fill="#7B7B7B"/>
</svg>
