<svg width="23" height="20" viewBox="0 0 23 20" fill="none" xmlns="http://www.w3.org/2000/svg">
<path fill-rule="evenodd" clip-rule="evenodd" d="M4.6618 0.0139199C4.71027 0.00473441 4.75989 0 4.81009 0H21.8436C22.2834 0 22.64 0.356548 22.64 0.796373V13.1844C22.64 13.6242 22.2834 13.9808 21.8436 13.9808H11.0085C10.0398 13.9711 9.09997 13.6499 8.32791 13.0647C7.55585 12.4796 6.99258 11.6615 6.72138 10.7315L6.71806 10.7201L4.20346 1.59275H0.796373C0.356548 1.59275 0 1.2362 0 0.796373C0 0.356549 0.356548 1.20251e-06 0.796373 1.20251e-06H4.51278C4.56371 1.20251e-06 4.61352 0.00478219 4.6618 0.0139199ZM5.85555 1.59275L8.252 10.291C8.42808 10.8905 8.79187 11.4179 9.28996 11.7954C9.78854 12.1732 10.3953 12.381 11.0208 12.388H21.0472V1.59275H5.85555Z" fill="white"/>
<path d="M8.35089 19.3907C8.74102 19.7808 9.27016 20 9.8219 20C10.3736 20 10.9028 19.7808 11.2929 19.3907C11.683 19.0005 11.9022 18.4714 11.9022 17.9197C11.9022 17.3679 11.683 16.8388 11.2929 16.4487C10.9028 16.0585 10.3736 15.8394 9.8219 15.8394C9.27016 15.8394 8.74102 16.0585 8.35089 16.4487C7.96075 16.8388 7.74158 17.3679 7.74158 17.9197C7.74158 18.4714 7.96075 19.0005 8.35089 19.3907Z" fill="white"/>
<path d="M18.9692 19.3907C19.3593 19.7808 19.8885 20 20.4402 20C20.9919 20 21.5211 19.7808 21.9112 19.3907C22.3013 19.0005 22.5205 18.4714 22.5205 17.9197C22.5205 17.3679 22.3013 16.8388 21.9112 16.4487C21.5211 16.0585 20.9919 15.8394 20.4402 15.8394C19.8885 15.8394 19.3593 16.0585 18.9692 16.4487C18.579 16.8388 18.3599 17.3679 18.3599 17.9197C18.3599 18.4714 18.579 19.0005 18.9692 19.3907Z" fill="white"/>
</svg>
