<svg width="9" height="9" viewBox="0 0 9 9" fill="none" xmlns="http://www.w3.org/2000/svg">
<path d="M4.5 3.50016L7.50024 0.499922C7.77633 0.223823 8.22398 0.223822 8.50008 0.499921C8.77618 0.77602 8.77618 1.22367 8.50008 1.49976L5.49984 4.5L8.50008 7.50024C8.77618 7.77633 8.77618 8.22398 8.50008 8.50008C8.22398 8.77618 7.77633 8.77618 7.50024 8.50008L4.5 5.49984L1.49976 8.50008C1.22367 8.77618 0.77602 8.77618 0.499921 8.50008C0.223822 8.22398 0.223822 7.77633 0.499921 7.50024L3.50016 4.5L0.499922 1.49976C0.223823 1.22367 0.223822 0.77602 0.499921 0.499921C0.77602 0.223822 1.22367 0.223822 1.49976 0.499921L4.5 3.50016Z" fill="white"/>
</svg>
