<svg width="45" height="30" viewBox="0 0 45 30" fill="none" xmlns="http://www.w3.org/2000/svg">
<rect x="1" y="0.5" width="42.75" height="29" rx="3.5" fill="white" stroke="#D9D9D9"/>
<path d="M28.3979 15.3591C29.04 15.373 29.6857 15.3307 30.3252 15.3811C30.9729 15.5019 31.129 16.4824 30.5536 16.8035C30.161 17.015 29.6946 16.8823 29.269 16.9196H28.3979V15.3591ZM30.6965 13.5928C30.8391 14.0964 30.3537 14.5485 29.8688 14.4791H28.3979C28.4082 14.0043 28.3777 13.4889 28.4128 13.039C29.002 13.0556 29.5967 13.0052 30.1826 13.0654C30.4343 13.1286 30.645 13.3356 30.6965 13.5928ZM34.2364 6.12552C34.2638 7.08715 34.2404 8.0996 34.2483 9.08074C34.2464 13.0697 34.2521 17.0585 34.2451 21.0476C34.2193 22.5426 32.8944 23.8416 31.4098 23.8714C29.9238 23.8775 28.4375 23.8724 26.9513 23.874V17.8436C28.5706 17.8352 30.1908 17.8605 31.8094 17.8309C32.5603 17.7838 33.3828 17.2883 33.4178 16.462C33.5062 15.6321 32.7238 15.058 31.9809 14.9674C31.6953 14.96 31.7037 14.8841 31.9809 14.851C32.6894 14.6979 33.2458 13.9646 33.0373 13.2302C32.8597 12.4577 32.0059 12.1588 31.2958 12.1602C29.8478 12.1504 28.3996 12.1589 26.9516 12.156C26.9609 11.0302 26.9321 9.90318 26.9671 8.7782C27.0819 7.31024 28.4401 6.09964 29.9038 6.12591C31.3482 6.12569 32.7924 6.12569 34.2364 6.12563V6.12552Z" fill="url(#paint0_linear_1233_9830)"/>
<path d="M10.5893 8.93051C10.6263 7.43793 11.9568 6.14959 13.4395 6.12777C14.9201 6.12321 16.4008 6.12712 17.8814 6.1258C17.8773 11.1197 17.8894 16.1141 17.8753 21.1076C17.8182 22.5821 16.5022 23.8459 15.0357 23.872C13.5523 23.8774 12.0688 23.8727 10.5854 23.8742V17.6405C12.0263 17.9809 13.5373 18.1258 15.0072 17.9C15.8859 17.7586 16.8472 17.3271 17.1447 16.4156C17.3636 15.6358 17.2404 14.8152 17.2729 14.0149V12.1563H14.7291C14.7176 13.3855 14.7525 14.6169 14.7106 15.8446C14.6421 16.5992 13.8947 17.0787 13.183 17.0531C12.3003 17.0624 10.5512 16.4134 10.5512 16.4134C10.5468 14.1104 10.5768 11.2261 10.5893 8.93073V8.93051Z" fill="url(#paint1_linear_1233_9830)"/>
<path d="M18.8293 12.9057C18.6954 12.9341 18.8024 12.4496 18.7682 12.2658C18.7773 11.1037 18.7491 9.9403 18.7837 8.779C18.8981 7.30483 20.2668 6.09121 21.7364 6.12572H26.0645C26.0604 11.1196 26.0724 16.114 26.0584 21.1076C26.0013 22.582 24.6852 23.8457 23.2186 23.8719C21.7352 23.8775 20.2516 23.8728 18.7681 23.8742V17.0443C19.7813 17.8756 21.1583 18.005 22.4205 18.0072C23.3721 18.0069 24.3181 17.8602 25.2422 17.6407V16.3895C24.2008 16.9085 22.9766 17.2382 21.8222 16.94C21.0169 16.7396 20.4323 15.9613 20.4453 15.1302C20.352 14.2659 20.8586 13.3535 21.7079 13.0966C22.7624 12.7664 23.9117 13.0189 24.9001 13.4481C25.1119 13.559 25.3268 13.6965 25.2421 13.3426V12.3591C23.589 11.9658 21.8297 11.821 20.1689 12.2489C19.6882 12.3845 19.2198 12.5902 18.8293 12.9058V12.9057Z" fill="url(#paint2_linear_1233_9830)"/>
<defs>
<linearGradient id="paint0_linear_1233_9830" x1="26.9015" y1="14.6203" x2="34.2022" y2="14.6203" gradientUnits="userSpaceOnUse">
<stop stop-color="#58B03A"/>
<stop offset="1" stop-color="#55B330"/>
</linearGradient>
<linearGradient id="paint1_linear_1233_9830" x1="10.4302" y1="15.17" x2="17.7617" y2="15.17" gradientUnits="userSpaceOnUse">
<stop stop-color="#0F6EB6"/>
<stop offset="1" stop-color="#006DBA"/>
</linearGradient>
<linearGradient id="paint2_linear_1233_9830" x1="18.7574" y1="14.7924" x2="26.0631" y2="14.7924" gradientUnits="userSpaceOnUse">
<stop stop-color="#DE0D3D"/>
<stop offset="1" stop-color="#E30138"/>
</linearGradient>
</defs>
</svg>
