<svg width="44" height="30" viewBox="0 0 44 30" fill="none" xmlns="http://www.w3.org/2000/svg">
<rect x="0.5" y="0.5" width="42.75" height="29" rx="3.5" fill="white" stroke="#D9D9D9"/>
<path fill-rule="evenodd" clip-rule="evenodd" d="M13.2816 20.3227H10.6312L8.64369 12.7404C8.54936 12.3916 8.34906 12.0832 8.05443 11.9379C7.31914 11.5727 6.5089 11.282 5.625 11.1354V10.8435H9.89459C10.4839 10.8435 10.9258 11.282 10.9995 11.7913L12.0307 17.2607L14.6798 10.8435H17.2565L13.2816 20.3227ZM18.7296 20.3227H16.2266L18.2877 10.8435H20.7908L18.7296 20.3227ZM24.0299 13.4696C24.1036 12.9591 24.5455 12.6672 25.0611 12.6672C25.8714 12.5939 26.754 12.7405 27.4906 13.1044L27.9325 11.0635C27.1959 10.7716 26.3857 10.625 25.6504 10.625C23.221 10.625 21.4532 11.938 21.4532 13.7603C21.4532 15.1466 22.7054 15.8745 23.5893 16.313C24.5455 16.7503 24.9138 17.0422 24.8402 17.4794C24.8402 18.1353 24.1036 18.4272 23.3683 18.4272C22.4844 18.4272 21.6005 18.2086 20.7916 17.8434L20.3496 19.8856C21.2335 20.2495 22.1898 20.3961 23.0737 20.3961C25.7977 20.4681 27.4906 19.1564 27.4906 17.1875C27.4906 14.7081 24.0299 14.5628 24.0299 13.4696ZM36.2498 20.3227L34.2624 10.8435H32.1276C31.6856 10.8435 31.2437 11.1354 31.0963 11.5727L27.416 20.3227H29.9928L30.5071 18.9377H33.6731L33.9677 20.3227H36.2498ZM32.4958 13.3962L33.2311 16.9688H31.1699L32.4958 13.3962Z" fill="#172B85"/>
</svg>
