<svg width="35" height="40" viewBox="0 0 35 40" fill="none" xmlns="http://www.w3.org/2000/svg">
<path d="M13.0475 7.03613C11.7634 9.82355 11.3645 12.9376 11.9044 15.9587C12.4444 18.9797 13.8972 21.7628 16.0673 23.9329C18.2374 26.103 21.0204 27.5558 24.0415 28.0958C27.0626 28.6357 30.1766 28.2368 32.9641 26.9527C31.306 34.4189 24.6455 40.0002 16.6805 40.0002C7.46787 40.0002 0 32.5323 0 23.3197C0 15.3547 5.5813 8.69418 13.0475 7.03613Z" fill="#153388"/>
<path d="M25.3213 3.66974L24.0941 3.36295C23.578 3.23387 23.1067 2.96698 22.7305 2.59079C22.3543 2.21461 22.0874 1.74327 21.9583 1.22716L21.6516 0H20.1837L19.8754 1.22716C19.7464 1.74309 19.4798 2.2143 19.1039 2.59047C18.7279 2.96664 18.2569 3.23364 17.7411 3.36295L16.5139 3.66974V5.13764L17.7411 5.44443C18.2572 5.5735 18.7285 5.84039 19.1047 6.21658C19.4809 6.59277 19.7478 7.0641 19.8769 7.58021L20.1837 8.80737H21.6516L21.9583 7.58021C22.0874 7.0641 22.3543 6.59277 22.7305 6.21658C23.1067 5.84039 23.578 5.5735 24.0941 5.44443L25.3213 5.13764V3.66974Z" fill="#F7CFFF"/>
<path d="M34.1287 17.2478L32.9015 16.941C32.3854 16.8119 31.9141 16.545 31.5379 16.1688C31.1617 15.7926 30.8948 15.3213 30.7657 14.8052L30.4589 13.578H28.991L28.6842 14.8052C28.5552 15.3213 28.2883 15.7926 27.9121 16.1688C27.5359 16.545 27.0646 16.8119 26.5485 16.941L25.3213 17.2478V18.7157L26.5485 19.0225C27.0646 19.1515 27.5359 19.4184 27.9121 19.7946C28.2883 20.1708 28.5552 20.6421 28.6842 21.1582L28.991 22.3854H30.4589L30.7657 21.1582C30.8948 20.6421 31.1617 20.1708 31.5379 19.7946C31.9141 19.4184 32.3854 19.1515 32.9015 19.0225L34.1287 18.7157V17.2478Z" fill="#F7CFFF"/>
</svg>
