<svg width="41" height="40" viewBox="0 0 41 40" fill="none" xmlns="http://www.w3.org/2000/svg">
<path d="M16.0041 32.0083C24.843 32.0083 32.0083 24.843 32.0083 16.0041C32.0083 7.1653 24.843 0 16.0041 0C7.1653 0 0 7.1653 0 16.0041C0 24.843 7.1653 32.0083 16.0041 32.0083Z" fill="#153388"/>
<path d="M40.0011 28.0223C40.0011 34.6323 34.633 40.0004 28.0231 40.0004C23.9369 40.0004 20.3515 37.9573 18.1882 34.8526C26.9214 33.8712 33.8719 26.9207 34.8534 18.1875C37.9581 20.3508 40.0011 23.9362 40.0011 28.0223Z" fill="#F7CFFF"/>
<path d="M18.9286 15.4433L14.1213 13.7608C13.6406 13.6005 13.5404 13.5605 13.5404 12.8594C13.5404 12.3386 13.901 11.918 14.3617 11.918H17.3662C18.0072 11.918 18.528 12.4989 18.528 13.2199C18.528 14.0412 19.209 14.7222 20.0302 14.7222C20.8515 14.7222 21.5325 14.0412 21.5325 13.2199C21.5325 10.9165 19.7498 9.03362 17.5264 8.93347V8.83332C17.5264 8.01208 16.8454 7.33105 16.0242 7.33105C15.2029 7.33105 14.5219 7.99205 14.5219 8.83332V8.93347H14.3416C12.2385 8.93347 10.5159 10.6961 10.5159 12.8794C10.5159 14.7823 11.3571 16.0041 13.0998 16.605L17.927 18.2876C18.4078 18.4478 18.5079 18.4879 18.5079 19.1889C18.5079 19.7097 18.1474 20.1304 17.6867 20.1304H14.6822C14.0412 20.1304 13.5204 19.5495 13.5204 18.8284C13.5204 18.0072 12.8394 17.3261 12.0181 17.3261C11.1969 17.3261 10.5159 18.0072 10.5159 18.8284C10.5159 21.1319 12.2986 23.0147 14.5219 23.1149V23.235C14.5219 24.0563 15.2029 24.7373 16.0242 24.7373C16.8454 24.7373 17.5264 24.0563 17.5264 23.235V23.1349H17.7067C19.8099 23.1349 21.5325 21.3722 21.5325 19.1889C21.5325 17.2861 20.6712 16.0642 18.9286 15.4433Z" fill="white"/>
</svg>
