<svg width="31" height="40" viewBox="0 0 31 40" fill="none" xmlns="http://www.w3.org/2000/svg">
<path d="M25.892 19.3967C26.9614 19.1427 27.6227 18.07 27.3687 17.0006C27.1146 15.9312 26.042 15.27 24.9726 15.5237C24.9726 15.5237 21.1157 16.4089 18.543 17.0198C17.79 17.1982 17.1684 16.4275 17.4979 15.7276C18.5022 13.5966 19.1917 10.4349 17.3351 9.38681C16.4399 8.8815 15.3456 9.07373 14.7222 10.3129C13.5026 12.7377 12.2079 14.1994 11.2786 15.0292C10.3706 15.8397 9.68981 16.8731 9.32455 18.0343L7.99756 22.2507L11.0773 36.4271L28.6501 31.0154C29.7195 30.7614 30.3807 29.6888 30.1267 28.6191C29.873 27.5497 28.8 26.8887 27.7306 27.1424C28.8 26.8887 29.4613 25.8157 29.2073 24.7463C28.9535 23.6769 27.8809 23.0157 26.8112 23.2697C27.8809 23.0157 28.5418 21.943 28.2881 20.8736C28.0341 19.8039 26.9614 19.1427 25.892 19.3967Z" fill="#153388"/>
<path d="M6.36505 39.9254L10.1853 39.0186C11.6568 38.6692 12.5664 37.1932 12.2173 35.7216L8.58 20.3999L2.14806 21.9266C0.647731 22.2829 -0.280114 23.788 0.0761499 25.2886L3.06841 37.8937C3.41777 39.365 4.89381 40.2748 6.36505 39.9254Z" fill="#F7CFFF"/>
<path d="M9.20328 35.3167C9.20328 36.3738 8.34621 37.2309 7.28911 37.2309C6.23202 37.2309 5.37524 36.3738 5.37524 35.3167C5.37524 34.2596 6.23202 33.4028 7.28911 33.4028C8.34621 33.4028 9.20328 34.2596 9.20328 35.3167Z" fill="white"/>
<path d="M28.8256 6.27811L29.0273 7.68536L30.3455 8.32308C30.8634 8.5738 30.8582 9.28761 30.3365 9.53122L29.0091 10.1508L28.7866 11.5551C28.6992 12.107 27.9926 12.3229 27.5907 11.9202L26.5688 10.896L25.1132 11.1262C24.5411 11.2167 24.1096 10.636 24.3831 10.1437L25.0787 8.89107L24.4017 7.6289C24.1356 7.1329 24.5755 6.55837 25.1462 6.65652L26.5983 6.90667L27.6354 5.89653C28.0429 5.49961 28.7464 5.7249 28.8256 6.27811Z" fill="#F7CFFF"/>
<path d="M14.2935 1.4077C14.1714 1.64042 13.9273 1.78556 13.6646 1.78226C12.7713 1.77117 11.7452 1.99814 11.5161 2.90199C11.096 4.56096 12.2568 6.10657 16.1172 6.26281C16.5257 6.2793 16.9062 6.05259 17.0862 5.68553C18.7865 2.21645 17.9801 0.459726 16.3212 0.0395864C15.4173 -0.189526 14.7091 0.616607 14.2935 1.4077Z" fill="#F7CFFF"/>
</svg>
