<svg width="32" height="40" viewBox="0 0 32 40" fill="none" xmlns="http://www.w3.org/2000/svg">
<path d="M27.7001 11.4202L27.4201 11.2602L24.6401 9.66021L18.9001 6.3402C17.14 5.32019 14.46 5.32019 12.7 6.3402L6.96002 9.66021L4.18001 11.2802L3.82001 11.4802C0.240001 13.8802 0 14.3202 0 18.1802V27.4003C0 31.2603 0.240001 31.7003 3.90001 34.1603L12.7 39.2403C13.58 39.7603 14.68 40.0003 15.8 40.0003C16.9 40.0003 18.02 39.7603 18.9001 39.2403L27.7801 34.1003C31.3601 31.7003 31.6001 31.2603 31.6001 27.4003V18.1802C31.6001 14.3202 31.3601 13.8802 27.7001 11.4202Z" fill="#153388"/>
<path d="M4.18018 11.28L6.96018 9.66002L12.4402 6.50002L12.7002 6.34002C14.4602 5.32001 17.1402 5.32001 18.9002 6.34002L19.1602 6.50002L24.6402 9.66002L27.4202 11.26V6.98002C27.4202 2.48001 24.9402 0 20.4402 0H11.1402C6.64018 0 4.18018 2.48001 4.18018 6.98002V11.28Z" fill="#F7CFFF"/>
<path d="M21.4801 22.6791L20.2401 24.1991C20.0401 24.4191 19.9001 24.8591 19.9201 25.1591L20.0401 27.1191C20.1201 28.3191 19.2601 28.9391 18.1401 28.4991L16.32 27.7791C16.04 27.6791 15.56 27.6791 15.28 27.7791L13.46 28.4991C12.34 28.9391 11.48 28.3191 11.56 27.1191L11.68 25.1591C11.7 24.8591 11.56 24.4191 11.36 24.1991L10.12 22.6791C9.34003 21.7591 9.68003 20.7391 10.84 20.4391L12.74 19.9591C13.04 19.8791 13.4 19.5991 13.56 19.3391L14.62 17.6991C15.28 16.6791 16.32 16.6791 16.98 17.6991L18.0401 19.3391C18.2001 19.5991 18.5601 19.8791 18.8601 19.9591L20.7601 20.4391C21.9201 20.7391 22.2601 21.7591 21.4801 22.6791Z" fill="#F7CFFF"/>
</svg>
