<svg width="13" height="12" viewBox="0 0 13 12" fill="none" xmlns="http://www.w3.org/2000/svg">
<path d="M6.89681 0.238627L8.5626 3.50321C8.62688 3.62959 8.75166 3.71695 8.89576 3.73727L12.6206 4.26064C12.9836 4.31184 13.1285 4.74297 12.8659 4.99085L10.1708 7.53173C10.0666 7.63006 10.0187 7.77188 10.0435 7.91044L10.6796 11.4985C10.7418 11.8483 10.362 12.1149 10.0372 11.9499L6.70565 10.2559C6.57667 10.1905 6.42249 10.1905 6.29393 10.2559L2.96234 11.9499C2.63759 12.1149 2.25822 11.8483 2.31997 11.4985L2.95604 7.91044C2.98083 7.77147 2.93293 7.63006 2.82874 7.53173L0.134067 4.99085C-0.128511 4.74338 0.0164323 4.31184 0.37942 4.26064L4.10424 3.73727C4.24834 3.71695 4.37312 3.62959 4.4374 3.50321L6.10319 0.238627C6.26536 -0.0795423 6.73464 -0.0795423 6.89681 0.238627Z" fill="#FFA113"/>
</svg>
