<svg width="60" height="60" viewBox="0 0 60 60" fill="none" xmlns="http://www.w3.org/2000/svg">
<g clip-path="url(#clip0_1147_32258)">
<path d="M57 34.5H3C1.89543 34.5 1 35.3954 1 36.5V43.5C1 44.6046 1.89543 45.5 3 45.5H57C58.1046 45.5 59 44.6046 59 43.5V36.5C59 35.3954 58.1046 34.5 57 34.5Z" fill="#E8EDFC"/>
<path fill-rule="evenodd" clip-rule="evenodd" d="M57 34.5H54C55.1046 34.5 56 35.3954 56 36.5V43.5C56 44.6046 55.1046 45.5 54 45.5H57C58.1046 45.5 59 44.6046 59 43.5V36.5C59 35.3954 58.1046 34.5 57 34.5Z" fill="#CAD9FC"/>
<path fill-rule="evenodd" clip-rule="evenodd" d="M53 45.5H57V49.5C57 50.6046 56.1046 51.5 55 51.5C53.8954 51.5 53 50.6046 53 49.5V45.5Z" fill="#E8EDFC"/>
<path fill-rule="evenodd" clip-rule="evenodd" d="M3 45.5H7V49.5C7 50.6046 6.10457 51.5 5 51.5C3.89543 51.5 3 50.6046 3 49.5V45.5Z" fill="#E8EDFC"/>
<path fill-rule="evenodd" clip-rule="evenodd" d="M7 12.73V34.5H3V12.73C3 11.6254 3.89543 10.73 5 10.73C6.10457 10.73 7 11.6254 7 12.73Z" fill="#E8EDFC"/>
<path fill-rule="evenodd" clip-rule="evenodd" d="M7 22.5H54C55.6568 22.5 57 23.8431 57 25.5V34.5H7V22.5Z" fill="#A4C2F7"/>
<path fill-rule="evenodd" clip-rule="evenodd" d="M54 22.5H51C52.6569 22.5 54 23.8431 54 25.5V34.5H57V25.5C57 23.8431 55.6569 22.5 54 22.5Z" fill="#7FACFA"/>
<path fill-rule="evenodd" clip-rule="evenodd" d="M3 45.5001V49.5001C2.99645 50.334 3.51271 51.0818 4.29371 51.3742C5.07472 51.6665 5.95514 51.4414 6.5 50.8101C6.17952 50.4488 6.00175 49.983 6 49.5001V45.5001C4.89543 45.5001 4 44.6046 4 43.5001V36.5001C4 35.3955 4.89543 34.5001 6 34.5001V12.7301C6.00157 12.2471 6.17936 11.7813 6.5 11.4201C5.95514 10.7888 5.07472 10.5637 4.29371 10.856C3.51271 11.1483 2.99645 11.8962 3 12.7301V34.5001C1.89543 34.5001 1 35.3955 1 36.5001V43.5001C1 44.6046 1.89543 45.5001 3 45.5001Z" fill="white"/>
<path fill-rule="evenodd" clip-rule="evenodd" d="M2 12.73H4V20.73H2V12.73Z" fill="white"/>
<path d="M58 33.684V25.5C58 23.2908 56.2091 21.5 54 21.5H8V12.73C8 11.0731 6.65685 9.72998 5 9.72998C3.34314 9.72998 2 11.0731 2 12.73C2 13.2823 2.44771 13.73 3 13.73C3.55228 13.73 4 13.2823 4 12.73C4 12.1777 4.44771 11.73 5 11.73C5.55228 11.73 6 12.1777 6 12.73V33.5H4V20.73C4 20.1777 3.55228 19.73 3 19.73C2.44771 19.73 2 20.1777 2 20.73V33.684C0.805649 34.1062 0.00525139 35.2332 0 36.5V43.5C0.00525139 44.7668 0.805649 45.8937 2 46.316V49.5C2 51.1568 3.34314 52.5 5 52.5C6.65685 52.5 8 51.1568 8 49.5V46.5H52V49.5C52 51.1568 53.3431 52.5 55 52.5C56.6568 52.5 58 51.1568 58 49.5V46.316C59.1943 45.8937 59.9947 44.7668 60 43.5V36.5C59.9947 35.2332 59.1943 34.1062 58 33.684ZM8 23.5H54C55.1046 23.5 56 24.3954 56 25.5V33.5H8V23.5ZM6 49.5C6 50.0523 5.55228 50.5 5 50.5C4.44771 50.5 4 50.0523 4 49.5V46.5H6V49.5ZM56 49.5C56 50.0523 55.5523 50.5 55 50.5C54.4477 50.5 54 50.0523 54 49.5V46.5H56V49.5ZM58 43.5C58 44.0523 57.5523 44.5 57 44.5H3C2.44771 44.5 2 44.0523 2 43.5V36.5C2 35.9477 2.44771 35.5 3 35.5H57C57.5523 35.5 58 35.9477 58 36.5V43.5Z" fill="#001F86"/>
<path d="M3 17.73C3.55228 17.73 4 17.2823 4 16.73C4 16.1777 3.55228 15.73 3 15.73C2.44771 15.73 2 16.1777 2 16.73C2 17.2823 2.44771 17.73 3 17.73Z" fill="#001F86"/>
<path d="M52 27.5C52.5523 27.5 53 27.0523 53 26.5C53 25.9477 52.5523 25.5 52 25.5C51.4477 25.5 51 25.9477 51 26.5C51 27.0523 51.4477 27.5 52 27.5Z" fill="#001F86"/>
<path d="M52 31.5C52.5523 31.5 53 31.0523 53 30.5C53 29.9477 52.5523 29.5 52 29.5C51.4477 29.5 51 29.9477 51 30.5C51 31.0523 51.4477 31.5 52 31.5Z" fill="#001F86"/>
<path d="M48 27.5C48.5523 27.5 49 27.0523 49 26.5C49 25.9477 48.5523 25.5 48 25.5C47.4477 25.5 47 25.9477 47 26.5C47 27.0523 47.4477 27.5 48 27.5Z" fill="#001F86"/>
<path d="M48 31.5C48.5523 31.5 49 31.0523 49 30.5C49 29.9477 48.5523 29.5 48 29.5C47.4477 29.5 47 29.9477 47 30.5C47 31.0523 47.4477 31.5 48 31.5Z" fill="#001F86"/>
<path d="M44 27.5C44.5523 27.5 45 27.0523 45 26.5C45 25.9477 44.5523 25.5 44 25.5C43.4477 25.5 43 25.9477 43 26.5C43 27.0523 43.4477 27.5 44 27.5Z" fill="#001F86"/>
<path d="M44 31.5C44.5523 31.5 45 31.0523 45 30.5C45 29.9477 44.5523 29.5 44 29.5C43.4477 29.5 43 29.9477 43 30.5C43 31.0523 43.4477 31.5 44 31.5Z" fill="#001F86"/>
<path d="M40 27.5C40.5523 27.5 41 27.0523 41 26.5C41 25.9477 40.5523 25.5 40 25.5C39.4477 25.5 39 25.9477 39 26.5C39 27.0523 39.4477 27.5 40 27.5Z" fill="#001F86"/>
<path d="M40 31.5C40.5523 31.5 41 31.0523 41 30.5C41 29.9477 40.5523 29.5 40 29.5C39.4477 29.5 39 29.9477 39 30.5C39 31.0523 39.4477 31.5 40 31.5Z" fill="#001F86"/>
<path d="M36 27.5C36.5523 27.5 37 27.0523 37 26.5C37 25.9477 36.5523 25.5 36 25.5C35.4477 25.5 35 25.9477 35 26.5C35 27.0523 35.4477 27.5 36 27.5Z" fill="#001F86"/>
<path d="M36 31.5C36.5523 31.5 37 31.0523 37 30.5C37 29.9477 36.5523 29.5 36 29.5C35.4477 29.5 35 29.9477 35 30.5C35 31.0523 35.4477 31.5 36 31.5Z" fill="#001F86"/>
<path d="M32 27.5C32.5523 27.5 33 27.0523 33 26.5C33 25.9477 32.5523 25.5 32 25.5C31.4477 25.5 31 25.9477 31 26.5C31 27.0523 31.4477 27.5 32 27.5Z" fill="#001F86"/>
<path d="M32 31.5C32.5523 31.5 33 31.0523 33 30.5C33 29.9477 32.5523 29.5 32 29.5C31.4477 29.5 31 29.9477 31 30.5C31 31.0523 31.4477 31.5 32 31.5Z" fill="#001F86"/>
<path d="M28 27.5C28.5523 27.5 29 27.0523 29 26.5C29 25.9477 28.5523 25.5 28 25.5C27.4477 25.5 27 25.9477 27 26.5C27 27.0523 27.4477 27.5 28 27.5Z" fill="#001F86"/>
<path d="M28 31.5C28.5523 31.5 29 31.0523 29 30.5C29 29.9477 28.5523 29.5 28 29.5C27.4477 29.5 27 29.9477 27 30.5C27 31.0523 27.4477 31.5 28 31.5Z" fill="#001F86"/>
<path d="M24 27.5C24.5523 27.5 25 27.0523 25 26.5C25 25.9477 24.5523 25.5 24 25.5C23.4477 25.5 23 25.9477 23 26.5C23 27.0523 23.4477 27.5 24 27.5Z" fill="#001F86"/>
<path d="M24 31.5C24.5523 31.5 25 31.0523 25 30.5C25 29.9477 24.5523 29.5 24 29.5C23.4477 29.5 23 29.9477 23 30.5C23 31.0523 23.4477 31.5 24 31.5Z" fill="#001F86"/>
<path d="M20 27.5C20.5523 27.5 21 27.0523 21 26.5C21 25.9477 20.5523 25.5 20 25.5C19.4477 25.5 19 25.9477 19 26.5C19 27.0523 19.4477 27.5 20 27.5Z" fill="#001F86"/>
<path d="M20 31.5C20.5523 31.5 21 31.0523 21 30.5C21 29.9477 20.5523 29.5 20 29.5C19.4477 29.5 19 29.9477 19 30.5C19 31.0523 19.4477 31.5 20 31.5Z" fill="#001F86"/>
<path d="M16 27.5C16.5523 27.5 17 27.0523 17 26.5C17 25.9477 16.5523 25.5 16 25.5C15.4477 25.5 15 25.9477 15 26.5C15 27.0523 15.4477 27.5 16 27.5Z" fill="#001F86"/>
<path d="M16 31.5C16.5523 31.5 17 31.0523 17 30.5C17 29.9477 16.5523 29.5 16 29.5C15.4477 29.5 15 29.9477 15 30.5C15 31.0523 15.4477 31.5 16 31.5Z" fill="#001F86"/>
<path d="M12 27.5C12.5523 27.5 13 27.0523 13 26.5C13 25.9477 12.5523 25.5 12 25.5C11.4477 25.5 11 25.9477 11 26.5C11 27.0523 11.4477 27.5 12 27.5Z" fill="#001F86"/>
<path d="M12 31.5C12.5523 31.5 13 31.0523 13 30.5C13 29.9477 12.5523 29.5 12 29.5C11.4477 29.5 11 29.9477 11 30.5C11 31.0523 11.4477 31.5 12 31.5Z" fill="#001F86"/>
</g>
<defs>
<clipPath id="clip0_1147_32258">
<rect width="60" height="60" fill="white"/>
</clipPath>
</defs>
</svg>
