<svg width="315" height="30" viewBox="0 0 315 30" fill="none" xmlns="http://www.w3.org/2000/svg">
<rect x="0.5" y="0.5" width="42.75" height="29" rx="3.5" fill="white" stroke="#D9D9D9"/>
<path fill-rule="evenodd" clip-rule="evenodd" d="M13.2816 20.3228H10.6312L8.64369 12.7405C8.54936 12.3917 8.34906 12.0833 8.05443 11.938C7.31914 11.5728 6.5089 11.2821 5.625 11.1355V10.8436H9.89459C10.4839 10.8436 10.9258 11.2821 10.9995 11.7914L12.0307 17.2608L14.6798 10.8436H17.2565L13.2816 20.3228ZM18.7297 20.3228H16.2266L18.2878 10.8436H20.7908L18.7297 20.3228ZM24.0292 13.4696C24.1029 12.9591 24.5448 12.6672 25.0604 12.6672C25.8707 12.5939 26.7533 12.7405 27.4899 13.1044L27.9318 11.0635C27.1952 10.7716 26.385 10.625 25.6497 10.625C23.2203 10.625 21.4525 11.938 21.4525 13.7603C21.4525 15.1466 22.7047 15.8745 23.5886 16.313C24.5448 16.7503 24.9131 17.0422 24.8395 17.4794C24.8395 18.1353 24.1029 18.4272 23.3676 18.4272C22.4837 18.4272 21.5998 18.2086 20.7908 17.8434L20.3489 19.8856C21.2328 20.2495 22.189 20.3961 23.0729 20.3961C25.797 20.4681 27.4899 19.1564 27.4899 17.1875C27.4899 14.7081 24.0292 14.5628 24.0292 13.4696ZM36.25 20.3228L34.2625 10.8436H32.1277C31.6858 10.8436 31.2438 11.1355 31.0965 11.5728L27.4162 20.3228H29.9929L30.5072 18.9378H33.6733L33.9679 20.3228H36.25ZM32.496 13.3964L33.2313 16.9689H31.1702L32.496 13.3964Z" fill="#868686"/>
<rect x="68.25" y="0.5" width="42.75" height="29" rx="3.5" fill="white" stroke="#D9D9D9"/>
<path d="M92.9344 14.8787C92.9344 19.6442 89.1155 23.5075 84.4047 23.5075C79.6939 23.5075 75.875 19.6442 75.875 14.8787C75.875 10.1132 79.6939 6.25 84.4047 6.25C89.1155 6.25 92.9344 10.1132 92.9344 14.8787Z" fill="#6B6B6B"/>
<path fill-rule="evenodd" clip-rule="evenodd" d="M89.9375 21.4462C91.7715 19.8635 92.9344 17.5085 92.9344 14.8787C92.9344 12.249 91.7715 9.89396 89.9375 8.31129C91.427 7.02594 93.3591 6.25 95.4703 6.25C100.181 6.25 104 10.1132 104 14.8787C104 19.6442 100.181 23.5075 95.4703 23.5075C93.3591 23.5075 91.427 22.7315 89.9375 21.4462Z" fill="#868686"/>
<path fill-rule="evenodd" clip-rule="evenodd" d="M89.9376 8.31128C91.7715 9.89395 92.9344 12.2489 92.9344 14.8787C92.9344 17.5084 91.7715 19.8634 89.9376 21.4461C88.1036 19.8634 86.9407 17.5084 86.9407 14.8787C86.9407 12.2489 88.1036 9.89395 89.9376 8.31128Z" fill="#A2A2A2"/>
<rect x="203.5" y="0.5" width="42.75" height="29" rx="3.5" fill="white" stroke="#D9D9D9"/>
<path fill-rule="evenodd" clip-rule="evenodd" d="M216.301 18.1163C215.439 18.2834 214.326 17.9931 213.724 17.3466C213.451 17.0563 213.891 16.612 214.164 16.9067C214.568 17.3422 215.294 17.5489 215.883 17.5357C216.636 17.5181 217.304 16.8364 216.877 16.071C216.284 15.011 214.828 15.3101 214.076 14.4744C213.469 13.8015 213.759 12.7459 214.467 12.2796C215.21 11.7914 216.49 11.809 217.102 12.5083C217.366 12.8074 216.926 13.2517 216.662 12.9482C216.169 12.3808 215.004 12.46 214.56 13.0405C213.926 13.8718 214.872 14.3205 215.536 14.5184C216.446 14.7955 217.454 15.2969 217.621 16.3393C217.757 17.1794 217.106 17.9579 216.301 18.1163ZM210.544 10.2432H220.81C221.496 10.2432 222.05 10.8018 222.05 11.4835V18.6705C222.05 19.3566 221.491 19.9108 220.81 19.9108H210.245C209.559 19.9108 209.004 19.3566 209 18.6705V9.79454C209 9.47346 209.268 9.24914 209.585 9.20956L219.05 8C219.376 8 219.635 8.2639 219.635 8.58499V9.58782H209.95C209.95 10.0145 210.078 10.2432 210.544 10.2432Z" fill="#868686"/>
<path fill-rule="evenodd" clip-rule="evenodd" d="M226.268 8.56286C225.859 8.11423 225.006 8.10103 224.509 8.41331C224.034 8.7124 223.84 9.39415 224.245 9.82518C224.746 10.3574 225.718 10.1683 226.114 10.85C226.4 11.3426 225.952 11.7824 225.45 11.7912C225.054 11.8 224.57 11.6681 224.302 11.3866C224.122 11.1975 223.827 11.479 224.007 11.6681C224.408 12.0859 225.151 12.2707 225.727 12.1607C226.264 12.0595 226.699 11.5581 226.611 11.0215C226.501 10.353 225.828 10.0275 225.221 9.85157C224.782 9.72402 224.148 9.43373 224.57 8.90153C224.87 8.52767 225.644 8.47929 225.974 8.83995C226.149 9.03788 226.444 8.75638 226.268 8.56286ZM229.189 10.5949V11.998C229.189 12.2619 228.771 12.2619 228.771 11.998V10.6257C228.758 10.4585 228.661 10.309 228.516 10.2254C228.221 10.0979 227.68 10.1551 227.363 10.5597V11.998C227.363 12.2619 226.946 12.2619 226.946 11.998V8.40012C226.946 8.13622 227.363 8.13622 227.363 8.40012V10.0187C227.874 9.68004 228.52 9.71522 228.828 9.92635C229.061 10.0627 229.198 10.3222 229.189 10.5949ZM236.156 10.7796C236.16 10.762 236.165 10.7488 236.169 10.7356C236.27 10.4058 236.609 10.2166 236.952 10.2078C237.348 10.199 237.568 10.4629 237.638 10.7796H236.156ZM238.073 10.9819C238.065 10.4322 237.774 9.93074 237.172 9.82079C236.653 9.72402 236.046 9.99232 235.826 10.4629C235.597 10.9512 235.694 11.6241 236.147 11.9672C236.635 12.3366 237.401 12.2223 237.902 11.9496C238.135 11.822 237.924 11.4746 237.691 11.6021C237.374 11.7737 236.956 11.8616 236.6 11.7429C236.332 11.6549 236.182 11.435 236.138 11.1843H237.867C237.981 11.1843 238.073 11.0963 238.073 10.9819ZM238.922 10.7796C238.927 10.7664 238.931 10.7488 238.936 10.7356C239.037 10.4058 239.375 10.2166 239.718 10.2078C240.114 10.199 240.334 10.4629 240.405 10.7796H238.922ZM240.844 10.9776C240.836 10.4278 240.545 9.92635 239.943 9.81639C239.424 9.71962 238.817 9.98792 238.597 10.4585C238.368 10.9468 238.465 11.6197 238.918 11.9628C239.406 12.3322 240.171 12.2179 240.673 11.9452C240.906 11.8176 240.695 11.4702 240.462 11.5977C240.145 11.7737 239.727 11.8572 239.371 11.7385C239.103 11.6505 238.953 11.4306 238.909 11.1799H240.638C240.748 11.1799 240.84 11.0919 240.844 10.9776ZM230.913 10.2386C230.477 10.2386 230.121 10.5817 230.121 11.0039C230.121 11.4262 230.473 11.7693 230.913 11.7693C231.353 11.7693 231.7 11.4262 231.7 11.0039C231.7 10.5817 231.344 10.2386 230.913 10.2386ZM230.913 12.2003C230.231 12.2003 229.677 11.6637 229.677 10.9995C229.677 10.3354 230.231 9.79879 230.913 9.79879C231.595 9.79879 232.149 10.3354 232.149 10.9995C232.149 11.6637 231.595 12.2003 230.913 12.2003ZM233.979 11.7693C233.543 11.7693 233.191 11.4262 233.191 11.0039C233.196 10.6213 233.477 10.3046 233.855 10.2474H233.864C233.904 10.243 233.943 10.2386 233.983 10.2386C234.291 10.2386 234.572 10.4146 234.704 10.6961C234.704 10.6961 234.704 10.6961 234.704 10.7005C234.748 10.7972 234.77 10.8984 234.77 11.0039C234.766 11.4262 234.414 11.7693 233.979 11.7693ZM233.979 9.80319C233.627 9.80319 233.292 9.94834 233.055 10.2034V9.91755C233.055 9.65805 232.637 9.65805 232.637 9.91755V13.3087C232.637 13.5682 233.055 13.5682 233.055 13.3087V11.8C233.292 12.0595 233.627 12.2047 233.979 12.2003C234.66 12.2003 235.215 11.6637 235.215 10.9995C235.215 10.3354 234.66 9.80319 233.979 9.80319Z" fill="#868686"/>
<path fill-rule="evenodd" clip-rule="evenodd" d="M231.889 15.9918C232.68 15.9918 233.327 16.634 233.327 17.4301C233.327 18.2262 232.685 18.8684 231.889 18.8684C231.092 18.8684 230.45 18.2262 230.45 17.4301C230.45 16.634 231.097 15.9918 231.889 15.9918ZM233.498 14.989H234.47V19.8668H233.498V19.317C232.456 20.2055 230.886 20.0779 229.997 19.0355C229.109 17.9931 229.236 16.4229 230.279 15.5344C231.207 14.7471 232.566 14.7471 233.494 15.5344V14.989H233.498ZM225.053 16.7791V14.1445H226.549C227.389 14.1445 228.071 14.7339 228.071 15.464C228.071 16.1942 227.389 16.7835 226.549 16.7835L225.053 16.7791ZM223.949 19.9108H225.053V17.8875H226.549C228.097 17.8875 229.351 16.8011 229.351 15.464C229.351 14.1269 228.093 13.0405 226.549 13.0405H223.945L223.949 19.9108ZM237.109 22H235.79L237.202 19.3302L234.879 14.945H236.313L237.919 17.9755L239.524 14.945H240.844L237.109 22Z" fill="#868686"/>
<rect x="135.5" y="0.5" width="42.75" height="29" rx="3.5" fill="white" stroke="#D9D9D9"/>
<path d="M162.898 15.3591C163.54 15.373 164.186 15.3307 164.825 15.3811C165.473 15.5019 165.629 16.4824 165.054 16.8035C164.661 17.015 164.195 16.8823 163.769 16.9196H162.898V15.3591ZM165.196 13.5928C165.339 14.0964 164.854 14.5485 164.369 14.4791H162.898C162.908 14.0043 162.878 13.4889 162.913 13.039C163.502 13.0556 164.097 13.0052 164.683 13.0654C164.934 13.1286 165.145 13.3356 165.196 13.5928ZM168.736 6.12552C168.764 7.08715 168.74 8.0996 168.748 9.08074C168.746 13.0697 168.752 17.0585 168.745 21.0476C168.719 22.5426 167.394 23.8416 165.91 23.8714C164.424 23.8775 162.938 23.8724 161.451 23.874V17.8436C163.071 17.8352 164.691 17.8605 166.309 17.8309C167.06 17.7838 167.883 17.2883 167.918 16.462C168.006 15.6321 167.224 15.058 166.481 14.9674C166.195 14.96 166.204 14.8841 166.481 14.851C167.189 14.6979 167.746 13.9646 167.537 13.2302C167.36 12.4577 166.506 12.1588 165.796 12.1602C164.348 12.1504 162.9 12.1589 161.452 12.156C161.461 11.0302 161.432 9.90318 161.467 8.7782C161.582 7.31024 162.94 6.09964 164.404 6.12591C165.848 6.12569 167.292 6.12569 168.736 6.12563V6.12552Z" fill="#868686"/>
<path d="M145.088 8.93051C145.125 7.43793 146.456 6.14959 147.939 6.12777C149.419 6.12321 150.9 6.12712 152.38 6.1258C152.376 11.1197 152.388 16.1141 152.374 21.1076C152.317 22.5821 151.001 23.8459 149.535 23.872C148.051 23.8774 146.568 23.8727 145.084 23.8742V17.6405C146.525 17.9809 148.036 18.1258 149.506 17.9C150.385 17.7586 151.346 17.3271 151.644 16.4156C151.863 15.6358 151.739 14.8152 151.772 14.0149V12.1563H149.228C149.217 13.3855 149.251 14.6169 149.21 15.8446C149.141 16.5992 148.394 17.0787 147.682 17.0531C146.799 17.0624 145.05 16.4134 145.05 16.4134C145.046 14.1104 145.076 11.2261 145.088 8.93073V8.93051Z" fill="#868686"/>
<path d="M153.329 12.9057C153.195 12.9341 153.302 12.4496 153.268 12.2658C153.277 11.1037 153.249 9.9403 153.283 8.779C153.398 7.30483 154.767 6.09121 156.236 6.12572H160.564C160.56 11.1196 160.572 16.114 160.558 21.1076C160.501 22.582 159.185 23.8457 157.718 23.8719C156.235 23.8775 154.751 23.8728 153.268 23.8742V17.0443C154.281 17.8756 155.658 18.005 156.92 18.0072C157.872 18.0069 158.818 17.8602 159.742 17.6407V16.3895C158.701 16.9085 157.476 17.2382 156.322 16.94C155.517 16.7396 154.932 15.9613 154.945 15.1302C154.852 14.2659 155.358 13.3535 156.208 13.0966C157.262 12.7664 158.411 13.0189 159.4 13.4481C159.612 13.559 159.827 13.6965 159.742 13.3426V12.3591C158.089 11.9658 156.329 11.821 154.669 12.2489C154.188 12.3845 153.72 12.5902 153.329 12.9058V12.9057Z" fill="#868686"/>
<rect x="271" y="0.5" width="42.75" height="29" rx="5.5" fill="white" stroke="#D9D9D9"/>
<path d="M283.772 5H300.297C301.828 5 303.069 6.24126 303.069 7.77238V22.2276C303.069 23.7588 301.828 25 300.297 25H283.772C282.241 25 281 23.7587 281 22.2276V7.77247C281 6.24126 282.241 5 283.772 5Z" fill="#868686"/>
<path d="M297.322 6.6254C295.149 6.6254 293.388 8.31734 293.388 10.4024C293.388 12.4874 295.154 14.1793 297.322 14.1793C299.49 14.1793 301.26 12.4874 301.26 10.4024C301.26 8.31734 299.499 6.6254 297.322 6.6254ZM297.322 12.0139C296.416 12.0306 295.668 11.3104 295.651 10.4047C295.699 9.48168 296.487 8.77267 297.409 8.82111C298.265 8.86597 298.948 9.54938 298.993 10.4047C298.975 11.3104 298.227 12.0306 297.322 12.0139ZM292.264 9.46216V14.1955H289.993V9.43915C289.993 9.07094 289.694 8.77267 289.326 8.77285C288.958 8.77303 288.66 9.07121 288.66 9.43915V14.1955H286.398V9.43915C286.397 9.07094 286.099 8.77267 285.73 8.77285C285.363 8.77303 285.064 9.07121 285.064 9.43915V14.1955H282.809V9.46216C282.844 7.86433 284.165 6.59585 285.763 6.6254C286.399 6.62406 287.018 6.82365 287.533 7.19553C288.048 6.82455 288.667 6.62504 289.301 6.6254C290.902 6.592 292.228 7.8612 292.264 9.46216ZM297.322 15.8047C295.149 15.8047 293.388 17.4944 293.388 19.5816C293.388 21.6689 295.154 23.3655 297.322 23.3655C299.49 23.3655 301.255 21.6758 301.255 19.5908C301.255 17.5057 299.499 15.8047 297.322 15.8047ZM297.322 21.1933C296.434 21.159 295.742 20.4113 295.776 19.5232C295.81 18.6351 296.558 17.943 297.446 17.9773C298.309 18.0106 298.993 18.72 298.993 19.5841C298.981 20.4905 298.236 21.2151 297.329 21.2026C297.327 21.2026 297.324 21.2025 297.322 21.2025V21.1933H297.322ZM292.264 18.6506V23.3748H289.993V18.6254C289.993 18.2572 289.694 17.9589 289.326 17.9591C288.958 17.9593 288.66 18.2575 288.66 18.6254V23.3748H286.398V18.6254C286.397 18.2572 286.099 17.9589 285.73 17.9591C285.363 17.9593 285.064 18.2575 285.064 18.6254V23.3748H282.809V18.6506C282.838 17.05 284.159 15.7757 285.76 15.8046C285.761 15.8046 285.762 15.8046 285.763 15.8047C286.398 15.8036 287.017 16.0023 287.533 16.3725C288.048 16.0018 288.667 15.8031 289.301 15.8047C290.903 15.7701 292.23 17.0406 292.264 18.6426C292.264 18.6453 292.264 18.648 292.264 18.6506Z" fill="white"/>
</svg>
