<svg width="45" height="28" viewBox="0 0 45 28" fill="none" xmlns="http://www.w3.org/2000/svg">
<path d="M32.4432 13.4755L33.7874 1.76904H30.2491L25.3689 22.2183L42.725 21.2279L44.1475 15.921L32.4432 13.4755Z" fill="#F5C2FF"/>
<path d="M29.9943 15.9214H26.456L24.5601 22.9979H40.4817C41.4591 22.9979 42.4625 22.2056 42.7248 21.2293H30.3414C29.3641 21.2293 28.7851 20.437 29.0463 19.4607L29.9943 15.9214Z" fill="#EF9FFF"/>
<path d="M43.9003 13.6376L40.9095 11.499L37.504 9.28092L40.8801 5.30731L40.8692 3.0729C40.8659 2.30343 40.3098 1.76904 39.512 1.76904H33.7872L29.9954 15.921H44.1474L44.3531 15.1537C44.5185 14.5334 44.3465 13.9565 43.9003 13.6376Z" fill="#F7CFFF"/>
<path d="M32.2544 0.884837C32.385 0.396163 32.0955 0 31.6069 0H23.9481H6.84012C6.35145 0 5.84972 0.396163 5.71911 0.884837L0.0313368 22.1133C-0.0992665 22.602 0.190237 22.9982 0.678911 22.9982H26.3294L26.8039 21.2296H26.8018H26.8039L32.2544 0.884837Z" fill="#153388"/>
<path d="M38.1404 25.3199C39.8221 23.848 40.2721 21.6113 39.1454 20.324C38.0188 19.0367 35.7421 19.1863 34.0604 20.6582C32.3787 22.1301 31.9287 24.3668 33.0554 25.6541C34.182 26.9414 36.4587 26.7918 38.1404 25.3199Z" fill="#153388"/>
<path d="M37.1201 24.1541C37.961 23.4182 38.186 22.2998 37.6226 21.6561C37.0593 21.0125 35.921 21.0873 35.0801 21.8232C34.2393 22.5592 34.0143 23.6775 34.5776 24.3212C35.141 24.9648 36.2793 24.89 37.1201 24.1541Z" fill="white"/>
<path d="M10.7101 25.335C12.3918 23.8632 12.8418 21.6264 11.7151 20.3391C10.5884 19.0518 8.31181 19.2015 6.6301 20.6733C4.94838 22.1452 4.49842 24.3819 5.62508 25.6692C6.75174 26.9565 9.02838 26.8069 10.7101 25.335Z" fill="#153388"/>
<path d="M9.68983 24.1697C10.5307 23.4338 10.7557 22.3154 10.1923 21.6718C9.62901 21.0281 8.49069 21.1029 7.64983 21.8389C6.80897 22.5748 6.58399 23.6932 7.14732 24.3368C7.71065 24.9805 8.84897 24.9056 9.68983 24.1697Z" fill="white"/>
<path d="M40.8789 5.30664H36.3763L34.8102 7.07523L35.4218 10.9259L40.9094 9.72865L40.8789 5.30664Z" fill="white"/>
<path d="M36.961 9.72963C35.9837 9.72963 35.4047 8.9373 35.6659 7.96104L36.3766 5.30762C35.3992 5.30762 34.3958 6.09994 34.1335 7.07621L33.4228 9.72963C33.1616 10.707 33.7406 11.4982 34.7179 11.4982H40.9096L40.9009 9.72963H36.961Z" fill="white"/>
<path d="M6.87975 6.80029H11.5412L11.0514 8.41433H8.14769L7.75914 9.69425H10.1372L9.64963 11.2996H7.27156L6.57827 13.583H4.82166L6.87975 6.80029Z" fill="white"/>
<path d="M13.6668 13.582L13.016 11.5087H12.5959L11.9668 13.582H10.2091L12.2672 6.79932H14.9805C16.6903 6.79932 17.1474 7.81149 16.724 9.20677C16.4226 10.2004 15.787 10.8785 14.9565 11.2224L14.9533 11.2322L15.7782 13.582H13.6668ZM13.0715 9.94359H13.6255C14.199 9.94359 14.6997 9.67586 14.8542 9.16977C14.9816 8.74966 14.7541 8.39594 14.0956 8.39594H13.5417L13.0715 9.94359Z" fill="white"/>
<path d="M18.3808 6.80029H22.8899L22.4002 8.41433H19.6488L19.3386 9.43631H21.4881L21.0092 11.0123H18.8597L18.5702 11.9678H21.5219L21.0321 13.5819H16.3228L18.3808 6.80029Z" fill="white"/>
<path d="M23.8633 6.80029H28.3724L27.8826 8.41433H25.1312L24.821 9.43631H26.9705L26.4917 11.0123H24.3421L24.0526 11.9678H27.0043L26.5145 13.5819H21.8052L23.8633 6.80029Z" fill="white"/>
</svg>
