<svg width="23" height="28" viewBox="0 0 23 28" fill="none" xmlns="http://www.w3.org/2000/svg">
<rect x="3.81824" y="6.36377" width="15.2727" height="14" fill="#F7CFFF"/>
<path d="M0.996545 2.324L11.4545 0L21.9125 2.324C22.1952 2.38683 22.4479 2.54414 22.6291 2.76997C22.8103 2.9958 22.909 3.27666 22.9091 3.56618V16.2769C22.909 17.534 22.5986 18.7717 22.0053 19.88C21.4121 20.9883 20.5544 21.9331 19.5084 22.6304L11.4545 28L3.40073 22.6304C2.35489 21.9332 1.49731 20.9887 0.904079 19.8806C0.310845 18.7725 0.000300817 17.5351 0 16.2782V3.56618C4.96845e-05 3.27666 0.0988119 2.9958 0.279987 2.76997C0.461161 2.54414 0.71392 2.38683 0.996545 2.324ZM10.1818 11.4545H6.36364V14H10.1818V17.8182H12.7273V14H16.5455V11.4545H12.7273V7.63636H10.1818V11.4545Z" fill="#153388"/>
</svg>
