<svg width="31" height="28" viewBox="0 0 31 28" fill="none" xmlns="http://www.w3.org/2000/svg">
<path d="M9.79208 3.26074C8.82839 5.35268 8.52899 7.68973 8.9342 9.95704C9.33942 12.2244 10.4298 14.313 12.0584 15.9417C13.6871 17.5703 15.7757 18.6607 18.043 19.0659C20.3104 19.4711 22.6474 19.1717 24.7393 18.208C23.495 23.8113 18.4963 28.0001 12.5186 28.0001C5.6046 28.0001 0 22.3955 0 15.4814C0 9.50379 4.18874 4.5051 9.79208 3.26074Z" fill="#153388"/>
<path d="M20.6561 3.12966L19.6095 2.86802C19.1694 2.75794 18.7674 2.53033 18.4466 2.2095C18.1258 1.88868 17.8981 1.48671 17.7881 1.04656L17.5264 0H16.2746L16.0117 1.04656C15.9017 1.48656 15.6743 1.88842 15.3537 2.20923C15.0331 2.53004 14.6314 2.75774 14.1915 2.86802L13.1449 3.12966V4.38153L14.1915 4.64316C14.6316 4.75324 15.0336 4.98086 15.3544 5.30168C15.6752 5.6225 15.9028 6.02447 16.0129 6.46463L16.2746 7.51119H17.5264L17.7881 6.46463C17.8981 6.02447 18.1258 5.6225 18.4466 5.30168C18.7674 4.98086 19.1694 4.75324 19.6095 4.64316L20.6561 4.38153V3.12966Z" fill="#F7CFFF"/>
<path d="M30.4621 11.0998L29.4155 10.8382C28.9753 10.7281 28.5734 10.5005 28.2526 10.1797C27.9317 9.85885 27.7041 9.45688 27.594 9.01673L27.3324 7.97017H26.0805L25.8189 9.01673C25.7088 9.45688 25.4812 9.85885 25.1604 10.1797C24.8395 10.5005 24.4376 10.7281 23.9974 10.8382L22.9509 11.0998V12.3517L23.9974 12.6133C24.4376 12.7234 24.8395 12.951 25.1604 13.2719C25.4812 13.5927 25.7088 13.9946 25.8189 14.4348L26.0805 15.4814H27.3324L27.594 14.4348C27.7041 13.9946 27.9317 13.5927 28.2526 13.2719C28.5734 12.951 28.9753 12.7234 29.4155 12.6133L30.4621 12.3517V11.0998Z" fill="#F7CFFF"/>
</svg>
