<svg width="20" height="18" viewBox="0 0 20 18" fill="none" xmlns="http://www.w3.org/2000/svg">
<path fill-rule="evenodd" clip-rule="evenodd" d="M4.06538 0.570733C4.10764 0.562722 4.15092 0.558594 4.1947 0.558594H19.049C19.4325 0.558594 19.7435 0.869526 19.7435 1.25308V12.0562C19.7435 12.4398 19.4325 12.7507 19.049 12.7507H9.60011C8.75535 12.7422 7.93573 12.4621 7.26245 11.9518C6.58917 11.4416 6.09796 10.7282 5.86146 9.91715L5.85856 9.90722L3.66567 1.94757H0.694487C0.310932 1.94757 0 1.63664 0 1.25308C0 0.869527 0.310932 0.558595 0.694487 0.558595H3.93542C3.97984 0.558595 4.02328 0.562764 4.06538 0.570733ZM5.1064 1.94757L7.19626 9.53298C7.34981 10.0558 7.66706 10.5157 8.10142 10.8449C8.53621 11.1744 9.06532 11.3556 9.61079 11.3617H18.3545V1.94757H5.1064Z" fill="#051C5C"/>
<path d="M7.28233 17.4686C7.62256 17.8088 8.084 17.9999 8.56515 17.9999C9.04629 17.9999 9.50773 17.8088 9.84796 17.4686C10.1882 17.1283 10.3793 16.6669 10.3793 16.1858C10.3793 15.7046 10.1882 15.2432 9.84796 14.9029C9.50773 14.5627 9.04629 14.3716 8.56515 14.3716C8.084 14.3716 7.62256 14.5627 7.28233 14.9029C6.94211 15.2432 6.75098 15.7046 6.75098 16.1858C6.75098 16.6669 6.94211 17.1283 7.28233 17.4686Z" fill="#051C5C"/>
<path d="M16.5421 17.4686C16.8824 17.8088 17.3438 17.9999 17.825 17.9999C18.3061 17.9999 18.7675 17.8088 19.1078 17.4686C19.448 17.1283 19.6391 16.6669 19.6391 16.1858C19.6391 15.7046 19.448 15.2432 19.1078 14.9029C18.7675 14.5627 18.3061 14.3716 17.825 14.3716C17.3438 14.3716 16.8824 14.5627 16.5421 14.9029C16.2019 15.2432 16.0108 15.7046 16.0108 16.1858C16.0108 16.6669 16.2019 17.1283 16.5421 17.4686Z" fill="#051C5C"/>
</svg>
