<svg width="22" height="22" viewBox="0 0 22 22" fill="none" xmlns="http://www.w3.org/2000/svg">
<circle cx="11" cy="11" r="11" fill="#153388"/>
<path d="M4.23622 13.063V13.0512L7.09846 8.96062V8.20866H3.12598V9.08271H5.81893V9.09843L3 13.1733V13.937H7.11022V13.063H4.23622ZM10.8819 10.004V10.4764H10.8662C10.567 10.122 10.1615 9.94491 9.6496 9.94491C9.3819 9.94491 9.12993 9.99604 8.89765 10.0984C8.66141 10.2008 8.46064 10.3426 8.29528 10.5197C8.12602 10.7008 7.99211 10.9173 7.89764 11.1693C7.7992 11.4252 7.75197 11.6969 7.75197 11.9882C7.75197 12.2284 7.77952 12.4528 7.84254 12.6654C7.9055 12.878 7.99211 13.063 8.10634 13.2244C8.2205 13.3859 8.35434 13.5236 8.51184 13.6417C8.66927 13.7599 8.84256 13.8504 9.03936 13.9095C9.23623 13.9725 9.44097 14 9.65752 14C10.1929 14 10.6102 13.8032 10.9094 13.4095H10.9213V13.937H11.7835V10.004H10.8819ZM9.79923 13.1811C9.46455 13.1811 9.19289 13.0709 8.98426 12.8504C8.77167 12.63 8.66927 12.3425 8.66927 11.9921C8.66927 11.811 8.69688 11.6418 8.75595 11.4843C8.81494 11.3268 8.89765 11.1968 8.99999 11.0945C9.10239 10.9922 9.22051 10.9094 9.35825 10.8504C9.49606 10.7953 9.6457 10.7638 9.80313 10.7638C10.1221 10.7638 10.3858 10.8819 10.5984 11.1181C10.811 11.3543 10.9174 11.6457 10.9174 11.9921C10.9174 12.3425 10.8071 12.63 10.5905 12.8504C10.3741 13.0709 10.1103 13.1811 9.79923 13.1811ZM12.9804 13.937H13.8819V8H12.9804V13.937ZM16.9528 14C17.3465 14 17.7008 13.9174 18.0158 13.748C18.3308 13.5788 18.5748 13.3386 18.752 13.0315C18.9252 12.7244 19.0158 12.3701 19.0158 11.9764C19.0158 11.5827 18.9252 11.2283 18.752 10.9173C18.5748 10.6102 18.3308 10.3701 18.0197 10.2008C17.7047 10.0315 17.3504 9.94491 16.9528 9.94491C16.5433 9.94491 16.1811 10.0354 15.8662 10.2126C15.5512 10.3898 15.3071 10.6299 15.1378 10.937C14.9685 11.2441 14.8858 11.5906 14.8858 11.9764C14.8858 12.2638 14.9331 12.5315 15.0355 12.7795C15.1339 13.0315 15.2717 13.2441 15.4488 13.4252C15.626 13.6063 15.8465 13.7441 16.1063 13.8465C16.3661 13.9488 16.6457 14 16.9528 14ZM16.9528 13.1811C16.6181 13.1811 16.3426 13.0669 16.126 12.8346C15.9094 12.6063 15.8031 12.3189 15.8031 11.9764C15.8031 11.6299 15.9094 11.3425 16.122 11.1102C16.3346 10.8819 16.6103 10.7638 16.9528 10.7638C17.2796 10.7638 17.5512 10.8779 17.7717 11.1024C17.9882 11.3307 18.0984 11.6221 18.0984 11.9764C18.0984 12.3268 17.9882 12.6142 17.7678 12.8426C17.5472 13.0709 17.2756 13.1811 16.9528 13.1811Z" fill="white"/>
</svg>
