<svg width="15" height="14" viewBox="0 0 15 14" fill="none" xmlns="http://www.w3.org/2000/svg">
<path d="M0.171537 4.01417L6.6991 0.100599C6.80881 0.0347723 6.93435 0 7.06229 0C7.19024 0 7.31577 0.0347723 7.42548 0.100599L13.9467 4.01488C13.999 4.04623 14.0423 4.09061 14.0724 4.14368C14.1025 4.19676 14.1182 4.25672 14.1182 4.31772V13.2941C14.1182 13.4813 14.0439 13.6609 13.9115 13.7932C13.7791 13.9256 13.5995 14 13.4123 14H0.705912C0.518692 14 0.339141 13.9256 0.206757 13.7932C0.0743726 13.6609 7.77015e-09 13.4813 7.77015e-09 13.2941V4.31701C-1.27897e-05 4.25601 0.0157826 4.19605 0.0458458 4.14298C0.0759089 4.0899 0.119214 4.04553 0.171537 4.01417ZM11.5388 4.99539L7.10218 8.83484L2.57446 4.99115L1.66101 6.06696L7.11065 10.6942L12.4622 6.06344L11.5388 4.99539Z" fill="#515158"/>
</svg>
