<svg width="26" height="26" viewBox="0 0 26 26" fill="none" xmlns="http://www.w3.org/2000/svg">
<path d="M17.914 26V15.938H21.2839L21.788 12.0264H17.914V9.53044C17.914 8.398 18.2289 7.62522 19.8524 7.62522H21.9238V4.12678C20.921 4.02039 19.9132 3.96879 18.9049 3.97222C15.9192 3.97222 13.8753 5.79511 13.8753 9.14333V12.0264H10.4982V15.938H13.8753V26H1.44444C1.06135 26 0.693954 25.8478 0.423068 25.5769C0.152182 25.306 0 24.9386 0 24.5556V1.44444C0 1.06135 0.152182 0.693954 0.423068 0.423068C0.693954 0.152182 1.06135 0 1.44444 0H24.5556C24.9386 0 25.306 0.152182 25.5769 0.423068C25.8478 0.693954 26 1.06135 26 1.44444V24.5556C26 24.9386 25.8478 25.306 25.5769 25.5769C25.306 25.8478 24.9386 26 24.5556 26H17.914Z" fill="#153388"/>
</svg>
