<svg width="13" height="13" viewBox="0 0 13 13" fill="none" xmlns="http://www.w3.org/2000/svg">
<path d="M12.4629 9.34839C12.4626 10.2006 12.1713 11.0271 11.6372 11.6912C11.1031 12.3552 10.3583 12.817 9.52598 13L9.12842 11.8073C9.49248 11.7473 9.8387 11.6074 10.1421 11.3975C10.4456 11.1876 10.6987 10.9129 10.8832 10.5934H9.34714C9.0166 10.5934 8.69961 10.4621 8.46588 10.2284C8.23216 9.99467 8.10085 9.67767 8.10085 9.34714V6.85457C8.10085 6.52403 8.23216 6.20704 8.46588 5.97331C8.69961 5.73959 9.0166 5.60828 9.34714 5.60828H11.1779C11.0259 4.40368 10.4395 3.29597 9.52874 2.49299C8.61802 1.69001 7.44559 1.24696 6.23143 1.24696C5.01727 1.24696 3.84483 1.69001 2.93411 2.49299C2.02339 3.29597 1.43699 4.40368 1.28492 5.60828H3.11571C3.44625 5.60828 3.76325 5.73959 3.99697 5.97331C4.23069 6.20704 4.362 6.52403 4.362 6.85457V9.34714C4.362 9.67767 4.23069 9.99467 3.99697 10.2284C3.76325 10.4621 3.44625 10.5934 3.11571 10.5934H1.24629C0.91575 10.5934 0.598752 10.4621 0.365028 10.2284C0.131305 9.99467 0 9.67767 0 9.34714V6.23143C0 2.78981 2.78981 0 6.23143 0C9.67304 0 12.4629 2.78981 12.4629 6.23143V9.34839Z" fill="white"/>
</svg>
