<svg width="14" height="14" viewBox="0 0 14 14" fill="none" xmlns="http://www.w3.org/2000/svg">
<path d="M13.4215 10.0675C13.4212 10.9852 13.1075 11.8753 12.5324 12.5905C11.9572 13.3056 11.1551 13.8029 10.2587 14L9.8306 12.7156C10.2227 12.651 10.5955 12.5002 10.9223 12.2742C11.2491 12.0481 11.5217 11.7524 11.7204 11.4083H10.0661C9.71019 11.4083 9.36881 11.2669 9.1171 11.0152C8.8654 10.7635 8.724 10.4221 8.724 10.0661V7.38184C8.724 7.02588 8.8654 6.6845 9.1171 6.4328C9.36881 6.18109 9.71019 6.03969 10.0661 6.03969H12.0378C11.874 4.74243 11.2425 3.54951 10.2617 2.68476C9.28094 1.82001 8.01832 1.34288 6.71077 1.34288C5.40321 1.34288 4.14059 1.82001 3.15981 2.68476C2.17904 3.54951 1.54752 4.74243 1.38376 6.03969H3.35538C3.71134 6.03969 4.05273 6.18109 4.30443 6.4328C4.55613 6.6845 4.69754 7.02588 4.69754 7.38184V10.0661C4.69754 10.4221 4.55613 10.7635 4.30443 11.0152C4.05273 11.2669 3.71134 11.4083 3.35538 11.4083H1.34215C0.986192 11.4083 0.64481 11.2669 0.393108 11.0152C0.141405 10.7635 0 10.4221 0 10.0661V6.71077C0 3.00441 3.00441 0 6.71077 0C10.4171 0 13.4215 3.00441 13.4215 6.71077V10.0675Z" fill="#515158"/>
</svg>
