<svg width="44" height="30" viewBox="0 0 44 30" fill="none" xmlns="http://www.w3.org/2000/svg">
<rect x="0.5" y="0.5" width="42.75" height="29" rx="3.5" fill="white" stroke="#D9D9D9"/>
<path d="M27.8979 15.3592C28.54 15.3731 29.1857 15.3308 29.8252 15.3811C30.4729 15.502 30.629 16.4824 30.0536 16.8035C29.661 17.0151 29.1946 16.8823 28.769 16.9197H27.8979V15.3592ZM30.1965 13.5929C30.3391 14.0964 29.8537 14.5485 29.3688 14.4792H27.8979C27.9082 14.0043 27.8777 13.4889 27.9128 13.0391C28.502 13.0557 29.0967 13.0052 29.6826 13.0655C29.9343 13.1287 30.145 13.3356 30.1965 13.5929ZM33.7364 6.12559C33.7638 7.08722 33.7404 8.09967 33.7483 9.08081C33.7464 13.0697 33.7521 17.0586 33.7451 21.0477C33.7193 22.5427 32.3944 23.8417 30.9098 23.8715C29.4238 23.8775 27.9375 23.8724 26.4513 23.8741V17.8436C28.0706 17.8353 29.6908 17.8606 31.3094 17.831C32.0603 17.7839 32.8828 17.2884 32.9178 16.4621C33.0062 15.6321 32.2238 15.0581 31.4809 14.9674C31.1953 14.96 31.2037 14.8842 31.4809 14.8511C32.1894 14.698 32.7458 13.9647 32.5373 13.2302C32.3597 12.4578 31.5059 12.1588 30.7958 12.1603C29.3478 12.1505 27.8996 12.1589 26.4516 12.1561C26.4609 11.0303 26.4321 9.90325 26.4671 8.77827C26.5819 7.3103 27.9401 6.09971 29.4038 6.12598C30.8482 6.12576 32.2924 6.12576 33.7364 6.1257V6.12559Z" fill="#868686"/>
<path d="M10.0883 8.93053C10.1253 7.43795 11.4558 6.1496 12.9385 6.12779C14.4191 6.12323 15.8998 6.12713 17.3804 6.12581C17.3763 11.1197 17.3884 16.1141 17.3743 21.1077C17.3173 22.5821 16.0012 23.8459 14.5347 23.872C13.0513 23.8774 11.5678 23.8728 10.0844 23.8742V17.6405C11.5253 17.9809 13.0363 18.1258 14.5062 17.9C15.3849 17.7586 16.3462 17.3271 16.6437 16.4156C16.8626 15.6358 16.7394 14.8152 16.772 14.0149V12.1563H14.2281C14.2166 13.3855 14.2515 14.6169 14.2097 15.8446C14.1411 16.5993 13.3938 17.0787 12.682 17.0531C11.7994 17.0625 10.0502 16.4134 10.0502 16.4134C10.0458 14.1104 10.0758 11.2262 10.0883 8.93075V8.93053Z" fill="#868686"/>
<path d="M18.3293 12.9057C18.1954 12.9341 18.3024 12.4496 18.2682 12.2658C18.2773 11.1037 18.2491 9.9403 18.2837 8.779C18.3981 7.30483 19.7668 6.09121 21.2364 6.12572H25.5645C25.5604 11.1196 25.5724 16.114 25.5584 21.1076C25.5013 22.582 24.1852 23.8457 22.7186 23.8719C21.2352 23.8775 19.7516 23.8728 18.2681 23.8742V17.0443C19.2813 17.8756 20.6583 18.005 21.9205 18.0072C22.8721 18.0069 23.8181 17.8602 24.7422 17.6407V16.3895C23.7008 16.9085 22.4766 17.2382 21.3222 16.94C20.5169 16.7396 19.9323 15.9613 19.9453 15.1302C19.852 14.2659 20.3586 13.3535 21.2079 13.0966C22.2624 12.7664 23.4117 13.0189 24.4001 13.4481C24.6119 13.559 24.8268 13.6965 24.7421 13.3426V12.3591C23.089 11.9658 21.3297 11.821 19.6689 12.2489C19.1882 12.3845 18.7198 12.5902 18.3293 12.9058V12.9057Z" fill="#868686"/>
</svg>
