<svg width="45" height="30" viewBox="0 0 45 30" fill="none" xmlns="http://www.w3.org/2000/svg">
<rect x="1.25" y="0.5" width="42.75" height="29" rx="3.5" fill="white" stroke="#D9D9D9"/>
<path d="M25.9344 14.8787C25.9344 19.6442 22.1155 23.5075 17.4047 23.5075C12.6939 23.5075 8.875 19.6442 8.875 14.8787C8.875 10.1132 12.6939 6.25 17.4047 6.25C22.1155 6.25 25.9344 10.1132 25.9344 14.8787Z" fill="#6B6B6B"/>
<path fill-rule="evenodd" clip-rule="evenodd" d="M22.9375 21.4462C24.7715 19.8635 25.9344 17.5085 25.9344 14.8787C25.9344 12.249 24.7715 9.89396 22.9375 8.31129C24.427 7.02594 26.3591 6.25 28.4703 6.25C33.1811 6.25 37 10.1132 37 14.8787C37 19.6442 33.1811 23.5075 28.4703 23.5075C26.3591 23.5075 24.427 22.7315 22.9375 21.4462Z" fill="#868686"/>
<path fill-rule="evenodd" clip-rule="evenodd" d="M22.9373 8.31133C24.7713 9.89399 25.9342 12.249 25.9342 14.8787C25.9342 17.5085 24.7713 19.8635 22.9373 21.4461C21.1033 19.8635 19.9404 17.5085 19.9404 14.8787C19.9404 12.249 21.1033 9.89399 22.9373 8.31133Z" fill="#A2A2A2"/>
</svg>
