<svg width="45" height="30" viewBox="0 0 45 30" fill="none" xmlns="http://www.w3.org/2000/svg">
<rect x="1" y="0.5" width="42.75" height="29" rx="5.5" fill="white" stroke="#D9D9D9"/>
<path d="M13.7724 5H30.2965C31.8278 5 33.0689 6.24126 33.0689 7.77238V22.2276C33.0689 23.7588 31.8277 25 30.2965 25H13.7724C12.2412 25 11 23.7587 11 22.2276V7.77247C10.9999 6.24126 12.2412 5 13.7724 5Z" fill="#868686"/>
<path d="M27.3218 6.62532C25.1494 6.62532 23.3885 8.31725 23.3885 10.4023C23.3885 12.4873 25.154 14.1793 27.3218 14.1793C29.4896 14.1793 31.2598 12.4873 31.2598 10.4023C31.2598 8.31725 29.4988 6.62532 27.3218 6.62532ZM27.3218 12.0138C26.4162 12.0305 25.6681 11.3103 25.6505 10.4046C25.699 9.4816 26.4865 8.77259 27.4095 8.82103C28.2648 8.86589 28.9482 9.54929 28.9931 10.4046C28.9754 11.3103 28.2275 12.0305 27.3218 12.0138ZM22.2642 9.46208V14.1954H19.993V9.43906C19.9928 9.07086 19.6941 8.77259 19.3259 8.77276C18.958 8.77294 18.6598 9.07113 18.6596 9.43906V14.1954H16.3976V9.43906C16.3974 9.07086 16.0987 8.77259 15.7305 8.77276C15.3626 8.77294 15.0644 9.07113 15.0642 9.43906V14.1954H12.8091V9.46208C12.8443 7.86425 14.1651 6.59577 15.7632 6.62532C16.3986 6.62397 17.0181 6.82357 17.5333 7.19544C18.0481 6.82446 18.6665 6.62496 19.301 6.62532C20.9021 6.59192 22.2279 7.86112 22.2642 9.46208ZM27.3218 15.8046C25.1494 15.8046 23.3885 17.4943 23.3885 19.5816C23.3885 21.6688 25.154 23.3654 27.3218 23.3654C29.4896 23.3654 31.2551 21.6757 31.2551 19.5907C31.2551 17.5057 29.4988 15.8046 27.3218 15.8046ZM27.3218 21.1932C26.4337 21.1589 25.7416 20.4112 25.7759 19.5231C25.8102 18.635 26.5579 17.9429 27.446 17.9772C28.3095 18.0105 28.9925 18.7199 28.9931 19.584C28.9806 20.4904 28.2356 21.215 27.3292 21.2025C27.3268 21.2025 27.3243 21.2024 27.3219 21.2024V21.1932H27.3218ZM22.2642 18.6506V23.3747H19.993V18.6253C19.9928 18.2571 19.6941 17.9588 19.3259 17.959C18.958 17.9592 18.6598 18.2574 18.6596 18.6253V23.3747H16.3976V18.6253C16.3974 18.2571 16.0987 17.9588 15.7305 17.959C15.3626 17.9592 15.0644 18.2574 15.0642 18.6253V23.3747H12.8091V18.6506C12.838 17.0499 14.1591 15.7757 15.7598 15.8045C15.7609 15.8045 15.7621 15.8045 15.7632 15.8046C16.3981 15.8035 17.0174 16.0022 17.5333 16.3724C18.0481 16.0018 18.6667 15.8031 19.301 15.8046C20.9029 15.77 22.2295 17.0406 22.2641 18.6425C22.2642 18.6452 22.2642 18.6479 22.2642 18.6506Z" fill="white"/>
</svg>
