<svg width="22" height="22" viewBox="0 0 22 22" fill="none" xmlns="http://www.w3.org/2000/svg">
<circle cx="11" cy="11" r="11" fill="#153388"/>
<path d="M14.7059 13.0969L16.7137 15.1042C16.9331 15.3236 16.9331 15.6794 16.7137 15.8988V15.8988C16.4943 16.1182 16.1386 16.1182 15.9192 15.8987L13.9118 13.8909C13.0171 14.6082 11.9043 14.9983 10.7576 14.9966C7.9678 14.9966 5.70361 12.7325 5.70361 9.94266C5.70361 7.15286 7.9678 4.88867 10.7576 4.88867C13.5474 4.88867 15.8116 7.15286 15.8116 9.94266C15.8132 11.0894 15.4231 12.2022 14.7059 13.0969ZM13.5794 12.6802C14.2921 11.9473 14.6901 10.9649 14.6885 9.94266C14.6885 7.77057 12.9291 6.01178 10.7576 6.01178C8.58551 6.01178 6.82672 7.77057 6.82672 9.94266C6.82672 12.1142 8.58551 13.8735 10.7576 13.8735C11.7799 13.8751 12.7623 13.4771 13.4952 12.7645L13.5794 12.6802Z" fill="white"/>
</svg>
