<svg width="33" height="26" viewBox="0 0 33 26" fill="none" xmlns="http://www.w3.org/2000/svg">
<path d="M31.7574 4.05925C32.5 6.955 32.5 13 32.5 13C32.5 13 32.5 19.045 31.7574 21.9408C31.3446 23.5414 30.1372 24.8008 28.6081 25.2265C25.831 26 16.25 26 16.25 26C16.25 26 6.67387 26 3.89188 25.2265C2.35625 24.7943 1.1505 23.5365 0.742625 21.9408C4.84288e-08 19.045 0 13 0 13C0 13 4.84288e-08 6.955 0.742625 4.05925C1.15538 2.45863 2.36275 1.19925 3.89188 0.7735C6.67387 -2.90573e-07 16.25 0 16.25 0C16.25 0 25.831 -2.90573e-07 28.6081 0.7735C30.1437 1.20575 31.3495 2.4635 31.7574 4.05925ZM13 18.6875L22.75 13L13 7.3125V18.6875Z" fill="#153388"/>
</svg>
