<svg width="25" height="26" viewBox="0 0 25 26" fill="none" xmlns="http://www.w3.org/2000/svg">
<path d="M24.9904 20.6723C24.8603 19.0766 23.4657 18.1122 23.3425 18.029C22.8472 17.6936 22.3496 17.319 21.8681 16.9559C19.9372 15.5012 17.7484 13.8523 16.0069 15.6192C14.9502 16.6876 14.0395 16.4471 13.8022 16.3569C13.4872 16.091 12.1908 14.9763 10.8488 13.6303C9.14386 11.9189 8.97496 11.1534 9.95182 9.53457C11.5312 6.91664 10.8602 5.94532 8.63946 2.73072L8.54131 2.58965C7.38187 0.912968 6.4461 0.145165 5.40762 0.0179682C4.18427 -0.132355 3.07047 0.686327 2.14383 1.50963C-0.136255 3.52859 -0.638377 6.82182 0.833752 10.1035C1.86995 12.4138 4.93974 18.2371 11.0428 22.3907C14.1149 24.4813 16.6643 25.8065 18.9946 25.8065C20.5374 25.8065 21.9845 25.226 23.4224 23.9031C24.5521 22.8647 25.0794 21.7778 24.9904 20.6723ZM22.5049 22.8763C19.8687 25.3 17.1687 24.886 11.8097 21.2389C5.99419 17.282 3.06819 11.7316 2.07993 9.52994C0.849728 6.78713 1.21034 4.17845 3.04537 2.55264C3.9469 1.75246 4.59281 1.38706 5.11319 1.38706C5.15656 1.38706 5.19992 1.38938 5.24101 1.394C5.83899 1.46801 6.53055 2.09936 7.41611 3.38289L7.51425 3.52396C9.71217 6.70618 9.89248 6.9652 8.78096 8.80839C7.29742 11.2691 8.02322 12.7469 9.88335 14.6132C11.465 16.1997 12.9394 17.4346 13.0011 17.4855C13.0399 17.5179 13.0809 17.5456 13.1266 17.5688C13.2042 17.6081 15.062 18.5354 16.9747 16.5974C17.7918 15.7695 18.8964 16.4425 21.051 18.066C21.5463 18.4406 22.0598 18.8268 22.5847 19.1807C22.587 19.183 22.5893 19.1853 22.5939 19.1853C22.603 19.1922 23.5502 19.8352 23.6255 20.7787C23.678 21.4401 23.3014 22.1432 22.5049 22.8763Z" fill="#001F86"/>
</svg>
