<svg width="25" height="19" viewBox="0 0 25 19" fill="none" xmlns="http://www.w3.org/2000/svg">
<path d="M23.369 0H1.63103C0.732385 0 0 0.776786 0 1.72991V17.0201C0 17.9732 0.732385 18.75 1.63103 18.75H23.369C24.2676 18.75 25 17.9732 25 17.0201V1.72991C25 0.776786 24.2676 0 23.369 0ZM22.7902 1.33929L12.7725 11.8661C12.6231 12.0246 12.3769 12.0246 12.2254 11.8661L2.20978 1.33929H22.7902ZM1.26273 16.3259V2.22768L7.60586 8.89509L1.26273 16.3259ZM2.03931 17.4107L8.5024 9.83929L11.3372 12.8192C11.6571 13.1562 12.078 13.3237 12.4989 13.3237C12.9199 13.3237 13.3408 13.1562 13.6607 12.8192L16.4513 9.88616L22.9502 17.4107H2.03931ZM23.7373 16.3393L17.3499 8.94196L23.7373 2.22991V16.3393Z" fill="#001F86"/>
</svg>
