<svg width="25" height="23" viewBox="0 0 25 23" fill="none" xmlns="http://www.w3.org/2000/svg">
<path d="M3.74072 0.879883H21.2679C23.325 0.879883 25 2.5041 25 4.49879V14.2148C25 16.2095 23.325 17.8337 21.2679 17.8337H19.2173V22.2522C19.2173 22.4991 19.0684 22.721 18.8374 22.8236C18.7511 22.8612 18.6604 22.8801 18.5698 22.8801C18.4165 22.8801 18.2654 22.8278 18.1445 22.7252L12.3446 17.8337H3.74072C1.67933 17.8337 0 16.2074 0 14.2064V4.50716C0.00215912 2.50619 1.67933 0.879883 3.74072 0.879883ZM1.29727 14.2064C1.29727 15.5146 2.3938 16.5779 3.74288 16.5779H12.5885C12.7439 16.5779 12.895 16.6323 13.0137 16.7327L17.9244 20.8728V17.2037C17.9244 16.8562 18.2136 16.5758 18.5719 16.5758H21.2701C22.6127 16.5758 23.7049 15.5167 23.7049 14.2148V4.49879C23.7049 3.19481 22.6127 2.13572 21.2679 2.13572H3.74072C2.39164 2.13572 1.29511 3.199 1.29511 4.50716V14.2064H1.29727Z" fill="#001F86"/>
</svg>
