<svg width="60" height="60" viewBox="0 0 60 60" fill="none" xmlns="http://www.w3.org/2000/svg">
<g clip-path="url(#clip0_1147_32231)">
<path fill-rule="evenodd" clip-rule="evenodd" d="M59 37.5V46.5C59 47.0523 58.5523 47.5 58 47.5H2C1.44772 47.5 1 47.0523 1 46.5V36.5H14C14 37.4967 14.439 38.4429 15.2001 39.0865C15.9612 39.73 16.9671 40.0057 17.95 39.84L25.16 38.64C25.6453 38.5613 26.0014 38.1416 26 37.65V36.5H58C58.5523 36.5 59 36.9477 59 37.5Z" fill="#E8EDFC"/>
<path fill-rule="evenodd" clip-rule="evenodd" d="M58 36.5H55C55.5523 36.5 56 36.9477 56 37.5V46.5C56 47.0523 55.5523 47.5 55 47.5H58C58.5523 47.5 59 47.0523 59 46.5V37.5C59 36.9477 58.5523 36.5 58 36.5Z" fill="#CAD9FC"/>
<path fill-rule="evenodd" clip-rule="evenodd" d="M55 27.5V36.5H26C32.14 36.5 35.2 29.57 36.54 24.5H52C53.6569 24.5 55 25.8431 55 27.5Z" fill="#A4C2F7"/>
<path fill-rule="evenodd" clip-rule="evenodd" d="M52 24.5H49C50.6569 24.5 52 25.8431 52 27.5V36.5H55V27.5C55 25.8431 53.6569 24.5 52 24.5Z" fill="#7FACFA"/>
<path fill-rule="evenodd" clip-rule="evenodd" d="M47 24.5003H36.54C35.2 29.5703 32.14 36.5003 26 36.5003V35.3503C26.0014 34.8587 25.6453 34.439 25.16 34.3603L17.95 33.1603C17.7616 33.1288 17.571 33.1121 17.38 33.1103C15.5119 33.1164 14.0005 34.6322 14 36.5003H1V20.5003C1 19.948 1.44772 19.5003 2 19.5003H24C26.2205 19.4843 28.411 18.9861 30.42 18.0403C34.43 16.1903 38.13 11.5203 42.98 13.1203C44.9977 13.8909 46.5692 15.5174 47.27 17.5603C48.0074 19.8323 47.9117 22.2926 47 24.5003Z" fill="#E8EDFC"/>
<path fill-rule="evenodd" clip-rule="evenodd" d="M47.2696 17.5602C46.5688 15.5172 44.9972 13.8908 42.9795 13.1202C41.8353 12.739 40.6062 12.6908 39.4355 12.9812C39.6165 13.0242 39.7955 13.0592 39.9795 13.1202C41.9972 13.8908 43.5688 15.5172 44.2695 17.5602C45.007 19.8321 44.9113 22.2924 43.9995 24.5002H46.9996C47.9113 22.2924 48.007 19.8321 47.2696 17.5602Z" fill="#CAD9FC"/>
<path fill-rule="evenodd" clip-rule="evenodd" d="M26.0001 35.3503V37.6503C26.0015 38.142 25.6454 38.5617 25.1601 38.6403L17.9501 39.8403C16.6919 40.0498 15.4226 39.5347 14.6661 38.5077C13.9096 37.4808 13.794 36.1159 14.367 34.9763C14.94 33.8367 16.1046 33.1155 17.3801 33.1104C17.5711 33.1121 17.7617 33.1288 17.9501 33.1604L25.1601 34.3604C25.6454 34.439 26.0015 34.8587 26.0001 35.3503Z" fill="#E8EDFC"/>
<path fill-rule="evenodd" clip-rule="evenodd" d="M25.1599 34.3604L17.9499 33.1604C17.7615 33.1288 17.5709 33.1121 17.3799 33.1104C16.9515 33.1116 16.5274 33.1955 16.1309 33.3574L22.1599 34.3574C22.6451 34.436 23.0013 34.8557 22.9999 35.3474V37.6474C23.0013 38.139 22.6451 38.5587 22.1599 38.6374L16.1599 39.6374C16.7265 39.8669 17.3455 39.9361 17.9489 39.8374L25.1589 38.6374C25.6441 38.5587 26.0003 38.139 25.9989 37.6474V35.3474C25.9989 34.8572 25.6436 34.4393 25.1599 34.3604Z" fill="#CAD9FC"/>
<path fill-rule="evenodd" clip-rule="evenodd" d="M4 46.5V20.5C4 19.9477 4.44771 19.5 5 19.5H2C1.44772 19.5 1 19.9477 1 20.5V46.5C1 47.0523 1.44772 47.5 2 47.5H5C4.44771 47.5 4 47.0523 4 46.5Z" fill="white"/>
<path fill-rule="evenodd" clip-rule="evenodd" d="M0 20.5H2V28.5H0V20.5Z" fill="white"/>
<path d="M58 35.5002H56V27.5002C56 25.291 54.2091 23.5002 52 23.5002H48.375C48.9399 21.4372 48.8818 19.2532 48.208 17.2232C47.4008 14.8917 45.5992 13.0396 43.291 12.1682C39.426 10.8972 36.238 13.0932 33.424 15.0302C32.3425 15.8231 31.1973 16.5252 30 17.1292C28.1234 18.0167 26.0758 18.4845 24 18.5002H2C0.89543 18.5002 0 19.3956 0 20.5002C0 21.0525 0.447715 21.5002 1 21.5002C1.55228 21.5002 2 21.0525 2 20.5002H24C26.3653 20.4852 28.6988 19.9545 30.838 18.9452C32.1391 18.2947 33.3834 17.5364 34.558 16.6782C37.225 14.8422 39.744 13.1032 42.666 14.0682C44.3918 14.7379 45.7314 16.139 46.323 17.8932C46.9214 19.7156 46.9134 21.6828 46.3 23.5002H37.808C37.876 23.2002 37.934 22.9302 37.98 22.7002C38.1078 21.577 38.6873 20.5542 39.585 19.8672C40.2397 19.4756 41.0149 19.3366 41.765 19.4762C42.2997 19.6043 42.8376 19.2766 42.969 18.7427C43.1004 18.2088 42.7761 17.6689 42.243 17.5342C40.9717 17.2673 39.6464 17.4928 38.535 18.1652C37.1553 19.1312 36.2432 20.6308 36.02 22.3002C35.432 25.2432 33.1 34.4932 27 35.4192V35.3472C27.0001 34.3695 26.2934 33.535 25.329 33.3742L18.11 32.1742C15.8294 31.7913 13.6442 33.2478 13.12 35.5002H11V34.5002C11 33.9479 10.5523 33.5002 10 33.5002C9.44771 33.5002 9 33.9479 9 34.5002V35.5002H7V34.5002C7 33.9479 6.55228 33.5002 6 33.5002C5.44771 33.5002 5 33.9479 5 34.5002V35.5002H2V28.5002C2 27.9479 1.55228 27.5002 1 27.5002C0.447715 27.5002 0 27.9479 0 28.5002V46.5002C0 47.6047 0.89543 48.5002 2 48.5002H58C59.1045 48.5002 60 47.6047 60 46.5002V37.5002C60 36.3956 59.1045 35.5002 58 35.5002ZM37.291 25.5002H52C53.1045 25.5002 54 26.3956 54 27.5002V35.5002H31.519C34.622 32.9942 36.376 28.6492 37.291 25.5002ZM15.845 34.6782C16.3798 34.223 17.0885 34.0276 17.781 34.1442L25 35.3472V37.6532L17.782 38.8532C16.7217 39.0307 15.6734 38.4777 15.2212 37.5024C14.769 36.527 15.0244 35.3697 15.845 34.6752V34.6782ZM58 46.5002H2V37.5002H5V38.5002C5 39.0525 5.44771 39.5002 6 39.5002C6.55228 39.5002 7 39.0525 7 38.5002V37.5002H9V38.5002C9 39.0525 9.44771 39.5002 10 39.5002C10.5523 39.5002 11 39.0525 11 38.5002V37.5002H13.12C13.6437 39.7531 15.8287 41.2108 18.11 40.8292L25.329 39.6292C26.2945 39.4681 27.0016 38.632 27 37.6532V37.5002H58V46.5002Z" fill="#001F86"/>
<path d="M47 29.5C47.5523 29.5 48 29.0523 48 28.5C48 27.9477 47.5523 27.5 47 27.5C46.4477 27.5 46 27.9477 46 28.5C46 29.0523 46.4477 29.5 47 29.5Z" fill="#001F86"/>
<path d="M47 33.5C47.5523 33.5 48 33.0523 48 32.5C48 31.9477 47.5523 31.5 47 31.5C46.4477 31.5 46 31.9477 46 32.5C46 33.0523 46.4477 33.5 47 33.5Z" fill="#001F86"/>
<path d="M51 29.5C51.5523 29.5 52 29.0523 52 28.5C52 27.9477 51.5523 27.5 51 27.5C50.4477 27.5 50 27.9477 50 28.5C50 29.0523 50.4477 29.5 51 29.5Z" fill="#001F86"/>
<path d="M51 33.5C51.5523 33.5 52 33.0523 52 32.5C52 31.9477 51.5523 31.5 51 31.5C50.4477 31.5 50 31.9477 50 32.5C50 33.0523 50.4477 33.5 51 33.5Z" fill="#001F86"/>
<path d="M43 29.5C43.5523 29.5 44 29.0523 44 28.5C44 27.9477 43.5523 27.5 43 27.5C42.4477 27.5 42 27.9477 42 28.5C42 29.0523 42.4477 29.5 43 29.5Z" fill="#001F86"/>
<path d="M43 33.5C43.5523 33.5 44 33.0523 44 32.5C44 31.9477 43.5523 31.5 43 31.5C42.4477 31.5 42 31.9477 42 32.5C42 33.0523 42.4477 33.5 43 33.5Z" fill="#001F86"/>
<path d="M39 29.5C39.5523 29.5 40 29.0523 40 28.5C40 27.9477 39.5523 27.5 39 27.5C38.4477 27.5 38 27.9477 38 28.5C38 29.0523 38.4477 29.5 39 29.5Z" fill="#001F86"/>
<path d="M39 33.5C39.5523 33.5 40 33.0523 40 32.5C40 31.9477 39.5523 31.5 39 31.5C38.4477 31.5 38 31.9477 38 32.5C38 33.0523 38.4477 33.5 39 33.5Z" fill="#001F86"/>
<path d="M18 37.5C18.5523 37.5 19 37.0523 19 36.5C19 35.9477 18.5523 35.5 18 35.5C17.4477 35.5 17 35.9477 17 36.5C17 37.0523 17.4477 37.5 18 37.5Z" fill="#001F86"/>
<path d="M1 25.5C1.55228 25.5 2 25.0523 2 24.5C2 23.9477 1.55228 23.5 1 23.5C0.447715 23.5 0 23.9477 0 24.5C0 25.0523 0.447715 25.5 1 25.5Z" fill="#001F86"/>
</g>
<defs>
<clipPath id="clip0_1147_32231">
<rect width="60" height="60" fill="white"/>
</clipPath>
</defs>
</svg>
