<svg width="60" height="60" viewBox="0 0 60 60" fill="none" xmlns="http://www.w3.org/2000/svg">
<g clip-path="url(#clip0_1147_32184)">
<path fill-rule="evenodd" clip-rule="evenodd" d="M59 35V43C58.9967 44.1032 58.1032 44.9967 57 45H3C1.8968 44.9967 1.00329 44.1032 1 43V35H59Z" fill="#A4C2F7"/>
<path fill-rule="evenodd" clip-rule="evenodd" d="M56 35V43C55.9967 44.1032 55.1032 44.9967 54 45H57C58.1032 44.9967 58.9967 44.1032 59 43V35H56Z" fill="#7FACFA"/>
<path fill-rule="evenodd" clip-rule="evenodd" d="M59 32.16V35H1V32.16C1.00182 31.7673 1.05905 31.3767 1.17 31H58.83C58.9409 31.3767 58.9982 31.7673 59 32.16Z" fill="#E8EDFC"/>
<path fill-rule="evenodd" clip-rule="evenodd" d="M58.8301 31H55.8301C55.941 31.3767 55.9983 31.7673 56.0001 32.16V35H59.0001V32.16C58.9982 31.7673 58.941 31.3767 58.8301 31Z" fill="#CAD9FC"/>
<path fill-rule="evenodd" clip-rule="evenodd" d="M58.8299 31H1.16992C1.27216 30.6535 1.42371 30.3234 1.61992 30.02L12.4099 12.93C12.7779 12.3521 13.4149 12.0016 14.0999 12H45.8999C46.585 12.0016 47.222 12.3521 47.5899 12.93L58.3799 30.02C58.5761 30.3234 58.7277 30.6535 58.8299 31Z" fill="#E8EDFC"/>
<path fill-rule="evenodd" clip-rule="evenodd" d="M58.3804 30.02L47.5904 12.93C47.2225 12.3521 46.5854 12.0016 45.9004 12H42.9004C43.5854 12.0016 44.2225 12.3521 44.5904 12.93L55.3804 30.02C55.5766 30.3234 55.7282 30.6535 55.8304 31H58.8304C58.7282 30.6535 58.5766 30.3234 58.3804 30.02Z" fill="#CAD9FC"/>
<path fill-rule="evenodd" clip-rule="evenodd" d="M3.00002 45H6.00002C4.89681 44.9967 4.00331 44.1032 4.00002 43V32.16C3.9979 31.4021 4.21306 30.6594 4.62002 30.02L15.41 12.93C15.7779 12.3521 16.415 12.0016 17.1 12H14.1C13.415 12.0016 12.7779 12.3521 12.41 12.93L1.62002 30.02C1.21306 30.6594 0.997898 31.4021 1.00002 32.16V43C1.00331 44.1032 1.89681 44.9967 3.00002 45Z" fill="white"/>
<path fill-rule="evenodd" clip-rule="evenodd" d="M7.30078 19.1587L11.5728 12.3907L13.2648 13.4587L8.99278 20.2267L7.30078 19.1587Z" fill="white"/>
<path fill-rule="evenodd" clip-rule="evenodd" d="M9.74102 17.158C10.2081 17.4525 10.8255 17.3128 11.1201 16.8458C11.4148 16.3788 11.2752 15.7614 10.8083 15.4666C10.3414 15.1718 9.72395 15.3112 9.42902 15.778C9.28728 16.0023 9.24052 16.2738 9.29904 16.5327C9.35755 16.7915 9.51655 17.0165 9.74102 17.158Z" fill="#001F86"/>
<path fill-rule="evenodd" clip-rule="evenodd" d="M11.8726 13.773C12.3367 14.0704 12.9539 13.9362 13.2526 13.473C13.4364 13.1819 13.7553 13.0038 14.0996 13H16.9996C17.5519 13 17.9996 12.5523 17.9996 12C17.9996 11.4477 17.5519 11 16.9996 11H14.0996C13.072 10.9984 12.1156 11.5244 11.5666 12.393C11.2703 12.8586 11.4073 13.4763 11.8726 13.773Z" fill="#001F86"/>
<path d="M48.433 12.393C47.884 11.5244 46.9276 10.9984 45.9 11H43C42.4477 11 42 11.4477 42 12C42 12.5523 42.4477 13 43 13H45.9C46.2416 13.0025 46.5589 13.1769 46.744 13.464L57.185 30H2.81503L8.98503 20.228C9.1854 19.9257 9.20645 19.5387 9.04002 19.2165C8.87359 18.8943 8.54578 18.6875 8.18333 18.676C7.82087 18.6644 7.48059 18.85 7.29403 19.161L0.774027 29.486C0.265546 30.2849 -0.00307832 31.213 2.6615e-05 32.16V43C2.6615e-05 44.6568 1.34317 46 3.00003 46H57C58.6569 46 60 44.6568 60 43V32.16C60.0029 31.213 59.7343 30.285 59.226 29.486L48.433 12.393ZM57 44H3.00003C2.44774 44 2.00003 43.5523 2.00003 43V36H7.00003C7.55231 36 8.00003 35.5523 8.00003 35C8.00003 34.4477 7.55231 34 7.00003 34H2.00003V32.16C2.00003 32.106 2.00803 32.054 2.01103 32H57.989C57.989 32.054 58 32.106 58 32.16V34H12C11.4477 34 11 34.4477 11 35C11 35.5523 11.4477 36 12 36H58V43C58 43.5523 57.5523 44 57 44Z" fill="#001F86"/>
<path d="M17 17C17.5523 17 18 16.5523 18 16C18 15.4477 17.5523 15 17 15C16.4477 15 16 15.4477 16 16C16 16.5523 16.4477 17 17 17Z" fill="#001F86"/>
<path d="M26 17C26.5523 17 27 16.5523 27 16C27 15.4477 26.5523 15 26 15C25.4477 15 25 15.4477 25 16C25 16.5523 25.4477 17 26 17Z" fill="#001F86"/>
<path d="M25 22C25.5523 22 26 21.5523 26 21C26 20.4477 25.5523 20 25 20C24.4477 20 24 20.4477 24 21C24 21.5523 24.4477 22 25 22Z" fill="#001F86"/>
<path d="M24 27C24.5523 27 25 26.5523 25 26C25 25.4477 24.5523 25 24 25C23.4477 25 23 25.4477 23 26C23 26.5523 23.4477 27 24 27Z" fill="#001F86"/>
<path d="M15 22C15.5523 22 16 21.5523 16 21C16 20.4477 15.5523 20 15 20C14.4477 20 14 20.4477 14 21C14 21.5523 14.4477 22 15 22Z" fill="#001F86"/>
<path d="M13 27C13.5523 27 14 26.5523 14 26C14 25.4477 13.5523 25 13 25C12.4477 25 12 25.4477 12 26C12 26.5523 12.4477 27 13 27Z" fill="#001F86"/>
<path d="M10 50C10.5523 50 11 49.5523 11 49C11 48.4477 10.5523 48 10 48C9.44771 48 9 48.4477 9 49C9 49.5523 9.44771 50 10 50Z" fill="#001F86"/>
<path d="M10 54C10.5523 54 11 53.5523 11 53C11 52.4477 10.5523 52 10 52C9.44771 52 9 52.4477 9 53C9 53.5523 9.44771 54 10 54Z" fill="#001F86"/>
<path d="M10 58C10.5523 58 11 57.5523 11 57C11 56.4477 10.5523 56 10 56C9.44771 56 9 56.4477 9 57C9 57.5523 9.44771 58 10 58Z" fill="#001F86"/>
<path d="M20 50C20.5523 50 21 49.5523 21 49C21 48.4477 20.5523 48 20 48C19.4477 48 19 48.4477 19 49C19 49.5523 19.4477 50 20 50Z" fill="#001F86"/>
<path d="M20 54C20.5523 54 21 53.5523 21 53C21 52.4477 20.5523 52 20 52C19.4477 52 19 52.4477 19 53C19 53.5523 19.4477 54 20 54Z" fill="#001F86"/>
<path d="M20 58C20.5523 58 21 57.5523 21 57C21 56.4477 20.5523 56 20 56C19.4477 56 19 56.4477 19 57C19 57.5523 19.4477 58 20 58Z" fill="#001F86"/>
<path d="M30 50C30.5523 50 31 49.5523 31 49C31 48.4477 30.5523 48 30 48C29.4477 48 29 48.4477 29 49C29 49.5523 29.4477 50 30 50Z" fill="#001F86"/>
<path d="M30 54C30.5523 54 31 53.5523 31 53C31 52.4477 30.5523 52 30 52C29.4477 52 29 52.4477 29 53C29 53.5523 29.4477 54 30 54Z" fill="#001F86"/>
<path d="M30 58C30.5523 58 31 57.5523 31 57C31 56.4477 30.5523 56 30 56C29.4477 56 29 56.4477 29 57C29 57.5523 29.4477 58 30 58Z" fill="#001F86"/>
<path d="M40 50C40.5523 50 41 49.5523 41 49C41 48.4477 40.5523 48 40 48C39.4477 48 39 48.4477 39 49C39 49.5523 39.4477 50 40 50Z" fill="#001F86"/>
<path d="M40 54C40.5523 54 41 53.5523 41 53C41 52.4477 40.5523 52 40 52C39.4477 52 39 52.4477 39 53C39 53.5523 39.4477 54 40 54Z" fill="#001F86"/>
<path d="M40 58C40.5523 58 41 57.5523 41 57C41 56.4477 40.5523 56 40 56C39.4477 56 39 56.4477 39 57C39 57.5523 39.4477 58 40 58Z" fill="#001F86"/>
<path d="M50 50C50.5523 50 51 49.5523 51 49C51 48.4477 50.5523 48 50 48C49.4477 48 49 48.4477 49 49C49 49.5523 49.4477 50 50 50Z" fill="#001F86"/>
<path d="M50 54C50.5523 54 51 53.5523 51 53C51 52.4477 50.5523 52 50 52C49.4477 52 49 52.4477 49 53C49 53.5523 49.4477 54 50 54Z" fill="#001F86"/>
<path d="M50 58C50.5523 58 51 57.5523 51 57C51 56.4477 50.5523 56 50 56C49.4477 56 49 56.4477 49 57C49 57.5523 49.4477 58 50 58Z" fill="#001F86"/>
<path d="M43 17C43.5523 17 44 16.5523 44 16C44 15.4477 43.5523 15 43 15C42.4477 15 42 15.4477 42 16C42 16.5523 42.4477 17 43 17Z" fill="#001F86"/>
<path d="M34 17C34.5523 17 35 16.5523 35 16C35 15.4477 34.5523 15 34 15C33.4477 15 33 15.4477 33 16C33 16.5523 33.4477 17 34 17Z" fill="#001F86"/>
<path d="M35 22C35.5523 22 36 21.5523 36 21C36 20.4477 35.5523 20 35 20C34.4477 20 34 20.4477 34 21C34 21.5523 34.4477 22 35 22Z" fill="#001F86"/>
<path d="M36 27C36.5523 27 37 26.5523 37 26C37 25.4477 36.5523 25 36 25C35.4477 25 35 25.4477 35 26C35 26.5523 35.4477 27 36 27Z" fill="#001F86"/>
<path d="M45 22C45.5523 22 46 21.5523 46 21C46 20.4477 45.5523 20 45 20C44.4477 20 44 20.4477 44 21C44 21.5523 44.4477 22 45 22Z" fill="#001F86"/>
<path d="M47 27C47.5523 27 48 26.5523 48 26C48 25.4477 47.5523 25 47 25C46.4477 25 46 25.4477 46 26C46 26.5523 46.4477 27 47 27Z" fill="#001F86"/>
<path fill-rule="evenodd" clip-rule="evenodd" d="M18.7074 6.70678L20.0004 5.41379V20.9998C20.0004 21.5521 20.4481 21.9998 21.0004 21.9998C21.5527 21.9998 22.0004 21.5521 22.0004 20.9998V5.41379L23.2934 6.70678C23.6858 7.08576 24.3095 7.08034 24.6952 6.6946C25.081 6.30887 25.0864 5.68516 24.7074 5.29279L21.7074 2.29279C21.3169 1.9024 20.6839 1.9024 20.2934 2.29279L17.2934 5.29279C16.9144 5.68516 16.9199 6.30887 17.3056 6.6946C17.6913 7.08034 18.315 7.08576 18.7074 6.70678Z" fill="#001F86"/>
<path fill-rule="evenodd" clip-rule="evenodd" d="M27.7074 6.70678L29.0004 5.41379V20.9998C29.0004 21.5521 29.4481 21.9998 30.0004 21.9998C30.5527 21.9998 31.0004 21.5521 31.0004 20.9998V5.41379L32.2934 6.70678C32.6858 7.08576 33.3095 7.08034 33.6952 6.6946C34.081 6.30887 34.0864 5.68516 33.7074 5.29279L30.7074 2.29279C30.3169 1.9024 29.6839 1.9024 29.2934 2.29279L26.2934 5.29279C25.9144 5.68516 25.9199 6.30887 26.3056 6.6946C26.6913 7.08034 27.315 7.08576 27.7074 6.70678Z" fill="#001F86"/>
<path fill-rule="evenodd" clip-rule="evenodd" d="M36.7074 6.70678L38.0004 5.41379V20.9998C38.0004 21.5521 38.4481 21.9998 39.0004 21.9998C39.5527 21.9998 40.0004 21.5521 40.0004 20.9998V5.41379L41.2934 6.70678C41.6858 7.08576 42.3095 7.08034 42.6952 6.6946C43.081 6.30887 43.0864 5.68516 42.7074 5.29279L39.7074 2.29279C39.3169 1.9024 38.6839 1.9024 38.2934 2.29279L35.2934 5.29279C34.9144 5.68516 34.9199 6.30887 35.3056 6.6946C35.6913 7.08034 36.315 7.08576 36.7074 6.70678Z" fill="#001F86"/>
</g>
<defs>
<clipPath id="clip0_1147_32184">
<rect width="60" height="60" fill="white"/>
</clipPath>
</defs>
</svg>
