<svg width="60" height="60" viewBox="0 0 60 60" fill="none" xmlns="http://www.w3.org/2000/svg">
<g clip-path="url(#clip0_1147_32297)">
<path fill-rule="evenodd" clip-rule="evenodd" d="M58.8299 39.5001H1.16992C1.27216 39.1535 1.42371 38.8235 1.61992 38.5201L12.0399 22.0001C14.7871 21.5489 17.6054 22.08 19.9999 23.5001C23.9417 25.747 28.6295 26.2888 32.9799 25.0001C34.4699 25.7101 36.8099 26.0901 39.9999 24.5001C42.3989 23.2524 44.6106 21.6736 46.5699 19.8101L58.3799 38.5201C58.5761 38.8235 58.7277 39.1535 58.8299 39.5001Z" fill="#E8EDFC"/>
<path fill-rule="evenodd" clip-rule="evenodd" d="M58.3796 38.5201L46.5696 19.8101C45.9612 20.4145 45.3174 20.9821 44.6416 21.5101L55.3796 38.5201C55.5758 38.8235 55.7274 39.1535 55.8296 39.5001H58.8296C58.7274 39.1535 58.5758 38.8235 58.3796 38.5201Z" fill="#CAD9FC"/>
<path fill-rule="evenodd" clip-rule="evenodd" d="M59 40.66V43.5H1V40.66C1.00182 40.2673 1.05905 39.8767 1.17 39.5H58.83C58.9409 39.8767 58.9982 40.2673 59 40.66Z" fill="#E8EDFC"/>
<path fill-rule="evenodd" clip-rule="evenodd" d="M58.8301 39.5H55.8301C55.941 39.8767 55.9983 40.2673 56.0001 40.66V43.5H59.0001V40.66C58.9983 40.2673 58.941 39.8767 58.8301 39.5Z" fill="#CAD9FC"/>
<path fill-rule="evenodd" clip-rule="evenodd" d="M59 43.5V51.5C58.9967 52.6032 58.1032 53.4967 57 53.5H3C1.8968 53.4967 1.00329 52.6032 1 51.5V43.5H59Z" fill="#A4C2F7"/>
<path fill-rule="evenodd" clip-rule="evenodd" d="M56 43.5V51.5C55.9967 52.6032 55.1032 53.4967 54 53.5H57C58.1032 53.4967 58.9967 52.6032 59 51.5V43.5H56Z" fill="#7FACFA"/>
<path fill-rule="evenodd" clip-rule="evenodd" d="M46.57 19.8101C44.6107 21.6737 42.399 23.2525 40 24.5001C36.81 26.0901 34.47 25.7101 32.98 25.0001C28.6296 26.2888 23.9418 25.7471 20 23.5001C17.6054 22.0801 14.7872 21.549 12.04 22.0001C11.3446 22.0959 10.6609 22.2634 10 22.5001C10.8163 18.0635 13.3267 14.1186 17 11.5001C19.0656 10.1494 21.6149 9.75912 23.99 10.4301L29 8.50012C29 8.50012 42 3.50012 48 10.5001C50.88 13.8601 49.15 17.2301 46.57 19.8101Z" fill="#E8EDFC"/>
<path fill-rule="evenodd" clip-rule="evenodd" d="M47.9996 10.5001C45.1536 7.17908 40.7326 6.56108 36.8706 6.82608C39.966 6.89949 42.8992 8.22521 44.9996 10.5001C47.8796 13.8601 46.1496 17.2301 43.5696 19.8101C41.6103 21.6736 39.3986 23.2524 36.9996 24.5001C36.136 24.9387 35.2165 25.2574 34.2666 25.4471C36.2295 25.8196 38.2608 25.484 39.9996 24.5001C42.3986 23.2524 44.6103 21.6736 46.5696 19.8101C49.1496 17.2301 50.8796 13.8601 47.9996 10.5001Z" fill="#CAD9FC"/>
<path fill-rule="evenodd" clip-rule="evenodd" d="M3.00002 53.4997H6.00002C4.89681 53.4964 4.00331 52.6029 4.00002 51.4997V40.6597C3.9979 39.9018 4.21306 39.1591 4.62002 38.5197L15.04 21.9997C14.3446 22.0954 13.6609 22.263 13 22.4997C13.8163 18.0631 16.3267 14.1181 20 11.4997C20.9432 10.8676 22.0102 10.4435 23.13 10.2557C21.0026 9.85509 18.8029 10.3015 17 11.4997C13.3267 14.1181 10.8163 18.0631 10 22.4997C10.6609 22.263 11.3446 22.0954 12.04 21.9997L1.62002 38.5197C1.21306 39.1591 0.997898 39.9018 1.00002 40.6597V51.4997C1.00331 52.6029 1.89681 53.4964 3.00002 53.4997Z" fill="white"/>
<path fill-rule="evenodd" clip-rule="evenodd" d="M12.6529 17.9001L10.8809 16.9731C12.1801 14.4388 14.0929 12.2699 16.4449 10.6641L17.5549 12.3281C15.4816 13.7474 13.7965 15.6629 12.6529 17.9001Z" fill="white"/>
<path d="M49.605 22.7458C49.4185 22.4348 49.0782 22.2492 48.7157 22.2608C48.3533 22.2723 48.0255 22.4791 47.859 22.8013C47.6926 23.1235 47.7137 23.5106 47.914 23.8128L57.185 38.4998H2.81502L9.52602 27.8638C9.73158 27.5613 9.7556 27.1707 9.58866 26.8453C9.42172 26.5199 9.09045 26.3116 8.72484 26.3021C8.35922 26.2926 8.0176 26.4835 7.83402 26.7998L0.778018 37.9798C0.267491 38.7803 -0.00253617 39.7104 1.79526e-05 40.6598V51.4998C1.79526e-05 53.1567 1.34316 54.4998 3.00002 54.4998H57C58.6569 54.4998 60 53.1567 60 51.4998V40.6598C60.0029 39.7128 59.7343 38.7848 59.226 37.9858L49.605 22.7458ZM57 52.4998H3.00002C2.44773 52.4998 2.00002 52.0521 2.00002 51.4998V44.4998H7.00002C7.5523 44.4998 8.00002 44.0521 8.00002 43.4998C8.00002 42.9475 7.5523 42.4998 7.00002 42.4998H2.00002V40.6598C2.00002 40.6058 2.00802 40.5538 2.01102 40.4998H57.989C57.989 40.5538 58 40.6058 58 40.6598V42.4998H12C11.4477 42.4998 11 42.9475 11 43.4998C11 44.0521 11.4477 44.4998 12 44.4998H58V51.4998C58 52.0521 57.5523 52.4998 57 52.4998Z" fill="#001F86"/>
<path d="M25 30.5C25.5523 30.5 26 30.0523 26 29.5C26 28.9477 25.5523 28.5 25 28.5C24.4477 28.5 24 28.9477 24 29.5C24 30.0523 24.4477 30.5 25 30.5Z" fill="#001F86"/>
<path d="M24 35.5C24.5523 35.5 25 35.0523 25 34.5C25 33.9477 24.5523 33.5 24 33.5C23.4477 33.5 23 33.9477 23 34.5C23 35.0523 23.4477 35.5 24 35.5Z" fill="#001F86"/>
<path d="M15 30.5C15.5523 30.5 16 30.0523 16 29.5C16 28.9477 15.5523 28.5 15 28.5C14.4477 28.5 14 28.9477 14 29.5C14 30.0523 14.4477 30.5 15 30.5Z" fill="#001F86"/>
<path d="M13 35.5C13.5523 35.5 14 35.0523 14 34.5C14 33.9477 13.5523 33.5 13 33.5C12.4477 33.5 12 33.9477 12 34.5C12 35.0523 12.4477 35.5 13 35.5Z" fill="#001F86"/>
<path d="M35 30.5C35.5523 30.5 36 30.0523 36 29.5C36 28.9477 35.5523 28.5 35 28.5C34.4477 28.5 34 28.9477 34 29.5C34 30.0523 34.4477 30.5 35 30.5Z" fill="#001F86"/>
<path d="M36 35.5C36.5523 35.5 37 35.0523 37 34.5C37 33.9477 36.5523 33.5 36 33.5C35.4477 33.5 35 33.9477 35 34.5C35 35.0523 35.4477 35.5 36 35.5Z" fill="#001F86"/>
<path d="M45 30.5C45.5523 30.5 46 30.0523 46 29.5C46 28.9477 45.5523 28.5 45 28.5C44.4477 28.5 44 28.9477 44 29.5C44 30.0523 44.4477 30.5 45 30.5Z" fill="#001F86"/>
<path d="M47 35.5C47.5523 35.5 48 35.0523 48 34.5C48 33.9477 47.5523 33.5 47 33.5C46.4477 33.5 46 33.9477 46 34.5C46 35.0523 46.4477 35.5 47 35.5Z" fill="#001F86"/>
<path fill-rule="evenodd" clip-rule="evenodd" d="M14.0226 15.1309C13.4703 15.1336 13.0204 14.6881 13.0176 14.1359C13.0148 13.5836 13.4603 13.1336 14.0126 13.1309H14.0226C14.5749 13.1309 15.0226 13.5786 15.0226 14.1309C15.0226 14.6831 14.5749 15.1309 14.0226 15.1309Z" fill="#001F86"/>
<path fill-rule="evenodd" clip-rule="evenodd" d="M40.8478 20.0299C41.1405 19.5605 40.9972 18.9427 40.5278 18.6499C40.0583 18.3572 39.4405 18.5005 39.1478 18.9699C34.5418 26.341 25.3038 25.519 20.5108 22.643C17.7612 21.0112 14.5027 20.4611 11.3698 21.1C11.6921 19.994 12.1219 18.9223 12.6528 17.8999C12.8891 17.4185 12.7148 16.8363 12.2528 16.5639C12.0186 16.4254 11.7372 16.3907 11.4764 16.4683C11.2156 16.546 10.999 16.7289 10.8788 16.9729C9.98652 18.6632 9.35632 20.4793 9.00977 22.359H9.02577C8.99622 22.5291 9.01208 22.7039 9.07176 22.866C9.16931 23.1131 9.36122 23.3113 9.60513 23.4167C9.84904 23.5222 10.1249 23.5262 10.3718 23.428C13.4032 22.4189 16.7215 22.7563 19.4878 24.355C22.2008 25.9073 25.274 26.7197 28.3998 26.711C33.4447 26.8676 38.1899 24.3208 40.8478 20.0299Z" fill="#001F86"/>
<path fill-rule="evenodd" clip-rule="evenodd" d="M17.5551 12.3318C22.8441 8.80379 29.2861 14.2048 29.3551 14.2598C29.776 14.6017 30.3928 14.5458 30.7454 14.1338C31.098 13.7218 31.0579 13.1039 30.6551 12.7408C30.3411 12.4758 23.0001 6.29979 16.4451 10.6678C16.1479 10.8661 15.979 11.2079 16.0021 11.5644C16.0252 11.921 16.2368 12.2382 16.5571 12.3964C16.8774 12.5547 17.2579 12.5301 17.5551 12.3318Z" fill="#001F86"/>
<path fill-rule="evenodd" clip-rule="evenodd" d="M28.6415 7.56589C28.3078 7.69415 28.0679 7.99068 28.0121 8.34379C27.9563 8.6969 28.0932 9.05294 28.3711 9.27779C28.649 9.50265 29.0258 9.56215 29.3595 9.43389C29.4765 9.38789 40.6265 5.19289 46.4185 10.3259C36.4825 16.2009 29.0095 17.4729 25.2435 16.5259C22.7657 15.8685 20.1585 15.8757 17.6845 16.5469C17.1598 16.7214 16.876 17.2882 17.0505 17.8129C17.225 18.3376 17.7918 18.6214 18.3165 18.4469C20.4291 17.8964 22.6485 17.9036 24.7575 18.4679C25.7691 18.707 26.8061 18.8218 27.8455 18.8099C32.4795 18.8099 39.3135 16.9099 47.7615 11.8529C48.3961 12.7676 48.6304 13.9015 48.4105 14.9929C47.4865 19.5809 39.6325 23.5639 39.5525 23.6039C39.0585 23.8524 38.8594 24.4544 39.108 24.9484C39.3565 25.4424 39.9585 25.6414 40.4525 25.3929C40.8115 25.2129 49.2525 20.9329 50.3755 15.3929C50.7 13.8035 50.3725 12.1504 49.4665 10.8049C51.1225 9.75589 52.8285 8.60489 54.5965 7.30489C55.0422 6.97849 55.1389 6.35259 54.8125 5.90689C54.4861 5.4612 53.8602 5.36449 53.4145 5.69089C51.6145 7.01189 49.8755 8.18389 48.1975 9.23889C41.6285 2.68189 29.1835 7.35889 28.6415 7.56589Z" fill="#001F86"/>
</g>
<defs>
<clipPath id="clip0_1147_32297">
<rect width="60" height="60" fill="white"/>
</clipPath>
</defs>
</svg>
