<svg width="14" height="12" viewBox="0 0 14 12" fill="none" xmlns="http://www.w3.org/2000/svg">
<path fill-rule="evenodd" clip-rule="evenodd" d="M10.1055 0.338444C9.7214 0.116677 9.28565 -4.88699e-05 8.8421 3.90612e-06C8.48353 -0.000627946 8.12897 0.0754033 7.80219 0.223C7.47541 0.370598 7.18395 0.58635 6.94737 0.855793C6.53295 0.385841 5.95867 0.0866614 5.33605 0.0163483C4.71343 -0.0539647 4.0869 0.109606 3.5781 0.4753C3.06931 0.840993 2.71457 1.38271 2.58277 1.99527C2.45096 2.60783 2.55149 3.24751 2.86484 3.79011L0.710602 3.78963C0.318173 3.78955 0 4.10765 0 4.50008V4.57895C0 4.92776 0.282768 5.21052 0.631579 5.21052H1.1582V5.21051H6.52963C6.64096 5.11225 6.7872 5.05263 6.94737 5.05263C7.10753 5.05263 7.25377 5.11225 7.36511 5.21051H12.7371V5.21052H13.3158C13.6355 5.21052 13.8947 4.95132 13.8947 4.63158V4.50008C13.8947 4.10765 13.5766 3.78955 13.1841 3.78963L11.0299 3.79011C11.2518 3.40605 11.3686 2.97034 11.3687 2.52679C11.3688 2.08324 11.2521 1.64749 11.0304 1.26335C10.8086 0.879204 10.4897 0.560212 10.1055 0.338444ZM4.17274 1.61456C4.40934 1.3877 4.72485 1.26169 5.05263 1.26316L5.14674 1.26632L5.244 1.27769C5.54237 1.32342 5.8145 1.47449 6.01111 1.70353C6.20772 1.93258 6.3158 2.22446 6.31579 2.52632V3.78948H5.05263L4.95789 3.78632C4.63093 3.7632 4.32575 3.61389 4.10684 3.36993C3.88792 3.12597 3.77241 2.80646 3.78471 2.47891C3.79701 2.15136 3.93615 1.84142 4.17274 1.61456ZM7.98281 1.60011C8.21648 1.38342 8.52342 1.26306 8.8421 1.26316C9.17711 1.26316 9.4984 1.39624 9.73529 1.63313C9.97218 1.87002 10.1053 2.19131 10.1053 2.52632L10.1021 2.62106C10.0782 2.93884 9.93507 3.23584 9.7014 3.45253C9.46772 3.66922 9.16078 3.78958 8.8421 3.78948H7.57895V2.52632L7.5821 2.43158C7.606 2.1138 7.74914 1.8168 7.98281 1.60011Z" fill="#F6A733"/>
<path fill-rule="evenodd" clip-rule="evenodd" d="M13.2681 5.21045C13.2667 5.21046 13.2653 5.21046 13.2638 5.21046H12.6322V11.3684C12.6322 11.5359 12.5657 11.6965 12.4473 11.815C12.3288 11.9334 12.1682 11.9999 12.0007 11.9999H1.8954C1.7279 11.9999 1.56725 11.9334 1.44881 11.815C1.33036 11.6965 1.26382 11.5359 1.26382 11.3684V5.21046H0.632244C0.630805 5.21046 0.629367 5.21046 0.62793 5.21045H6.53029C6.39916 5.32618 6.31645 5.49551 6.31645 5.68415V10.7368C6.31645 11.0856 6.59922 11.3684 6.94803 11.3684C7.29684 11.3684 7.57961 11.0856 7.57961 10.7368V5.68415C7.57961 5.49551 7.4969 5.32618 7.36577 5.21045H13.2681Z" fill="#20315C"/>
</svg>
