<svg width="315" height="30" viewBox="0 0 315 30" fill="none" xmlns="http://www.w3.org/2000/svg">
<rect x="0.5" y="0.5" width="42.75" height="29" rx="3.5" fill="white" stroke="#D9D9D9"/>
<path fill-rule="evenodd" clip-rule="evenodd" d="M13.2816 20.3229H10.6312L8.64369 12.7406C8.54936 12.3918 8.34906 12.0835 8.05443 11.9381C7.31914 11.5729 6.5089 11.2823 5.625 11.1357V10.8438H9.89459C10.4839 10.8438 10.9258 11.2823 10.9995 11.7915L12.0307 17.2609L14.6798 10.8438H17.2565L13.2816 20.3229ZM18.7296 20.3229H16.2266L18.2877 10.8438H20.7908L18.7296 20.3229ZM24.029 13.4696C24.1026 12.9591 24.5446 12.6672 25.0602 12.6672C25.8704 12.5939 26.753 12.7405 27.4896 13.1044L27.9315 11.0635C27.195 10.7716 26.3847 10.625 25.6494 10.625C23.22 10.625 21.4522 11.938 21.4522 13.7603C21.4522 15.1466 22.7044 15.8745 23.5883 16.313C24.5446 16.7503 24.9129 17.0422 24.8392 17.4794C24.8392 18.1353 24.1026 18.4272 23.3673 18.4272C22.4834 18.4272 21.5995 18.2086 20.7906 17.8434L20.3486 19.8856C21.2325 20.2495 22.1888 20.3961 23.0727 20.3961C25.7968 20.4681 27.4896 19.1564 27.4896 17.1875C27.4896 14.7081 24.029 14.5628 24.029 13.4696ZM36.2498 20.3229L34.2624 10.8438H32.1276C31.6856 10.8438 31.2437 11.1357 31.0963 11.5729L27.416 20.3229H29.9928L30.5071 18.9379H33.6731L33.9677 20.3229H36.2498ZM32.4958 13.3965L33.2311 16.969H31.1699L32.4958 13.3965Z" fill="#868686"/>
<rect x="68.25" y="0.5" width="42.75" height="29" rx="3.5" fill="white" stroke="#D9D9D9"/>
<path d="M92.9344 14.8787C92.9344 19.6442 89.1155 23.5075 84.4047 23.5075C79.6939 23.5075 75.875 19.6442 75.875 14.8787C75.875 10.1132 79.6939 6.25 84.4047 6.25C89.1155 6.25 92.9344 10.1132 92.9344 14.8787Z" fill="#6B6B6B"/>
<path fill-rule="evenodd" clip-rule="evenodd" d="M89.9375 21.4462C91.7715 19.8636 92.9345 17.5085 92.9345 14.8787C92.9345 12.2489 91.7715 9.8939 89.9375 8.31123C91.427 7.02591 93.359 6.25 95.4702 6.25C100.181 6.25 104 10.1132 104 14.8787C104 19.6442 100.181 23.5075 95.4702 23.5075C93.359 23.5075 91.427 22.7316 89.9375 21.4462Z" fill="#868686"/>
<path fill-rule="evenodd" clip-rule="evenodd" d="M89.9374 21.446C91.7715 19.8634 92.9344 17.5083 92.9344 14.8785C92.9344 12.2487 91.7715 9.8937 89.9374 8.31104C88.1034 9.8937 86.9404 12.2487 86.9404 14.8785C86.9404 17.5083 88.1034 19.8634 89.9374 21.446Z" fill="#A2A2A2"/>
<rect x="203.5" y="0.5" width="42.75" height="29" rx="3.5" fill="white" stroke="#D9D9D9"/>
<path fill-rule="evenodd" clip-rule="evenodd" d="M216.301 18.1163C215.439 18.2834 214.326 17.9931 213.724 17.3466C213.451 17.0563 213.891 16.612 214.164 16.9067C214.568 17.3422 215.294 17.5489 215.883 17.5357C216.636 17.5181 217.304 16.8364 216.877 16.071C216.284 15.011 214.828 15.3101 214.076 14.4744C213.469 13.8015 213.759 12.7459 214.467 12.2796C215.21 11.7914 216.49 11.809 217.102 12.5083C217.366 12.8074 216.926 13.2517 216.662 12.9482C216.169 12.3808 215.004 12.46 214.56 13.0405C213.926 13.8718 214.872 14.3205 215.536 14.5184C216.446 14.7955 217.454 15.2969 217.621 16.3393C217.757 17.1794 217.106 17.9579 216.301 18.1163ZM210.544 10.2432H220.81C221.496 10.2432 222.05 10.8018 222.05 11.4835V18.6705C222.05 19.3566 221.491 19.9108 220.81 19.9108H210.245C209.559 19.9108 209.004 19.3566 209 18.6705V9.79454C209 9.47346 209.268 9.24914 209.585 9.20956L219.05 8C219.376 8 219.635 8.2639 219.635 8.58499V9.58782H209.95C209.95 10.0145 210.078 10.2432 210.544 10.2432Z" fill="#868686"/>
<path fill-rule="evenodd" clip-rule="evenodd" d="M226.268 8.5631C225.859 8.11447 225.006 8.10128 224.509 8.41356C224.034 8.71265 223.84 9.39439 224.245 9.82543C224.746 10.3576 225.718 10.1685 226.114 10.8502C226.4 11.3429 225.952 11.7827 225.45 11.7915C225.054 11.8003 224.57 11.6683 224.302 11.3868C224.122 11.1977 223.827 11.4792 224.007 11.6683C224.408 12.0862 225.151 12.2709 225.727 12.161C226.264 12.0598 226.699 11.5584 226.611 11.0218C226.501 10.3532 225.828 10.0278 225.221 9.85182C224.782 9.72427 224.148 9.43397 224.57 8.90177C224.87 8.52791 225.644 8.47953 225.974 8.8402C226.149 9.03812 226.444 8.75663 226.268 8.5631ZM229.189 10.5951V11.9982C229.189 12.2621 228.771 12.2621 228.771 11.9982V10.6259C228.758 10.4588 228.661 10.3092 228.516 10.2257C228.221 10.0981 227.68 10.1553 227.363 10.56V11.9982C227.363 12.2621 226.946 12.2621 226.946 11.9982V8.40036C226.946 8.13646 227.363 8.13646 227.363 8.40036V10.019C227.874 9.68028 228.52 9.71547 228.828 9.92659C229.061 10.0629 229.198 10.3224 229.189 10.5951ZM236.156 10.7799C236.16 10.7623 236.165 10.7491 236.169 10.7359C236.27 10.406 236.609 10.2169 236.952 10.2081C237.348 10.1993 237.568 10.4632 237.638 10.7799H236.156ZM238.073 10.9822C238.065 10.4324 237.774 9.93099 237.172 9.82103C236.653 9.72427 236.046 9.99256 235.826 10.4632C235.597 10.9514 235.694 11.6244 236.147 11.9674C236.635 12.3369 237.401 12.2225 237.902 11.9498C238.135 11.8223 237.924 11.4748 237.691 11.6024C237.374 11.7739 236.956 11.8619 236.6 11.7431C236.332 11.6551 236.182 11.4352 236.138 11.1845H237.867C237.981 11.1845 238.073 11.0966 238.073 10.9822ZM238.922 10.7799C238.927 10.7667 238.931 10.7491 238.936 10.7359C239.037 10.406 239.375 10.2169 239.718 10.2081C240.114 10.1993 240.334 10.4632 240.405 10.7799H238.922ZM240.844 10.9778C240.836 10.428 240.545 9.92659 239.943 9.81663C239.424 9.71987 238.817 9.98817 238.597 10.4588C238.368 10.947 238.465 11.62 238.918 11.963C239.406 12.3325 240.171 12.2181 240.673 11.9454C240.906 11.8179 240.695 11.4704 240.462 11.598C240.145 11.7739 239.727 11.8575 239.371 11.7387C239.103 11.6507 238.953 11.4308 238.909 11.1801H240.638C240.748 11.1801 240.84 11.0922 240.844 10.9778ZM230.913 10.2389C230.477 10.2389 230.121 10.5819 230.121 11.0042C230.121 11.4264 230.473 11.7695 230.913 11.7695C231.353 11.7695 231.7 11.4264 231.7 11.0042C231.7 10.5819 231.344 10.2389 230.913 10.2389ZM230.913 12.2005C230.231 12.2005 229.677 11.6639 229.677 10.9998C229.677 10.3356 230.231 9.79904 230.913 9.79904C231.595 9.79904 232.149 10.3356 232.149 10.9998C232.149 11.6639 231.595 12.2005 230.913 12.2005ZM233.979 11.7695C233.543 11.7695 233.191 11.4264 233.191 11.0042C233.196 10.6215 233.477 10.3048 233.855 10.2477H233.864C233.904 10.2433 233.943 10.2389 233.983 10.2389C234.291 10.2389 234.572 10.4148 234.704 10.6963C234.704 10.6963 234.704 10.6963 234.704 10.7007C234.748 10.7975 234.77 10.8986 234.77 11.0042C234.766 11.4264 234.414 11.7695 233.979 11.7695ZM233.979 9.80344C233.627 9.80344 233.292 9.94858 233.055 10.2037V9.91779C233.055 9.65829 232.637 9.65829 232.637 9.91779V13.3089C232.637 13.5684 233.055 13.5684 233.055 13.3089V11.8003C233.292 12.0598 233.627 12.2049 233.979 12.2005C234.66 12.2005 235.215 11.6639 235.215 10.9998C235.215 10.3356 234.66 9.80344 233.979 9.80344Z" fill="#868686"/>
<path fill-rule="evenodd" clip-rule="evenodd" d="M231.889 15.9918C232.68 15.9918 233.327 16.634 233.327 17.4301C233.327 18.2262 232.685 18.8684 231.889 18.8684C231.093 18.8684 230.45 18.2262 230.45 17.4301C230.45 16.634 231.097 15.9918 231.889 15.9918ZM233.499 14.989H234.471V19.8668H233.499V19.317C232.456 20.2055 230.886 20.0779 229.997 19.0355C229.109 17.9931 229.237 16.4229 230.279 15.5344C231.207 14.7471 232.566 14.7471 233.494 15.5344V14.989H233.499ZM225.054 16.7791V14.1445H226.549C227.389 14.1445 228.071 14.7339 228.071 15.464C228.071 16.1942 227.389 16.7835 226.549 16.7835L225.054 16.7791ZM223.95 19.9108H225.054V17.8875H226.549C228.097 17.8875 229.351 16.8011 229.351 15.464C229.351 14.1269 228.093 13.0405 226.549 13.0405H223.945L223.95 19.9108ZM237.11 22H235.79L237.202 19.3302L234.88 14.945H236.314L237.919 17.9755L239.524 14.945H240.844L237.11 22Z" fill="#868686"/>
<rect x="135.5" y="0.5" width="42.75" height="29" rx="3.5" fill="white" stroke="#D9D9D9"/>
<path d="M162.898 15.3591C163.54 15.373 164.186 15.3307 164.825 15.3811C165.473 15.5019 165.629 16.4824 165.054 16.8035C164.661 17.015 164.195 16.8823 163.769 16.9196H162.898V15.3591ZM165.196 13.5928C165.339 14.0964 164.854 14.5485 164.369 14.4791H162.898C162.908 14.0043 162.878 13.4889 162.913 13.039C163.502 13.0556 164.097 13.0052 164.683 13.0654C164.934 13.1286 165.145 13.3356 165.196 13.5928ZM168.736 6.12552C168.764 7.08715 168.74 8.0996 168.748 9.08074C168.746 13.0697 168.752 17.0585 168.745 21.0476C168.719 22.5426 167.394 23.8416 165.91 23.8714C164.424 23.8775 162.938 23.8724 161.451 23.874V17.8436C163.071 17.8352 164.691 17.8605 166.309 17.8309C167.06 17.7838 167.883 17.2883 167.918 16.462C168.006 15.6321 167.224 15.058 166.481 14.9674C166.195 14.96 166.204 14.8841 166.481 14.851C167.189 14.6979 167.746 13.9646 167.537 13.2302C167.36 12.4577 166.506 12.1588 165.796 12.1602C164.348 12.1504 162.9 12.1589 161.452 12.156C161.461 11.0302 161.432 9.90318 161.467 8.7782C161.582 7.31024 162.94 6.09964 164.404 6.12591C165.848 6.12569 167.292 6.12569 168.736 6.12563V6.12552Z" fill="#868686"/>
<path d="M145.088 8.93051C145.125 7.43793 146.456 6.14959 147.939 6.12777C149.419 6.12321 150.9 6.12712 152.38 6.1258C152.376 11.1197 152.388 16.1141 152.374 21.1076C152.317 22.5821 151.001 23.8459 149.535 23.872C148.051 23.8774 146.568 23.8727 145.084 23.8742V17.6405C146.525 17.9809 148.036 18.1258 149.506 17.9C150.385 17.7586 151.346 17.3271 151.644 16.4156C151.863 15.6358 151.739 14.8152 151.772 14.0149V12.1563H149.228C149.217 13.3855 149.251 14.6169 149.21 15.8446C149.141 16.5992 148.394 17.0787 147.682 17.0531C146.799 17.0624 145.05 16.4134 145.05 16.4134C145.046 14.1104 145.076 11.2261 145.088 8.93073V8.93051Z" fill="#868686"/>
<path d="M153.329 12.9057C153.195 12.9341 153.302 12.4496 153.268 12.2658C153.277 11.1037 153.249 9.9403 153.284 8.779C153.398 7.30483 154.767 6.09121 156.236 6.12572H160.564C160.56 11.1196 160.572 16.114 160.558 21.1076C160.501 22.582 159.185 23.8457 157.719 23.8719C156.235 23.8775 154.752 23.8728 153.268 23.8742V17.0443C154.281 17.8756 155.658 18.005 156.921 18.0072C157.872 18.0069 158.818 17.8602 159.742 17.6407V16.3895C158.701 16.9085 157.477 17.2382 156.322 16.94C155.517 16.7396 154.932 15.9613 154.945 15.1302C154.852 14.2659 155.359 13.3535 156.208 13.0966C157.262 12.7664 158.412 13.0189 159.4 13.4481C159.612 13.559 159.827 13.6965 159.742 13.3426V12.3591C158.089 11.9658 156.33 11.821 154.669 12.2489C154.188 12.3845 153.72 12.5902 153.329 12.9058V12.9057Z" fill="#868686"/>
<rect x="271" y="0.5" width="42.75" height="29" rx="5.5" fill="white" stroke="#D9D9D9"/>
<path d="M283.772 5H300.297C301.828 5 303.069 6.24126 303.069 7.77238V22.2276C303.069 23.7588 301.828 25 300.297 25H283.772C282.241 25 281 23.7587 281 22.2276V7.77247C281 6.24126 282.241 5 283.772 5Z" fill="#868686"/>
<path d="M297.322 6.62516C295.15 6.62516 293.389 8.31709 293.389 10.4021C293.389 12.4872 295.155 14.1791 297.322 14.1791C299.49 14.1791 301.26 12.4872 301.26 10.4021C301.26 8.31709 299.499 6.62516 297.322 6.62516ZM297.322 12.0137C296.417 12.0303 295.669 11.3101 295.651 10.4045C295.699 9.48144 296.487 8.77243 297.41 8.82087C298.265 8.86573 298.949 9.54913 298.994 10.4045C298.976 11.3101 298.228 12.0303 297.322 12.0137ZM292.265 9.46192V14.1952H289.993V9.4389C289.993 9.0707 289.695 8.77243 289.326 8.7726C288.958 8.77278 288.66 9.07097 288.66 9.4389V14.1952H286.398V9.4389C286.398 9.0707 286.099 8.77243 285.731 8.7726C285.363 8.77278 285.065 9.07097 285.065 9.4389V14.1952H282.81V9.46192C282.845 7.86409 284.166 6.59561 285.764 6.62516C286.399 6.62381 287.019 6.82341 287.534 7.19528C288.049 6.8243 288.667 6.6248 289.302 6.62516C290.903 6.59176 292.228 7.86096 292.265 9.46192ZM297.322 15.8044C295.15 15.8044 293.389 17.4941 293.389 19.5814C293.389 21.6687 295.155 23.3653 297.322 23.3653C299.49 23.3653 301.256 21.6756 301.256 19.5905C301.256 17.5055 299.499 15.8044 297.322 15.8044ZM297.322 21.193C296.434 21.1587 295.742 20.411 295.776 19.5229C295.811 18.6348 296.558 17.9427 297.446 17.977C298.31 18.0103 298.993 18.7197 298.994 19.5838C298.981 20.4903 298.236 21.2149 297.33 21.2023C297.327 21.2023 297.325 21.2022 297.322 21.2022V21.193H297.322ZM292.265 18.6504V23.3746H289.993V18.6251C289.993 18.2569 289.695 17.9587 289.326 17.9589C288.958 17.959 288.66 18.2572 288.66 18.6251V23.3746H286.398V18.6251C286.398 18.2569 286.099 17.9587 285.731 17.9589C285.363 17.959 285.065 18.2572 285.065 18.6251V23.3746H282.81V18.6504C282.838 17.0497 284.16 15.7755 285.76 15.8043C285.761 15.8043 285.763 15.8043 285.764 15.8044C286.399 15.8033 287.018 16.002 287.534 16.3722C288.049 16.0016 288.667 15.8029 289.302 15.8044C290.903 15.7699 292.23 17.0404 292.265 18.6423C292.265 18.645 292.265 18.6477 292.265 18.6504Z" fill="white"/>
</svg>
