<svg width="18" height="16" viewBox="0 0 18 16" fill="none" xmlns="http://www.w3.org/2000/svg">
<path d="M9.52777 0.318169L11.7488 4.67095C11.8345 4.83945 12.0009 4.95593 12.193 4.98302L17.1595 5.68086C17.6435 5.74912 17.8367 6.32397 17.4866 6.65446L13.8931 10.0423C13.7542 10.1734 13.6904 10.3625 13.7234 10.5473L14.5715 15.3313C14.6544 15.7978 14.148 16.1532 13.715 15.9332L9.2729 13.6745C9.10093 13.5873 8.89535 13.5873 8.72394 13.6745L4.28182 15.9332C3.84881 16.1532 3.34298 15.7978 3.42533 15.3313L4.27342 10.5473C4.30647 10.362 4.24261 10.1734 4.10369 10.0423L0.510787 6.65446C0.160684 6.32451 0.353941 5.74912 0.837924 5.68086L5.80435 4.98302C5.99649 4.95593 6.16286 4.83945 6.24856 4.67095L8.46962 0.318169C8.68585 -0.106056 9.31155 -0.106056 9.52777 0.318169Z" fill="#C4C4C4"/>
</svg>
