<svg width="48" height="31" viewBox="0 0 48 31" fill="none" xmlns="http://www.w3.org/2000/svg">
<path d="M34.7603 14.9381L36.2005 2.39551H32.4095L27.1807 24.3054L45.7765 23.2442L47.3006 17.5583L34.7603 14.9381Z" fill="#D5DEFF"/>
<path d="M32.1368 17.5591H28.3458L26.3145 25.1411H43.3734C44.4205 25.1411 45.4957 24.2922 45.7767 23.2462H32.5088C31.4616 23.2462 30.8413 22.3972 31.1211 21.3512L32.1368 17.5591Z" fill="#BDCBFF"/>
<path d="M47.0358 15.1119L43.8314 12.8205L40.1826 10.4439L43.7999 6.1865L43.7882 3.7925C43.7847 2.96806 43.1889 2.39551 42.3341 2.39551H36.2004L32.1377 17.5583H47.3005L47.5209 16.7362C47.6982 16.0716 47.5139 15.4535 47.0358 15.1119Z" fill="#E3E9FF"/>
<path d="M34.5583 1.44853C34.6983 0.924948 34.3881 0.500488 33.8645 0.500488H25.6586H7.3287C6.80512 0.500488 6.26755 0.924948 6.12762 1.44853L0.0335752 24.1933C-0.106357 24.7169 0.203826 25.1414 0.727405 25.1414H28.2101L28.7185 23.2465H28.7162H28.7185L34.5583 1.44853Z" fill="#051C5C"/>
<path d="M40.8644 27.629C42.6663 26.052 43.1484 23.6555 41.9412 22.2763C40.7341 20.897 38.2948 21.0573 36.493 22.6343C34.6911 24.2113 34.209 26.6078 35.4162 27.9871C36.6233 29.3663 39.0626 29.206 40.8644 27.629Z" fill="#051C5C"/>
<path d="M39.7721 26.3802C40.673 25.5917 40.914 24.3934 40.3105 23.7038C39.7069 23.0142 38.4873 23.0943 37.5863 23.8828C36.6854 24.6713 36.4444 25.8696 37.0479 26.5592C37.6515 27.2488 38.8711 27.1687 39.7721 26.3802Z" fill="#E3E9FF"/>
<path d="M11.4748 27.6451C13.2766 26.0681 13.7587 23.6716 12.5516 22.2924C11.3444 20.9131 8.90517 21.0734 7.10333 22.6504C5.3015 24.2274 4.8194 26.624 6.02653 28.0032C7.23367 29.3825 9.67292 29.2221 11.4748 27.6451Z" fill="#051C5C"/>
<path d="M10.3824 26.3963C11.2833 25.6078 11.5244 24.4095 10.9208 23.7199C10.3172 23.0303 9.09761 23.1105 8.19669 23.899C7.29577 24.6875 7.05472 25.8857 7.65829 26.5753C8.26186 27.265 9.48148 27.1848 10.3824 26.3963Z" fill="#E3E9FF"/>
<path d="M43.7991 6.18652H38.9749L37.2969 8.08144L37.9522 12.2071L43.8317 10.9244L43.7991 6.18652Z" fill="white"/>
<path d="M39.6013 10.9254C38.5541 10.9254 37.9338 10.0764 38.2136 9.03046L38.9751 6.1875C37.9279 6.1875 36.8528 7.03642 36.5718 8.08242L35.8103 10.9254C35.5305 11.9725 36.1508 12.8203 37.198 12.8203H43.8319L43.8226 10.9254H39.6013Z" fill="white"/>
<path d="M7.37111 7.78711H12.3655L11.8408 9.51644H8.72962L8.31332 10.8878H10.8613L10.3388 12.6078H7.79091L7.0481 15.0543H5.16602L7.37111 7.78711Z" fill="white"/>
<path d="M14.6432 15.0533L13.9458 12.8319H13.4957L12.8217 15.0533H10.9385L13.1436 7.78613H16.0507C17.8826 7.78613 18.3724 8.87061 17.9188 10.3655C17.5957 11.4302 16.9147 12.1567 16.025 12.5252L16.0215 12.5357L16.9054 15.0533H14.6432ZM14.0053 11.155H14.5989C15.2134 11.155 15.7498 10.8681 15.9154 10.3259C16.0518 9.87579 15.8081 9.4968 15.1026 9.4968H14.5091L14.0053 11.155Z" fill="white"/>
<path d="M19.6934 7.78711H24.5245L23.9998 9.51644H21.0519L20.7195 10.6114H23.0226L22.5095 12.2999H20.2065L19.8963 13.3238H23.0588L22.534 15.0531H17.4883L19.6934 7.78711Z" fill="white"/>
<path d="M25.5674 7.78711H30.3986L29.8738 9.51644H26.9259L26.5936 10.6114H28.8966L28.3835 12.2999H26.0805L25.7703 13.3238H28.9328L28.408 15.0531H23.3623L25.5674 7.78711Z" fill="white"/>
</svg>
