<svg width="25" height="31" viewBox="0 0 25 31" fill="none" xmlns="http://www.w3.org/2000/svg">
<rect x="4.09082" y="7.31836" width="16.3636" height="15" fill="#E3E9FF"/>
<path d="M1.06773 2.99L12.2727 0.5L23.4777 2.99C23.7805 3.05731 24.0514 3.22586 24.2455 3.46782C24.4396 3.70979 24.5454 4.0107 24.5455 4.32091V17.9395C24.5454 19.2865 24.2127 20.6125 23.5771 21.8C22.9415 22.9875 22.0225 23.9997 20.9018 24.7468L12.2727 30.5L3.64364 24.7468C2.5231 23.9999 1.60426 22.9879 0.968657 21.8006C0.333049 20.6134 0.000322304 19.2876 0 17.9409V4.32091C5.32333e-05 4.0107 0.10587 3.70979 0.299986 3.46782C0.494102 3.22586 0.764914 3.05731 1.06773 2.99ZM10.9091 12.7727H6.81818V15.5H10.9091V19.5909H13.6364V15.5H17.7273V12.7727H13.6364V8.68182H10.9091V12.7727Z" fill="#001F86"/>
</svg>
