<svg width="34" height="31" viewBox="0 0 34 31" fill="none" xmlns="http://www.w3.org/2000/svg">
<path d="M10.6664 3.55176C9.61663 5.83048 9.29049 8.37618 9.73189 10.8459C10.1733 13.3157 11.361 15.5908 13.1351 17.3649C14.9091 19.1389 17.1843 20.3267 19.654 20.7681C22.1238 21.2094 24.6695 20.8833 26.9482 19.8336C25.5927 25.9372 20.1477 30.4999 13.6364 30.4999C6.105 30.4999 0 24.3949 0 16.8636C0 10.3522 4.56273 4.90721 10.6664 3.55176Z" fill="#001F86"/>
<path d="M22.5002 3.40909L21.3602 3.12409C20.8807 3.00418 20.4429 2.75625 20.0934 2.40678C19.7439 2.05731 19.496 1.61945 19.3761 1.14L19.0911 0H17.7275L17.4411 1.14C17.3213 1.61928 17.0736 2.05703 16.7243 2.40648C16.3751 2.75593 15.9376 3.00397 15.4584 3.12409L14.3184 3.40909V4.77273L15.4584 5.05773C15.9378 5.17764 16.3757 5.42557 16.7251 5.77504C17.0746 6.12451 17.3225 6.56237 17.4425 7.04182L17.7275 8.18182H19.0911L19.3761 7.04182C19.496 6.56237 19.7439 6.12451 20.0934 5.77504C20.4429 5.42557 20.8807 5.17764 21.3602 5.05773L22.5002 4.77273V3.40909Z" fill="#E3E9FF"/>
<path d="M33.1817 12.0909L32.0417 11.8059C31.5622 11.686 31.1244 11.438 30.7749 11.0886C30.4254 10.7391 30.1775 10.3012 30.0576 9.82178L29.7726 8.68178H28.4089L28.1239 9.82178C28.004 10.3012 27.7561 10.7391 27.4066 11.0886C27.0572 11.438 26.6193 11.686 26.1398 11.8059L24.9998 12.0909V13.4545L26.1398 13.7395C26.6193 13.8594 27.0572 14.1074 27.4066 14.4568C27.7561 14.8063 28.004 15.2441 28.1239 15.7236L28.4089 16.8636H29.7726L30.0576 15.7236C30.1775 15.2441 30.4254 14.8063 30.7749 14.4568C31.1244 14.1074 31.5622 13.8594 32.0417 13.7395L33.1817 13.4545V12.0909Z" fill="#E3E9FF"/>
</svg>
