<svg width="18" height="16" viewBox="0 0 18 16" fill="none" xmlns="http://www.w3.org/2000/svg">
<path d="M9.19477 0.318169L11.4158 4.67095C11.5015 4.83945 11.6679 4.95593 11.86 4.98302L16.8265 5.68086C17.3104 5.74912 17.5037 6.32397 17.1536 6.65446L13.5601 10.0423C13.4212 10.1734 13.3574 10.3625 13.3904 10.5473L14.2385 15.3313C14.3214 15.7978 13.815 16.1532 13.382 15.9332L8.93989 13.6745C8.76792 13.5873 8.56234 13.5873 8.39093 13.6745L3.94881 15.9332C3.51581 16.1532 3.00998 15.7978 3.09232 15.3313L3.94041 10.5473C3.97346 10.362 3.9096 10.1734 3.77068 10.0423L0.17778 6.65446C-0.172324 6.32451 0.0209332 5.74912 0.504916 5.68086L5.47134 4.98302C5.66348 4.95593 5.82985 4.83945 5.91556 4.67095L8.13661 0.318169C8.35284 -0.106056 8.97854 -0.106056 9.19477 0.318169Z" fill="#F6A733"/>
</svg>
