<svg width="172" height="53" viewBox="0 0 172 53" fill="none" xmlns="http://www.w3.org/2000/svg">
<path d="M164.585 5.94446H53.2051C58.2869 11.5083 61.0853 18.783 61.0425 26.3182C60.9997 33.8534 58.1188 41.0957 52.9741 46.6015V46.7345H164.585C165.503 46.7345 166.412 46.5536 167.261 46.2022C168.109 45.8508 168.88 45.3358 169.529 44.6865C170.178 44.0372 170.693 43.2665 171.044 42.4182C171.396 41.5699 171.576 40.6606 171.576 39.7425V12.9355C171.576 11.0814 170.84 9.30319 169.529 7.99213C168.217 6.68106 166.439 5.94446 164.585 5.94446Z" fill="#0083D1"/>
<path d="M66.9189 17.5345H67.926V13.3285C68.826 13.1717 69.7384 13.0977 70.6519 13.1075C71.9705 12.994 73.2846 13.3715 74.3419 14.1675C74.8921 14.7004 75.318 15.3481 75.5895 16.0643C75.8611 16.7805 75.9715 17.5478 75.913 18.3115C75.9727 19.1139 75.8637 19.92 75.5932 20.6778C75.3226 21.4356 74.8964 22.1283 74.3419 22.7115C73.1734 23.6419 71.6978 24.0992 70.2079 23.9925C69.4456 23.989 68.684 23.9466 67.926 23.8655V19.2935H66.9189V17.5345ZM71.809 19.2895H70.09V22.1215C70.3061 22.1495 70.5241 22.1602 70.7419 22.1535C72.4759 22.1535 73.631 21.0455 73.631 18.3405C73.631 16.0625 72.638 14.9085 70.92 14.9085C70.641 14.8992 70.3621 14.9257 70.09 14.9875V17.5345H71.809V19.2895Z" fill="white"/>
<path d="M79.1859 21.2205L78.5638 23.8625H76.3708L79.1569 13.2005H81.9279L84.6689 23.8625H82.4019L81.7498 21.2205H79.1859ZM78.6529 12.5515C78.6229 11.2515 79.0679 10.5905 79.7529 10.5905C80.0735 10.6 80.3852 10.6987 80.6529 10.8755C80.831 11.0272 81.0452 11.1305 81.2748 11.1755C81.5118 11.1755 81.6009 11.0325 81.6599 10.5265H82.6229C82.6529 11.9025 82.2379 12.4405 81.4969 12.4405C81.1777 12.436 80.8661 12.3428 80.5969 12.1715C80.419 12.0338 80.2104 11.9415 79.9889 11.9025C79.8119 11.9025 79.6779 12.1085 79.6479 12.5515H78.6529ZM81.4529 19.4805L80.9199 17.2185C80.7719 16.5855 80.6089 15.6995 80.4759 15.0515H80.4319C80.2989 15.6995 80.1498 16.6015 80.0168 17.2185L79.4839 19.4805H81.4529Z" fill="white"/>
<path d="M89.9709 15.1925H87.5559V13.1995H94.5789V15.1925H92.1339V23.8615H89.9709V15.1925Z" fill="white"/>
<path d="M97.8818 13.1995V17.3605H101.098V13.1995H103.261V23.8615H101.098V19.4005H97.8818V23.8615H95.7239V13.1995H97.8818Z" fill="white"/>
<path d="M113.321 18.4045C113.321 22.0585 111.528 24.0205 108.921 24.0205C106.18 24.0205 104.683 21.5845 104.683 18.5785C104.683 15.4615 106.357 13.0415 109.069 13.0415C111.943 13.0415 113.321 15.6035 113.321 18.4045ZM109.809 10.7475L111.231 12.6305H109.69L109.008 11.6975H108.978L108.278 12.6305H106.767L108.16 10.7475H109.809ZM106.964 18.5475C106.964 20.7305 107.735 22.1385 109.023 22.1385C110.342 22.1385 111.038 20.5885 111.038 18.4845C111.038 16.5845 110.371 14.9245 109.008 14.9245C107.72 14.9235 106.964 16.4115 106.964 18.5465V18.5475Z" fill="white"/>
<path d="M114.726 23.8615V13.1995H117.097L119.009 17.1865C119.565 18.3238 120.055 19.4924 120.476 20.6865H120.52C120.401 19.3575 120.328 17.8075 120.328 16.0865V13.2075H122.283V23.8695H120.105L118.149 19.7695C117.57 18.6035 117.061 17.4045 116.623 16.1785H116.578C116.638 17.4915 116.678 19.0415 116.678 20.9085V23.8665L114.726 23.8615Z" fill="white"/>
<path d="M131.676 23.4345C130.729 23.7756 129.733 23.9574 128.727 23.9725C128.061 24.0197 127.393 23.9273 126.766 23.7012C126.138 23.4751 125.564 23.1203 125.082 22.6595C124.115 21.5512 123.621 20.1087 123.704 18.6405C123.734 14.9705 126.045 13.0885 128.964 13.0885C129.798 13.0606 130.628 13.2173 131.394 13.5475L130.964 15.4295C130.352 15.1467 129.682 15.0098 129.008 15.0295C127.289 15.0295 125.971 16.1205 125.971 18.5885C125.971 20.8985 127.156 22.0885 128.727 22.0885C129.029 22.1067 129.331 22.0638 129.616 21.9625V19.6225H128.268V17.8025H131.676V23.4345Z" fill="white"/>
<path d="M136.148 13.3425C137.043 13.1859 137.951 13.1116 138.86 13.1205C139.844 13.0313 140.83 13.2587 141.675 13.7695C142.015 13.9912 142.292 14.2971 142.479 14.6576C142.666 15.018 142.757 15.4207 142.742 15.8265C142.744 16.3252 142.592 16.8123 142.305 17.2204C142.018 17.6285 141.612 17.9375 141.142 18.1045V18.1515C141.71 18.3005 142.211 18.6386 142.561 19.1101C142.911 19.5817 143.09 20.1585 143.069 20.7455C143.081 21.1638 143.003 21.5797 142.839 21.9648C142.676 22.3499 142.431 22.6951 142.121 22.9765C141.421 23.6095 140.283 23.9765 138.401 23.9765C137.648 23.9864 136.895 23.9386 136.149 23.8335L136.148 13.3425ZM138.297 17.4705H138.934C139.986 17.4705 140.579 16.9175 140.579 16.0945C140.579 15.2875 140.079 14.8135 139.127 14.8135C138.849 14.8078 138.571 14.8289 138.297 14.8765V17.4705ZM138.297 22.2005C138.536 22.2444 138.78 22.2605 139.023 22.2485C139.986 22.2485 140.801 21.7905 140.801 20.6825C140.801 19.6065 139.971 19.1325 138.963 19.1325H138.296L138.297 22.2005Z" fill="white"/>
<path d="M146.608 21.2195L145.985 23.8615H143.792L146.578 13.1995H149.334L152.09 23.8615H149.823L149.156 21.2195H146.608ZM148.875 19.4795L148.342 17.2175C148.193 16.5845 148.03 15.6985 147.897 15.0505H147.853C147.72 15.6985 147.572 16.6005 147.438 17.2175L146.905 19.4795H148.875ZM150.46 10.7315L148.638 12.6315H146.963L148.208 10.7315H150.46Z" fill="white"/>
<path d="M161.202 18.4045C161.202 22.0585 159.409 24.0205 156.802 24.0205C154.061 24.0205 152.564 21.5845 152.564 18.5785C152.564 15.4615 154.238 13.0415 156.95 13.0415C159.823 13.0415 161.202 15.6035 161.202 18.4045ZM154.845 18.5465C154.845 20.7295 155.615 22.1375 156.904 22.1375C158.223 22.1375 158.92 20.5875 158.92 18.4835C158.92 16.5835 158.253 14.9245 156.89 14.9245C155.601 14.9235 154.845 16.4115 154.845 18.5465Z" fill="white"/>
<path d="M67.8081 33.0266C68.428 32.8947 69.0603 32.8297 69.6941 32.8326C70.5058 32.7546 71.3162 32.9932 71.9561 33.4985C72.1852 33.7064 72.3657 33.9622 72.4848 34.2477C72.6039 34.5333 72.6586 34.8415 72.6451 35.1506C72.6459 35.6001 72.5077 36.0389 72.2494 36.4068C71.991 36.7747 71.6252 37.0537 71.2021 37.2056V37.2466C71.7203 37.3753 72.1781 37.6791 72.4979 38.1066C72.8178 38.5342 72.98 39.0591 72.9571 39.5925C72.9685 39.9346 72.9112 40.2756 72.7883 40.5951C72.6655 40.9146 72.4797 41.2062 72.2421 41.4526C71.8592 41.7838 71.4122 42.0324 70.9288 42.183C70.4455 42.3335 69.9363 42.3828 69.4331 42.3276C68.8899 42.3277 68.3472 42.2943 67.8081 42.2275V33.0266ZM68.9001 36.8726H69.7581C69.9831 36.8947 70.2103 36.8696 70.4251 36.7988C70.6399 36.7279 70.8375 36.6129 71.0052 36.4612C71.1729 36.3095 71.307 36.1245 71.399 35.9178C71.4909 35.7112 71.5386 35.4877 71.5391 35.2615C71.5391 34.2485 70.8891 33.7346 69.7711 33.7346C69.4785 33.7267 69.186 33.7546 68.9001 33.8176V36.8726ZM68.9001 41.3566C69.1706 41.4017 69.4449 41.4204 69.7191 41.4125C70.8501 41.4125 71.8121 40.8986 71.8121 39.5806C71.8121 38.3036 70.8371 37.7476 69.6931 37.7476H68.9081L68.9001 41.3566Z" fill="white"/>
<path d="M80.9861 37.4966C80.9861 40.7866 79.3731 42.3966 77.3861 42.3966C75.3191 42.3966 73.9011 40.5506 73.9011 37.6346C73.9011 34.6346 75.4091 32.7626 77.5161 32.7626C79.6231 32.7626 80.9861 34.6506 80.9861 37.4966ZM75.0441 37.6216C75.0441 39.5926 75.8631 41.4216 77.4491 41.4216C79.0351 41.4216 79.8411 39.5756 79.8411 37.5346C79.8411 35.7166 79.1131 33.7345 77.4491 33.7345C75.7851 33.7345 75.0431 35.6226 75.0431 37.6216H75.0441ZM77.8661 30.8886L79.1661 32.4016H78.2301L77.4501 31.5016H77.4241L76.6441 32.4016H75.7341L77.0091 30.8886H77.8661ZM76.8261 44.0346C76.8237 43.8622 76.8891 43.6957 77.0083 43.5712C77.1274 43.4466 77.2908 43.3738 77.4631 43.3686C77.5471 43.3718 77.6296 43.3916 77.7059 43.4269C77.7821 43.4622 77.8507 43.5122 77.9075 43.5741C77.9643 43.6361 78.0083 43.7087 78.0369 43.7877C78.0655 43.8667 78.0782 43.9506 78.0741 44.0346C78.0782 44.1203 78.0652 44.206 78.0359 44.2867C78.0067 44.3674 77.9618 44.4416 77.9038 44.5049C77.8458 44.5682 77.7759 44.6194 77.698 44.6556C77.6201 44.6917 77.5359 44.7121 77.4501 44.7156C77.2774 44.7067 77.1151 44.6304 76.9982 44.503C76.8813 44.3756 76.8191 44.2074 76.8251 44.0346H76.8261Z" fill="white"/>
<path d="M90.362 41.9946C89.7384 42.2787 89.0566 42.4117 88.372 42.3826C86.123 42.3826 84.458 40.7726 84.458 37.6766C84.458 34.5116 86.278 32.7766 88.593 32.7766C89.2074 32.7479 89.8193 32.8719 90.374 33.1376L90.114 34.0956C89.6497 33.861 89.134 33.7465 88.614 33.7626C86.898 33.7626 85.614 35.0396 85.614 37.6086C85.614 40.0796 86.771 41.3846 88.578 41.3846C89.1205 41.391 89.6576 41.2772 90.151 41.0516L90.362 41.9946Z" fill="white"/>
<path d="M98.022 37.4966C98.022 40.7866 96.41 42.3966 94.422 42.3966C92.355 42.3966 90.937 40.5506 90.937 37.6346C90.937 34.6346 92.445 32.7626 94.552 32.7626C96.659 32.7626 98.022 34.6506 98.022 37.4966ZM92.08 37.6216C92.08 39.5926 92.899 41.4216 94.485 41.4216C96.071 41.4216 96.8781 39.5756 96.8781 37.5346C96.8781 35.7166 96.15 33.7346 94.485 33.7346C92.82 33.7346 92.079 35.6226 92.079 37.6216H92.08ZM94.901 30.8606L96.201 32.3736H95.265L94.485 31.4736H94.459L93.679 32.3736H92.769L94.043 30.8606H94.901Z" fill="white"/>
<path d="M99.415 42.2586V32.9016H100.572L103.016 37.5246C103.549 38.534 104.026 39.5719 104.446 40.6336H104.472C104.381 39.3146 104.355 38.1486 104.355 36.6496V32.9016H105.369V42.2586H104.29L101.832 37.5936C101.286 36.5725 100.8 35.5204 100.376 34.4426L100.337 34.4566C100.415 35.6646 100.428 36.8026 100.428 38.4826V42.2586H99.415Z" fill="white"/>
<path d="M113.186 41.8976C112.437 42.1943 111.639 42.3496 110.833 42.3556C110.295 42.3853 109.756 42.299 109.253 42.1027C108.751 41.9064 108.296 41.6046 107.92 41.2176C107.101 40.2199 106.684 38.9526 106.75 37.6636C106.763 34.6096 108.532 32.8046 111.05 32.8046C111.707 32.7877 112.36 32.9157 112.961 33.1796L112.701 34.1516C112.181 33.9068 111.611 33.7879 111.037 33.8046C109.217 33.8046 107.891 35.0816 107.891 37.5946C107.891 40.1076 109.126 41.3846 110.881 41.3846C111.303 41.4091 111.725 41.3381 112.116 41.1766V38.3026H110.543V37.3586H113.182L113.186 41.8976Z" fill="white"/>
<path d="M118.324 33.9006H115.971V32.9006H121.771V33.9006H119.418V42.2576H118.326L118.324 33.9006Z" fill="white"/>
<path d="M123.839 32.9016V36.8436H127.545V32.9016H128.637V42.2586H127.545V37.8716H123.839V42.2586H122.747V32.9016H123.839Z" fill="white"/>
<path d="M137.401 31.4716C137.537 31.7874 137.608 32.1276 137.609 32.4716C137.621 32.6202 137.602 32.7698 137.552 32.9103C137.502 33.0509 137.423 33.1792 137.32 33.2869C137.216 33.3945 137.092 33.4789 136.953 33.5345C136.815 33.5902 136.666 33.6157 136.517 33.6096L136.335 33.6236V38.5516C136.335 41.2996 135.061 42.3966 133.344 42.3966C131.693 42.3966 130.497 41.3686 130.497 38.6346V32.9016H131.589V38.6626C131.589 40.6336 132.356 41.4256 133.383 41.4256C134.514 41.4256 135.243 40.6066 135.243 38.6626V32.9016H136.192C136.608 32.9016 136.764 32.7486 136.764 32.4016C136.76 32.129 136.689 31.8617 136.556 31.6236L137.401 31.4716Z" fill="white"/>
<path d="M145.23 31.8746C145.375 32.2125 145.45 32.576 145.451 32.9436C145.475 33.1084 145.459 33.2764 145.406 33.4341C145.352 33.5917 145.262 33.7345 145.143 33.8509C145.024 33.9672 144.879 34.0538 144.721 34.1036C144.562 34.1534 144.393 34.1651 144.229 34.1376C144.87 35.1374 145.184 36.3114 145.129 37.4976C145.129 40.7876 143.517 42.3976 141.529 42.3976C139.462 42.3976 138.044 40.5506 138.044 37.6356C138.044 34.6356 139.552 32.7636 141.658 32.7636C142.077 32.7663 142.492 32.8463 142.881 32.9996C143.258 33.2099 143.666 33.3596 144.09 33.4436C144.454 33.4436 144.597 33.2626 144.597 32.8886C144.594 32.594 144.522 32.3043 144.389 32.0416L145.23 31.8746ZM143.982 37.5386C143.982 35.7206 143.254 33.7386 141.602 33.7386C139.95 33.7386 139.184 35.6686 139.184 37.6116C139.184 39.5546 139.99 41.4286 141.589 41.4286C143.188 41.4286 143.982 39.5796 143.982 37.5386Z" fill="white"/>
<path d="M146.52 42.2586V32.9016H147.677L150.122 37.5246C150.655 38.534 151.133 39.5719 151.552 40.6336H151.578C151.487 39.3146 151.461 38.1486 151.461 36.6496V32.9016H152.475V42.2586H151.396L148.938 37.5936C148.392 36.5725 147.906 35.5204 147.482 34.4426L147.443 34.4566C147.521 35.6646 147.534 36.8026 147.534 38.4826V42.2586H146.52Z" fill="white"/>
<path d="M160.29 41.8975C159.541 42.1943 158.743 42.3496 157.937 42.3555C157.399 42.3851 156.86 42.2988 156.358 42.1025C155.855 41.9062 155.401 41.6044 155.025 41.2175C154.206 40.2199 153.789 38.9526 153.855 37.6636C153.868 34.6096 155.636 32.8046 158.155 32.8046C158.812 32.7876 159.465 32.9156 160.066 33.1796L159.806 34.1516C159.286 33.9068 158.716 33.7879 158.142 33.8046C156.322 33.8046 154.996 35.0815 154.996 37.5945C154.996 40.1075 156.231 41.3845 157.986 41.3845C158.408 41.4091 158.83 41.3381 159.221 41.1766V38.3026H157.648V37.3585H160.287L160.29 41.8975Z" fill="white"/>
<path d="M160.796 27.7285H68.2471V28.2835H160.796V27.7285Z" fill="white"/>
<path d="M25.8073 49.2185C25.2722 49.7042 24.5754 49.9733 23.8528 49.9733C23.1301 49.9733 22.4333 49.7042 21.8983 49.2185L5.24427 32.5645C5.00105 32.3217 4.80808 32.0333 4.67643 31.7159C4.54478 31.3985 4.477 31.0582 4.477 30.7146C4.477 30.3709 4.54478 30.0306 4.67643 29.7132C4.80808 29.3957 5.00105 29.1073 5.24427 28.8645L8.26026 25.8495C8.50299 25.6062 8.79132 25.4131 9.10877 25.2814C9.42622 25.1497 9.76657 25.0819 10.1103 25.0819C10.454 25.0819 10.7943 25.1497 11.1117 25.2814C11.4292 25.4131 11.7175 25.6062 11.9603 25.8495L23.8603 37.7495L47.6253 13.9845C48.0503 13.5595 48.5542 13.0795 48.8442 12.7465C46.5828 8.79605 43.2987 5.52791 39.3372 3.28584C35.3757 1.04377 30.8832 -0.0893987 26.3323 0.0055077C20.9744 -0.00106464 15.7423 1.62898 11.3362 4.67744C6.93004 7.72591 3.5601 12.0474 1.67731 17.0636C-0.205472 22.0798 -0.511277 27.5514 0.800818 32.7461C2.11291 37.9409 4.98031 42.611 9.01929 46.1314C13.0583 49.6519 18.0761 51.8548 23.4014 52.4453C28.7267 53.0358 34.1052 51.9858 38.8174 49.4357C43.5295 46.8856 47.3504 42.9572 49.7687 38.1761C52.187 33.395 53.0873 27.9893 52.3493 22.6825L25.8073 49.2185Z" fill="#0083D1"/>
<path d="M9.64131 18.6736C9.87659 18.7374 10.0955 18.8508 10.2833 19.0063C10.4711 19.1617 10.6234 19.3555 10.7301 19.5748C10.8368 19.794 10.8953 20.0334 10.9017 20.2771C10.9081 20.5208 10.8623 20.7631 10.7673 20.9876C10.6809 21.2047 10.5499 21.4012 10.3828 21.5645C10.2156 21.7278 10.0161 21.8542 9.79707 21.9355C9.57803 22.0169 9.34438 22.0513 9.11119 22.0367C8.87799 22.022 8.65046 21.9586 8.44331 21.8506C8.2126 21.783 7.99853 21.6681 7.81474 21.5132C7.63095 21.3582 7.48148 21.1666 7.3759 20.9507C7.27031 20.7347 7.21092 20.4991 7.20152 20.2589C7.19212 20.0187 7.23292 19.7791 7.3213 19.5556C7.40562 19.3372 7.53497 19.139 7.70094 18.9739C7.86691 18.8087 8.06578 18.6804 8.28462 18.5972C8.50345 18.514 8.73734 18.4779 8.97108 18.491C9.20482 18.5042 9.43319 18.5663 9.64131 18.6736ZM8.6923 21.1986C9.3743 21.4706 10.0543 21.3436 10.2923 20.7566C10.5303 20.1696 10.1133 19.6116 9.4113 19.3316C8.7783 19.0796 8.05629 19.1546 7.81129 19.7676C7.56629 20.3806 8.0003 20.9226 8.6923 21.1986Z" fill="white"/>
<path d="M11.5613 19.0156L8.53931 17.0346L8.95032 16.4066L10.7583 16.4756C11.2119 16.4945 11.6636 16.5443 12.1103 16.6246L12.1163 16.6156C11.6893 16.3866 11.2903 16.1446 10.8283 15.8416L9.77432 15.1516L10.1093 14.6406L13.1323 16.6216L12.7593 17.1916L10.9143 17.1116C10.4454 17.0905 9.97796 17.043 9.51431 16.9696V16.9856C9.91431 17.2186 10.3213 17.4756 10.8193 17.8016L11.9003 18.5096L11.5613 19.0156Z" fill="white"/>
<path d="M10.8982 13.6976L11.3472 13.2146L13.5912 15.2976L14.6012 14.2096L15.0012 14.5856L13.5422 16.1576L10.8982 13.6976Z" fill="white"/>
<path d="M13.4673 11.1736L15.8313 13.9086L15.3313 14.3396L12.9673 11.6046L13.4673 11.1736Z" fill="white"/>
<path d="M16.2933 13.4636L14.3203 10.4326L14.9493 10.0226L16.5783 10.8126C16.986 11.0122 17.3795 11.2394 17.7563 11.4926L17.7653 11.4866C17.4653 11.1056 17.1983 10.7226 16.8963 10.2596L16.2083 9.20259L16.7213 8.86958L18.6943 11.9006L18.1233 12.2726L16.4653 11.4566C16.044 11.2482 15.6347 11.0166 15.2393 10.7626L15.2283 10.7756C15.5053 11.1526 15.7703 11.5496 16.0953 12.0486L16.8003 13.1326L16.2933 13.4636Z" fill="white"/>
<path d="M20.4823 9.37761L19.2293 9.91258L19.6473 10.8896L21.0473 10.2896L21.2603 10.7896L19.2533 11.6476L17.8323 8.32457L19.7653 7.4976L19.9783 7.9976L18.6523 8.56456L19.0193 9.42259L20.2713 8.88756L20.4823 9.37761Z" fill="white"/>
<path d="M21.4923 10.3636C21.4731 10.3118 21.4648 10.2566 21.4679 10.2015C21.4711 10.1464 21.4856 10.0926 21.5106 10.0434C21.5356 9.99415 21.5705 9.95064 21.6131 9.91556C21.6557 9.88049 21.7051 9.85462 21.7583 9.83958C21.8636 9.81342 21.9751 9.82868 22.0695 9.88224C22.164 9.93579 22.2343 10.0236 22.266 10.1274C22.2976 10.2313 22.2883 10.3433 22.2398 10.4405C22.1913 10.5376 22.1073 10.6125 22.0053 10.6496C21.9528 10.6667 21.8974 10.6728 21.8425 10.6675C21.7876 10.6621 21.7344 10.6455 21.6862 10.6187C21.6381 10.5918 21.596 10.5553 21.5626 10.5114C21.5292 10.4675 21.5053 10.4172 21.4923 10.3636Z" fill="white"/>
<path d="M25.6343 9.67456C25.2868 9.86539 24.91 9.9972 24.5193 10.0646C24.2693 10.1231 24.0101 10.1315 23.7568 10.0895C23.5035 10.0474 23.261 9.95574 23.0433 9.81958C22.8466 9.67414 22.6818 9.48998 22.559 9.27845C22.4362 9.06691 22.3581 8.83244 22.3293 8.58954C22.2801 8.33418 22.2857 8.07134 22.3457 7.8183C22.4057 7.56527 22.5188 7.32785 22.6774 7.12177C22.836 6.91569 23.0366 6.74564 23.2659 6.62287C23.4951 6.50009 23.7478 6.42737 24.0073 6.40955C24.3297 6.34712 24.6616 6.35155 24.9823 6.42255L24.9263 6.96955C24.6527 6.90259 24.3678 6.89581 24.0913 6.94959C23.916 6.96271 23.7458 7.01384 23.5923 7.09943C23.4388 7.18502 23.3059 7.30295 23.2026 7.44513C23.0993 7.58731 23.0283 7.75032 22.9944 7.92273C22.9605 8.09515 22.9645 8.27285 23.0063 8.44355C23.0186 8.61513 23.0676 8.78207 23.15 8.93305C23.2324 9.08403 23.3464 9.21552 23.4841 9.31861C23.6218 9.4217 23.78 9.49401 23.9481 9.53058C24.1162 9.56715 24.2902 9.56714 24.4583 9.53058C24.6271 9.51166 24.7903 9.45892 24.9383 9.37555L24.7913 8.48658L24.1613 8.58655L24.0763 8.07355L25.3353 7.86554L25.6343 9.67456Z" fill="white"/>
<path d="M29.4313 8.06662C29.4512 8.30963 29.4189 8.55406 29.3365 8.78354C29.2541 9.01302 29.1235 9.22221 28.9536 9.39706C28.7837 9.57192 28.5783 9.70841 28.3513 9.79733C28.1242 9.88625 27.8808 9.92557 27.6373 9.91263C27.4038 9.90494 27.1746 9.84836 26.9644 9.74655C26.7541 9.64474 26.5676 9.49996 26.4168 9.32156C26.266 9.14316 26.1543 8.9351 26.0889 8.71084C26.0236 8.48658 26.006 8.2511 26.0373 8.01962C26.0225 7.77971 26.0578 7.53935 26.1411 7.31387C26.2244 7.08839 26.3537 6.88272 26.5209 6.71005C26.6882 6.53738 26.8896 6.40147 27.1122 6.311C27.3349 6.22053 27.574 6.17747 27.8143 6.1846C28.0483 6.18981 28.2785 6.24418 28.4901 6.34421C28.7017 6.44423 28.8898 6.58766 29.0423 6.76517C29.1948 6.94267 29.3083 7.15026 29.3753 7.37448C29.4423 7.5987 29.4614 7.83454 29.4313 8.06662ZM26.7313 8.03061C26.7073 8.76461 27.0573 9.3616 27.6893 9.3826C28.3213 9.4036 28.7053 8.82659 28.7303 8.07059C28.7523 7.39059 28.4363 6.73559 27.7773 6.71359C27.1183 6.69159 26.7593 7.28661 26.7343 8.03061H26.7313Z" fill="white"/>
<path d="M30.5653 10.1806L30.2153 6.39958L30.9153 6.55656L31.0383 8.26457C31.0743 8.73957 31.0963 9.17859 31.0943 9.62859H31.1043C31.2923 9.22859 31.5143 8.82858 31.7513 8.43358L32.6253 6.93358L33.3103 7.08659L31.3013 10.3385L30.5653 10.1806Z" fill="white"/>
<path d="M32.4754 10.2956C32.4898 10.2423 32.5151 10.1926 32.5497 10.1496C32.5843 10.1065 32.6274 10.0711 32.6763 10.0456C32.7253 10.02 32.779 10.0049 32.834 10.0011C32.8891 9.99734 32.9444 10.005 32.9964 10.0236C33.0491 10.04 33.0978 10.0672 33.1395 10.1034C33.1812 10.1396 33.2149 10.1841 33.2386 10.234C33.2623 10.2839 33.2754 10.3381 33.277 10.3933C33.2787 10.4485 33.2689 10.5034 33.2484 10.5546C33.2331 10.6075 33.2074 10.6568 33.1726 10.6995C33.1378 10.7422 33.0948 10.7774 33.046 10.803C32.9973 10.8286 32.9438 10.8441 32.8889 10.8485C32.8341 10.853 32.7788 10.8462 32.7266 10.8287C32.6744 10.8112 32.6263 10.7833 32.5851 10.7467C32.544 10.7101 32.5107 10.6656 32.4872 10.6158C32.4637 10.566 32.4506 10.512 32.4485 10.4569C32.4465 10.4019 32.4556 10.347 32.4754 10.2956Z" fill="white"/>
<path d="M34.3232 11.3866L34.8302 7.6246L35.4782 7.9346L35.2142 9.62656C35.1432 10.0976 35.0663 10.5266 34.9633 10.9676H34.9732C35.2452 10.6226 35.5512 10.2816 35.8732 9.94858L37.0602 8.68655L37.6932 8.9866L35.0063 11.7046L34.3232 11.3866Z" fill="white"/>
<path d="M36.3223 12.3866L38.4573 9.46858L39.0633 9.91158L38.9013 11.7116C38.8594 12.1634 38.7866 12.6118 38.6833 13.0536L38.6923 13.0596C38.9423 12.6456 39.2053 12.2596 39.5312 11.8136L40.2753 10.7966L40.7682 11.1576L38.6353 14.0736L38.0863 13.6736L38.2613 11.8356C38.3066 11.3683 38.378 10.9039 38.4753 10.4446H38.4593C38.2053 10.8366 37.9283 11.2246 37.5763 11.7046L36.8143 12.7476L36.3223 12.3866Z" fill="white"/>
</svg>
