<svg width="24" height="24" viewBox="0 0 24 24" fill="none" xmlns="http://www.w3.org/2000/svg">
<circle cx="12" cy="12" r="12" fill="#153388"/>
<path d="M4.62106 14.2503V14.2374L7.74351 9.775V8.95468H3.4099V9.90819H6.34766V9.92534L3.27246 14.3706V15.2038H7.75634V14.2503H4.62106ZM11.8709 10.9132V11.4286H11.8537C11.5273 11.042 11.085 10.8488 10.5266 10.8488C10.2345 10.8488 9.95966 10.9046 9.70626 11.0163C9.44854 11.1279 9.22952 11.2826 9.04913 11.4758C8.86449 11.6734 8.7184 11.9096 8.61534 12.1844C8.50795 12.4636 8.45643 12.76 8.45643 13.0778C8.45643 13.3398 8.48648 13.5846 8.55523 13.8165C8.62392 14.0485 8.7184 14.2503 8.84301 14.4264C8.96755 14.6025 9.11356 14.7528 9.28538 14.8817C9.45712 15.0105 9.64616 15.1093 9.86086 15.1738C10.0756 15.2425 10.299 15.2725 10.5352 15.2725C11.1193 15.2725 11.5745 15.0578 11.9009 14.6283H11.9138V15.2038H12.8544V10.9132H11.8709ZM10.6898 14.3792C10.3247 14.3792 10.0283 14.2589 9.80075 14.0184C9.56883 13.7779 9.45712 13.4643 9.45712 13.0821C9.45712 12.8845 9.48724 12.6999 9.55167 12.5281C9.61603 12.3563 9.70626 12.2145 9.8179 12.1029C9.92961 11.9912 10.0585 11.901 10.2087 11.8366C10.3591 11.7765 10.5223 11.7421 10.6941 11.7421C11.042 11.7421 11.3297 11.8709 11.5616 12.1287C11.7936 12.3863 11.9096 12.7041 11.9096 13.0821C11.9096 13.4643 11.7893 13.7779 11.5531 14.0184C11.3169 14.2589 11.0291 14.3792 10.6898 14.3792ZM14.1601 15.2038H15.1437V8.72705H14.1601V15.2038ZM18.4937 15.2725C18.9232 15.2725 19.3097 15.1823 19.6533 14.9976C19.9969 14.813 20.2632 14.5509 20.4565 14.216C20.6454 13.881 20.7442 13.4944 20.7442 13.0649C20.7442 12.6355 20.6454 12.2489 20.4565 11.9096C20.2632 11.5746 19.9969 11.3126 19.6576 11.1279C19.314 10.9433 18.9275 10.8488 18.4937 10.8488C18.047 10.8488 17.6518 10.9475 17.3083 11.1408C16.9647 11.3341 16.6984 11.5961 16.5137 11.931C16.329 12.2661 16.2388 12.644 16.2388 13.0649C16.2388 13.3784 16.2904 13.6705 16.4021 13.9411C16.5094 14.216 16.6597 14.4479 16.853 14.6455C17.0463 14.843 17.2868 14.9934 17.5703 15.105C17.8537 15.2167 18.1586 15.2725 18.4937 15.2725ZM18.4937 14.3792C18.1286 14.3792 17.828 14.2546 17.5917 14.0012C17.3555 13.7521 17.2395 13.4386 17.2395 13.0649C17.2395 12.687 17.3555 12.3734 17.5874 12.12C17.8193 11.8709 18.12 11.7421 18.4937 11.7421C18.8502 11.7421 19.1465 11.8666 19.387 12.1114C19.6233 12.3606 19.7435 12.6784 19.7435 13.0649C19.7435 13.4472 19.6233 13.7607 19.3828 14.0098C19.1422 14.2589 18.8458 14.3792 18.4937 14.3792Z" fill="white"/>
</svg>
