<svg width="19" height="19" viewBox="0 0 19 19" fill="none" xmlns="http://www.w3.org/2000/svg">
<path d="M0.23085 5.40218L9.0155 0.135384C9.16315 0.0467958 9.33209 0 9.50428 0C9.67646 0 9.8454 0.0467958 9.99305 0.135384L18.7691 5.40313C18.8396 5.44533 18.8978 5.50505 18.9383 5.57648C18.9788 5.6479 19 5.7286 19 5.81068V17.8909C19 18.1428 18.8999 18.3845 18.7218 18.5626C18.5436 18.7408 18.302 18.8409 18.05 18.8409H0.95C0.698044 18.8409 0.456408 18.7408 0.278249 18.5626C0.100089 18.3845 1.04569e-08 18.1428 1.04569e-08 17.8909V5.80973C-1.7212e-05 5.72765 0.0212399 5.64695 0.0616982 5.57553C0.102156 5.5041 0.160435 5.44438 0.23085 5.40218ZM15.5287 6.72268L9.55795 11.8897L3.46465 6.71698L2.23535 8.16479L9.56935 14.392L16.7713 8.16004L15.5287 6.72268Z" fill="#000C35"/>
</svg>
