<svg width="29" height="28" viewBox="0 0 29 28" fill="none" xmlns="http://www.w3.org/2000/svg">
<path d="M19.792 28V17.164H23.4211L23.964 12.9516H19.792V10.2636C19.792 9.044 20.1311 8.21178 21.8796 8.21178H24.1102V4.44422C23.0304 4.32965 21.945 4.27408 20.8591 4.27778C17.6438 4.27778 15.4427 6.24089 15.4427 9.84667V12.9516H11.8058V17.164H15.4427V28H2.05556C1.643 28 1.24733 27.8361 0.955612 27.5444C0.663888 27.2527 0.5 26.857 0.5 26.4444V1.55556C0.5 1.143 0.663888 0.747335 0.955612 0.455612C1.24733 0.163888 1.643 0 2.05556 0H26.9444C27.357 0 27.7527 0.163888 28.0444 0.455612C28.3361 0.747335 28.5 1.143 28.5 1.55556V26.4444C28.5 26.857 28.3361 27.2527 28.0444 27.5444C27.7527 27.8361 27.357 28 26.9444 28H19.792Z" fill="#051C5C"/>
</svg>
