<svg width="19" height="20" viewBox="0 0 19 20" fill="none" xmlns="http://www.w3.org/2000/svg">
<path d="M19 14.2519C18.9996 15.5511 18.5555 16.8112 17.7413 17.8235C16.9271 18.8359 15.7915 19.5399 14.5227 19.8189L13.9165 18.0006C14.4716 17.9092 14.9994 17.6958 15.462 17.3758C15.9246 17.0558 16.3105 16.6371 16.5917 16.15H14.25C13.7461 16.15 13.2628 15.9498 12.9065 15.5935C12.5502 15.2372 12.35 14.7539 12.35 14.25V10.45C12.35 9.94609 12.5502 9.46282 12.9065 9.1065C13.2628 8.75018 13.7461 8.55 14.25 8.55H17.0411C16.8093 6.71355 15.9153 5.02481 14.5269 3.80064C13.1384 2.57648 11.351 1.90102 9.5 1.90102C7.64898 1.90102 5.86156 2.57648 4.47314 3.80064C3.08473 5.02481 2.19073 6.71355 1.9589 8.55H4.75C5.25391 8.55 5.73718 8.75018 6.0935 9.1065C6.44982 9.46282 6.65 9.94609 6.65 10.45V14.25C6.65 14.7539 6.44982 15.2372 6.0935 15.5935C5.73718 15.9498 5.25391 16.15 4.75 16.15H1.9C1.39609 16.15 0.912816 15.9498 0.556497 15.5935C0.200178 15.2372 0 14.7539 0 14.25V9.5C0 4.25315 4.25315 0 9.5 0C14.7469 0 19 4.25315 19 9.5V14.2519Z" fill="#000C35"/>
</svg>
