<svg width="100" height="35" viewBox="0 0 100 35" fill="none" xmlns="http://www.w3.org/2000/svg">
<path d="M2.37814 31.8447C1.78668 31.8447 1.22126 31.5099 0.953429 30.9407C0.808354 30.6357 0.689319 30.3455 0.588882 30.0628C-1.27105 24.8921 1.42214 19.1709 6.59274 17.3109C7.51899 16.9761 8.48616 16.7864 9.46077 16.7381C8.64983 13.7064 8.93254 10.5147 10.2829 7.64291C11.7968 4.42147 14.4788 1.98493 17.8267 0.783394C23.3135 -1.19188 29.3769 0.679237 32.8476 5.14685C33.93 3.9602 35.2841 3.04882 36.8167 2.49827C41.9873 0.638318 47.7084 3.33153 49.5683 8.50222C49.8622 9.3206 49.4382 10.2208 48.6198 10.5147C47.8014 10.8086 46.9012 10.3845 46.6074 9.56611C45.3352 6.02847 41.4219 4.18339 37.8843 5.45932C36.2885 6.03219 34.9716 7.18165 34.1719 8.69565C33.8966 9.21643 33.3535 9.53263 32.7695 9.53635C32.1817 9.53263 31.646 9.20155 31.3782 8.68077C29.057 4.14248 23.6856 2.02212 18.8907 3.74817C16.3314 4.66699 14.2855 6.53066 13.1286 8.98952C11.9717 11.4484 11.8414 14.2123 12.7602 16.7678C12.8794 17.1026 13.0282 17.4449 13.2104 17.8168C13.4782 18.3599 13.4075 19.0109 13.0318 19.4871C12.6561 19.9633 12.0424 20.1828 11.4509 20.0488C10.1824 19.7624 8.8693 19.8443 7.65291 20.2795C4.11904 21.5443 2.27398 25.4575 3.54617 28.9952C3.61313 29.185 3.69869 29.3821 3.79913 29.5978C4.1674 30.3828 3.8326 31.3202 3.04399 31.6921C2.82824 31.7963 2.60134 31.8447 2.37814 31.8447Z" fill="url(#paint0_linear_1143_29390)"/>
<path d="M29.0303 14.19V33.7567H25.3997V32.0345H25.3141C24.28 33.3438 22.8255 33.9986 20.9581 33.9986C20.3964 33.9986 19.8571 33.9428 19.3363 33.8274C18.8156 33.7122 18.3282 33.541 17.8782 33.3141C17.428 33.0871 17.0077 32.8156 16.6171 32.5031C16.2265 32.1907 15.8806 31.8261 15.5792 31.4057C15.2742 30.9891 15.0175 30.5353 14.8017 30.0517C14.5898 29.5681 14.426 29.0399 14.3108 28.4634C14.1954 27.8905 14.1396 27.2916 14.1396 26.6778C14.1396 25.6138 14.3108 24.6207 14.653 23.7019C14.9952 22.7794 15.4639 21.9981 16.0554 21.3509C16.6505 20.7035 17.361 20.1977 18.1906 19.8257C19.0201 19.4537 19.9055 19.2715 20.8466 19.2715C22.6395 19.2715 24.0755 19.8889 25.1467 21.1239H25.2174V14.19C25.2174 13.1373 26.073 12.2817 27.1257 12.2817C28.1785 12.2817 29.0303 13.1373 29.0303 14.19ZM23.551 30.1039C24.12 29.7877 24.5739 29.3264 24.9124 28.7312C25.2508 28.1322 25.4182 27.4553 25.4182 26.6926C25.4182 25.5543 25.0649 24.6058 24.3581 23.8432C23.6514 23.0843 22.7549 22.7049 21.6723 22.7049C20.6271 22.7049 19.7567 23.0695 19.061 23.8023C18.3617 24.5351 18.0158 25.4986 18.0158 26.6926C18.0158 27.8421 18.3543 28.7758 19.035 29.4974C19.712 30.2191 20.5899 30.58 21.6612 30.58C22.3494 30.5837 22.9781 30.4237 23.551 30.1039Z" fill="#051C5C"/>
<path d="M44.2041 27.8756H34.22C34.4469 28.72 34.8821 29.3859 35.522 29.8695C36.1618 30.3531 36.9392 30.6023 37.8507 30.6097C39.227 30.6209 40.3616 30.0816 41.2543 28.999L43.7317 31.3053C43.0845 32.12 42.2401 32.7747 41.1985 33.262C40.1532 33.7494 38.9479 33.9948 37.5827 33.9948C36.1953 33.9948 34.9491 33.6935 33.8368 33.0909C32.7246 32.4883 31.8504 31.6215 31.2107 30.4907C30.5708 29.3598 30.251 28.069 30.251 26.6183C30.251 25.5543 30.4295 24.5648 30.7903 23.6498C31.1512 22.7347 31.6421 21.9535 32.2633 21.3136C32.8846 20.6739 33.6323 20.1717 34.5064 19.8108C35.3807 19.45 36.3143 19.2715 37.3112 19.2715C38.6876 19.2715 39.9077 19.5839 40.9716 20.2051C42.0355 20.8264 42.8575 21.6857 43.4341 22.783C44.0144 23.8804 44.3045 25.1229 44.3045 26.5067C44.3045 27.1837 44.2711 27.6375 44.2041 27.8756ZM35.4104 23.2778C34.8449 23.7055 34.4544 24.3231 34.2349 25.1302H40.514C40.3132 24.3529 39.9523 23.7428 39.4315 23.3001C38.9108 22.8575 38.2449 22.6379 37.4377 22.6379C36.6528 22.6342 35.9758 22.85 35.4104 23.2778Z" fill="#051C5C"/>
<path d="M66.5302 20.8C67.4081 21.8156 67.8471 23.3779 67.8471 25.4872V33.7751H64.0306V26.4097C64.0306 23.9396 63.201 22.7083 61.5383 22.7083C60.9988 22.7083 60.5078 22.8571 60.0726 23.151C59.6373 23.4449 59.2877 23.8949 59.0272 24.4976C58.7669 25.1002 58.6367 25.8145 58.6367 26.6403V33.7751H54.8201V26.4097C54.8201 23.9396 53.9794 22.7083 52.2981 22.7083C51.7177 22.7083 51.2044 22.8571 50.7617 23.151C50.3153 23.4449 49.9583 23.8949 49.6941 24.4976C49.4301 25.1002 49.2961 25.8145 49.2961 26.6403V33.7601H45.4795V21.3953C45.4795 20.3573 46.3202 19.5166 47.3581 19.5166H47.4139C48.4517 19.5166 49.2924 20.3573 49.2924 21.3953H49.3333C49.8951 20.7107 50.5423 20.1862 51.2862 19.8217C52.0265 19.4571 52.7965 19.2749 53.5926 19.2749C55.5752 19.2749 56.9851 20.0374 57.8221 21.5663H57.863C58.4432 20.8261 59.1575 20.2569 60.0056 19.8663C60.8537 19.472 61.7911 19.2749 62.8178 19.2749C64.4174 19.2749 65.6524 19.7807 66.5302 20.8Z" fill="#051C5C"/>
<path d="M69.8752 33.4329C69.4884 33.0535 69.2949 32.5922 69.2949 32.0491C69.2949 31.506 69.4884 31.0448 69.8752 30.6616C70.2621 30.2784 70.7345 30.085 71.2962 30.085C71.8393 30.085 72.3043 30.2784 72.6912 30.6653C73.078 31.0521 73.2714 31.5134 73.2714 32.0491C73.2714 32.5848 73.078 33.0423 72.6912 33.4255C72.3043 33.8086 71.8393 34.0021 71.2962 34.0021C70.7345 33.9984 70.2621 33.8086 69.8752 33.4329Z" fill="#051C5C"/>
<path d="M84.6719 20.7628L79.5646 33.7565H76.0047L70.8862 20.7628C70.6518 20.1638 71.0907 19.5166 71.7343 19.5166H74.4238L77.7716 29.0879H77.8126L81.0897 19.5166H83.8239C84.4674 19.5166 84.9063 20.1638 84.6719 20.7628Z" fill="#051C5C"/>
<path d="M96.6618 19.6097C97.2756 19.8328 97.815 20.1788 98.2837 20.6437C98.7524 21.1087 99.1132 21.7374 99.3588 22.5224C99.6043 23.3109 99.7307 24.2409 99.7307 25.3123V33.7714H95.9141V26.2682C95.9141 24.9589 95.691 24.0364 95.2446 23.5044C94.7981 22.9724 94.11 22.7083 93.1801 22.7083C92.1943 22.7083 91.4056 23.0469 90.8216 23.7202C90.2376 24.3935 89.9475 25.3532 89.9475 26.5957V33.7601H86.1309V21.3543C86.1309 20.3388 86.953 19.5166 87.9684 19.5166H88.1099C89.1254 19.5166 89.9475 20.3388 89.9475 21.3543H89.9884C90.5687 20.681 91.2532 20.1639 92.0455 19.8105C92.8378 19.4571 93.6748 19.2749 94.5601 19.2749C95.3487 19.2749 96.0517 19.3864 96.6618 19.6097Z" fill="#051C5C"/>
<defs>
<linearGradient id="paint0_linear_1143_29390" x1="-0.00257642" y1="15.9213" x2="49.6623" y2="15.9213" gradientUnits="userSpaceOnUse">
<stop offset="0.0974" stop-color="#E562FF"/>
<stop offset="1" stop-color="#8C00FF"/>
</linearGradient>
</defs>
</svg>
