<svg width="112" height="38" viewBox="0 0 112 38" fill="none" xmlns="http://www.w3.org/2000/svg">
<path d="M2.65775 35.5889C1.99676 35.5889 1.36486 35.2148 1.06553 34.5787C0.9034 34.2379 0.770368 33.9135 0.658122 33.5976C-1.4205 27.8189 1.58935 21.425 7.36791 19.3463C8.40307 18.9722 9.48395 18.7601 10.5732 18.7062C9.66687 15.3179 9.98282 11.751 11.4919 8.54156C13.1838 4.94134 16.1812 2.21831 19.9227 0.875505C26.0547 -1.33202 32.8311 0.7591 36.7097 5.75201C37.9194 4.42584 39.4328 3.4073 41.1456 2.79202C46.9241 0.71337 53.3179 3.72325 55.3965 9.5019C55.7249 10.4165 55.2511 11.4226 54.3365 11.751C53.4219 12.0794 52.4158 11.6055 52.0874 10.6909C50.6656 6.73729 46.2922 4.67527 42.3387 6.10122C40.5552 6.74144 39.0836 8.02606 38.1897 9.71807C37.8821 10.3001 37.2751 10.6535 36.6225 10.6576C35.9656 10.6535 35.3669 10.2835 35.0676 9.70144C32.4735 4.62955 26.4705 2.25988 21.1118 4.18887C18.2516 5.21572 15.9651 7.29853 14.6722 10.0465C13.3793 12.7945 13.2337 15.8833 14.2606 18.7394C14.3937 19.1135 14.56 19.496 14.7637 19.9117C15.063 20.5187 14.9839 21.2462 14.564 21.7784C14.1442 22.3105 13.4583 22.5558 12.7973 22.4061C11.3797 22.0861 9.91214 22.1775 8.55273 22.6639C4.60335 24.0774 2.54136 28.4508 3.96313 32.4045C4.03796 32.6165 4.13357 32.8368 4.24583 33.0779C4.65739 33.9552 4.28323 35.0027 3.4019 35.4184C3.16078 35.5348 2.9072 35.5889 2.65775 35.5889Z" fill="url(#paint0_linear_1000_11494)"/>
<path d="M32.4442 15.8585V37.7258H28.3867V35.8011H28.2911C27.1354 37.2644 25.5099 37.9961 23.4229 37.9961C22.7952 37.9961 22.1924 37.9338 21.6104 37.8048C21.0284 37.676 20.4838 37.4847 19.9808 37.2312C19.4777 36.9775 19.008 36.674 18.5715 36.3248C18.1349 35.9756 17.7483 35.5681 17.4116 35.0984C17.0707 34.6328 16.7838 34.1256 16.5427 33.5852C16.3058 33.0447 16.1228 32.4544 15.994 31.81C15.8651 31.1698 15.8027 30.5005 15.8027 29.8145C15.8027 28.6255 15.994 27.5156 16.3765 26.4887C16.7589 25.4577 17.2827 24.5847 17.9438 23.8613C18.6089 23.1378 19.4029 22.5726 20.33 22.1567C21.257 21.741 22.2465 21.5374 23.2983 21.5374C25.302 21.5374 26.9068 22.2274 28.104 23.6076H28.183V15.8585C28.183 14.682 29.1392 13.7258 30.3157 13.7258C31.4922 13.7258 32.4442 14.682 32.4442 15.8585ZM26.3206 33.6434C26.9566 33.2901 27.4638 32.7746 27.8422 32.1093C28.2204 31.44 28.4075 30.6834 28.4075 29.8311C28.4075 28.559 28.0125 27.499 27.2227 26.6467C26.4328 25.7986 25.431 25.3745 24.2211 25.3745C23.0529 25.3745 22.0802 25.782 21.3028 26.6009C20.5212 27.4199 20.1346 28.4967 20.1346 29.8311C20.1346 31.1157 20.5129 32.1592 21.2736 32.9657C22.0303 33.7722 23.0114 34.1755 24.2087 34.1755C24.9778 34.1797 25.6804 34.0009 26.3206 33.6434Z" fill="#051C5C"/>
<path d="M49.4016 31.1532H38.2436C38.4972 32.0968 38.9835 32.8411 39.6986 33.3815C40.4136 33.922 41.2825 34.2005 42.3011 34.2087C43.8392 34.2213 45.1072 33.6185 46.1049 32.4087L48.8737 34.9862C48.1503 35.8966 47.2066 36.6283 46.0426 37.1729C44.8744 37.7176 43.5274 37.9919 42.0017 37.9919C40.4511 37.9919 39.0584 37.6551 37.8153 36.9817C36.5723 36.3082 35.5954 35.3395 34.8804 34.0757C34.1653 32.8119 33.8079 31.3693 33.8079 29.7481C33.8079 28.559 34.0073 27.4531 34.4106 26.4305C34.8139 25.4078 35.3626 24.5348 36.0568 23.8197C36.7512 23.1047 37.5867 22.5434 38.5637 22.1402C39.5407 21.7369 40.5841 21.5374 41.6982 21.5374C43.2365 21.5374 44.6 21.8866 45.789 22.5808C46.978 23.2752 47.8966 24.2355 48.5411 25.4618C49.1896 26.6882 49.5138 28.0768 49.5138 29.6233C49.5138 30.38 49.4765 30.8871 49.4016 31.1532ZM39.5739 26.0148C38.942 26.4928 38.5055 27.183 38.2602 28.085H45.2776C45.0531 27.2163 44.6499 26.5345 44.0679 26.0397C43.4859 25.545 42.7417 25.2997 41.8396 25.2997C40.9624 25.2955 40.2058 25.5367 39.5739 26.0148Z" fill="#051C5C"/>
<path d="M74.3533 23.2457C75.3344 24.3807 75.8249 26.1267 75.8249 28.4839V37.7464H71.5597V29.5149C71.5597 26.7544 70.6325 25.3784 68.7743 25.3784C68.1714 25.3784 67.6227 25.5447 67.1364 25.8731C66.6499 26.2015 66.2591 26.7045 65.9681 27.3781C65.6771 28.0515 65.5316 28.8497 65.5316 29.7727V37.7464H61.2662V29.5149C61.2662 26.7544 60.3267 25.3784 58.4477 25.3784C57.7991 25.3784 57.2254 25.5447 56.7307 25.8731C56.2318 26.2015 55.8328 26.7045 55.5376 27.3781C55.2425 28.0515 55.0928 28.8497 55.0928 29.7727V37.7296H50.8274V23.9109C50.8274 22.7509 51.7669 21.8114 52.9269 21.8114H52.9892C54.149 21.8114 55.0886 22.7509 55.0886 23.9109H55.1343C55.7621 23.1459 56.4855 22.5597 57.3169 22.1524C58.1442 21.7449 59.0047 21.5412 59.8944 21.5412C62.1102 21.5412 63.6858 22.3934 64.6212 24.102H64.6669C65.3154 23.2748 66.1136 22.6387 67.0615 22.2021C68.0093 21.7615 69.0569 21.5412 70.2043 21.5412C71.992 21.5412 73.3722 22.1065 74.3533 23.2457Z" fill="#051C5C"/>
<path d="M78.0904 37.3639C77.6581 36.9399 77.4419 36.4244 77.4419 35.8174C77.4419 35.2105 77.6581 34.695 78.0904 34.2668C78.5228 33.8385 79.0507 33.6223 79.6784 33.6223C80.2854 33.6223 80.8051 33.8385 81.2375 34.2709C81.6698 34.7032 81.886 35.2187 81.886 35.8174C81.886 36.416 81.6698 36.9273 81.2375 37.3556C80.8051 37.7838 80.2854 38 79.6784 38C79.0507 37.9958 78.5228 37.7838 78.0904 37.3639Z" fill="#051C5C"/>
<path d="M94.628 23.2041L88.9201 37.7255H84.9416L79.2213 23.2041C78.9594 22.5347 79.45 21.8113 80.1691 21.8113H83.1749L86.9164 32.5081H86.9621L90.6246 21.8113H93.6802C94.3994 21.8113 94.8899 22.5347 94.628 23.2041Z" fill="#051C5C"/>
<path d="M108.027 21.9154C108.713 22.1648 109.315 22.5515 109.839 23.071C110.363 23.5907 110.766 24.2933 111.041 25.1705C111.315 26.0518 111.457 27.0912 111.457 28.2885V37.7422H107.191V29.3568C107.191 27.8936 106.942 26.8625 106.443 26.268C105.944 25.6735 105.175 25.3784 104.136 25.3784C103.034 25.3784 102.153 25.7567 101.5 26.5092C100.847 27.2617 100.523 28.3342 100.523 29.7228V37.7296H96.2576V23.8652C96.2576 22.7302 97.1764 21.8114 98.3112 21.8114H98.4693C99.6042 21.8114 100.523 22.7302 100.523 23.8652H100.569C101.217 23.1127 101.982 22.5347 102.868 22.1398C103.753 21.7449 104.688 21.5412 105.678 21.5412C106.559 21.5412 107.345 21.6659 108.027 21.9154Z" fill="#051C5C"/>
<defs>
<linearGradient id="paint0_linear_1000_11494" x1="-0.00287936" y1="17.7933" x2="55.5015" y2="17.7933" gradientUnits="userSpaceOnUse">
<stop offset="0.0974" stop-color="#E562FF"/>
<stop offset="1" stop-color="#8C00FF"/>
</linearGradient>
</defs>
</svg>
