<svg width="27" height="27" viewBox="0 0 27 27" fill="none" xmlns="http://www.w3.org/2000/svg">
<circle cx="13.5" cy="13.5" r="13.5" fill="#153388"/>
<path d="M18.0482 16.0737L20.5123 18.5373C20.7817 18.8065 20.7817 19.2431 20.5124 19.5124C20.2431 19.7817 19.8065 19.7817 19.5373 19.5123L17.0737 17.0482C15.9757 17.9285 14.6099 18.4072 13.2026 18.4052C9.77877 18.4052 7 15.6265 7 12.2026C7 8.77877 9.77877 6 13.2026 6C16.6265 6 19.4052 8.77877 19.4052 12.2026C19.4072 13.6099 18.9285 14.9757 18.0482 16.0737ZM16.6657 15.5624C17.5404 14.6629 18.0289 13.4572 18.0269 12.2026C18.0269 9.53687 15.8677 7.37836 13.2026 7.37836C10.5369 7.37836 8.37836 9.53687 8.37836 12.2026C8.37836 14.8677 10.5369 17.0269 13.2026 17.0269C14.4572 17.0289 15.6629 16.5404 16.5624 15.6657L16.6657 15.5624Z" fill="white"/>
</svg>
