<svg width="44" height="30" viewBox="0 0 44 30" fill="none" xmlns="http://www.w3.org/2000/svg">
<rect x="0.5" y="0.5" width="42.75" height="29" rx="3.5" fill="white" stroke="#D9D9D9"/>
<path fill-rule="evenodd" clip-rule="evenodd" d="M13.3013 18.1163C12.4392 18.2834 11.3264 17.9931 10.7238 17.3466C10.4511 17.0563 10.891 16.612 11.1637 16.9067C11.5683 17.3422 12.2941 17.5489 12.8834 17.5357C13.6356 17.5181 14.3041 16.8364 13.8775 16.071C13.2837 15.011 11.8278 15.3101 11.0757 14.4744C10.4687 13.8015 10.759 12.7459 11.4672 12.2796C12.2105 11.7914 13.4904 11.809 14.1018 12.5083C14.3657 12.8074 13.9259 13.2517 13.662 12.9482C13.1693 12.3808 12.0038 12.46 11.5595 13.0405C10.9262 13.8718 11.8718 14.3205 12.536 14.5184C13.4464 14.7955 14.4537 15.2969 14.6208 16.3393C14.7571 17.1794 14.1062 17.9579 13.3013 18.1163ZM7.54383 10.2432H17.8096C18.4958 10.2432 19.05 10.8018 19.05 11.4835V18.6705C19.05 19.3566 18.4914 19.9108 17.8096 19.9108H7.24474C6.55859 19.9108 6.0044 19.3566 6 18.6705V9.79454C6 9.47346 6.2683 9.24914 6.58498 9.20956L16.0503 8C16.3757 8 16.6353 8.2639 16.6353 8.58499V9.58782H6.95005C6.95005 10.0145 7.0776 10.2432 7.54383 10.2432Z" fill="#868686"/>
<path fill-rule="evenodd" clip-rule="evenodd" d="M23.2683 8.56297C22.8592 8.11434 22.0059 8.10115 21.5089 8.41343C21.0339 8.71252 20.8404 9.39426 21.245 9.8253C21.7464 10.3575 22.7185 10.1684 23.1143 10.8501C23.4002 11.3427 22.9516 11.7826 22.4502 11.7914C22.0543 11.8002 21.5705 11.6682 21.3022 11.3867C21.1219 11.1976 20.8272 11.4791 21.0075 11.6682C21.4077 12.086 22.1511 12.2708 22.7273 12.1608C23.2639 12.0597 23.6993 11.5582 23.6113 11.0216C23.5014 10.3531 22.8284 10.0276 22.2214 9.85169C21.7816 9.72414 21.1482 9.43384 21.5705 8.90164C21.8696 8.52779 22.6437 8.4794 22.9736 8.84007C23.1495 9.03799 23.4442 8.7565 23.2683 8.56297ZM26.1888 10.595V11.9981C26.1888 12.262 25.7709 12.262 25.7709 11.9981V10.6258C25.7577 10.4587 25.661 10.3091 25.5158 10.2255C25.2211 10.098 24.6801 10.1552 24.3634 10.5598V11.9981C24.3634 12.262 23.9456 12.262 23.9456 11.9981V8.40023C23.9456 8.13633 24.3634 8.13633 24.3634 8.40023V10.0188C24.8737 9.68015 25.5202 9.71534 25.8281 9.92646C26.0612 10.0628 26.1976 10.3223 26.1888 10.595ZM33.1558 10.7797C33.1602 10.7621 33.1646 10.749 33.169 10.7358C33.2701 10.4059 33.6088 10.2168 33.9519 10.208C34.3477 10.1992 34.5677 10.4631 34.638 10.7797H33.1558ZM35.0735 10.9821C35.0647 10.4323 34.7744 9.93086 34.1718 9.8209C33.6528 9.72414 33.0458 9.99244 32.8259 10.4631C32.5972 10.9513 32.694 11.6242 33.147 11.9673C33.6352 12.3368 34.4005 12.2224 34.9019 11.9497C35.135 11.8221 34.9239 11.4747 34.6908 11.6022C34.3741 11.7738 33.9563 11.8617 33.6 11.743C33.3317 11.655 33.1822 11.4351 33.1382 11.1844H34.8667C34.9811 11.1844 35.0735 11.0964 35.0735 10.9821ZM35.9224 10.7797C35.9268 10.7665 35.9312 10.749 35.9356 10.7358C36.0367 10.4059 36.3754 10.2168 36.7185 10.208C37.1143 10.1992 37.3342 10.4631 37.4046 10.7797H35.9224ZM37.8444 10.9777C37.8356 10.4279 37.5454 9.92646 36.9428 9.8165C36.4238 9.71974 35.8168 9.98804 35.5969 10.4587C35.3682 10.9469 35.4649 11.6198 35.918 11.9629C36.4062 12.3324 37.1715 12.218 37.6729 11.9453C37.906 11.8177 37.6949 11.4703 37.4618 11.5978C37.1451 11.7738 36.7273 11.8573 36.371 11.7386C36.1027 11.6506 35.9531 11.4307 35.9092 11.18H37.6377C37.7477 11.18 37.84 11.092 37.8444 10.9777ZM27.9129 10.2387C27.4775 10.2387 27.1212 10.5818 27.1212 11.0041C27.1212 11.4263 27.4731 11.7694 27.9129 11.7694C28.3528 11.7694 28.7002 11.4263 28.7002 11.0041C28.7002 10.5818 28.344 10.2387 27.9129 10.2387ZM27.9129 12.2004C27.2312 12.2004 26.677 11.6638 26.677 10.9997C26.677 10.3355 27.2312 9.79891 27.9129 9.79891C28.5947 9.79891 29.1489 10.3355 29.1489 10.9997C29.1489 11.6638 28.5947 12.2004 27.9129 12.2004ZM30.9786 11.7694C30.5432 11.7694 30.1913 11.4263 30.1913 11.0041C30.1957 10.6214 30.4772 10.3047 30.8554 10.2475H30.8642C30.9038 10.2431 30.9434 10.2387 30.983 10.2387C31.2909 10.2387 31.5724 10.4147 31.7043 10.6962C31.7043 10.6962 31.7043 10.6962 31.7043 10.7006C31.7483 10.7973 31.7703 10.8985 31.7703 11.0041C31.7659 11.4263 31.414 11.7694 30.9786 11.7694ZM30.9786 9.80331C30.6267 9.80331 30.2924 9.94845 30.0549 10.2036V9.91766C30.0549 9.65816 29.6371 9.65816 29.6371 9.91766V13.3088C29.6371 13.5683 30.0549 13.5683 30.0549 13.3088V11.8002C30.2924 12.0597 30.6267 12.2048 30.9786 12.2004C31.6603 12.2004 32.2145 11.6638 32.2145 10.9997C32.2145 10.3355 31.6603 9.80331 30.9786 9.80331Z" fill="#868686"/>
<path fill-rule="evenodd" clip-rule="evenodd" d="M28.8888 15.9918C29.6805 15.9918 30.327 16.634 30.327 17.4301C30.327 18.2262 29.6849 18.8684 28.8888 18.8684C28.0927 18.8684 27.4505 18.2262 27.4505 17.4301C27.4505 16.634 28.0971 15.9918 28.8888 15.9918ZM30.4986 14.989H31.4706V19.8668H30.4986V19.317C29.4562 20.2055 27.8859 20.0779 26.9975 19.0355C26.109 17.9931 26.2365 16.4229 27.279 15.5344C28.207 14.7471 29.5661 14.7471 30.4942 15.5344V14.989H30.4986ZM22.0537 16.7792V14.1445H23.5491C24.3892 14.1445 25.071 14.7339 25.071 15.464C25.071 16.1942 24.3892 16.7836 23.5491 16.7836L22.0537 16.7792ZM20.9497 19.9108H22.0537V17.8875H23.5491C25.0974 17.8875 26.3509 16.8011 26.3509 15.464C26.3509 14.1269 25.093 13.0405 23.5491 13.0405H20.9453L20.9497 19.9108ZM34.1096 22H32.7901L34.202 19.3302L31.8797 14.945H33.3135L34.9189 17.9755L36.5243 14.945H37.8438L34.1096 22Z" fill="#868686"/>
</svg>
