<svg width="35" height="28" viewBox="0 0 35 28" fill="none" xmlns="http://www.w3.org/2000/svg">
<path d="M34.2002 4.3715C35 7.49 35 14 35 14C35 14 35 20.51 34.2002 23.6285C33.7557 25.3523 32.4555 26.7085 30.8088 27.167C27.818 28 17.5 28 17.5 28C17.5 28 7.18725 28 4.19125 27.167C2.5375 26.7015 1.239 25.347 0.79975 23.6285C5.21541e-08 20.51 0 14 0 14C0 14 5.21541e-08 7.49 0.79975 4.3715C1.24425 2.64775 2.5445 1.2915 4.19125 0.833C7.18725 -3.12924e-07 17.5 0 17.5 0C17.5 0 27.818 -3.12924e-07 30.8088 0.833C32.4625 1.2985 33.761 2.653 34.2002 4.3715ZM14 20.125L24.5 14L14 7.875V20.125Z" fill="#051C5C"/>
</svg>
