<svg width="17" height="22" viewBox="0 0 17 22" fill="none" xmlns="http://www.w3.org/2000/svg">
<path d="M8.49964 4C8.21295 4 7.92625 4.09632 7.70759 4.2881L0.827993 10.3221C0.390669 10.7057 0.390669 11.3279 0.827993 11.7123C1.26532 12.0959 1.97476 12.0959 2.41208 11.7123L8.49964 6.37302L14.5872 11.7123C15.0245 12.0959 15.734 12.0959 16.1713 11.7123C16.6096 11.3288 16.6096 10.7065 16.1713 10.3221L9.29168 4.2881C9.07302 4.09632 8.78633 4 8.49964 4Z" fill="#6242E1"/>
<rect x="9.5" y="5" width="17" height="2" rx="1" transform="rotate(90 9.5 5)" fill="#6242E1"/>
<rect x="17" y="2" width="17" height="2" rx="1" transform="rotate(-180 17 2)" fill="#6242E1"/>
</svg>
