<svg width="19" height="20" viewBox="0 0 19 20" fill="none" xmlns="http://www.w3.org/2000/svg">
<path d="M18.9927 16.0211C18.8938 14.7844 17.834 14.037 17.7403 13.9725C17.3639 13.7126 16.9857 13.4222 16.6197 13.1408C15.1523 12.0135 13.4888 10.7355 12.1653 12.1049C11.3622 12.9329 10.6701 12.7465 10.4897 12.6766C10.2503 12.4705 9.26503 11.6066 8.24508 10.5635C6.94933 9.23717 6.82097 8.64391 7.56338 7.38929C8.76373 5.36039 8.25375 4.60762 6.56599 2.11631L6.4914 2.00698C5.61022 0.70755 4.89904 0.112503 4.10979 0.0139253C3.18005 -0.102575 2.33356 0.531904 1.62931 1.16997C-0.103554 2.73466 -0.485166 5.28691 0.633651 7.8302C1.42116 9.62072 3.7542 14.1338 8.39252 17.3528C10.7273 18.973 12.6648 20 14.4359 20C15.6085 20 16.7082 19.5501 17.801 18.5249C18.6596 17.7202 19.0603 16.8778 18.9927 16.0211ZM17.1037 17.7291C15.1002 19.6075 13.0482 19.2867 8.97535 16.4602C4.55558 13.3935 2.33183 9.09199 1.58074 7.38571C0.645794 5.26002 0.919861 3.2383 2.31448 1.9783C2.99965 1.35816 3.49054 1.07497 3.88603 1.07497C3.91899 1.07497 3.95194 1.07677 3.98317 1.08035C4.43763 1.13771 4.96322 1.62701 5.63624 2.62174L5.71083 2.73107C7.38125 5.19729 7.51828 5.39803 6.67353 6.82651C5.54604 8.73353 6.09764 9.87881 7.51134 11.3252C8.71342 12.5547 9.83397 13.5118 9.88081 13.5513C9.9103 13.5764 9.94152 13.5979 9.97621 13.6158C10.0352 13.6463 11.4472 14.365 12.9007 12.863C13.5217 12.2214 14.3613 12.7429 15.9987 14.0011C16.3752 14.2915 16.7654 14.5908 17.1644 14.865C17.1661 14.8668 17.1679 14.8686 17.1713 14.8686C17.1783 14.874 17.8981 15.3723 17.9554 16.1035C17.9953 16.6161 17.7091 17.161 17.1037 17.7291Z" fill="#6242E1"/>
</svg>
