<svg width="23" height="24" viewBox="0 0 23 24" fill="none" xmlns="http://www.w3.org/2000/svg">
<path d="M22.9911 19.2253C22.8714 17.7412 21.5885 16.8444 21.4751 16.7669C21.0194 16.4551 20.5617 16.1067 20.1186 15.769C18.3422 14.4161 16.3285 12.8826 14.7264 14.5258C13.7542 15.5195 12.9164 15.2958 12.698 15.2119C12.4082 14.9646 11.2156 13.9279 9.98089 12.6762C8.41235 11.0846 8.25697 10.3727 9.15567 8.86715C10.6087 6.43247 9.99139 5.52915 7.9483 2.53957L7.85801 2.40837C6.79132 0.84906 5.93041 0.135003 4.97501 0.0167104C3.84953 -0.12309 2.82484 0.638284 1.97233 1.40396C-0.125355 3.28159 -0.587306 6.34429 0.767052 9.39624C1.72035 11.5449 4.54456 16.9605 10.1594 20.8233C12.9857 22.7676 15.3311 24 17.475 24C18.8945 24 20.2257 23.4602 21.5486 22.2299C22.588 21.2642 23.073 20.2534 22.9911 19.2253ZM20.7045 21.275C18.2792 23.529 15.7952 23.144 10.8649 19.7522C5.51466 16.0722 2.82274 10.9104 1.91353 8.86285C0.78175 6.31203 1.11352 3.88595 2.80174 2.37396C3.63115 1.62979 4.22539 1.28997 4.70414 1.28997C4.74404 1.28997 4.78393 1.29212 4.82173 1.29642C5.37187 1.36525 6.0081 1.95241 6.82282 3.14609L6.91311 3.27729C8.9352 6.23675 9.10108 6.47764 8.07849 8.19181C6.71363 10.4802 7.38136 11.8546 9.09268 13.5903C10.5478 15.0657 11.9043 16.2142 11.961 16.2615C11.9967 16.2916 12.0345 16.3174 12.0765 16.3389C12.1479 16.3755 13.8571 17.238 15.6167 15.4356C16.3684 14.6656 17.3847 15.2915 19.3669 16.8014C19.8226 17.1498 20.295 17.509 20.778 17.838C20.7801 17.8402 20.7822 17.8423 20.7864 17.8423C20.7948 17.8488 21.6662 18.4467 21.7355 19.3242C21.7838 19.9393 21.4373 20.5932 20.7045 21.275Z" fill="#410077"/>
</svg>
