<svg width="22" height="19" viewBox="0 0 22 19" fill="none" xmlns="http://www.w3.org/2000/svg">
<path d="M3.2307 0H18.3677C20.1442 0 21.5908 1.40272 21.5908 3.12539V11.5164C21.5908 13.2391 20.1442 14.6418 18.3677 14.6418H16.5967V18.4577C16.5967 18.671 16.4681 18.8626 16.2686 18.9512C16.1941 18.9837 16.1158 19 16.0375 19C15.9051 19 15.7746 18.9548 15.6702 18.8662L10.6612 14.6418H3.2307C1.45042 14.6418 0.000104904 13.2373 0.000104904 11.5092V3.13262C0.00197029 1.40453 1.45042 0 3.2307 0ZM1.12047 11.5092C1.12047 12.6389 2.06746 13.5572 3.23256 13.5572H10.8719C11.0061 13.5572 11.1366 13.6042 11.2391 13.691L15.4801 17.2665V14.0977C15.4801 13.7976 15.7299 13.5554 16.0393 13.5554H18.3695C19.5291 13.5554 20.4723 12.6408 20.4723 11.5164V3.12539C20.4723 1.99924 19.5291 1.08458 18.3677 1.08458H3.2307C2.0656 1.08458 1.1186 2.00285 1.1186 3.13262V11.5092H1.12047Z" fill="#410077"/>
</svg>
