<svg width="17" height="29" viewBox="0 0 17 29" fill="none" xmlns="http://www.w3.org/2000/svg">
<path d="M10.5007 29H5.7043C4.90286 29 4.25117 28.369 4.25117 27.593V17.1185H1.45313C0.651686 17.1185 0 16.487 0 15.7115V11.2228C0 10.4468 0.651686 9.81582 1.45313 9.81582H4.25175V7.56832C4.25175 5.33951 4.97481 3.44375 6.34195 2.08551C7.71493 0.721035 9.63372 0 11.8918 0L15.5498 0.00566406C16.3495 0.00679688 17 0.637773 17 1.41262V5.58023C17 6.35621 16.3483 6.98719 15.5475 6.98719L13.0846 6.98832C12.3335 6.98832 12.1422 7.13389 12.1012 7.17863C12.034 7.25283 11.9538 7.4624 11.9538 8.0407V9.81639H15.3626C15.6194 9.81639 15.868 9.87756 16.0816 9.9931C16.5425 10.2423 16.8292 10.7141 16.8292 11.2233L16.8274 15.7121C16.8274 16.4875 16.1757 17.1185 15.3743 17.1185H11.9538V27.5936C11.9538 28.369 11.3021 29 10.5007 29ZM6.00733 27.2996H10.1977V16.3567C10.1977 15.839 10.6329 15.4176 11.1676 15.4176H15.0713L15.073 11.5162H11.1676C10.6329 11.5162 10.1977 11.0948 10.1977 10.5771V8.04014C10.1977 7.37574 10.2673 6.62072 10.785 6.05262C11.4109 5.36613 12.3967 5.28684 13.084 5.28684L15.2438 5.2857V1.70545L11.8901 1.70035C8.26191 1.70035 6.00674 3.94898 6.00674 7.56889V10.5776C6.00674 11.0953 5.57151 11.5167 5.03682 11.5167H1.75616V15.4181H5.03741C5.57209 15.4181 6.00733 15.8396 6.00733 16.3572V27.2996Z" fill="#410077"/>
</svg>
