<svg width="22" height="16" viewBox="0 0 22 16" fill="none" xmlns="http://www.w3.org/2000/svg">
<path d="M20.5647 0H1.43531C0.644499 0 0 0.662857 0 1.47619V14.5238C0 15.3371 0.644499 16 1.43531 16H20.5647C21.3555 16 22 15.3371 22 14.5238V1.47619C22 0.662857 21.3555 0 20.5647 0ZM20.0554 1.14286L11.2398 10.1257C11.1083 10.261 10.8917 10.261 10.7583 10.1257L1.94461 1.14286H20.0554ZM1.1112 13.9314V1.90095L6.69316 7.59048L1.1112 13.9314ZM1.7946 14.8571L7.48211 8.39619L9.97676 10.939C10.2583 11.2267 10.6287 11.3695 10.9991 11.3695C11.3695 11.3695 11.7399 11.2267 12.0214 10.939L14.4771 8.43619L20.1961 14.8571H1.7946ZM20.8888 13.9429L15.268 7.63048L20.8888 1.90286V13.9429Z" fill="#410077"/>
</svg>
