<svg width="37" height="28" viewBox="0 0 37 28" fill="none" xmlns="http://www.w3.org/2000/svg">
<g clip-path="url(#clip0)">
<path d="M24.1953 12.3458L16.0213 7.87723C15.5516 7.62019 14.9959 7.62958 14.5348 7.9025C14.0737 8.17543 13.7991 8.65774 13.7991 9.19348V18.0541C13.7991 18.587 14.0723 19.0686 14.5305 19.3415C14.7697 19.4845 15.0349 19.5559 15.3001 19.5559C15.5436 19.5559 15.7872 19.496 16.0119 19.3754L24.1866 14.9841C24.6715 14.7234 24.975 14.2195 24.9772 13.6686C24.9779 13.1169 24.6787 12.6108 24.1953 12.3458ZM15.9671 16.9393V10.3169L22.0764 13.657L15.9671 16.9393Z" fill="#410077"/>
<path d="M36.7276 6.60866L36.7261 6.59206C36.695 6.29458 36.3829 3.64765 35.0951 2.3018C33.6064 0.717689 31.919 0.525632 31.1075 0.433213C31.0403 0.425271 30.9788 0.418773 30.9239 0.411552L30.8596 0.405054C25.9679 0.0490975 18.5802 0.000722022 18.5065 0H18.5H18.4935C18.4198 0 11.0321 0.0490975 6.09705 0.404332L6.03201 0.41083C5.97926 0.418051 5.92145 0.424549 5.85857 0.431769C5.05643 0.524188 3.38709 0.716968 1.89408 2.3574C0.667012 3.68953 0.31291 6.27942 0.276055 6.5704L0.271719 6.60794C0.260879 6.73213 0 9.68014 0 12.639V15.4051C0 18.3639 0.260879 21.3119 0.272441 21.4361L0.274609 21.4549C0.305684 21.7473 0.617871 24.3458 1.89914 25.6924C3.29893 27.2231 5.06871 27.4253 6.02045 27.5343C6.17076 27.5516 6.30084 27.5661 6.389 27.5819L6.47428 27.5935C9.29842 27.8621 18.1538 27.9942 18.5289 27.9993H18.5405H18.552C18.6257 27.9993 26.0127 27.9502 30.9044 27.5949L30.9687 27.5884C31.0309 27.5805 31.1002 27.5733 31.1761 27.5653C31.9739 27.4809 33.6346 27.3047 35.1066 25.6866C36.333 24.3545 36.6878 21.7646 36.7239 21.4736L36.7283 21.4361C36.7391 21.3119 37.0007 18.3646 37.0007 15.4058V12.6397C37 9.68014 36.7391 6.73285 36.7276 6.60866ZM34.832 15.4051C34.832 18.1437 34.5928 20.9646 34.5704 21.2238C34.4787 21.9372 34.1043 23.5755 33.5067 24.2245C32.5853 25.2375 31.6386 25.3379 30.9478 25.4108C30.8639 25.4195 30.7866 25.4282 30.7165 25.4368C25.9853 25.7783 18.8772 25.831 18.5499 25.8332C18.1828 25.8282 9.4574 25.6946 6.71926 25.4404C6.57906 25.4173 6.4273 25.4 6.2676 25.3819C5.4575 25.2888 4.3475 25.1625 3.49477 24.2245L3.47453 24.2029C2.88773 23.5921 2.52424 22.0592 2.43174 21.2318C2.41439 21.0361 2.16869 18.1819 2.16869 15.4051V12.639C2.16869 9.90325 2.40717 7.08592 2.43029 6.82166C2.54014 5.98123 2.92098 4.44188 3.49404 3.82022C4.44361 2.7769 5.44522 2.66137 6.10717 2.58484C6.17076 2.57762 6.2293 2.5704 6.28422 2.5639C11.0841 2.21949 18.2435 2.16823 18.5 2.16606C18.7565 2.16751 25.9137 2.21877 30.671 2.56245C30.7295 2.56967 30.7931 2.57689 30.8618 2.58484C31.5432 2.66209 32.5723 2.77978 33.5175 3.78628L33.5262 3.79567C34.113 4.4065 34.4765 5.96606 34.569 6.81011C34.5856 6.99495 34.832 9.85487 34.832 12.6383V15.4051Z" fill="#410077"/>
<path d="M135.41 -242H-99.41C-175.83 -242 -238 -179.83 -238 -103.41V131.41C-238 207.83 -175.83 270 -99.41 270H135.41C211.83 270 274 207.83 274 131.41V-103.41C274 -179.83 211.83 -242 135.41 -242ZM243.98 131.41C243.98 191.28 195.27 239.98 135.4 239.98H-99.41C-159.28 239.98 -207.99 191.27 -207.99 131.41V-103.41C-207.99 -163.28 -159.28 -211.99 -99.41 -211.99H135.41C195.28 -211.99 243.98 -163.28 243.98 -103.41V131.41Z" fill="black"/>
<path d="M18 -126C-59.2 -126 -122 -63.2 -122 14C-122 91.2 -59.2 154 18 154C95.2 154 158 91.2 158 14C158 -63.2 95.2 -126 18 -126ZM18 123.98C-42.64 123.98 -91.98 74.64 -91.98 14C-91.98 -46.64 -42.64 -95.98 18 -95.98C78.64 -95.98 127.98 -46.64 127.98 14C127.98 74.64 78.64 123.98 18 123.98Z" fill="black"/>
</g>
<defs>
<clipPath id="clip0">
<rect width="37" height="28" fill="#410077"/>
</clipPath>
</defs>
</svg>
