<svg width="29" height="29" viewBox="0 0 29 29" fill="none" xmlns="http://www.w3.org/2000/svg">
<path d="M21.1502 0H7.84982C3.52135 0 0 3.52135 0 7.84982V21.1502C0 25.4787 3.52135 29 7.84982 29H21.1502C25.4787 29 29 25.4787 29 21.1502V7.84982C29 3.52135 25.4787 0 21.1502 0ZM27.2996 21.1502C27.2996 24.5413 24.5407 27.2996 21.1496 27.2996H7.84982C4.45875 27.2996 1.69979 24.5407 1.69979 21.1502V7.84982C1.69979 4.45875 4.45875 1.69979 7.84982 1.69979H21.1502C24.5413 1.69979 27.2996 4.45875 27.2996 7.84982V21.1502Z" fill="#410077"/>
<path d="M14.5 6.57031C10.1273 6.57031 6.57031 10.1273 6.57031 14.5C6.57031 18.8727 10.1273 22.4297 14.5 22.4297C18.8727 22.4297 22.4297 18.8727 22.4297 14.5C22.4297 10.1273 18.8727 6.57031 14.5 6.57031ZM14.5 20.7293C11.0653 20.7293 8.27066 17.9347 8.27066 14.5C8.27066 11.0653 11.0653 8.27066 14.5 8.27066C17.9347 8.27066 20.7293 11.0653 20.7293 14.5C20.7293 17.9347 17.9347 20.7293 14.5 20.7293Z" fill="#410077"/>
<path d="M22.6189 3.75488C21.3269 3.75488 20.2756 4.80613 20.2756 6.09811C20.2756 7.39008 21.3263 8.44133 22.6189 8.44133C23.9114 8.44133 24.9621 7.39008 24.9621 6.09811C24.9621 4.80613 23.9114 3.75488 22.6189 3.75488ZM22.6189 6.74041C22.2643 6.74041 21.976 6.45211 21.976 6.09754C21.976 5.74297 22.2643 5.45467 22.6189 5.45467C22.9734 5.45467 23.2623 5.74297 23.2623 6.09754C23.2623 6.45211 22.974 6.74041 22.6189 6.74041Z" fill="#410077"/>
</svg>
