<svg width="45" height="49" viewBox="0 0 45 49" fill="none" xmlns="http://www.w3.org/2000/svg">
<path d="M9.89587 27.8355C9.89587 27.5398 9.89816 27.244 9.90045 26.9484C9.90681 26.1272 9.91317 25.3062 9.87045 24.4863C9.85774 24.2393 9.57632 23.9196 9.33485 23.787C8.11841 23.1168 6.88199 22.4866 5.63832 21.8672C5.03736 21.5693 4.99378 21.2569 5.44223 20.7629C6.07339 20.0679 6.69704 19.3665 7.32065 18.6651C8.10343 17.7847 8.88612 16.9043 9.68344 16.037C9.95397 15.7409 10.3407 15.5048 10.7201 15.3631C14.4294 13.9809 18.1423 12.6024 21.8751 11.2838C22.3581 11.1131 23.0171 11.1312 23.5001 11.3147C27.2002 12.7223 30.8804 14.1844 34.557 15.6519C34.9056 15.7918 35.2669 16.0152 35.5029 16.3003C36.1205 17.0425 36.7237 17.7962 37.3269 18.5499C37.8957 19.2606 38.4644 19.9713 39.0451 20.6721C39.5498 21.2805 39.4845 21.6474 38.7528 21.9689C37.816 22.3794 36.8809 22.808 35.9949 23.3184C35.7081 23.4837 35.4212 23.9287 35.4121 24.2538C35.3577 26.2753 35.3649 28.3004 35.3922 30.3238C35.3994 30.8923 35.1961 31.1901 34.6841 31.4281C32.9394 32.238 31.1986 33.0554 29.4577 33.8728C27.3687 34.8536 25.2796 35.8345 23.1841 36.8024C22.8755 36.9441 22.4053 36.9568 22.0893 36.8315C18.2494 35.2822 14.4203 33.7093 10.6058 32.0964C10.3044 31.9693 9.97575 31.5171 9.95215 31.1956C9.89427 30.3889 9.90406 29.5765 9.91385 28.7645C9.91757 28.4559 9.92129 28.1473 9.92129 27.8391C9.91402 27.8355 9.90494 27.8355 9.89587 27.8355ZM33.5802 16.3021C32.8522 16.0152 32.1333 15.7315 31.4216 15.4506C28.5606 14.3214 25.8159 13.2381 23.0607 12.1792C22.7684 12.0666 22.349 12.1284 22.0367 12.241C19.0942 13.2985 16.1598 14.3785 13.2258 15.4583C13.0405 15.5265 12.8553 15.5946 12.6701 15.6628C12.4871 15.7304 12.3083 15.8096 12.0893 15.9066C11.9845 15.953 11.8704 16.0035 11.7423 16.0588C12.5191 16.3956 13.2893 16.7301 14.0543 17.0624C16.837 18.2709 19.5525 19.4503 22.2782 20.6085C22.5378 20.7193 22.9318 20.6612 23.2132 20.5522C24.2036 20.1692 25.1843 19.7618 26.1652 19.3544C26.524 19.2054 26.8827 19.0563 27.242 18.9085L27.2442 18.9076C29.2769 18.0724 31.3097 17.2372 33.5802 16.3021ZM23.1714 35.749C24.1025 35.3122 25.0203 34.873 25.9307 34.4373C28.1288 33.3852 30.2844 32.3535 32.4836 31.4262C33.9633 30.8033 34.7712 30.0422 34.419 28.3804C34.3877 28.2343 34.4023 28.0786 34.4169 27.9222C34.4252 27.8336 34.4335 27.7448 34.4335 27.6575C34.4353 26.5017 34.4353 25.346 34.4353 24.058V24.054C34.2839 24.119 34.1524 24.1743 34.0343 24.2239C33.8028 24.3212 33.6232 24.3966 33.4477 24.4808C32.9364 24.7252 32.4221 24.9641 31.9077 25.203C30.6138 25.8041 29.3199 26.4051 28.0753 27.0926C27.1131 27.6248 26.7064 27.2216 26.1871 26.5278C25.5469 25.6717 24.8742 24.8392 24.1534 23.9471C23.8359 23.5541 23.509 23.1495 23.1714 22.7263V35.749ZM18.5653 27.2506C19.7146 25.3163 20.8148 23.4637 21.9495 21.553C21.383 21.3069 20.8189 21.0617 20.2569 20.8174C17.0943 19.4426 13.9966 18.096 10.8872 16.7744C10.6965 16.6926 10.2953 16.8234 10.1373 16.9905C9.17952 18.0043 8.24193 19.0362 7.2823 20.0924C6.95589 20.4517 6.62692 20.8137 6.29374 21.1788C10.3788 23.1985 14.413 25.1946 18.5653 27.2506ZM10.8799 24.4972C10.8799 25.0921 10.8827 25.6723 10.8854 26.2419C10.892 27.6304 10.8983 28.9562 10.8636 30.2802C10.8454 30.9595 11.0542 31.2846 11.6933 31.5407C13.9492 32.4406 16.1945 33.3671 18.4396 34.2936C19.4072 34.6928 20.3748 35.0921 21.3431 35.4892C21.499 35.553 21.6602 35.606 21.8343 35.6633C21.9279 35.6941 22.0252 35.7261 22.1275 35.7617V23.471C21.1561 24.8005 20.2992 26.1663 19.513 27.5739C19.1354 28.2514 18.7886 28.4766 18.0206 28.0752C16.3652 27.2103 14.6913 26.3832 12.9711 25.5334C12.2821 25.1929 11.5856 24.8488 10.8799 24.4972ZM27.3182 26.3988C29.6365 25.2774 31.9276 24.17 34.2265 23.0588C35.5357 22.426 36.8474 21.792 38.1682 21.1534C37.5307 20.3604 36.9136 19.5936 36.3029 18.8347C35.7779 18.1823 35.2577 17.5357 34.7331 16.8834C32.1591 17.9443 29.608 18.9951 27.045 20.0507C25.8477 20.5438 24.6479 21.038 23.442 21.5348C24.7564 23.1858 26.011 24.7605 27.3182 26.3988Z" fill="#6800BE"/>
<path d="M9.89587 27.8355C9.89587 27.5398 9.89816 27.244 9.90045 26.9484C9.90681 26.1272 9.91317 25.3062 9.87045 24.4863C9.85774 24.2393 9.57632 23.9196 9.33485 23.787C8.11841 23.1168 6.88199 22.4866 5.63832 21.8672C5.03736 21.5693 4.99378 21.2569 5.44223 20.7629C6.07339 20.0679 6.69704 19.3665 7.32065 18.6651C8.10343 17.7847 8.88612 16.9043 9.68344 16.037C9.95397 15.7409 10.3407 15.5048 10.7201 15.3631C14.4294 13.9809 18.1423 12.6024 21.8751 11.2838C22.3581 11.1131 23.0171 11.1312 23.5001 11.3147C27.2002 12.7223 30.8804 14.1844 34.557 15.6519C34.9056 15.7918 35.2669 16.0152 35.5029 16.3003C36.1205 17.0425 36.7237 17.7962 37.3269 18.5499C37.8957 19.2606 38.4644 19.9713 39.0451 20.6721C39.5498 21.2805 39.4845 21.6474 38.7528 21.9689C37.816 22.3794 36.8809 22.808 35.9949 23.3184C35.7081 23.4837 35.4212 23.9287 35.4121 24.2538C35.3577 26.2753 35.3649 28.3004 35.3922 30.3238C35.3994 30.8923 35.1961 31.1901 34.6841 31.4281C32.9394 32.238 31.1986 33.0554 29.4577 33.8728C27.3687 34.8536 25.2796 35.8345 23.1841 36.8024C22.8755 36.9441 22.4053 36.9568 22.0893 36.8315C18.2494 35.2822 14.4203 33.7093 10.6058 32.0964C10.3044 31.9693 9.97575 31.5171 9.95215 31.1956C9.89427 30.3889 9.90406 29.5765 9.91385 28.7645C9.91757 28.4559 9.92129 28.1473 9.92129 27.8391C9.91402 27.8355 9.90494 27.8355 9.89587 27.8355ZM33.5802 16.3021C32.8522 16.0152 32.1333 15.7315 31.4216 15.4506C28.5606 14.3214 25.8159 13.2381 23.0607 12.1792C22.7684 12.0666 22.349 12.1284 22.0367 12.241C19.0942 13.2985 16.1598 14.3785 13.2258 15.4583C13.0405 15.5265 12.8553 15.5946 12.6701 15.6628C12.4871 15.7304 12.3083 15.8096 12.0893 15.9066C11.9845 15.953 11.8704 16.0035 11.7423 16.0588C12.5191 16.3956 13.2893 16.7301 14.0543 17.0624C16.837 18.2709 19.5525 19.4503 22.2782 20.6085C22.5378 20.7193 22.9318 20.6612 23.2132 20.5522C24.2036 20.1692 25.1843 19.7618 26.1652 19.3544C26.524 19.2054 26.8827 19.0563 27.242 18.9085L27.2442 18.9076C29.2769 18.0724 31.3097 17.2372 33.5802 16.3021ZM23.1714 35.749C24.1025 35.3122 25.0203 34.873 25.9307 34.4373C28.1288 33.3852 30.2844 32.3535 32.4836 31.4262C33.9633 30.8033 34.7712 30.0422 34.419 28.3804C34.3877 28.2343 34.4023 28.0786 34.4169 27.9222C34.4252 27.8336 34.4335 27.7448 34.4335 27.6575C34.4353 26.5017 34.4353 25.346 34.4353 24.058V24.054C34.2839 24.119 34.1524 24.1743 34.0343 24.2239C33.8028 24.3212 33.6232 24.3966 33.4477 24.4808C32.9364 24.7252 32.4221 24.9641 31.9077 25.203C30.6138 25.8041 29.3199 26.4051 28.0753 27.0926C27.1131 27.6248 26.7064 27.2216 26.1871 26.5278C25.5469 25.6717 24.8742 24.8392 24.1534 23.9471C23.8359 23.5541 23.509 23.1495 23.1714 22.7263V35.749ZM18.5653 27.2506C19.7146 25.3163 20.8148 23.4637 21.9495 21.553C21.383 21.3069 20.8189 21.0617 20.2569 20.8174C17.0943 19.4426 13.9966 18.096 10.8872 16.7744C10.6965 16.6926 10.2953 16.8234 10.1373 16.9905C9.17952 18.0043 8.24193 19.0362 7.2823 20.0924C6.95589 20.4517 6.62692 20.8137 6.29374 21.1788C10.3788 23.1985 14.413 25.1946 18.5653 27.2506ZM10.8799 24.4972C10.8799 25.0921 10.8827 25.6723 10.8854 26.2419C10.892 27.6304 10.8983 28.9562 10.8636 30.2802C10.8454 30.9595 11.0542 31.2846 11.6933 31.5407C13.9492 32.4406 16.1945 33.3671 18.4396 34.2936C19.4072 34.6928 20.3748 35.0921 21.3431 35.4892C21.499 35.553 21.6602 35.606 21.8343 35.6633C21.9279 35.6941 22.0252 35.7261 22.1275 35.7617V23.471C21.1561 24.8005 20.2992 26.1663 19.513 27.5739C19.1354 28.2514 18.7886 28.4766 18.0206 28.0752C16.3652 27.2103 14.6913 26.3832 12.9711 25.5334C12.2821 25.1929 11.5856 24.8488 10.8799 24.4972ZM27.3182 26.3988C29.6365 25.2774 31.9276 24.17 34.2265 23.0588C35.5357 22.426 36.8474 21.792 38.1682 21.1534C37.5307 20.3604 36.9136 19.5936 36.3029 18.8347C35.7779 18.1823 35.2577 17.5357 34.7331 16.8834C32.1591 17.9443 29.608 18.9951 27.045 20.0507C25.8477 20.5438 24.6479 21.038 23.442 21.5348C24.7564 23.1858 26.011 24.7605 27.3182 26.3988Z" stroke="#6800BE"/>
<path d="M22.6614 45.3334C25.3485 45.2753 27.8232 44.7794 30.1653 43.7569C37.3441 40.6202 41.8776 35.2258 43.1485 27.4812C44.4739 19.4097 41.7287 12.6859 35.5321 7.35876C35.4589 7.29594 35.3616 7.23573 35.2607 7.17332C34.9242 6.96505 34.548 6.73226 34.893 6.29624C35.2485 5.84581 35.5967 6.18952 35.8924 6.48132C35.9591 6.54722 36.0232 6.61046 36.0841 6.66132C42.2698 11.8359 45.1057 18.4616 44.2778 26.4823C43.1885 37.0203 34.5136 45.3316 23.9723 46.1634C23.8873 46.1698 23.802 46.1823 23.7169 46.1947C23.5604 46.2177 23.4044 46.2405 23.2515 46.2252C22.5797 46.1598 22.3837 46.5013 22.2983 47.1115C22.1531 48.1395 21.9388 48.2158 21.0891 47.6528C20.9519 47.5617 20.8145 47.4706 20.6772 47.3795C19.6808 46.719 18.6832 46.0577 17.7067 45.3697C17.5606 45.2673 17.466 45.0918 17.3716 44.9165C17.3287 44.837 17.2859 44.7575 17.2383 44.685C17.3076 44.6452 17.3755 44.5993 17.4434 44.5535C17.5924 44.4529 17.7412 44.3525 17.9046 44.3163C19.0906 44.0569 20.2809 43.8208 21.4717 43.5845C21.6153 43.556 21.7589 43.5275 21.9025 43.499C22.8575 43.3101 22.9937 43.4445 22.8285 44.3962C22.7813 44.6595 22.7341 44.9247 22.6614 45.3334Z" fill="#6800BE"/>
<path d="M22.6614 45.3334C25.3485 45.2753 27.8232 44.7794 30.1653 43.7569C37.3441 40.6202 41.8776 35.2258 43.1485 27.4812C44.4739 19.4097 41.7287 12.6859 35.5321 7.35876C35.4589 7.29594 35.3616 7.23573 35.2607 7.17332C34.9242 6.96505 34.548 6.73226 34.893 6.29624C35.2485 5.84581 35.5967 6.18952 35.8924 6.48132C35.9591 6.54722 36.0232 6.61046 36.0841 6.66132C42.2698 11.8359 45.1057 18.4616 44.2778 26.4823C43.1885 37.0203 34.5136 45.3316 23.9723 46.1634C23.8873 46.1698 23.802 46.1823 23.7169 46.1947C23.5604 46.2177 23.4044 46.2405 23.2515 46.2252C22.5797 46.1598 22.3837 46.5013 22.2983 47.1115C22.1531 48.1395 21.9388 48.2158 21.0891 47.6528C20.9519 47.5617 20.8145 47.4706 20.6772 47.3795C19.6808 46.719 18.6832 46.0577 17.7067 45.3697C17.5606 45.2673 17.466 45.0918 17.3716 44.9165C17.3287 44.837 17.2859 44.7575 17.2383 44.685C17.3076 44.6452 17.3755 44.5993 17.4434 44.5535C17.5924 44.4529 17.7412 44.3525 17.9046 44.3163C19.0906 44.0569 20.2809 43.8208 21.4717 43.5845C21.6153 43.556 21.7589 43.5275 21.9025 43.499C22.8575 43.3101 22.9937 43.4445 22.8285 44.3962C22.7813 44.6595 22.7341 44.9247 22.6614 45.3334Z" stroke="#6800BE"/>
<path d="M21.5418 1.74706C21.5605 1.68078 21.5795 1.6175 21.5979 1.55599C21.633 1.43883 21.6663 1.32803 21.6925 1.2149C21.8668 0.47311 21.9544 0.0985401 22.1588 0.0171497C22.3672 -0.0658705 22.6972 0.156147 23.3646 0.604628C23.6324 0.784651 23.9007 0.963692 24.1689 1.14268C24.9317 1.6517 25.6938 2.16026 26.442 2.68971C26.5705 2.7799 26.6494 2.93902 26.7284 3.09844C26.7655 3.17338 26.8027 3.24838 26.8451 3.31632C26.7829 3.35374 26.7222 3.39718 26.6616 3.44057C26.531 3.53408 26.4007 3.62734 26.2568 3.6596C24.9296 3.95202 23.597 4.22264 22.2626 4.48782C21.1986 4.69851 21.0915 4.58771 21.2622 3.51248C21.3003 3.27636 21.3366 3.03843 21.3856 2.71695C19.334 2.70606 17.3931 3.0911 15.4977 3.7159C7.20225 6.44939 1.45955 13.8071 0.882195 22.5361C0.364753 30.3497 3.52206 36.4887 9.58975 41.2637C9.91656 41.5198 10.3668 42.2118 10.3124 42.2699C9.88264 42.7169 9.57113 42.4108 9.28606 42.1308C9.20739 42.0535 9.13073 41.9782 9.05415 41.9212C4.44075 38.4921 1.45229 33.9623 0.413774 28.3155C-2.28056 13.6545 8.60207 2.36641 20.8936 1.80518C21.0373 1.79888 21.1819 1.78381 21.3347 1.76789C21.402 1.76089 21.4708 1.75372 21.5418 1.74706Z" fill="#6800BE"/>
<path d="M21.5418 1.74706C21.5605 1.68078 21.5795 1.6175 21.5979 1.55599C21.633 1.43883 21.6663 1.32803 21.6925 1.2149C21.8668 0.47311 21.9544 0.0985401 22.1588 0.0171497C22.3672 -0.0658705 22.6972 0.156147 23.3646 0.604628C23.6324 0.784651 23.9007 0.963692 24.1689 1.14268C24.9317 1.6517 25.6938 2.16026 26.442 2.68971C26.5705 2.7799 26.6494 2.93902 26.7284 3.09844C26.7655 3.17338 26.8027 3.24838 26.8451 3.31632C26.7829 3.35374 26.7222 3.39718 26.6616 3.44057C26.531 3.53408 26.4007 3.62734 26.2568 3.6596C24.9296 3.95202 23.597 4.22264 22.2626 4.48782C21.1986 4.69851 21.0915 4.58771 21.2622 3.51248C21.3003 3.27636 21.3366 3.03843 21.3856 2.71695C19.334 2.70606 17.3931 3.0911 15.4977 3.7159C7.20225 6.44939 1.45955 13.8071 0.882195 22.5361C0.364753 30.3497 3.52206 36.4887 9.58975 41.2637C9.91656 41.5198 10.3668 42.2118 10.3124 42.2699C9.88264 42.7169 9.57113 42.4108 9.28606 42.1308C9.20739 42.0535 9.13073 41.9782 9.05415 41.9212C4.44075 38.4921 1.45229 33.9623 0.413774 28.3155C-2.28056 13.6545 8.60207 2.36641 20.8936 1.80518C21.0373 1.79888 21.1819 1.78381 21.3347 1.76789C21.402 1.76089 21.4708 1.75372 21.5418 1.74706Z" stroke="#6800BE"/>
</svg>
