<svg width="110" height="52" viewBox="0 0 110 52" fill="none" xmlns="http://www.w3.org/2000/svg">
<path d="M56.4932 42.8075C56.4741 38.5875 53.0189 35.1837 48.7746 35.2027C44.5304 35.2217 41.1071 38.6572 41.1262 42.8771C41.1453 47.0845 44.5813 50.4819 48.8065 50.4819C53.0634 50.4693 56.5059 47.0338 56.4932 42.8075Z" stroke="#6800BE" stroke-width="2"/>
<path d="M101.875 42.8075C101.856 38.5875 98.4074 35.1837 94.1631 35.2027C89.9189 35.2217 86.4955 38.6508 86.5146 42.8708C86.5337 47.0781 89.9634 50.4756 94.1949 50.4756C98.4455 50.463 101.882 47.0338 101.875 42.8075Z" stroke="#6800BE" stroke-width="2"/>
<path d="M35.3866 33.0959V38.151C35.3866 39.5239 36.5065 40.6311 37.8809 40.6311H41.508C41.8007 39.4606 42.8569 35.5443 48.6601 35.1774C54.4634 34.8104 56.0987 40.378 56.3087 41.0487L86.8773 40.6248C87.2463 39.467 89.1426 35.1204 94.2076 35.1204C99.2727 35.1204 101.411 39.8656 101.608 40.6248H105.96C107.341 40.6248 108.455 39.5112 108.455 38.1447V27.5346C108.468 23.6626 106.113 20.1702 102.505 18.7087L96.0594 16.0894L90.6252 4.01155C89.8043 2.1831 87.9781 1.00633 85.961 1H37.8809C36.5001 1 35.3866 2.11351 35.3866 3.4801V26.0541V33.0959ZM35.3866 23.1691V33.8361V23.1691ZM35.3866 13.236V18.2026V13.236ZM74.4182 20.8472C73.0374 20.8472 71.9238 19.7337 71.9238 18.3671V7.44701H81.825C81.8695 7.44701 87.7745 20.4992 87.7745 20.4992C87.8318 20.6194 87.8954 20.7396 74.4182 20.8472Z" stroke="#6800BE" stroke-width="2" stroke-linecap="round"/>
<path d="M13.3573 9.57913H29.2397" stroke="#6800BE" stroke-width="2" stroke-linecap="round"/>
<path d="M13.3573 25.3772H29.2397" stroke="#6800BE" stroke-width="2" stroke-linecap="round"/>
<path d="M1 18.3544H29.2397" stroke="#6800BE" stroke-width="2" stroke-linecap="round"/>
</svg>
