<svg width="67" height="56" viewBox="0 0 67 56" fill="none" xmlns="http://www.w3.org/2000/svg">
<path d="M37.4816 56C35.9431 56 34.4291 55.6315 33.082 54.9293L24.3823 50.4241C22.3641 49.3836 19.9411 49.3141 17.8603 50.2376L16.2592 50.9595C15.0618 51.4913 13.6325 51.0823 12.9491 50.0116C10.4942 46.328 8.75694 42.2596 7.82084 37.9989C7.57424 36.8448 8.23797 35.6907 9.39736 35.2574L17.6309 32.1948C20.1791 31.2157 22.9493 30.868 25.6791 31.1844C28.777 31.4544 31.6171 32.9248 33.5237 35.2481C33.6084 35.3373 36.6326 38.5354 43.8368 38.0267L44.7152 38.0001C46.9518 37.9422 48.8743 39.4868 49.1736 41.5818C49.1883 41.6814 49.1994 41.795 49.2104 41.9085V42.0012V42.1299C49.2251 44.3998 47.2916 46.2538 44.8882 46.2747C40.5279 46.3454 32.6907 46.1982 29.1548 44.4311C28.7451 44.2156 28.5978 43.7278 28.8248 43.3407C29.0456 42.9653 29.5401 42.8216 29.9474 43.014C32.2858 44.1831 37.7184 44.788 44.86 44.6721C46.3346 44.6606 47.5223 43.5238 47.5149 42.131V42.0024C47.5088 41.963 47.5026 41.8865 47.4904 41.8089C47.3186 40.5204 46.1383 39.5656 44.763 39.6038L43.9239 39.6281C35.8597 40.1959 32.3373 36.4045 32.1913 36.2434C30.562 34.2423 28.1144 32.9827 25.4509 32.7742C23.0082 32.4938 20.53 32.8089 18.2517 33.6873L10.0169 36.7498C9.62065 36.9016 9.39736 37.2991 9.48692 37.693C10.3838 41.7672 12.0462 45.6559 14.3956 49.1762C14.6275 49.5458 15.1182 49.6907 15.5317 49.511L17.134 48.7892C19.7067 47.6466 22.7027 47.7324 25.1982 49.0197L33.8991 53.5249C36.0425 54.642 38.6312 54.6883 40.8187 53.6489C41.2358 53.4473 41.7474 53.6026 41.9609 53.9965C42.1743 54.3905 42.0099 54.8737 41.5928 55.0753C41.5891 55.0765 41.5854 55.0788 41.5818 55.08C40.3095 55.6848 38.906 56 37.4816 56Z" fill="#6800BE"/>
<path d="M4.95361 51.7193L1.04095 42.3289C0.600484 41.2718 1.13593 40.0614 2.21444 39.6762L6.07301 38.2981C7.03717 37.9538 8.10569 38.3932 8.54873 39.3162L13.1696 48.9429C13.7175 50.0845 13.0801 51.4415 11.8516 51.7486L7.28483 52.8903C6.32508 53.1303 5.33411 52.6325 4.95361 51.7193Z" stroke="#6800BE" stroke-width="1.5"/>
<path d="M41.1364 55.2005C40.6677 55.2005 40.2874 54.8424 40.2861 54.3998C40.2861 54.1251 40.4346 53.8679 40.6812 53.7207L64.1033 39.7753C65.2884 39.0661 65.6405 37.5841 64.8897 36.4647C64.1695 35.3906 62.6863 35.0337 61.5097 35.6525L48.7429 42.3871L48.6521 42.4299C48.2301 42.6258 47.7209 42.4612 47.5136 42.0626C47.3063 41.664 47.4805 41.1831 47.9025 40.9873L60.6816 34.2492C62.7206 33.1646 65.3044 33.846 66.454 35.7718C67.5655 37.6351 66.93 39.9931 65.0112 41.1275L41.5915 55.0741C41.4553 55.1564 41.2983 55.2005 41.1364 55.2005Z" fill="#6800BE"/>
<path d="M45.7666 30.7983C40.7732 30.7983 34.4769 29.6454 31.7668 26.4102C27.6187 21.4531 39.1378 7.02439 40.4665 5.3952C40.6272 5.19821 40.8763 5.08234 41.14 5.08234H50.3931C50.6568 5.08234 50.9059 5.19821 51.0666 5.3952C52.3929 7.02439 63.9144 21.4531 59.7663 26.4102C57.0599 29.6454 50.7599 30.7983 45.7666 30.7983ZM41.5584 6.68604C36.8816 12.5076 30.6331 22.4704 33.0979 25.4148C35.0192 27.7114 39.9929 29.1946 45.7666 29.1946C51.5402 29.1946 56.5139 27.7114 58.4352 25.4148C60.9012 22.4681 54.6528 12.5076 49.9747 6.68604H41.5584Z" fill="#6800BE"/>
<path d="M50.3956 6.68601H41.1401C40.7917 6.68601 40.4788 6.48555 40.3512 6.17964L38.2435 1.09391C38.0729 0.681401 38.2876 0.216745 38.7244 0.054521C38.8225 0.0174413 38.9281 -0.00109863 39.0348 -0.00109863H52.4996C52.9683 -0.00109863 53.3486 0.356953 53.3499 0.799593C53.3499 0.900404 53.3302 1.00006 53.291 1.09275L51.1869 6.17848C51.0581 6.4867 50.744 6.68717 50.3956 6.68601ZM41.7179 5.08347H49.8153L51.2581 1.60376H40.2776L41.7179 5.08347Z" fill="#6800BE"/>
<path d="M45.7665 19.0382C43.8477 19.0382 42.292 17.569 42.292 15.7567C42.292 13.9444 43.8477 12.4751 45.7665 12.4751C47.6853 12.4751 49.241 13.9444 49.241 15.7567C49.241 16.1993 48.8606 16.5585 48.392 16.5585C47.9233 16.5585 47.543 16.1993 47.543 15.7567C47.543 14.8297 46.748 14.0788 45.7665 14.0788C44.785 14.0788 43.99 14.8297 43.99 15.7567C43.99 16.6837 44.785 17.4345 45.7665 17.4345C46.2351 17.4345 46.6155 17.7938 46.6155 18.2364C46.6155 18.679 46.2351 19.0382 45.7665 19.0382Z" fill="#6800BE"/>
<path d="M45.7665 23.9976C43.8489 23.9942 42.2957 22.5272 42.292 20.7161C42.292 20.2734 42.6723 19.9142 43.141 19.9142C43.6096 19.9142 43.99 20.2734 43.99 20.7161C43.99 21.6431 44.785 22.3939 45.7665 22.3939C46.748 22.3939 47.543 21.6431 47.543 20.7161C47.543 19.7891 46.748 19.0382 45.7665 19.0382C45.2978 19.0382 44.9175 18.679 44.9175 18.2364C44.9175 17.7937 45.2978 17.4345 45.7665 17.4345C47.6853 17.4345 49.241 18.9038 49.241 20.7161C49.241 22.5283 47.6853 23.9976 45.7665 23.9976Z" fill="#6800BE"/>
<path d="M45.764 25.2167C45.2954 25.2167 44.915 24.8574 44.915 24.4148V23.1981C44.915 22.7555 45.2954 22.3963 45.764 22.3963C46.2327 22.3963 46.613 22.7555 46.613 23.1981V24.4148C46.613 24.8574 46.2327 25.2167 45.764 25.2167Z" fill="#6800BE"/>
<path d="M45.764 14.0811C45.2954 14.0811 44.915 13.7219 44.915 13.2793V12.0545C44.915 11.6119 45.2954 11.2527 45.764 11.2527C46.2327 11.2527 46.613 11.6119 46.613 12.0545V13.2793C46.613 13.7231 46.2327 14.0811 45.764 14.0811Z" fill="#6800BE"/>
</svg>
