<svg width="130" height="44" viewBox="0 0 130 44" fill="none" xmlns="http://www.w3.org/2000/svg">
<g clip-path="url(#clip0)">
<path d="M3.10375 41.2127C2.3328 41.2127 1.59579 40.7794 1.24668 40.0429C1.05758 39.6481 0.902418 39.2726 0.771501 38.9068C-1.65288 32.2153 1.85762 24.8114 8.59739 22.4044C9.80473 21.9711 11.0654 21.7256 12.3358 21.663C11.2788 17.7396 11.6473 13.6092 13.4074 9.89278C15.3808 5.72385 18.8768 2.57068 23.2406 1.01575C30.3926 -1.54048 38.296 0.880962 42.8199 6.66258C44.2309 5.12691 45.9959 3.94748 47.9935 3.23501C54.7333 0.828008 62.1907 4.31335 64.6151 11.0048C64.9981 12.0639 64.4454 13.2289 63.3786 13.6092C62.3119 13.9895 61.1385 13.4407 60.7555 12.3816C59.0972 7.8035 53.9963 5.41575 49.3851 7.06696C47.305 7.80831 45.5886 9.29584 44.5461 11.2551C44.1873 11.9291 43.4793 12.3383 42.7181 12.3431C41.952 12.3383 41.2538 11.9098 40.9047 11.2359C37.879 5.3628 30.8774 2.61882 24.6274 4.85252C21.2914 6.04157 18.6246 8.45339 17.1167 11.6354C15.6087 14.8175 15.439 18.3943 16.6366 21.7015C16.7918 22.1348 16.9857 22.5777 17.2233 23.0591C17.5724 23.7619 17.4803 24.6044 16.9906 25.2206C16.5009 25.8368 15.7008 26.1208 14.9299 25.9475C13.2764 25.5768 11.5648 25.6827 9.97929 26.2459C5.37297 27.8827 2.96799 32.947 4.62626 37.5252C4.71354 37.7707 4.82506 38.0258 4.95598 38.305C5.43601 39.3208 4.99962 40.5339 3.97168 41.0153C3.69045 41.1501 3.39468 41.2127 3.10375 41.2127Z" fill="url(#paint0_linear)"/>
<path d="M37.8451 18.3656V43.6872H33.1127V41.4584H33.0012C31.6533 43.1529 29.7574 44.0001 27.3233 44.0001C26.5912 44.0001 25.8881 43.9279 25.2093 43.7787C24.5304 43.6295 23.8952 43.408 23.3085 43.1144C22.7218 42.8207 22.1739 42.4693 21.6648 42.0649C21.1557 41.6605 20.7048 41.1888 20.312 40.6448C19.9144 40.1056 19.5799 39.5183 19.2986 38.8925C19.0222 38.2667 18.8089 37.5831 18.6586 36.8369C18.5083 36.0956 18.4355 35.3205 18.4355 34.5262C18.4355 33.1494 18.6586 31.864 19.1047 30.675C19.5508 29.4811 20.1617 28.4702 20.9327 27.6325C21.7085 26.7949 22.6346 26.1402 23.7158 25.6588C24.7971 25.1774 25.9511 24.9415 27.1779 24.9415C29.515 24.9415 31.3866 25.7406 32.783 27.3389H32.8751V18.3656C32.8751 17.0032 33.9904 15.896 35.3626 15.896C36.7348 15.896 37.8451 17.0032 37.8451 18.3656ZM30.7029 38.9599C31.4448 38.5507 32.0363 37.9538 32.4775 37.1835C32.9188 36.4085 33.137 35.5323 33.137 34.5454C33.137 33.0724 32.6763 31.8448 31.7551 30.8579C30.8338 29.8759 29.6653 29.3848 28.2543 29.3848C26.8918 29.3848 25.7572 29.8566 24.8505 30.805C23.9389 31.7533 23.488 33.0002 23.488 34.5454C23.488 36.033 23.9292 37.2413 24.8165 38.1752C25.699 39.1091 26.8433 39.5761 28.2397 39.5761C29.1368 39.5809 29.9562 39.3739 30.7029 38.9599Z" fill="#001F86"/>
<path d="M57.6222 36.0762H44.6082C44.904 37.169 45.4713 38.0307 46.3053 38.6565C47.1392 39.2823 48.1526 39.6049 49.3406 39.6145C51.1346 39.6289 52.6135 38.9309 53.7772 37.53L57.0065 40.5147C56.1628 41.569 55.0621 42.4162 53.7045 43.0469C52.342 43.6775 50.771 43.9952 48.9915 43.9952C47.1829 43.9952 45.5585 43.6053 44.1088 42.8254C42.659 42.0456 41.5195 40.9239 40.6855 39.4604C39.8516 37.997 39.4346 36.3265 39.4346 34.4491C39.4346 33.0723 39.6673 31.7917 40.1376 30.6075C40.608 29.4232 41.248 28.4123 42.0577 27.5843C42.8675 26.7563 43.8421 26.1064 44.9815 25.6394C46.121 25.1725 47.338 24.9414 48.6375 24.9414C50.4315 24.9414 52.0219 25.3458 53.4087 26.1497C54.7954 26.9537 55.867 28.0657 56.6186 29.4858C57.375 30.906 57.7532 32.5138 57.7532 34.3046C57.7532 35.1808 57.7095 35.7681 57.6222 36.0762ZM46.1598 30.1261C45.4228 30.6797 44.9137 31.4788 44.6276 32.5235H52.8123C52.5505 31.5173 52.0801 30.7278 51.4013 30.155C50.7225 29.5821 49.8545 29.2981 48.8024 29.2981C47.7793 29.2933 46.8968 29.5725 46.1598 30.1261Z" fill="#001F86"/>
<path d="M86.7253 26.92C87.8696 28.2343 88.4417 30.2561 88.4417 32.9857V43.7113H83.4669V34.1796C83.4669 30.9831 82.3856 29.3896 80.2182 29.3896C79.5152 29.3896 78.8751 29.5822 78.3078 29.9625C77.7405 30.3428 77.2847 30.9253 76.9453 31.7052C76.6059 32.485 76.4362 33.4093 76.4362 34.478V43.7113H71.4614V34.1796C71.4614 30.9831 70.3656 29.3896 68.1739 29.3896C67.4175 29.3896 66.7484 29.5822 66.1714 29.9625C65.5895 30.3428 65.124 30.9253 64.7798 31.7052C64.4355 32.485 64.261 33.4093 64.261 34.478V43.692H59.2861V27.6903C59.2861 26.3472 60.382 25.2592 61.7348 25.2592H61.8075C63.1603 25.2592 64.2561 26.3472 64.2561 27.6903H64.3095C65.0416 26.8045 65.8853 26.1257 66.855 25.6539C67.82 25.1822 68.8236 24.9463 69.8613 24.9463C72.4457 24.9463 74.2833 25.9332 75.3743 27.9117H75.4277C76.1841 26.9537 77.115 26.2172 78.2205 25.7117C79.3261 25.2014 80.5479 24.9463 81.8862 24.9463C83.9712 24.9463 85.581 25.601 86.7253 26.92Z" fill="#001F86"/>
<path d="M91.0836 43.2682C90.5793 42.7771 90.3271 42.1802 90.3271 41.4773C90.3271 40.7745 90.5793 40.1776 91.0836 39.6817C91.5878 39.1859 92.2036 38.9355 92.9358 38.9355C93.6437 38.9355 94.2498 39.1859 94.7541 39.6865C95.2583 40.1872 95.5105 40.7841 95.5105 41.4773C95.5105 42.1706 95.2583 42.7627 94.7541 43.2585C94.2498 43.7544 93.6437 44.0047 92.9358 44.0047C92.2036 43.9999 91.5878 43.7544 91.0836 43.2682Z" fill="#001F86"/>
<path d="M110.372 26.872L103.715 43.6873H99.0745L92.4026 26.872C92.0972 26.0969 92.6693 25.2593 93.5082 25.2593H97.0138L101.378 37.6457H101.431L105.703 25.2593H109.267C110.105 25.2593 110.678 26.0969 110.372 26.872Z" fill="#001F86"/>
<path d="M125.999 25.3796C126.799 25.6684 127.502 26.1161 128.113 26.7178C128.724 27.3196 129.195 28.1332 129.515 29.1489C129.835 30.1695 130 31.373 130 32.7594V43.7065H125.025V33.9966C125.025 32.3021 124.734 31.1082 124.152 30.4198C123.57 29.7314 122.673 29.3896 121.461 29.3896C120.176 29.3896 119.148 29.8277 118.387 30.699C117.625 31.5704 117.247 32.8124 117.247 34.4202V43.692H112.272V27.6373C112.272 26.3231 113.344 25.2592 114.668 25.2592H114.852C116.176 25.2592 117.247 26.3231 117.247 27.6373H117.301C118.057 26.766 118.949 26.0968 119.982 25.6395C121.015 25.1822 122.106 24.9463 123.26 24.9463C124.288 24.9463 125.204 25.0907 125.999 25.3796Z" fill="#001F86"/>
</g>
<defs>
<linearGradient id="paint0_linear" x1="0.000548978" y1="20.6061" x2="64.7375" y2="20.6061" gradientUnits="userSpaceOnUse">
<stop offset="0.0974" stop-color="#E562FF"/>
<stop offset="1" stop-color="#8C00FF"/>
</linearGradient>
<clipPath id="clip0">
<rect width="130" height="44" fill="white"/>
</clipPath>
</defs>
</svg>
