<svg width="23" height="21" viewBox="0 0 23 21" fill="none" xmlns="http://www.w3.org/2000/svg">
<path d="M3.44155 0H19.5665C21.459 0 23 1.49427 23 3.32938V12.2681C23 14.1032 21.459 15.5974 19.5665 15.5974H17.68V19.6624C17.68 19.8896 17.5429 20.0937 17.3305 20.1881C17.251 20.2228 17.1676 20.2401 17.0842 20.2401C16.9432 20.2401 16.8042 20.1919 16.693 20.0976L11.3571 15.5974H3.44155C1.54508 15.5974 0.000104904 14.1012 0.000104904 12.2604V3.33708C0.00209045 1.4962 1.54508 0 3.44155 0ZM1.19359 12.2604C1.19359 13.4639 2.20239 14.4421 3.44353 14.4421H11.5815C11.7245 14.4421 11.8635 14.4921 11.9727 14.5846L16.4904 18.3934V15.0178C16.4904 14.6982 16.7565 14.4402 17.0862 14.4402H19.5685C20.8037 14.4402 21.8085 13.4658 21.8085 12.2681V3.32938C21.8085 2.12972 20.8037 1.15537 19.5665 1.15537H3.44155C2.20041 1.15537 1.1916 2.13358 1.1916 3.33708V12.2604H1.19359Z" fill="#6242E1"/>
</svg>
