<svg width="17" height="18" viewBox="0 0 17 18" fill="none" xmlns="http://www.w3.org/2000/svg">
<path d="M15.9942 13.8169C15.9162 12.8275 15.0794 12.2296 15.0055 12.178C14.7083 11.9701 14.4098 11.7378 14.1208 11.5127C12.9623 10.6108 11.649 9.58843 10.6042 10.6839C9.97012 11.3463 9.42373 11.1972 9.28131 11.1413C9.09233 10.9764 8.31449 10.2853 7.50927 9.45078C6.48632 8.38973 6.38498 7.91513 6.97109 6.91143C7.91873 5.28831 7.51612 4.6861 6.18367 2.69305L6.12479 2.60558C5.42912 1.56604 4.86766 1.09 4.24457 1.01114C3.51056 0.91794 2.84228 1.42552 2.2863 1.93597C0.918247 3.18772 0.616974 5.22953 1.50025 7.26416C2.12197 8.69658 3.96384 12.307 7.62568 14.8822C9.46892 16.1784 10.9986 17 12.3967 17C13.3225 17 14.1907 16.6401 15.0534 15.8199C15.7313 15.1761 16.0476 14.5022 15.9942 13.8169ZM14.5029 15.1833C12.9212 16.686 11.3012 16.4293 8.0858 14.1681C4.59651 11.7148 2.84092 8.27359 2.24796 6.90856C1.50984 5.20802 1.72621 3.59064 2.82722 2.58264C3.36814 2.08653 3.75569 1.85998 4.06792 1.85998C4.09394 1.85998 4.11996 1.86141 4.1446 1.86428C4.50339 1.91016 4.91833 2.30161 5.44966 3.09739L5.50855 3.18486C6.8273 5.15783 6.93549 5.31843 6.26858 6.4612C5.37845 7.98682 5.81393 8.90305 6.93001 10.0602C7.87902 11.0438 8.76366 11.8095 8.80064 11.841C8.82392 11.8611 8.84857 11.8783 8.87596 11.8926C8.92252 11.917 10.0372 12.492 11.1848 11.2904C11.6751 10.7771 12.3379 11.1943 13.6306 12.2009C13.9278 12.4332 14.2359 12.6726 14.5508 12.892C14.5508 12.892 14.5536 12.8949 14.5563 12.8949C14.5618 12.8992 15.1301 13.2978 15.1753 13.8828C15.2068 14.2929 14.9808 14.7288 14.5029 15.1833Z" fill="#001F86" stroke="#001F86" stroke-width="0.25"/>
</svg>
