<svg width="182" height="31" viewBox="0 0 182 31" fill="none" xmlns="http://www.w3.org/2000/svg">
<path d="M17.679 0.601736L21.949 8.83392C22.1138 9.15259 22.4337 9.3729 22.803 9.42413L32.3511 10.7439C33.2816 10.873 33.6531 11.9602 32.98 12.5852L26.0715 18.9925C25.8044 19.2405 25.6817 19.5981 25.7452 19.9475L27.3757 28.9953C27.5351 29.8775 26.5615 30.5497 25.7291 30.1337L17.189 25.8619C16.8584 25.6969 16.4632 25.6969 16.1336 25.8619L7.59356 30.1337C6.76109 30.5497 5.78862 29.8775 5.94693 28.9953L7.5774 19.9475C7.64094 19.597 7.51817 19.2405 7.25109 18.9925L0.343663 12.5852C-0.329419 11.9612 0.042122 10.873 0.97259 10.7439L10.5207 9.42413C10.89 9.3729 11.2099 9.15259 11.3747 8.83392L15.6447 0.601736C16.0604 -0.200579 17.2633 -0.200579 17.679 0.601736Z" fill="#FFCA10"/>
<path d="M54.847 0.601736L59.117 8.83392C59.2818 9.15259 59.6016 9.3729 59.971 9.42413L69.5191 10.7439C70.4495 10.873 70.8211 11.9602 70.148 12.5852L63.2395 18.9925C62.9724 19.2405 62.8496 19.5981 62.9132 19.9475L64.5437 28.9953C64.703 29.8775 63.7295 30.5497 62.897 30.1337L54.357 25.8619C54.0264 25.6969 53.6311 25.6969 53.3016 25.8619L44.7615 30.1337C43.9291 30.5497 42.9566 29.8775 43.1149 28.9953L44.7454 19.9475C44.8089 19.597 44.6861 19.2405 44.4191 18.9925L37.5116 12.5852C36.8385 11.9612 37.2101 10.873 38.1406 10.7439L47.6886 9.42413C48.058 9.3729 48.3779 9.15259 48.5426 8.83392L52.8127 0.601736C53.2283 -0.200579 54.4313 -0.200579 54.847 0.601736Z" fill="#FFCA10"/>
<path d="M92.0169 0.601736L96.2869 8.83392C96.4517 9.15259 96.7715 9.3729 97.1409 9.42413L106.689 10.7439C107.619 10.873 107.991 11.9602 107.318 12.5852L100.409 18.9925C100.142 19.2405 100.02 19.5981 100.083 19.9475L101.714 28.9953C101.873 29.8775 100.899 30.5497 100.067 30.1337L91.5269 25.8619C91.1963 25.6969 90.801 25.6969 90.4715 25.8619L81.9314 30.1337C81.099 30.5497 80.1265 29.8775 80.2848 28.9953L81.9153 19.9475C81.9788 19.597 81.8561 19.2405 81.589 18.9925L74.6816 12.5852C74.0085 11.9612 74.38 10.873 75.3105 10.7439L84.8585 9.42413C85.2279 9.3729 85.5478 9.15259 85.7125 8.83392L89.9826 0.601736C90.3983 -0.200579 91.6012 -0.200579 92.0169 0.601736Z" fill="#FFCA10"/>
<path d="M129.185 0.601736L133.455 8.83392C133.62 9.15259 133.94 9.3729 134.309 9.42413L143.857 10.7439C144.787 10.873 145.159 11.9602 144.486 12.5852L137.577 18.9925C137.31 19.2405 137.188 19.5981 137.251 19.9475L138.882 28.9953C139.041 29.8775 138.067 30.5497 137.235 30.1337L128.695 25.8619C128.364 25.6969 127.969 25.6969 127.639 25.8619L119.099 30.1337C118.267 30.5497 117.294 29.8775 117.453 28.9953L119.083 19.9475C119.147 19.597 119.024 19.2405 118.757 18.9925L111.85 12.5852C111.176 11.9612 111.548 10.873 112.478 10.7439L122.027 9.42413C122.396 9.3729 122.716 9.15259 122.881 8.83392L127.151 0.601736C127.566 -0.200579 128.769 -0.200579 129.185 0.601736Z" fill="#FFCA10"/>
<path d="M166.356 0.601736L170.626 8.83392C170.791 9.15259 171.11 9.3729 171.48 9.42413L181.028 10.7439C181.958 10.873 182.33 11.9602 181.657 12.5852L174.748 18.9925C174.481 19.2405 174.358 19.5981 174.422 19.9475L176.052 28.9953C176.212 29.8775 175.238 30.5497 174.406 30.1337L165.866 25.8619C165.535 25.6969 165.14 25.6969 164.81 25.8619L156.27 30.1337C155.438 30.5497 154.465 29.8775 154.624 28.9953L156.254 19.9475C156.318 19.597 156.195 19.2405 155.928 18.9925L149.02 12.5852C148.347 11.9612 148.719 10.873 149.649 10.7439L159.197 9.42413C159.567 9.3729 159.887 9.15259 160.051 8.83392L164.321 0.601736C164.737 -0.200579 165.94 -0.200579 166.356 0.601736Z" fill="#FFCA10"/>
</svg>
