<svg width="24" height="21" viewBox="0 0 24 21" fill="none" xmlns="http://www.w3.org/2000/svg">
<path d="M3.59109 0H20.4172C22.392 0 24 1.55038 24 3.45438V12.7287C24 14.6327 22.392 16.183 20.4172 16.183H18.4486V20.4006C18.4486 20.6364 18.3056 20.8482 18.0839 20.9461C18.001 20.982 17.914 21 17.827 21C17.6798 21 17.5348 20.9501 17.4188 20.8522L11.8508 16.183H3.59109C1.61216 16.183 0 14.6307 0 12.7207V3.46237C0.00207329 1.55237 1.61216 0 3.59109 0ZM1.24538 12.7207C1.24538 13.9694 2.29805 14.9843 3.59316 14.9843H12.085C12.2342 14.9843 12.3792 15.0362 12.4932 15.1321L17.2074 19.084V15.5817C17.2074 15.25 17.4851 14.9823 17.829 14.9823H20.4193C21.7082 14.9823 22.7567 13.9714 22.7567 12.7287V3.45438C22.7567 2.20969 21.7082 1.19874 20.4172 1.19874H3.59109C2.29598 1.19874 1.24331 2.21368 1.24331 3.46237V12.7207H1.24538Z" fill="#7856FF"/>
</svg>
