<svg width="20" height="22" viewBox="0 0 20 22" fill="none" xmlns="http://www.w3.org/2000/svg">
<path d="M19.9923 17.6232C19.8882 16.2628 18.7726 15.4407 18.674 15.3697C18.2778 15.0838 17.8797 14.7644 17.4945 14.4549C15.9497 13.2148 14.1987 11.8091 12.8056 13.3154C11.9602 14.2262 11.2316 14.0212 11.0417 13.9443C10.7898 13.7175 9.75266 12.7673 8.67903 11.6198C7.31509 10.1609 7.17997 9.5083 7.96145 8.12822C9.22497 5.89643 8.68816 5.06838 6.91156 2.32794L6.83305 2.20767C5.9055 0.778305 5.15688 0.123753 4.3261 0.0153179C3.34742 -0.112832 2.45638 0.585094 1.71507 1.28696C-0.109004 3.00812 -0.510701 5.8156 0.667001 8.61322C1.49596 10.5828 3.95179 15.5471 8.83423 19.088C11.2919 20.8703 13.3314 22 15.1957 22C16.43 22 17.5876 21.5051 18.7379 20.3774C19.6417 19.4922 20.0635 18.5656 19.9923 17.6232Z" fill="#7856FF"/>
</svg>
