<svg xmlns="http://www.w3.org/2000/svg" width="26" height="20" viewBox="0 0 26 20"><g><g><g><g><path fill="#e5f6ff" d="M8.6 18.496A2.11 2.11 0 0 1 6.444 16.4c-.016-1.176.934-2.155 2.101-2.168 1.187-.015 2.163.924 2.174 2.09.011 1.226-.903 2.164-2.119 2.174z"/></g><g><path fill="#e5f6ff" d="M18.53 16.412c-.004 1.174-.925 2.087-2.108 2.088-1.222 0-2.157-.933-2.147-2.145a2.13 2.13 0 0 1 2.137-2.124c1.198.002 2.121.952 2.117 2.18z"/></g><g><path fill="#e5f6ff" d="M21.466 4.288c-.29-.092-.618-.11-.93-.11-5.006-.008-10.013-.006-15.02-.006h-.488l-.796-2.779C4.086.883 3.778.606 3.28.602 1.962.591 2.103.641.785.646.462.648.142.764.08 1.076c-.047.24-.011.568.136.75.149.186.475.32.732.336 1.012.06.568.021 1.582.034.243.004.338.089.399.306.664 2.393 1.34 4.784 2.012 7.175.326 1.163.651 2.326.975 3.49h12.717c.317-.054.553-.213.675-.565.097-.28.23-.55.344-.826.836-2.029 1.675-4.057 2.503-6.09.25-.61-.027-1.189-.688-1.398z"/></g></g></g><g><path fill="none" stroke="#20315c" stroke-miterlimit="20" d="M11.6 18.496A2.11 2.11 0 0 1 9.444 16.4c-.016-1.176.934-2.155 2.101-2.168 1.187-.015 2.163.924 2.174 2.09.011 1.226-.903 2.164-2.119 2.174z"/></g><g><path fill="none" stroke="#20315c" stroke-miterlimit="20" d="M21.53 16.412c-.004 1.174-.925 2.087-2.108 2.088-1.222 0-2.157-.933-2.147-2.145a2.13 2.13 0 0 1 2.137-2.124c1.198.002 2.121.952 2.117 2.18z"/></g><g><path fill="none" stroke="#20315c" stroke-miterlimit="20" d="M24.466 4.288c-.29-.092-.618-.11-.93-.11-5.006-.008-10.013-.006-15.02-.006h-.488l-.796-2.779C7.086.883 6.778.606 6.28.602 4.962.591 5.103.641 3.785.646c-.323.002-.643.118-.705.43-.047.24-.011.568.136.75.149.186.475.32.732.336 1.012.06.568.021 1.582.034.243.004.338.089.399.306.664 2.393 1.34 4.784 2.012 7.175.326 1.163.651 2.326.975 3.49h12.717c.317-.054.553-.213.675-.565.097-.28.23-.55.344-.826.836-2.029 1.675-4.057 2.503-6.09.25-.61-.027-1.189-.689-1.398z"/></g></g></svg>