<svg width="38" height="38" viewBox="0 0 38 38" fill="none" xmlns="http://www.w3.org/2000/svg">
<path d="M19 1C9.07469 1 1 9.07469 1 19C1 28.9253 9.07469 37 19 37C28.9253 37 37 28.9253 37 19C37 9.07469 28.9253 1 19 1Z" stroke="#6800BE" stroke-width="2" stroke-miterlimit="10"/>
<path d="M27.5758 14.6108L18.1714 24.5519C17.8893 24.8502 17.519 25 17.1487 25C16.7785 25 16.4082 24.8502 16.126 24.5519L11.4242 19.5813C10.8586 18.9834 10.8586 18.017 11.4242 17.419C11.9898 16.8211 12.904 16.8211 13.4696 17.419L17.1487 21.3085L25.5304 12.4484C26.096 11.8505 27.0102 11.8505 27.5758 12.4484C28.1414 13.0464 28.1414 14.0128 27.5758 14.6108Z" fill="#6800BE"/>
</svg>
