<svg width="36" height="38" viewBox="0 0 36 38" fill="none" xmlns="http://www.w3.org/2000/svg">
<path d="M35.343 3.51594L35.3449 3.51676C35.4621 3.56667 35.4995 3.65218 35.5 3.7083C35.5 3.70851 35.5 3.70872 35.5 3.70893L35.5 19.2465C35.4961 19.4596 35.421 22.2949 33.2558 25.9211C31.0789 29.5667 26.7651 34.0526 18.19 37.4737C18.101 37.5088 17.9953 37.5088 17.9063 37.4735C9.29826 34.0557 4.95819 29.5728 2.76446 25.9286C0.566185 22.2769 0.5 19.4284 0.5 19.2582V3.70837C0.50045 3.65224 0.537876 3.56669 0.655103 3.51676L0.655104 3.51676L0.657013 3.51594C3.75768 2.17996 7.9675 1.42208 11.4912 1.0005C14.9876 0.582172 17.7538 0.500883 17.9843 0.500007C18.2352 0.504258 21.0094 0.586133 24.506 1.00323C28.0327 1.42392 32.2424 2.18001 35.343 3.51594Z" stroke="#6800BE"/>
<line x1="18" y1="9" x2="18" y2="25" stroke="#6800BE" stroke-width="2"/>
<line x1="26" y1="18" x2="10" y2="18" stroke="#6800BE" stroke-width="2"/>
</svg>
