<svg width="47" height="41" viewBox="0 0 47 41" fill="none" xmlns="http://www.w3.org/2000/svg">
<path d="M26.3233 40.0974C25.2456 40.0974 24.1852 39.8393 23.2416 39.3475L17.1478 36.1917C15.7341 35.4629 14.0368 35.4142 12.5793 36.0611L11.4579 36.5667C10.6191 36.9393 9.61794 36.6528 9.13926 35.9028C7.41966 33.3225 6.20278 30.4728 5.54708 27.4884C5.37435 26.68 5.83927 25.8715 6.65138 25.568L12.4186 23.4228C14.2036 22.7369 16.144 22.4934 18.0561 22.715C20.226 22.9041 22.2155 23.9341 23.551 25.5615C23.6103 25.624 25.7286 27.8642 30.7749 27.5078L31.3902 27.4892C32.9568 27.4486 34.3034 28.5305 34.5131 29.998C34.5234 30.0678 34.5312 30.1473 34.5389 30.2269V30.2918V30.3819C34.5492 31.9719 33.1949 33.2706 31.5113 33.2852C28.4571 33.3347 22.9674 33.2316 20.4907 31.9939C20.2037 31.8429 20.1006 31.5012 20.2596 31.2301C20.4142 30.9671 20.7606 30.8665 21.0459 31.0012C22.6839 31.8202 26.4892 32.2439 31.4916 32.1627C32.5245 32.1546 33.3564 31.3583 33.3513 30.3827V30.2926C33.347 30.265 33.3427 30.2115 33.3341 30.1571C33.2138 29.2545 32.387 28.5857 31.4237 28.6125L30.8359 28.6295C25.1872 29.0273 22.7199 26.3715 22.6177 26.2587C21.4764 24.857 19.762 23.9747 17.8963 23.8286C16.1853 23.6322 14.4493 23.853 12.8535 24.4682L7.08536 26.6134C6.80778 26.7197 6.65138 26.9981 6.71411 27.2741C7.34231 30.1279 8.50676 32.8518 10.1525 35.3176C10.3149 35.5765 10.6586 35.678 10.9482 35.5522L12.0706 35.0465C13.8727 34.2462 15.9713 34.3063 17.7193 35.208L23.8139 38.3637C25.3153 39.1462 27.1285 39.1786 28.6608 38.4506C28.953 38.3093 29.3113 38.4181 29.4609 38.6941C29.6104 38.97 29.4953 39.3085 29.2031 39.4497C29.2005 39.4505 29.1979 39.4522 29.1953 39.453C28.3042 39.8767 27.321 40.0974 26.3233 40.0974Z" fill="#6800BE"/>
<path d="M3.34047 36.6232L1.04071 31.1037C0.60024 30.0466 1.13569 28.8362 2.21419 28.451L3.81471 27.8794C4.77887 27.5351 5.8474 27.9745 6.29043 28.8974L8.97579 34.4919C9.52376 35.6335 8.88631 36.9906 7.65782 37.2977L5.67169 37.7942C4.71194 38.0342 3.72097 37.5364 3.34047 36.6232Z" stroke="#6800BE" stroke-width="1.5"/>
<path d="M28.8833 39.5374C28.555 39.5374 28.2886 39.2866 28.2878 38.9765C28.2878 38.7842 28.3918 38.604 28.5645 38.5009L44.9708 28.7326C45.8009 28.2359 46.0476 27.1978 45.5216 26.4137C45.0172 25.6613 43.9782 25.4113 43.1541 25.8448L34.2114 30.5621L34.1478 30.5921C33.8522 30.7293 33.4956 30.614 33.3503 30.3348C33.2051 30.0556 33.3271 29.7188 33.6228 29.5816L42.574 24.8618C44.0023 24.1021 45.8121 24.5794 46.6173 25.9284C47.3959 27.2335 46.9508 28.8852 45.6067 29.6798L29.2022 39.4489C29.1068 39.5065 28.9968 39.5374 28.8833 39.5374Z" fill="#6800BE"/>
<path d="M32.1267 22.4446C28.6291 22.4446 24.2188 21.637 22.3204 19.3709C19.4149 15.8986 27.4835 5.79187 28.4142 4.65068C28.5268 4.5127 28.7013 4.43153 28.886 4.43153H35.3674C35.5522 4.43153 35.7266 4.5127 35.8392 4.65068C36.7682 5.79187 44.8386 15.8986 41.933 19.3709C40.0373 21.637 35.6244 22.4446 32.1267 22.4446ZM29.1791 5.55486C25.9031 9.63262 21.5263 16.6112 23.2528 18.6736C24.5986 20.2823 28.0825 21.3213 32.1267 21.3213C36.1709 21.3213 39.6548 20.2823 41.0006 18.6736C42.728 16.6096 38.3512 9.63262 35.0744 5.55486H29.1791Z" fill="#6800BE"/>
<path d="M35.3691 5.55485H28.886C28.642 5.55485 28.4228 5.41444 28.3334 5.20016L26.857 1.6378C26.7376 1.34885 26.888 1.02338 27.1939 0.909748C27.2627 0.883775 27.3366 0.870789 27.4113 0.870789H36.8429C37.1712 0.870789 37.4376 1.12159 37.4385 1.43164C37.4385 1.50226 37.4247 1.57206 37.3972 1.63699L35.9234 5.19935C35.8332 5.41525 35.6132 5.55566 35.3691 5.55485ZM29.2908 4.43233H34.9626L35.9733 1.99493H28.2819L29.2908 4.43233Z" fill="#6800BE"/>
<path d="M32.1267 14.2071C30.7826 14.2071 29.6929 13.1779 29.6929 11.9085C29.6929 10.6391 30.7826 9.60989 32.1267 9.60989C33.4707 9.60989 34.5604 10.6391 34.5604 11.9085C34.5604 12.2186 34.294 12.4702 33.9657 12.4702C33.6375 12.4702 33.371 12.2186 33.371 11.9085C33.371 11.2592 32.8142 10.7332 32.1267 10.7332C31.4392 10.7332 30.8823 11.2592 30.8823 11.9085C30.8823 12.5578 31.4392 13.0838 32.1267 13.0838C32.455 13.0838 32.7214 13.3354 32.7214 13.6454C32.7214 13.9555 32.455 14.2071 32.1267 14.2071Z" fill="#6800BE"/>
<path d="M32.1267 17.681C30.7835 17.6786 29.6955 16.651 29.6929 15.3824C29.6929 15.0723 29.9593 14.8207 30.2876 14.8207C30.6159 14.8207 30.8823 15.0723 30.8823 15.3824C30.8823 16.0317 31.4392 16.5577 32.1267 16.5577C32.8142 16.5577 33.371 16.0317 33.371 15.3824C33.371 14.7331 32.8142 14.2071 32.1267 14.2071C31.7984 14.2071 31.532 13.9555 31.532 13.6454C31.532 13.3354 31.7984 13.0838 32.1267 13.0838C33.4707 13.0838 34.5604 14.1129 34.5604 15.3824C34.5604 16.6518 33.4707 17.681 32.1267 17.681Z" fill="#6800BE"/>
<path d="M32.125 18.5349C31.7967 18.5349 31.5303 18.2832 31.5303 17.9732V17.1209C31.5303 16.8109 31.7967 16.5593 32.125 16.5593C32.4532 16.5593 32.7196 16.8109 32.7196 17.1209V17.9732C32.7196 18.2832 32.4532 18.5349 32.125 18.5349Z" fill="#6800BE"/>
<path d="M32.125 10.7348C31.7967 10.7348 31.5303 10.4832 31.5303 10.1732V9.31525C31.5303 9.0052 31.7967 8.75359 32.125 8.75359C32.4532 8.75359 32.7196 9.0052 32.7196 9.31525V10.1732C32.7196 10.484 32.4532 10.7348 32.125 10.7348Z" fill="#6800BE"/>
</svg>
