<svg xmlns="http://www.w3.org/2000/svg" width="84" height="81" viewBox="0 0 84 81"><defs><mask id="tda6b" width="2" height="2" x="-1" y="-1"><path fill="#fff" d="M5 0h60v58H5z"/><path d="M31.61 1.985l-7.276 14.754-16.28 2.373c-2.92.424-4.09 4.023-1.973 6.085L17.86 36.674l-2.786 16.214c-.502 2.93 2.585 5.126 5.17 3.755l14.565-7.655 14.564 7.655c2.585 1.36 5.672-.824 5.17-3.755l-2.785-16.214 11.778-11.477c2.118-2.062.947-5.661-1.972-6.085l-16.28-2.373-7.277-14.754c-1.304-2.63-5.082-2.663-6.396 0z"/></mask><filter id="tda6a" width="121" height="124" x="-22" y="-27" filterUnits="userSpaceOnUse"><feOffset dx="7" dy="12" in="SourceGraphic" result="FeOffset1023Out"/><feGaussianBlur in="FeOffset1023Out" result="FeGaussianBlur1024Out" stdDeviation="6.8 6.8"/></filter><linearGradient id="tda6c" x1="59.06" x2="14.24" y1="65.23" y2="2.79" gradientUnits="userSpaceOnUse"><stop offset="0" stop-color="#efcb85"/><stop offset=".79" stop-color="#ffeece"/><stop offset="1" stop-color="#fff1d3"/></linearGradient></defs><g><g><g filter="url(#tda6a)"><path fill="none" d="M31.61 1.985l-7.276 14.754-16.28 2.373c-2.92.424-4.09 4.023-1.973 6.085L17.86 36.674l-2.786 16.214c-.502 2.93 2.585 5.126 5.17 3.755l14.565-7.655 14.564 7.655c2.585 1.36 5.672-.824 5.17-3.755l-2.785-16.214 11.778-11.477c2.118-2.062.947-5.661-1.972-6.085l-16.28-2.373-7.277-14.754c-1.304-2.63-5.082-2.663-6.396 0z" mask="url(&quot;#tda6b&quot;)"/><path fill="#79cbff" fill-opacity=".16" d="M31.61 1.985l-7.276 14.754-16.28 2.373c-2.92.424-4.09 4.023-1.973 6.085L17.86 36.674l-2.786 16.214c-.502 2.93 2.585 5.126 5.17 3.755l14.565-7.655 14.564 7.655c2.585 1.36 5.672-.824 5.17-3.755l-2.785-16.214 11.778-11.477c2.118-2.062.947-5.661-1.972-6.085l-16.28-2.373-7.277-14.754c-1.304-2.63-5.082-2.663-6.396 0z"/></g><path fill="url(#tda6c)" d="M31.61 1.985l-7.276 14.754-16.28 2.373c-2.92.424-4.09 4.023-1.973 6.085L17.86 36.674l-2.786 16.214c-.502 2.93 2.585 5.126 5.17 3.755l14.565-7.655 14.564 7.655c2.585 1.36 5.672-.824 5.17-3.755l-2.785-16.214 11.778-11.477c2.118-2.062.947-5.661-1.972-6.085l-16.28-2.373-7.277-14.754c-1.304-2.63-5.082-2.663-6.396 0z"/></g></g></svg>