<svg width="32" height="39" viewBox="0 0 32 39" fill="none" xmlns="http://www.w3.org/2000/svg">
<path d="M7.12232 35.285V35.785H7.62232V35.285H7.12232ZM7.12232 20.5914H7.62232V20.0914H7.12232V20.5914ZM20.1888 18.729L20.6195 18.475L20.6191 18.4742L20.1888 18.729ZM20.1759 17.709L19.7393 17.4653L19.7391 17.4657L20.1759 17.709ZM22.3281 13.8539L21.8917 13.6099L21.8915 13.6102L22.3281 13.8539ZM22.4624 11.1312L22.9208 10.9315L22.9207 10.9314L22.4624 11.1312ZM20.369 9.36749L20.2482 9.85268L20.2487 9.8528L20.369 9.36749ZM18.8516 8.98981L18.7301 9.47484L18.7308 9.47501L18.8516 8.98981ZM17.8333 9.29876L17.463 8.96274L17.4625 8.96329L17.8333 9.29876ZM9.59527 18.4033L9.22451 18.0678L9.22418 18.0682L9.59527 18.4033ZM13.436 37.7339L13.436 38.2339L13.436 38.2339L13.436 37.7339ZM23.7138 37.7326L23.7138 37.2326L23.7137 37.2326L23.7138 37.7326ZM28.6961 33.9533L29.1782 34.0861L29.1817 34.0733L29.1845 34.0603L28.6961 33.9533ZM30.9019 23.8853L30.4146 23.773L30.4134 23.7783L30.9019 23.8853ZM31 23.0311L31.5 23.0311L31.5 23.0309L31 23.0311ZM27.1251 8.00696C26.8722 8.11787 26.7571 8.41279 26.868 8.66568C26.9789 8.91857 27.2739 9.03367 27.5267 8.92276L27.1251 8.00696ZM30.5879 7.58021C30.8408 7.4693 30.9559 7.17438 30.845 6.92149C30.7341 6.6686 30.4392 6.5535 30.1863 6.66441L30.5879 7.58021ZM22.5903 4.57349C22.4699 4.82201 22.5738 5.12106 22.8223 5.24145C23.0708 5.36184 23.3699 5.25797 23.4903 5.00946L22.5903 4.57349ZM25.327 1.21798C25.4473 0.969466 25.3435 0.670408 25.095 0.550019C24.8464 0.42963 24.5474 0.533499 24.427 0.782016L25.327 1.21798ZM15.8443 6.2084C15.9506 6.46326 16.2434 6.5837 16.4983 6.4774C16.7531 6.3711 16.8736 6.07832 16.7673 5.82346L15.8443 6.2084ZM14.9306 1.41975C14.8243 1.16489 14.5315 1.04446 14.2766 1.15075C14.0218 1.25705 13.9013 1.54983 14.0076 1.80469L14.9306 1.41975ZM0.5 22.0608V33.8156H1.5V22.0608H0.5ZM0.5 33.8156C0.5 34.9222 1.4287 35.785 2.53058 35.785V34.785C1.94212 34.785 1.5 34.3318 1.5 33.8156H0.5ZM2.53058 35.785H7.12232V34.785H2.53058V35.785ZM7.62232 35.285V20.5914H6.62232V35.285H7.62232ZM7.12232 20.0914H2.53058V21.0914H7.12232V20.0914ZM2.53058 20.0914C1.4287 20.0914 0.5 20.9542 0.5 22.0608H1.5C1.5 21.5446 1.94212 21.0914 2.53058 21.0914V20.0914ZM27.1838 18.7357H21.0799V19.7357H27.1838V18.7357ZM21.0799 18.7357C20.8054 18.7357 20.6711 18.5625 20.6195 18.475L19.7581 18.9829C19.886 19.1998 20.2865 19.7357 21.0799 19.7357V18.7357ZM20.6191 18.4742C20.567 18.3863 20.4818 18.1874 20.6127 17.9523L19.7391 17.4657C19.3535 18.1581 19.6312 18.7685 19.7586 18.9837L20.6191 18.4742ZM20.6125 17.9527L22.7647 14.0977L21.8915 13.6102L19.7393 17.4653L20.6125 17.9527ZM22.7645 14.098C23.3129 13.1174 23.3692 11.9609 22.9208 10.9315L22.004 11.3309C22.3279 12.0743 22.2873 12.9025 21.8917 13.6099L22.7645 14.098ZM22.9207 10.9314C22.4714 9.90104 21.5828 9.15316 20.4893 8.88217L20.2487 9.8528C21.042 10.0494 21.6798 10.5874 22.0041 11.3311L22.9207 10.9314ZM20.4898 8.88229L18.9723 8.50462L18.7308 9.47501L20.2482 9.85268L20.4898 8.88229ZM18.973 8.50479C18.4252 8.3676 17.8448 8.54207 17.463 8.96274L18.2035 9.63478C18.337 9.48766 18.5393 9.42705 18.7301 9.47484L18.973 8.50479ZM17.4625 8.96329L9.22451 18.0678L9.96602 18.7388L18.204 9.63423L17.4625 8.96329ZM9.22418 18.0682C8.28657 19.1065 7.77026 20.4462 7.77026 21.8409H8.77026C8.77026 20.6947 9.19412 19.5936 9.96636 18.7384L9.22418 18.0682ZM7.77026 21.8409V32.5955H8.77026V21.8409H7.77026ZM7.77026 32.5955C7.77026 35.7073 10.3141 38.2339 13.436 38.2339V37.2339C10.8614 37.2339 8.77026 35.15 8.77026 32.5955H7.77026ZM13.436 38.2339L23.7138 38.2326L23.7137 37.2326L13.4359 37.2339L13.436 38.2339ZM23.7138 38.2326C26.2578 38.2326 28.5052 36.5296 29.1782 34.0861L28.2141 33.8206C27.6615 35.8269 25.8112 37.2326 23.7138 37.2326V38.2326ZM29.1845 34.0603L31.3903 23.9923L30.4134 23.7783L28.2077 33.8463L29.1845 34.0603ZM31.3891 23.9977C31.4619 23.6818 31.5 23.357 31.5 23.0311H30.5C30.5 23.2793 30.471 23.5287 30.4146 23.773L31.3891 23.9977ZM31.5 23.0309C31.4993 20.6598 29.5605 18.7357 27.1838 18.7357V19.7357C29.0133 19.7357 30.4995 21.2172 30.5 23.0312L31.5 23.0309ZM27.5267 8.92276L30.5879 7.58021L30.1863 6.66441L27.1251 8.00696L27.5267 8.92276ZM23.4903 5.00946L25.327 1.21798L24.427 0.782016L22.5903 4.57349L23.4903 5.00946ZM16.7673 5.82346L14.9306 1.41975L14.0076 1.80469L15.8443 6.2084L16.7673 5.82346Z" fill="#6800BE"/>
</svg>
