<svg xmlns="http://www.w3.org/2000/svg" width="26" height="26" viewBox="0 0 26 26"><g><g><path fill="#20315c" d="M14.314 13l10.3-10.3A.929.929 0 0 0 23.3 1.387L13 11.687 2.702 1.387A.928.928 0 1 0 1.388 2.7l10.3 10.3-10.3 10.3A.928.928 0 1 0 2.7 24.613l10.3-10.3 10.3 10.3a.926.926 0 0 0 1.313 0 .929.929 0 0 0 0-1.313z"/><path fill="none" stroke="#20315c" stroke-miterlimit="20" d="M14.314 13v0l10.3-10.3A.929.929 0 0 0 23.3 1.387L13 11.687v0L2.702 1.387A.928.928 0 1 0 1.388 2.7l10.3 10.3v0l-10.3 10.3A.928.928 0 1 0 2.7 24.613l10.3-10.3v0l10.3 10.3a.926.926 0 0 0 1.313 0 .929.929 0 0 0 0-1.313z"/></g></g></svg>