<svg width="31" height="34" viewBox="0 0 31 34" fill="none" xmlns="http://www.w3.org/2000/svg">
<path opacity="0.8" d="M19.5082 13.4698C19.6826 15.0723 20.9147 16.3506 22.4995 16.5779V16.6674C20.911 16.8985 19.6826 18.1768 19.5082 19.7756H19.4191C19.2447 18.173 18.0125 16.8947 16.4278 16.6674V16.5779C18.0162 16.3506 19.2484 15.0686 19.4191 13.4698H19.5082ZM23.1118 31.3959C15.4591 35.2494 6.25139 31.9214 2.5438 23.9683C-1.16378 16.0152 2.03536 6.44465 9.69177 2.59109C12.6274 1.10781 15.9676 0.645679 19.1927 1.27179C18.6063 1.45813 18.0348 1.6892 17.4818 1.96126C11.2468 5.09926 8.63776 12.8995 11.6588 19.3805C14.6798 25.8615 22.184 28.5709 28.419 25.4329C28.9683 25.1497 29.499 24.8255 30 24.464C28.5006 27.4566 26.0883 29.8865 23.1118 31.3959Z" stroke="#6800BE" stroke-linecap="round" stroke-linejoin="round"/>
</svg>
