<svg width="45" height="49" viewBox="0 0 45 49" fill="none" xmlns="http://www.w3.org/2000/svg">
<path d="M9.89599 27.8354C9.89599 27.5397 9.89828 27.244 9.90057 26.9483C9.90693 26.1271 9.91329 25.3062 9.87057 24.4862C9.85786 24.2392 9.57645 23.9196 9.33497 23.787C8.11853 23.1168 6.88211 22.4865 5.63844 21.8672C5.03748 21.5693 4.9939 21.2569 5.44235 20.7629C6.07351 20.0679 6.69717 19.3664 7.32077 18.665C8.10355 17.7846 8.88625 16.9043 9.68357 16.0369C9.95409 15.7409 10.3408 15.5048 10.7203 15.3631C14.4295 13.9809 18.1424 12.6024 21.8752 11.2838C22.3582 11.113 23.0172 11.1312 23.5002 11.3146C27.2003 12.7222 30.8805 14.1843 34.5571 15.6519C34.9057 15.7917 35.267 16.0151 35.503 16.3003C36.1207 17.0425 36.7239 17.7962 37.327 18.5498C37.8958 19.2606 38.4645 19.9712 39.0452 20.6721C39.55 21.2805 39.4846 21.6474 38.7529 21.9689C37.8161 22.3794 36.8811 22.808 35.9951 23.3184C35.7082 23.4837 35.4213 23.9286 35.4122 24.2538C35.3578 26.2753 35.365 28.3004 35.3923 30.3237C35.3995 30.8922 35.1962 31.1901 34.6842 31.428C32.9396 32.2379 31.1987 33.0553 29.4578 33.8727C27.3688 34.8536 25.2798 35.8345 23.1843 36.8024C22.8756 36.944 22.4054 36.9568 22.0895 36.8314C18.2495 35.2822 14.4204 33.7093 10.6059 32.0964C10.3045 31.9693 9.97587 31.517 9.95227 31.1955C9.89439 30.3888 9.90418 29.5764 9.91397 28.7645C9.91769 28.4558 9.92141 28.1472 9.92141 27.8391C9.91414 27.8354 9.90507 27.8354 9.89599 27.8354ZM33.5803 16.3021C32.8523 16.0152 32.1334 15.7315 31.4217 15.4506C28.5607 14.3213 25.816 13.238 23.0608 12.1792C22.7685 12.0666 22.3491 12.1283 22.0368 12.2409C19.0943 13.2984 16.1599 14.3784 13.2259 15.4583C13.0407 15.5264 12.8554 15.5946 12.6702 15.6628C12.4873 15.7303 12.3085 15.8095 12.0894 15.9065C11.9846 15.953 11.8706 16.0035 11.7424 16.0587C12.5193 16.3956 13.2894 16.7301 14.0545 17.0623C16.8371 18.2709 19.5527 19.4503 22.2783 20.6085C22.5379 20.7193 22.9319 20.6612 23.2133 20.5522C24.2037 20.1692 25.1844 19.7618 26.1653 19.3543C26.5241 19.2053 26.8828 19.0563 27.2421 18.9085L27.2443 18.9076C29.277 18.0724 31.3098 17.2372 33.5803 16.3021ZM23.1716 35.7489C24.1027 35.3122 25.0204 34.873 25.9308 34.4372C28.1289 33.3852 30.2845 32.3535 32.4837 31.4262C33.9634 30.8032 34.7713 30.0422 34.4191 28.3803C34.3878 28.2342 34.4024 28.0785 34.417 27.9222C34.4253 27.8336 34.4336 27.7448 34.4336 27.6574C34.4355 26.5017 34.4355 25.3459 34.4355 24.058V24.054C34.284 24.119 34.1525 24.1742 34.0344 24.2238C33.8029 24.3211 33.6234 24.3966 33.4478 24.4808C32.9365 24.7251 32.4222 24.9641 31.9078 25.203C30.6139 25.804 29.3201 26.4051 28.0755 27.0926C27.1132 27.6248 26.7065 27.2215 26.1873 26.5277C25.547 25.6716 24.8744 24.8392 24.1536 23.9471C23.836 23.5541 23.5091 23.1495 23.1716 22.7263V35.7489ZM18.5654 27.2506C19.7147 25.3163 20.8149 23.4637 21.9497 21.553C21.3831 21.3068 20.819 21.0616 20.257 20.8173C17.0944 19.4426 13.9968 18.096 10.8873 16.7743C10.6967 16.6926 10.2954 16.8234 10.1375 16.9905C9.17965 18.0042 8.24205 19.0362 7.28243 20.0924C6.95601 20.4516 6.62704 20.8137 6.29386 21.1788C10.3789 23.1985 14.4132 25.1946 18.5654 27.2506ZM10.88 24.4971C10.88 25.0921 10.8828 25.6723 10.8855 26.2419C10.8921 27.6304 10.8985 28.9562 10.8637 30.2801C10.8455 30.9594 11.0543 31.2845 11.6934 31.5406C13.9493 32.4405 16.1946 33.3671 18.4397 34.2935C19.4073 34.6928 20.3749 35.0921 21.3433 35.4892C21.4991 35.553 21.6603 35.606 21.8344 35.6633C21.928 35.6941 22.0254 35.7261 22.1276 35.7617V23.4709C21.1563 24.8005 20.2993 26.1663 19.5132 27.5739C19.1355 28.2514 18.7887 28.4766 18.0207 28.0752C16.3653 27.2102 14.6914 26.3832 12.9713 25.5333C12.2822 25.1929 11.5857 24.8488 10.88 24.4971ZM27.3184 26.3988C29.6367 25.2774 31.9277 24.17 34.2267 23.0588C35.5358 22.426 36.8475 21.7919 38.1683 21.1534C37.5308 20.3603 36.9137 19.5935 36.3031 18.8347C35.7781 18.1823 35.2578 17.5357 34.7332 16.8833C32.1593 17.9442 29.6081 18.995 27.0452 20.0507C25.8479 20.5438 24.648 21.038 23.4421 21.5348C24.7566 23.1858 26.0111 24.7605 27.3184 26.3988Z" fill="#6800BE"/>
<path d="M9.89599 27.8354C9.89599 27.5397 9.89828 27.244 9.90057 26.9483C9.90693 26.1271 9.91329 25.3062 9.87057 24.4862C9.85786 24.2392 9.57645 23.9196 9.33497 23.787C8.11853 23.1168 6.88211 22.4865 5.63844 21.8672C5.03748 21.5693 4.9939 21.2569 5.44235 20.7629C6.07351 20.0679 6.69717 19.3664 7.32077 18.665C8.10355 17.7846 8.88625 16.9043 9.68357 16.0369C9.95409 15.7409 10.3408 15.5048 10.7203 15.3631C14.4295 13.9809 18.1424 12.6024 21.8752 11.2838C22.3582 11.113 23.0172 11.1312 23.5002 11.3146C27.2003 12.7222 30.8805 14.1843 34.5571 15.6519C34.9057 15.7917 35.267 16.0151 35.503 16.3003C36.1207 17.0425 36.7239 17.7962 37.327 18.5498C37.8958 19.2606 38.4645 19.9712 39.0452 20.6721C39.55 21.2805 39.4846 21.6474 38.7529 21.9689C37.8161 22.3794 36.8811 22.808 35.9951 23.3184C35.7082 23.4837 35.4213 23.9286 35.4122 24.2538C35.3578 26.2753 35.365 28.3004 35.3923 30.3237C35.3995 30.8922 35.1962 31.1901 34.6842 31.428C32.9396 32.2379 31.1987 33.0553 29.4578 33.8727C27.3688 34.8536 25.2798 35.8345 23.1843 36.8024C22.8756 36.944 22.4054 36.9568 22.0895 36.8314C18.2495 35.2822 14.4204 33.7093 10.6059 32.0964C10.3045 31.9693 9.97587 31.517 9.95227 31.1955C9.89439 30.3888 9.90418 29.5764 9.91397 28.7645C9.91769 28.4558 9.92141 28.1472 9.92141 27.8391C9.91414 27.8354 9.90507 27.8354 9.89599 27.8354ZM33.5803 16.3021C32.8523 16.0152 32.1334 15.7315 31.4217 15.4506C28.5607 14.3213 25.816 13.238 23.0608 12.1792C22.7685 12.0666 22.3491 12.1283 22.0368 12.2409C19.0943 13.2984 16.1599 14.3784 13.2259 15.4583C13.0407 15.5264 12.8554 15.5946 12.6702 15.6628C12.4873 15.7303 12.3085 15.8095 12.0894 15.9065C11.9846 15.953 11.8706 16.0035 11.7424 16.0587C12.5193 16.3956 13.2894 16.7301 14.0545 17.0623C16.8371 18.2709 19.5527 19.4503 22.2783 20.6085C22.5379 20.7193 22.9319 20.6612 23.2133 20.5522C24.2037 20.1692 25.1844 19.7618 26.1653 19.3543C26.5241 19.2053 26.8828 19.0563 27.2421 18.9085L27.2443 18.9076C29.277 18.0724 31.3098 17.2372 33.5803 16.3021ZM23.1716 35.7489C24.1027 35.3122 25.0204 34.873 25.9308 34.4372C28.1289 33.3852 30.2845 32.3535 32.4837 31.4262C33.9634 30.8032 34.7713 30.0422 34.4191 28.3803C34.3878 28.2342 34.4024 28.0785 34.417 27.9222C34.4253 27.8336 34.4336 27.7448 34.4336 27.6574C34.4355 26.5017 34.4355 25.3459 34.4355 24.058V24.054C34.284 24.119 34.1525 24.1742 34.0344 24.2238C33.8029 24.3211 33.6234 24.3966 33.4478 24.4808C32.9365 24.7251 32.4222 24.9641 31.9078 25.203C30.6139 25.804 29.3201 26.4051 28.0755 27.0926C27.1132 27.6248 26.7065 27.2215 26.1873 26.5277C25.547 25.6716 24.8744 24.8392 24.1536 23.9471C23.836 23.5541 23.5091 23.1495 23.1716 22.7263V35.7489ZM18.5654 27.2506C19.7147 25.3163 20.8149 23.4637 21.9497 21.553C21.3831 21.3068 20.819 21.0616 20.257 20.8173C17.0944 19.4426 13.9968 18.096 10.8873 16.7743C10.6967 16.6926 10.2954 16.8234 10.1375 16.9905C9.17965 18.0042 8.24205 19.0362 7.28243 20.0924C6.95601 20.4516 6.62704 20.8137 6.29386 21.1788C10.3789 23.1985 14.4132 25.1946 18.5654 27.2506ZM10.88 24.4971C10.88 25.0921 10.8828 25.6723 10.8855 26.2419C10.8921 27.6304 10.8985 28.9562 10.8637 30.2801C10.8455 30.9594 11.0543 31.2845 11.6934 31.5406C13.9493 32.4405 16.1946 33.3671 18.4397 34.2935C19.4073 34.6928 20.3749 35.0921 21.3433 35.4892C21.4991 35.553 21.6603 35.606 21.8344 35.6633C21.928 35.6941 22.0254 35.7261 22.1276 35.7617V23.4709C21.1563 24.8005 20.2993 26.1663 19.5132 27.5739C19.1355 28.2514 18.7887 28.4766 18.0207 28.0752C16.3653 27.2102 14.6914 26.3832 12.9713 25.5333C12.2822 25.1929 11.5857 24.8488 10.88 24.4971ZM27.3184 26.3988C29.6367 25.2774 31.9277 24.17 34.2267 23.0588C35.5358 22.426 36.8475 21.7919 38.1683 21.1534C37.5308 20.3603 36.9137 19.5935 36.3031 18.8347C35.7781 18.1823 35.2578 17.5357 34.7332 16.8833C32.1593 17.9442 29.6081 18.995 27.0452 20.0507C25.8479 20.5438 24.648 21.038 23.4421 21.5348C24.7566 23.1858 26.0111 24.7605 27.3184 26.3988Z" stroke="#6800BE"/>
<path d="M22.6614 45.3334C25.3485 45.2753 27.8232 44.7795 30.1653 43.7569C37.3441 40.6202 41.8776 35.2259 43.1485 27.4813C44.4739 19.4098 41.7287 12.6859 35.5321 7.35881C35.4589 7.29599 35.3616 7.23578 35.2607 7.17336C34.9242 6.96509 34.548 6.7323 34.893 6.29629C35.2485 5.84586 35.5967 6.18957 35.8924 6.48137C35.9591 6.54726 36.0232 6.61051 36.0841 6.66136C42.2698 11.8359 45.1057 18.4617 44.2778 26.4823C43.1885 37.0204 34.5136 45.3316 23.9723 46.1635C23.8873 46.1699 23.802 46.1823 23.7169 46.1948C23.5604 46.2177 23.4044 46.2405 23.2515 46.2252C22.5797 46.1598 22.3837 46.5013 22.2983 47.1116C22.1531 48.1396 21.9388 48.2159 21.0891 47.6528C20.9519 47.5617 20.8145 47.4707 20.6772 47.3796C19.6808 46.719 18.6832 46.0577 17.7067 45.3698C17.5606 45.2673 17.466 45.0918 17.3716 44.9166C17.3287 44.8371 17.2859 44.7576 17.2383 44.685C17.3076 44.6452 17.3755 44.5994 17.4434 44.5536C17.5924 44.453 17.7412 44.3525 17.9046 44.3163C19.0906 44.057 20.2809 43.8208 21.4717 43.5845C21.6153 43.556 21.7589 43.5275 21.9025 43.499C22.8575 43.3101 22.9937 43.4445 22.8285 44.3962C22.7813 44.6596 22.7341 44.9248 22.6614 45.3334Z" fill="#6800BE"/>
<path d="M22.6614 45.3334C25.3485 45.2753 27.8232 44.7795 30.1653 43.7569C37.3441 40.6202 41.8776 35.2259 43.1485 27.4813C44.4739 19.4098 41.7287 12.6859 35.5321 7.35881C35.4589 7.29599 35.3616 7.23578 35.2607 7.17336C34.9242 6.96509 34.548 6.7323 34.893 6.29629C35.2485 5.84586 35.5967 6.18957 35.8924 6.48137C35.9591 6.54726 36.0232 6.61051 36.0841 6.66136C42.2698 11.8359 45.1057 18.4617 44.2778 26.4823C43.1885 37.0204 34.5136 45.3316 23.9723 46.1635C23.8873 46.1699 23.802 46.1823 23.7169 46.1948C23.5604 46.2177 23.4044 46.2405 23.2515 46.2252C22.5797 46.1598 22.3837 46.5013 22.2983 47.1116C22.1531 48.1396 21.9388 48.2159 21.0891 47.6528C20.9519 47.5617 20.8145 47.4707 20.6772 47.3796C19.6808 46.719 18.6832 46.0577 17.7067 45.3698C17.5606 45.2673 17.466 45.0918 17.3716 44.9166C17.3287 44.8371 17.2859 44.7576 17.2383 44.685C17.3076 44.6452 17.3755 44.5994 17.4434 44.5536C17.5924 44.453 17.7412 44.3525 17.9046 44.3163C19.0906 44.057 20.2809 43.8208 21.4717 43.5845C21.6153 43.556 21.7589 43.5275 21.9025 43.499C22.8575 43.3101 22.9937 43.4445 22.8285 44.3962C22.7813 44.6596 22.7341 44.9248 22.6614 45.3334Z" stroke="#6800BE"/>
<path d="M21.5418 1.74706C21.5605 1.68078 21.5795 1.6175 21.5979 1.55599C21.633 1.43883 21.6663 1.32803 21.6925 1.2149C21.8668 0.47311 21.9544 0.0985401 22.1588 0.0171497C22.3672 -0.0658705 22.6972 0.156147 23.3646 0.604628C23.6324 0.784651 23.9007 0.963692 24.1689 1.14268C24.9317 1.6517 25.6938 2.16026 26.442 2.68971C26.5705 2.7799 26.6494 2.93902 26.7284 3.09844C26.7655 3.17338 26.8027 3.24838 26.8451 3.31632C26.7829 3.35374 26.7222 3.39718 26.6616 3.44057C26.531 3.53408 26.4007 3.62734 26.2568 3.6596C24.9296 3.95202 23.597 4.22264 22.2626 4.48782C21.1986 4.69851 21.0915 4.58771 21.2622 3.51248C21.3003 3.27636 21.3366 3.03843 21.3856 2.71695C19.334 2.70606 17.3931 3.0911 15.4977 3.7159C7.20225 6.44939 1.45955 13.8071 0.882195 22.5361C0.364753 30.3497 3.52206 36.4887 9.58975 41.2637C9.91656 41.5198 10.3668 42.2118 10.3124 42.2699C9.88264 42.7169 9.57113 42.4108 9.28606 42.1308C9.20739 42.0535 9.13073 41.9782 9.05415 41.9212C4.44075 38.4921 1.45229 33.9623 0.413774 28.3155C-2.28056 13.6545 8.60207 2.36641 20.8936 1.80518C21.0373 1.79888 21.1819 1.78381 21.3347 1.76789C21.402 1.76089 21.4708 1.75372 21.5418 1.74706Z" fill="#6800BE"/>
<path d="M21.5418 1.74706C21.5605 1.68078 21.5795 1.6175 21.5979 1.55599C21.633 1.43883 21.6663 1.32803 21.6925 1.2149C21.8668 0.47311 21.9544 0.0985401 22.1588 0.0171497C22.3672 -0.0658705 22.6972 0.156147 23.3646 0.604628C23.6324 0.784651 23.9007 0.963692 24.1689 1.14268C24.9317 1.6517 25.6938 2.16026 26.442 2.68971C26.5705 2.7799 26.6494 2.93902 26.7284 3.09844C26.7655 3.17338 26.8027 3.24838 26.8451 3.31632C26.7829 3.35374 26.7222 3.39718 26.6616 3.44057C26.531 3.53408 26.4007 3.62734 26.2568 3.6596C24.9296 3.95202 23.597 4.22264 22.2626 4.48782C21.1986 4.69851 21.0915 4.58771 21.2622 3.51248C21.3003 3.27636 21.3366 3.03843 21.3856 2.71695C19.334 2.70606 17.3931 3.0911 15.4977 3.7159C7.20225 6.44939 1.45955 13.8071 0.882195 22.5361C0.364753 30.3497 3.52206 36.4887 9.58975 41.2637C9.91656 41.5198 10.3668 42.2118 10.3124 42.2699C9.88264 42.7169 9.57113 42.4108 9.28606 42.1308C9.20739 42.0535 9.13073 41.9782 9.05415 41.9212C4.44075 38.4921 1.45229 33.9623 0.413774 28.3155C-2.28056 13.6545 8.60207 2.36641 20.8936 1.80518C21.0373 1.79888 21.1819 1.78381 21.3347 1.76789C21.402 1.76089 21.4708 1.75372 21.5418 1.74706Z" stroke="#6800BE"/>
</svg>
