<svg width="70" height="33" viewBox="0 0 70 33" fill="none" xmlns="http://www.w3.org/2000/svg">
<path d="M36.1173 27.2198C36.1053 24.5493 33.9187 22.3952 31.2329 22.4072C28.547 22.4193 26.3807 24.5933 26.3928 27.2638C26.4048 29.9263 28.5793 32.0763 31.253 32.0763C33.9469 32.0683 36.1254 29.8943 36.1173 27.2198Z" stroke="#6800BE"/>
<path d="M64.8363 27.2198C64.8242 24.5493 62.6417 22.3952 59.9559 22.4072C57.27 22.4193 55.1036 24.5893 55.1157 27.2598C55.1278 29.9223 57.2982 32.0723 59.976 32.0723C62.6659 32.0643 64.8404 29.8943 64.8363 27.2198Z" stroke="#6800BE"/>
<path d="M22.7607 21.074V24.273C22.7607 25.1418 23.4694 25.8425 24.3391 25.8425H26.6344C26.8197 25.1018 27.4881 22.6234 31.1605 22.3912C34.8329 22.159 35.8678 25.6823 36.0007 26.1067L55.3452 25.8385C55.5788 25.1058 56.7788 22.3552 59.9841 22.3552C63.1894 22.3552 64.5424 25.358 64.6672 25.8385H67.4215C68.2953 25.8385 69 25.1338 69 24.269V17.5547C69.0081 15.1044 67.5182 12.8943 65.235 11.9694L61.1559 10.3119L57.717 2.66872C57.1975 1.51163 56.0419 0.766943 54.7654 0.762939H24.3391C23.4653 0.762939 22.7607 1.46759 22.7607 2.3324V16.6178V21.074ZM22.7607 14.7921V21.5424V14.7921ZM22.7607 8.5062V11.6491V8.5062ZM47.4608 13.3227C46.587 13.3227 45.8823 12.6181 45.8823 11.7532V4.84277H52.148C52.1762 4.84277 55.913 13.1025 55.913 13.1025C55.9493 13.1786 55.9895 13.2547 47.4608 13.3227Z" stroke="#6800BE" stroke-linecap="round"/>
<path d="M8.81995 6.19205H18.8707" stroke="#6800BE" stroke-linecap="round"/>
<path d="M8.81995 16.1894H18.8707" stroke="#6800BE" stroke-linecap="round"/>
<path d="M1 11.7452H18.8708" stroke="#6800BE" stroke-linecap="round"/>
</svg>
