<svg width="35" height="44" viewBox="0 0 35 44" fill="none" xmlns="http://www.w3.org/2000/svg">
<path d="M0 44V0H35V44L17.5 35L0 44Z" fill="#ED6060"/>
<path d="M9.1368 14.084C7.8968 14.084 6.8608 13.704 6.0288 12.944C5.2048 12.176 4.7928 11.116 4.7928 9.764C4.7928 8.5 5.1768 7.452 5.9448 6.62C6.7208 5.788 7.7768 5.372 9.1128 5.372C9.7448 5.372 10.3568 5.512 10.9488 5.792C11.5488 6.064 12.0688 6.472 12.5088 7.016L11.2608 8.06C10.6688 7.34 9.9528 6.98 9.1128 6.98C8.3768 6.98 7.7648 7.236 7.2768 7.748C6.7968 8.252 6.5568 8.924 6.5568 9.764C6.5568 10.556 6.7968 11.208 7.2768 11.72C7.7568 12.232 8.3768 12.488 9.1368 12.488C9.9848 12.488 10.7008 12.128 11.2848 11.408L12.5208 12.476C11.6568 13.548 10.5288 14.084 9.1368 14.084ZM21.337 4.712H22.801V5.588C22.801 6.3 22.609 6.852 22.225 7.244C21.841 7.628 21.301 7.824 20.605 7.832V10.472C20.605 11.592 20.297 12.48 19.681 13.136C19.073 13.784 18.225 14.108 17.137 14.108C16.089 14.108 15.253 13.788 14.629 13.148C14.005 12.508 13.693 11.616 13.693 10.472V5.48H15.385V10.364C15.385 10.996 15.537 11.516 15.841 11.924C16.153 12.324 16.585 12.524 17.137 12.524C17.665 12.524 18.093 12.332 18.421 11.948C18.749 11.556 18.913 11.028 18.913 10.364V5.48H20.605V6.968C20.773 6.936 20.909 6.88 21.013 6.8C21.117 6.72 21.189 6.612 21.229 6.476C21.277 6.332 21.305 6.2 21.313 6.08C21.329 5.96 21.337 5.788 21.337 5.564V4.712ZM17.137 14.828C17.425 14.828 17.661 14.92 17.845 15.104C18.037 15.296 18.133 15.528 18.133 15.8C18.133 16.064 18.037 16.288 17.845 16.472C17.661 16.664 17.425 16.76 17.137 16.76C16.857 16.76 16.621 16.664 16.429 16.472C16.237 16.288 16.141 16.064 16.141 15.8C16.141 15.528 16.237 15.296 16.429 15.104C16.621 14.92 16.857 14.828 17.137 14.828ZM27.043 14.084C25.803 14.084 24.767 13.704 23.935 12.944C23.111 12.176 22.699 11.116 22.699 9.764C22.699 8.5 23.083 7.452 23.851 6.62C24.627 5.788 25.683 5.372 27.019 5.372C27.651 5.372 28.263 5.512 28.855 5.792C29.455 6.064 29.975 6.472 30.415 7.016L29.167 8.06C28.575 7.34 27.859 6.98 27.019 6.98C26.283 6.98 25.671 7.236 25.183 7.748C24.703 8.252 24.463 8.924 24.463 9.764C24.463 10.556 24.703 11.208 25.183 11.72C25.663 12.232 26.283 12.488 27.043 12.488C27.891 12.488 28.607 12.128 29.191 11.408L30.427 12.476C29.563 13.548 28.435 14.084 27.043 14.084ZM5.8908 29V20.48H7.5948V24.164H11.0748V20.48H12.7668V29H11.0748V25.664H7.5948V29H5.8908ZM18.6055 29.108C17.3255 29.108 16.2815 28.7 15.4735 27.884C14.6655 27.06 14.2615 26.012 14.2615 24.74C14.2615 23.468 14.6655 22.424 15.4735 21.608C16.2815 20.784 17.3255 20.372 18.6055 20.372C19.8615 20.372 20.8975 20.78 21.7135 21.596C22.5295 22.404 22.9375 23.452 22.9375 24.74C22.9375 26.028 22.5295 27.08 21.7135 27.896C20.8975 28.704 19.8615 29.108 18.6055 29.108ZM18.6055 27.524C19.3415 27.524 19.9535 27.26 20.4415 26.732C20.9295 26.204 21.1735 25.54 21.1735 24.74C21.1735 23.94 20.9295 23.276 20.4415 22.748C19.9535 22.22 19.3415 21.956 18.6055 21.956C17.8455 21.956 17.2215 22.224 16.7335 22.76C16.2535 23.296 16.0135 23.956 16.0135 24.74C16.0135 25.524 16.2535 26.184 16.7335 26.72C17.2215 27.256 17.8455 27.524 18.6055 27.524ZM25.6425 29V21.98H23.3145V20.48H29.7105V21.98H27.3465V29H25.6425Z" fill="white"/>
</svg>
