<svg width="278" height="47" viewBox="0 0 278 47" fill="none" xmlns="http://www.w3.org/2000/svg">
<path d="M254.012 0.934622L260.537 13.7209C260.789 14.2159 261.277 14.5581 261.842 14.6376L276.431 16.6875C277.852 16.888 278.42 18.5767 277.392 19.5475L266.836 29.4993C266.428 29.8844 266.24 30.4399 266.337 30.9826L268.828 45.0357C269.072 46.406 267.584 47.4501 266.313 46.8039L253.264 40.1688C252.759 39.9126 252.155 39.9126 251.651 40.1688L238.603 46.8039C237.331 47.4501 235.845 46.406 236.087 45.0357L238.578 30.9826C238.675 30.4383 238.487 29.8844 238.079 29.4993L227.525 19.5475C226.497 18.5782 227.064 16.888 228.486 16.6875L243.075 14.6376C243.639 14.5581 244.128 14.2159 244.38 13.7209L250.904 0.934622C251.539 -0.311541 253.377 -0.311541 254.012 0.934622Z" fill="#C4C4C4"/>
<path fill-rule="evenodd" clip-rule="evenodd" d="M253 0.0820191C252.233 -0.15724 251.316 0.126961 250.904 0.934622L244.38 13.7209C244.128 14.2159 243.639 14.5581 243.075 14.6376L228.486 16.6875C227.064 16.888 226.497 18.5782 227.525 19.5475L238.079 29.4993C238.487 29.8844 238.675 30.4383 238.578 30.9826L236.087 45.0357C235.845 46.406 237.331 47.4501 238.603 46.8039L251.651 40.1688C252.07 39.9559 252.557 39.9199 253 40.0608V0.0820191Z" fill="#FFCA10"/>
<path d="M27.0125 0.934622L33.5369 13.7209C33.7886 14.2159 34.2773 14.5581 34.8417 14.6376L49.4306 16.6875C50.8523 16.888 51.42 18.5767 50.3916 19.5475L39.8358 29.4993C39.4277 29.8844 39.2401 30.4399 39.3372 30.9826L41.8285 45.0357C42.072 46.406 40.5845 47.4501 39.3125 46.8039L26.2638 40.1688C25.7586 39.9126 25.1547 39.9126 24.6512 40.1688L11.6025 46.8039C10.3306 47.4501 8.84468 46.406 9.08656 45.0357L11.5778 30.9826C11.6749 30.4383 11.4873 29.8844 11.0792 29.4993L0.525096 19.5475C-0.503333 18.5782 0.06436 16.888 1.48606 16.6875L16.0749 14.6376C16.6393 14.5581 17.1281 14.2159 17.3798 13.7209L23.9042 0.934622C24.5393 -0.311541 26.3773 -0.311541 27.0125 0.934622Z" fill="#FFCA10"/>
<path d="M83.8039 0.934622L90.3282 13.7209C90.58 14.2159 91.0687 14.5581 91.6331 14.6376L106.222 16.6875C107.644 16.888 108.211 18.5767 107.183 19.5475L96.6272 29.4993C96.2191 29.8844 96.0315 30.4399 96.1286 30.9826L98.6198 45.0357C98.8634 46.406 97.3759 47.4501 96.1039 46.8039L83.0552 40.1688C82.55 39.9126 81.9461 39.9126 81.4426 40.1688L68.3939 46.8039C67.1219 47.4501 65.6361 46.406 65.8779 45.0357L68.3692 30.9826C68.4663 30.4383 68.2787 29.8844 67.8706 29.4993L57.3165 19.5475C56.288 18.5782 56.8557 16.888 58.2774 16.6875L72.8663 14.6376C73.4307 14.5581 73.9194 14.2159 74.1712 13.7209L80.6956 0.934622C81.3307 -0.311541 83.1687 -0.311541 83.8039 0.934622Z" fill="#FFCA10"/>
<path d="M140.597 0.934622L147.121 13.7209C147.373 14.2159 147.862 14.5581 148.426 14.6376L163.015 16.6875C164.437 16.888 165.004 18.5767 163.976 19.5475L153.42 29.4993C153.012 29.8844 152.824 30.4399 152.921 30.9826L155.413 45.0357C155.656 46.406 154.169 47.4501 152.897 46.8039L139.848 40.1688C139.343 39.9126 138.739 39.9126 138.235 40.1688L125.187 46.8039C123.915 47.4501 122.429 46.406 122.671 45.0357L125.162 30.9826C125.259 30.4383 125.072 29.8844 124.663 29.4993L114.109 19.5475C113.081 18.5782 113.649 16.888 115.07 16.6875L129.659 14.6376C130.224 14.5581 130.712 14.2159 130.964 13.7209L137.488 0.934622C138.124 -0.311541 139.962 -0.311541 140.597 0.934622Z" fill="#FFCA10"/>
<path d="M197.387 0.934622L203.911 13.7209C204.163 14.2159 204.652 14.5581 205.216 14.6376L219.805 16.6875C221.227 16.888 221.795 18.5767 220.766 19.5475L210.21 29.4993C209.802 29.8844 209.615 30.4399 209.712 30.9826L212.203 45.0357C212.447 46.406 210.959 47.4501 209.687 46.8039L196.638 40.1688C196.133 39.9126 195.529 39.9126 195.026 40.1688L181.977 46.8039C180.705 47.4501 179.219 46.406 179.461 45.0357L181.952 30.9826C182.05 30.4383 181.862 29.8844 181.454 29.4993L170.9 19.5475C169.871 18.5782 170.439 16.888 171.861 16.6875L186.45 14.6376C187.014 14.5581 187.503 14.2159 187.754 13.7209L194.279 0.934622C194.914 -0.311541 196.752 -0.311541 197.387 0.934622Z" fill="#FFCA10"/>
</svg>
