<svg width="125" height="40" viewBox="0 0 125 40" fill="none" xmlns="http://www.w3.org/2000/svg">
<path d="M33.0722 6.12793H26.791V34.4425H33.0722V6.12793Z" fill="#21409A"/>
<path d="M70.9224 24.4893C70.2208 22.6477 63.841 6.11719 63.841 6.11719H57.0117L57.1323 6.41316L67.9517 34.4318H73.8711L84.7673 6.11719H77.927C77.9161 6.12815 72.0405 21.4419 70.9224 24.4893Z" fill="#21409A"/>
<path d="M50.4355 28.5231C48.9775 29.5316 46.7413 30.0578 43.6172 30.0578H42.5319V10.5127H43.4198C47.5306 10.5127 48.9666 10.8306 50.556 11.9706C52.6388 13.5163 53.8446 16.5527 53.8446 20.2907C53.8446 24.0287 52.595 27.0542 50.4355 28.5231ZM55.4231 8.91225C52.7703 6.89526 49.5585 6.12793 43.8802 6.12793H36.2617V34.4425H43.4747C49.0872 34.4425 52.0359 33.8725 54.59 32.2721C58.2403 29.9701 60.1368 25.7607 60.1368 20.2469C60.1477 15.1715 58.5473 11.3019 55.4231 8.91225Z" fill="#21409A"/>
<path d="M15.1713 29.5755C14.0203 30.0688 12.1129 30.014 8.79145 30.014H6.29213V22.7024H8.8353C11.499 22.7024 13.6805 22.801 14.9849 23.2066C16.5744 23.6999 17.3965 24.6974 17.3965 26.3636C17.4075 28.3149 16.4867 29.0164 15.1713 29.5755ZM6.3031 10.4908H8.26528C11.4881 10.4908 13.6585 10.3812 14.8534 10.995C15.9605 11.5431 16.6402 12.3214 16.6402 13.8342C16.6402 15.2263 16.0153 16.0156 14.8972 16.6075C13.9107 17.1337 11.4223 17.3858 8.50644 17.3749H6.28117V10.4908H6.3031ZM17.6596 19.8851C21.2113 18.9095 22.9871 16.7939 22.9652 13.6259C22.9652 10.8635 21.4634 8.48476 18.8983 7.34473C16.7279 6.35815 14.4478 6.0293 9.60263 6.0293H0V34.3439H10.7207C15.248 34.3439 17.5281 33.9822 19.5999 32.9408C22.2527 31.5705 23.7106 29.2247 23.7106 26.4294C23.7325 22.9983 21.6607 20.795 17.6596 19.8851Z" fill="#21409A"/>
<path d="M104.819 1.28271L86.041 20.0057L104.808 38.7286H104.819L123.607 20.0166L104.819 1.28271Z" fill="white"/>
<path d="M101.682 7.43213V23.0748L104.959 23.0857H107.963V7.44309L104.959 7.43213" fill="#ED1D24"/>
<path d="M98.2402 10.5454H101.386V20.0165H98.2402V10.5454ZM109.969 20.0165H108.27V10.5454H109.969C111.69 10.5454 113.006 12.672 113.017 15.281C113.039 17.8351 111.701 20.0165 109.969 20.0165Z" fill="#21409A"/>
<path d="M104.818 38.7284L86.0404 20.0055L104.818 1.28254V1.29351L123.607 20.0164L104.818 38.7284ZM84.7578 20.0055L84.9222 20.1699L104.062 39.2546L104.818 40L105.574 39.2546L124.889 20.0055L104.829 0" fill="#ED1D24"/>
<path d="M104.818 29.038L95.7639 20.0054H86.8848L102.527 35.6151L102.692 35.7796L104.818 37.8952L122.763 20.0054H113.873" fill="#ED1D24"/>
</svg>
