<svg width="130" height="44" viewBox="0 0 130 44" fill="none" xmlns="http://www.w3.org/2000/svg">
<path fill-rule="evenodd" clip-rule="evenodd" d="M97.7528 0.358887C95.6932 0.773042 94.932 1.71329 95.0104 3.05649C95.1111 4.94817 97.1931 8.55244 98.1893 10.1531C99.9243 12.9626 101.984 15.4923 104.267 17.8317C106.114 19.6563 107.278 20.0592 109.26 17.3616C110.95 15.1341 112.506 12.929 113.838 10.1643C114.42 8.9554 114.968 7.63458 115.449 6.14586C115.964 4.41089 115.785 2.8774 114.084 1.75806C115.718 2.55279 116.435 4.01912 116.535 5.64216C116.636 7.20923 116.166 8.91063 115.808 10.1643C114.923 13.2872 113.782 16.4326 112.338 19.2645C111.252 21.4024 109.864 23.9769 108.476 25.8798C105.409 30.0997 102.476 28.7341 99.0288 25.8798C96.8461 24.0665 94.7418 21.783 92.9396 19.2757C91.1151 16.7572 89.1115 13.0186 87.925 10.1419C86.3019 6.21302 87.5668 4.19821 89.5704 2.92217C91.7755 1.523 95.0887 0.728268 97.7528 0.358887Z" fill="url(#paint0_linear_1233_11660)"/>
<path fill-rule="evenodd" clip-rule="evenodd" d="M97.6846 9.32478C100.875 8.84347 109.169 8.32857 112.079 9.83968C113.053 10.3434 113.075 11.0262 112.986 11.7985C113.277 11.2724 113.557 10.724 113.837 10.1643C114.419 8.9554 114.967 7.63458 115.448 6.14586C115.963 4.41089 115.784 2.8774 114.083 1.75806H114.072C113.445 1.43345 112.717 1.1872 112.068 0.99691C110.154 0.437241 108.027 0.213374 105.889 0.0566666C105.005 -0.0104936 104.087 0.000699552 103.147 0.000699552C101.457 0.000699552 99.5986 0.112634 97.7517 0.358888C95.6921 0.773043 94.931 1.71329 95.0093 3.05649C95.0989 4.66834 96.6212 7.52265 97.6846 9.32478Z" fill="url(#paint1_linear_1233_11660)"/>
<path fill-rule="evenodd" clip-rule="evenodd" d="M89.3459 43.9122C91.0137 43.7107 92.4241 42.8601 92.8942 40.3415C93.1964 38.7297 93.1516 36.1328 92.7039 34.6217C92.4912 33.9165 92.1778 33.3233 91.7189 32.9315C90.9353 32.2823 90.0734 32.1592 89.3123 32.1368C88.0251 32.092 87.3311 32.3159 86.402 33.0658C86.2229 33.2114 86.0662 33.2785 86.0662 33.0211L86.0326 27.6483L83.0552 27.693L83.0664 43.0951C84.3424 43.957 87.846 44.0913 89.3459 43.9122ZM9.51471 43.6212C10.1415 43.6212 10.0184 43.6772 10.399 43.1511C12.9847 39.6028 15.436 32.0361 15.4024 27.8162C14.1935 27.7602 12.9847 27.9617 11.7646 28.2527C10.6005 35.1814 9.57068 37.0059 7.70138 40.543C5.83209 37.0059 4.8023 35.1814 3.63819 28.2527C2.41811 27.9617 1.19803 27.7602 0.000341068 27.8162C-0.0332391 32.0361 2.41811 39.6028 5.00378 43.1511C5.38436 43.6772 5.26123 43.6212 5.88806 43.6212H9.51471ZM95.0769 32.7077L95.3679 35.4165C96.5432 35.3045 97.5058 34.9911 98.7483 34.9016C100.606 34.8344 101.793 34.7896 101.737 36.144C100.349 36.144 98.9386 36.144 97.4947 36.1552C95.7373 36.1664 94.2822 37.0059 94.4724 40.5654C94.7075 44.8525 99.7893 44.5279 102.106 42.8153V43.7779H104.804C104.737 39.4013 105.05 34.812 104.267 33.5695C102.767 31.1966 97.8417 32.0696 95.0769 32.7077ZM31.5097 43.263C31.409 42.3787 31.3082 41.4945 31.2075 40.6214C29.9874 40.8452 27.8942 41.1587 26.663 41.1139C25.2414 41.0691 24.7153 40.3863 24.7153 38.3603C25.1631 38.8752 25.8011 39.2334 26.5958 39.2446C28.4539 39.267 30.1889 39.3006 32.0134 39.2334C32.0918 35.8642 32.3828 32.9203 29.0136 32.1928C27.648 31.9017 25.8235 31.9017 24.525 32.2935C23.1035 32.7189 22.3983 33.3905 21.9841 34.812C21.223 37.4537 21.4357 41.3825 23.1371 42.8936C25.1071 44.6062 29.0472 43.9906 31.5097 43.263ZM26.0921 34.7896H27.5808C28.3196 34.7896 28.9352 35.3941 28.9352 36.144V36.7485H24.7377V36.144C24.7377 35.4053 25.3421 34.7896 26.0921 34.7896ZM121.269 43.7443L121.359 38.7857C121.359 38.4834 121.639 38.8864 121.706 39.0095C122.691 40.655 123.598 41.8974 125.053 43.3526C125.467 43.7667 125.545 43.7331 126.273 43.7331H129.396C127.112 41.8526 125.847 40.3415 124.639 38.0581C124.392 37.532 124.404 37.588 124.751 37.0955C125.198 36.5694 125.769 35.8754 126.396 35.1478L129.06 32.0137C129.071 31.9913 129.082 31.9689 129.094 31.9465H126.262C125.747 31.9465 125.758 31.8682 125.4 32.2599C124.325 33.424 123.083 34.7784 122.087 35.8866C121.963 36.0209 121.818 36.1216 121.695 36.2112C121.281 36.5022 121.359 36.4239 121.359 36.0097L121.337 27.5923L118.326 27.6147L118.292 43.7331H121.269V43.7443ZM51.322 43.3638L51.0533 40.7333C49.6989 40.8452 48.255 41.2258 46.811 41.0579C45.3671 40.9012 45.188 40.1289 45.1768 38.9536C45.1656 38.2484 45.1432 37.4425 45.188 36.7373C45.244 35.7746 45.5238 35.159 46.811 35.0135C48.255 34.8568 49.6989 35.2262 51.0533 35.3381L51.322 32.7077C46.1394 31.4876 42.9046 32.092 42.1882 36.1104C42.0427 36.9499 42.1098 39.7147 42.3113 40.5094C43.2292 44.0242 46.3857 44.5279 51.322 43.3638ZM35.058 32.1368C34.4312 32.1368 33.7931 32.1368 33.1663 32.1368C33.1663 33.0658 33.1551 33.9949 33.1551 34.9239C33.8043 34.9239 34.4088 34.9351 35.0692 34.9351C35.0692 35.8754 35.0692 36.8716 35.0692 37.823C35.0692 38.8192 35.058 39.7483 35.058 40.5654C35.0692 41.7407 35.2931 42.7593 35.9535 43.2854C36.2333 43.5093 36.6363 43.6212 37.1288 43.6772C38.3041 43.8115 39.7704 43.7443 40.7666 43.4197C40.733 42.625 40.6995 41.8303 40.6659 41.0243C39.5018 41.1363 38.069 41.3937 38.0802 40.7893C38.0802 38.7633 38.0802 36.9611 38.0802 34.9239C39.0093 34.9239 39.8935 34.9128 40.8338 34.9128C40.8338 33.9837 40.8338 33.0658 40.8226 32.1368C39.9047 32.1368 38.9981 32.1256 38.0802 32.1256C38.0802 31.2077 38.0802 30.2787 38.0802 29.3608C37.0728 29.3608 36.0542 29.3608 35.0468 29.3608C35.058 30.2899 35.058 31.2077 35.058 32.1368ZM16.5553 43.7443L19.4992 43.8003L19.6111 32.1704L16.5442 32.1816L16.5553 43.7443ZM56.706 31.9801H59.3476C61.4072 31.9801 63.0974 33.6703 63.0974 35.7299V40.1736C63.0974 42.2332 61.4072 43.9234 59.3476 43.9234H56.706C54.6464 43.9234 52.9562 42.2332 52.9562 40.1736V35.7299C52.945 33.6703 54.6352 31.9801 56.706 31.9801ZM57.2768 34.7896C56.5381 34.7896 55.9225 35.3941 55.9225 36.144V39.7595C55.9225 40.4982 56.5269 41.1139 57.2768 41.1139H58.7656C59.5043 41.1139 60.12 40.5094 60.12 39.7595V36.144C60.12 35.4053 59.5155 34.7896 58.7656 34.7896H57.2768ZM68.0113 43.7443C68.0337 40.7781 68.0673 37.823 68.0897 34.8568C68.8284 34.8568 69.5672 34.8568 70.3059 34.8568C70.888 34.868 71.4701 35.2374 71.4701 35.8642V36.2783L71.4812 43.7443H74.4587L74.537 34.8456C75.343 34.8456 76.1601 34.8456 76.966 34.8456C77.6824 34.8456 78.1525 35.2486 78.1525 35.9314L78.1637 43.7443H81.1076L81.2083 35.3493C81.2307 33.5584 80.2457 32.092 78.2197 32.1032C77.5816 32.1144 76.9324 32.1144 76.2944 32.1256C75.3206 32.1368 74.8057 32.3047 74.2124 32.9315C73.7647 33.3905 73.9886 33.4016 73.5744 32.9651C72.9812 32.3271 72.2648 32.1144 71.3469 32.1144C70.8992 32.1144 70.4403 32.1144 69.9925 32.1144C69.1642 32.148 68.6381 32.4054 68.0225 33.0323C67.53 33.536 67.586 33.6927 67.586 32.9091C67.586 32.6629 67.586 32.4278 67.586 32.1816C66.7464 32.1816 65.8846 32.1928 65.0562 32.1928C65.0562 36.0433 65.0674 39.8938 65.0674 43.7443H68.0113ZM109.718 43.7443C109.74 40.7781 109.774 37.823 109.796 34.8568C110.546 34.8568 111.296 34.8568 112.035 34.8568C112.695 34.868 113.221 35.2597 113.221 35.9314C113.221 38.5394 113.233 41.1363 113.233 43.7443C114.24 43.7443 115.247 43.7443 116.244 43.7443C116.266 41.1587 116.288 38.5618 116.322 35.9761C116.344 33.9277 115.538 32.1032 113.098 32.1032C112.639 32.1032 112.18 32.1032 111.721 32.1032C110.916 32.1368 110.389 32.383 109.785 32.9651C109.27 33.4688 109.281 33.7374 109.281 32.9427V32.1704H106.707C106.707 36.0209 106.718 39.8938 106.718 43.7443C107.725 43.7443 108.722 43.7443 109.718 43.7443ZM98.5133 38.7409C99.6102 38.7409 100.707 38.7409 101.793 38.7409C101.793 39.3117 101.793 39.8826 101.793 40.4535C101.793 41.1699 99.7221 41.1922 98.4013 41.1699C97.4387 41.1475 97.5506 41.1698 97.5058 40.3192C97.4947 39.9945 97.5058 39.6811 97.5058 39.3565C97.5058 38.6961 97.6402 38.7409 98.5133 38.7409ZM89.9727 36.6701V38.2596V39.8602C89.9727 40.599 89.3683 41.2146 88.6183 41.2146C88.1146 41.2146 87.5997 41.2146 87.096 41.2146C86.0326 41.2146 86.0214 41.2258 86.0214 39.7147V38.2708V36.3007C86.0214 34.7896 86.0326 34.8008 87.096 34.8008C87.5997 34.8008 88.1146 34.8008 88.6183 34.8008C89.3571 34.8008 89.9727 35.4053 89.9727 36.1552V36.6701Z" fill="#004522"/>
<defs>
<linearGradient id="paint0_linear_1233_11660" x1="112.972" y1="18.3197" x2="89.5532" y2="1.92149" gradientUnits="userSpaceOnUse">
<stop stop-color="#006840"/>
<stop offset="0.4" stop-color="#007A48"/>
<stop offset="1" stop-color="#86C440"/>
</linearGradient>
<linearGradient id="paint1_linear_1233_11660" x1="98.2822" y1="0.212814" x2="112.141" y2="9.91646" gradientUnits="userSpaceOnUse">
<stop stop-color="#006840"/>
<stop offset="0.3" stop-color="#007A48"/>
<stop offset="1" stop-color="#86C440"/>
</linearGradient>
</defs>
</svg>
