<svg width="18" height="21" viewBox="0 0 18 21" fill="none" xmlns="http://www.w3.org/2000/svg">
<path d="M0.747409 1.743L8.59091 0L16.4344 1.743C16.6464 1.79012 16.8359 1.9081 16.9718 2.07748C17.1077 2.24685 17.1818 2.45749 17.1818 2.67464V12.2077C17.1817 13.1505 16.9489 14.0788 16.504 14.91C16.0591 15.7413 15.4158 16.4498 14.6313 16.9728L8.59091 21L2.55055 16.9728C1.76617 16.4499 1.12299 15.7415 0.67806 14.9104C0.233134 14.0794 0.000225613 13.1513 0 12.2086V2.67464C3.72633e-05 2.45749 0.0741089 2.24685 0.20999 2.07748C0.345871 1.9081 0.53544 1.79012 0.747409 1.743ZM7.63636 8.59091H4.77273V10.5H7.63636V13.3636H9.54545V10.5H12.4091V8.59091H9.54545V5.72727H7.63636V8.59091Z" fill="#7D7D7D"/>
</svg>
