<svg width="45" height="30" viewBox="0 0 45 30" fill="none" xmlns="http://www.w3.org/2000/svg">
<rect x="1.25" y="0.5" width="42.75" height="29" rx="3.5" fill="white" stroke="#D9D9D9"/>
<path fill-rule="evenodd" clip-rule="evenodd" d="M22.9375 21.4462C21.448 22.7315 19.516 23.5075 17.4047 23.5075C12.6939 23.5075 8.875 19.6442 8.875 14.8787C8.875 10.1132 12.6939 6.25 17.4047 6.25C19.516 6.25 21.448 7.02594 22.9375 8.31129C24.427 7.02594 26.3591 6.25 28.4703 6.25C33.1811 6.25 37 10.1132 37 14.8787C37 19.6442 33.1811 23.5075 28.4703 23.5075C26.3591 23.5075 24.427 22.7315 22.9375 21.4462Z" fill="#ED0006"/>
<path fill-rule="evenodd" clip-rule="evenodd" d="M22.9375 21.4462C24.7715 19.8635 25.9344 17.5085 25.9344 14.8787C25.9344 12.249 24.7715 9.89396 22.9375 8.31129C24.427 7.02594 26.3591 6.25 28.4703 6.25C33.1811 6.25 37 10.1132 37 14.8787C37 19.6442 33.1811 23.5075 28.4703 23.5075C26.3591 23.5075 24.427 22.7315 22.9375 21.4462Z" fill="#F9A000"/>
<path fill-rule="evenodd" clip-rule="evenodd" d="M22.9383 8.31152C24.7723 9.89419 25.9352 12.2492 25.9352 14.8789C25.9352 17.5087 24.7723 19.8637 22.9383 21.4463C21.1043 19.8637 19.9414 17.5087 19.9414 14.8789C19.9414 12.2492 21.1043 9.89419 22.9383 8.31152Z" fill="#FF5E00"/>
</svg>
