<svg width="44" height="30" viewBox="0 0 44 30" fill="none" xmlns="http://www.w3.org/2000/svg">
<rect x="0.5" y="0.5" width="42.75" height="29" rx="3.5" fill="white" stroke="#D9D9D9"/>
<path fill-rule="evenodd" clip-rule="evenodd" d="M13.2816 20.3228H10.6312L8.64369 12.7405C8.54936 12.3917 8.34906 12.0833 8.05443 11.938C7.31914 11.5728 6.5089 11.2821 5.625 11.1355V10.8436H9.89459C10.4839 10.8436 10.9258 11.2821 10.9995 11.7914L12.0307 17.2608L14.6798 10.8436H17.2565L13.2816 20.3228ZM18.7297 20.3228H16.2266L18.2878 10.8436H20.7908L18.7297 20.3228ZM24.0292 13.4696C24.1029 12.9591 24.5448 12.6672 25.0604 12.6672C25.8707 12.5939 26.7533 12.7405 27.4899 13.1044L27.9318 11.0635C27.1952 10.7716 26.385 10.625 25.6497 10.625C23.2203 10.625 21.4525 11.938 21.4525 13.7603C21.4525 15.1466 22.7047 15.8745 23.5886 16.313C24.5448 16.7503 24.9131 17.0422 24.8395 17.4794C24.8395 18.1353 24.1029 18.4272 23.3676 18.4272C22.4837 18.4272 21.5998 18.2086 20.7908 17.8434L20.3489 19.8856C21.2328 20.2495 22.189 20.3961 23.0729 20.3961C25.797 20.4681 27.4899 19.1564 27.4899 17.1875C27.4899 14.7081 24.0292 14.5628 24.0292 13.4696ZM36.25 20.3228L34.2625 10.8436H32.1277C31.6858 10.8436 31.2438 11.1355 31.0965 11.5728L27.4162 20.3228H29.9929L30.5072 18.9378H33.6733L33.9679 20.3228H36.25ZM32.496 13.3964L33.2313 16.9689H31.1702L32.496 13.3964Z" fill="#172B85"/>
</svg>
