<svg width="42" height="47" viewBox="0 0 42 47" fill="none" xmlns="http://www.w3.org/2000/svg">
<path d="M26.5285 18.2815C26.7691 20.5024 28.4686 22.2739 30.6544 22.589V22.713C28.4635 23.0332 26.7691 24.8048 26.5285 27.0205H26.4056C26.165 24.7996 24.4655 23.028 22.2797 22.713V22.589C24.4706 22.2739 26.1702 20.4972 26.4056 18.2815H26.5285ZM31.4991 43.1247C20.9436 48.4653 8.2433 43.853 3.12939 32.831C-1.98453 21.8091 2.42808 8.54558 12.9886 3.20505C17.0378 1.14941 21.6449 0.508958 26.0934 1.37666C25.2846 1.63491 24.4962 1.95514 23.7335 2.33218C15.1335 6.68104 11.5348 17.4912 15.7017 26.473C19.8686 35.4548 30.2193 39.2097 38.8193 34.8609C39.5769 34.4683 40.3089 34.019 41 33.518C38.9319 37.6654 35.6045 41.0329 31.4991 43.1247Z" stroke="#6800BE" stroke-width="2" stroke-linecap="round"/>
</svg>
