<svg width="121" height="78" viewBox="0 0 121 78" fill="none" xmlns="http://www.w3.org/2000/svg">
<path d="M115.206 78C116.647 78 118.024 77.18 118.677 75.7859C119.03 75.0388 119.32 74.3281 119.565 73.6356C124.097 60.9706 117.535 46.9571 104.937 42.4013C102.68 41.5813 100.324 41.1166 97.9489 40.9981C99.9248 33.5722 99.2359 25.7546 95.9459 18.7205C92.2571 10.8299 85.7224 4.86185 77.5653 1.91883C64.1967 -2.91938 49.4234 1.66371 40.9672 12.6066C38.3297 9.70007 35.0306 7.46775 31.2965 6.11924C18.6983 1.56348 4.75881 8.16022 0.227097 20.8252C-0.488914 22.8298 0.544304 25.0348 2.53826 25.7546C4.53221 26.4744 6.72556 25.4357 7.44157 23.4311C10.5413 14.7661 20.076 10.2468 28.6953 13.372C32.5835 14.7752 35.792 17.5906 37.7406 21.299C38.4113 22.5746 39.7346 23.3491 41.1575 23.3582C42.5895 23.3491 43.8947 22.5382 44.5472 21.2626C50.2028 10.1465 63.2904 4.95297 74.9731 9.18071C81.2088 11.4313 86.1937 15.9961 89.0124 22.0188C91.8311 28.0416 92.1483 34.8114 89.9097 41.071C89.6196 41.8911 89.2571 42.7293 88.813 43.6405C88.1604 44.9708 88.3326 46.5653 89.248 47.7315C90.1634 48.8978 91.6589 49.4354 93.1 49.1074C96.1906 48.4058 99.39 48.6062 102.354 49.6723C110.964 52.7702 115.459 62.3555 112.36 71.0206C112.197 71.4853 111.988 71.9682 111.743 72.4966C110.846 74.4192 111.662 76.7153 113.583 77.6264C114.109 77.8815 114.662 78 115.206 78Z" fill="#F9DCFF"/>
</svg>
