<svg width="103" height="110" viewBox="0 0 103 110" fill="none" xmlns="http://www.w3.org/2000/svg">
<path d="M99.8861 38.7707C100.522 37.8809 100.624 36.6685 100.051 35.6505C99.7455 35.1026 99.4347 34.6099 99.1152 34.1533C93.2955 25.7668 81.7481 23.6345 73.3764 29.4023C71.8742 30.4338 70.5475 31.6836 69.4266 33.0974C65.7137 28.6008 60.5832 25.5764 54.7886 24.5038C48.2893 23.2994 41.7211 24.7005 36.3047 28.438C27.4186 34.5567 23.7292 45.7001 26.754 55.7496C23.7957 56.0954 20.9617 57.1472 18.4814 58.8576C10.1096 64.6253 8.03143 76.1424 13.8511 84.5288C14.7727 85.8554 16.59 86.1905 17.9142 85.2771C19.2385 84.3636 19.565 82.5511 18.6434 81.2245C14.6614 75.4872 16.0785 67.6064 21.8114 63.6639C24.3934 61.8825 27.5474 61.144 30.6968 61.5773C31.7804 61.726 32.8424 61.2508 33.4759 60.3763C34.1022 59.4882 34.1774 58.3246 33.6778 57.3588C29.3104 48.962 31.879 38.5901 39.6443 33.2427C43.7854 30.386 48.8033 29.3226 53.7655 30.2399C58.7277 31.1573 63.0473 33.9487 65.9242 38.093C66.3025 38.6339 66.66 39.2276 67.0266 39.9038C67.56 40.8937 68.6204 41.491 69.7444 41.4405C70.8684 41.3899 71.8601 40.7039 72.2935 39.6694C73.2241 37.4517 74.7597 35.5648 76.7256 34.2055C82.4376 30.2565 90.3392 31.7107 94.3212 37.448C94.5361 37.7537 94.7423 38.0955 94.9606 38.4798C95.7516 39.8821 97.5291 40.3917 98.9395 39.6074C99.329 39.3955 99.6461 39.1064 99.8861 38.7707Z" fill="#F9DCFF"/>
</svg>
