<svg width="22" height="19" viewBox="0 0 22 19" fill="none" xmlns="http://www.w3.org/2000/svg">
<path d="M3.23058 0H18.3676C20.1441 0 21.5907 1.40272 21.5907 3.12539V11.5164C21.5907 13.2391 20.1441 14.6418 18.3676 14.6418H16.5966V18.4577C16.5966 18.671 16.468 18.8626 16.2685 18.9512C16.194 18.9837 16.1157 19 16.0374 19C15.905 19 15.7745 18.9548 15.6701 18.8662L10.6611 14.6418H3.23058C1.4503 14.6418 -1.71661e-05 13.2373 -1.71661e-05 11.5092V3.13262C0.00184822 1.40453 1.4503 0 3.23058 0ZM1.12034 11.5092C1.12034 12.6389 2.06734 13.5572 3.23244 13.5572H10.8718C11.006 13.5572 11.1365 13.6042 11.239 13.691L15.48 17.2665V14.0977C15.48 13.7976 15.7298 13.5554 16.0392 13.5554H18.3694C19.5289 13.5554 20.4722 12.6408 20.4722 11.5164V3.12539C20.4722 1.99924 19.5289 1.08458 18.3676 1.08458H3.23058C2.06547 1.08458 1.11848 2.00285 1.11848 3.13262V11.5092H1.12034Z" fill="white"/>
</svg>
