<svg width="79" height="42" viewBox="0 0 79 42" fill="none" xmlns="http://www.w3.org/2000/svg">
<path d="M37.3804 34.0823C37.3655 30.7834 34.6645 28.1226 31.3467 28.1374C28.0289 28.1523 25.3528 30.8378 25.3677 34.1367C25.3826 37.4257 28.0687 40.0815 31.3716 40.0815C34.6993 40.0717 37.3904 37.3861 37.3804 34.0823Z" stroke="#6800BE" stroke-width="2"/>
<path d="M72.8566 34.0823C72.8417 30.7834 70.1457 28.1226 66.8279 28.1374C63.5101 28.1523 60.8339 30.8329 60.8488 34.1317C60.8638 37.4207 63.5448 40.0766 66.8527 40.0766C70.1755 40.0667 72.8616 37.3861 72.8566 34.0823Z" stroke="#6800BE" stroke-width="2"/>
<path d="M20.881 26.4905V30.4422C20.881 31.5154 21.7564 32.3809 22.8308 32.3809H25.6662C25.895 31.4659 26.7207 28.4045 31.2572 28.1176C35.7937 27.8308 37.0721 32.1831 37.2362 32.7073L61.1323 32.376C61.4209 31.4709 62.9032 28.0731 66.8627 28.0731C70.8221 28.0731 72.4935 31.7825 72.6477 32.376H76.05C77.1294 32.376 78 31.5055 78 30.4372V22.1431C78.0099 19.1163 76.1695 16.3862 73.3491 15.2437L68.3102 13.1962L64.0622 3.75463C63.4205 2.32529 61.9929 1.40538 60.4161 1.40044H22.8308C21.7514 1.40044 20.881 2.27089 20.881 3.33918V20.9858V26.4905ZM20.881 18.7305V27.0691V18.7305ZM20.881 10.9656V14.8481V10.9656ZM51.3928 16.9154C50.3134 16.9154 49.4429 16.0449 49.4429 14.9766V6.44021H57.1828C57.2177 6.44021 61.8337 16.6434 61.8337 16.6434C61.8785 16.7374 61.9282 16.8313 51.3928 16.9154Z" stroke="#6800BE" stroke-width="2" stroke-linecap="round"/>
<path d="M7.49399 7.99333H15.8434" stroke="#6800BE" stroke-width="2" stroke-linecap="round"/>
<path d="M7.49399 20.0536H15.8434" stroke="#6800BE" stroke-width="2" stroke-linecap="round"/>
<path d="M1.00002 14.4873L15.8434 14.4873" stroke="#6800BE" stroke-width="2" stroke-linecap="round"/>
</svg>
