<svg width="52" height="62" viewBox="0 0 52 62" fill="none" xmlns="http://www.w3.org/2000/svg">
<path d="M11 57V58H12V57H11ZM11 33H12V32H11V33ZM33.3424 29.9579L34.2038 29.45L34.2029 29.4484L33.3424 29.9579ZM33.3213 28.2919L32.4482 27.8045L32.4477 27.8054L33.3213 28.2919ZM36.8366 21.9952L35.9638 21.5071L35.9635 21.5078L36.8366 21.9952ZM37.056 17.548L37.9728 17.1487L37.9726 17.1483L37.056 17.548ZM33.6367 14.6672L33.3952 15.6376L33.3961 15.6378L33.6367 14.6672ZM31.1582 14.0503L30.9152 15.0204L30.9166 15.0207L31.1582 14.0503ZM29.4949 14.5549L28.7544 13.8829L28.7534 13.884L29.4949 14.5549ZM16.0392 29.426L15.2977 28.7551L15.297 28.7558L16.0392 29.426ZM22.3125 61L22.3125 62L22.3126 62L22.3125 61ZM39.1 60.9979L39.1 59.9979L39.0998 59.9979L39.1 60.9979ZM47.2379 54.8249L48.202 55.0904L48.2091 55.0649L48.2148 55.0389L47.2379 54.8249ZM50.8407 38.3802L49.8662 38.1555L49.8639 38.1661L50.8407 38.3802ZM51.0011 36.9848L52.0011 36.9848L52.0011 36.9845L51.0011 36.9848ZM44.5984 12.2771C44.0926 12.4989 43.8624 13.0887 44.0842 13.5945C44.306 14.1003 44.8959 14.3305 45.4016 14.1087L44.5984 12.2771ZM50.4016 11.9158C50.9074 11.694 51.1376 11.1041 50.9158 10.5984C50.694 10.0926 50.1041 9.86238 49.5984 10.0842L50.4016 11.9158ZM37.1 6.7569C36.8593 7.25394 37.067 7.85206 37.564 8.09283C38.0611 8.33361 38.6592 8.12587 38.9 7.62884L37.1 6.7569ZM41.9 1.43597C42.1407 0.938931 41.933 0.340815 41.436 0.100037C40.9389 -0.140741 40.3408 0.0669973 40.1 0.564033L41.9 1.43597ZM26.0771 9.57781C26.2897 10.0875 26.8752 10.3284 27.3849 10.1158C27.8947 9.90322 28.1355 9.31766 27.9229 8.80793L26.0771 9.57781ZM24.9229 1.61506C24.7103 1.10533 24.1248 0.864462 23.6151 1.07706C23.1053 1.28965 22.8645 1.87521 23.0771 2.38494L24.9229 1.61506ZM0 35.4V54.6H2V35.4H0ZM0 54.6C0 56.5156 1.60611 58 3.5 58V56C2.63295 56 2 55.3349 2 54.6H0ZM3.5 58H11V56H3.5V58ZM12 57V33H10V57H12ZM11 32H3.5V34H11V32ZM3.5 32C1.60611 32 0 33.4844 0 35.4H2C2 34.6651 2.63295 34 3.5 34V32ZM44.7679 29.7857H34.7979V31.7857H44.7679V29.7857ZM34.7979 29.7857C34.6008 29.7857 34.4791 29.7253 34.3947 29.6626C34.2975 29.5902 34.2333 29.5001 34.2038 29.45L32.481 30.4658C32.7039 30.8439 33.4068 31.7857 34.7979 31.7857V29.7857ZM34.2029 29.4484C34.1734 29.3986 34.1257 29.2995 34.1095 29.181C34.0955 29.0786 34.1014 28.9464 34.195 28.7785L32.4477 27.8054C31.7712 29.0201 32.26 30.0925 32.482 30.4674L34.2029 29.4484ZM34.1945 28.7794L37.7098 22.4827L35.9635 21.5078L32.4482 27.8045L34.1945 28.7794ZM37.7094 22.4833C38.6332 20.8316 38.728 18.8823 37.9728 17.1487L36.1392 17.9474C36.6453 19.1093 36.582 20.4018 35.9638 21.5071L37.7094 22.4833ZM37.9726 17.1483C37.2159 15.4129 35.7184 14.1528 33.8772 13.6966L33.3961 15.6378C34.6368 15.9453 35.6326 16.7856 36.1393 17.9477L37.9726 17.1483ZM33.8782 13.6968L31.3997 13.0799L30.9166 15.0207L33.3952 15.6376L33.8782 13.6968ZM31.4011 13.0803C30.4408 12.8398 29.4235 13.1456 28.7544 13.8829L30.2354 15.227C30.408 15.0368 30.669 14.9587 30.9152 15.0204L31.4011 13.0803ZM28.7534 13.884L15.2977 28.7551L16.7807 30.097L30.2364 15.2259L28.7534 13.884ZM15.297 28.7558C13.7353 30.4853 12.875 32.7172 12.875 35.0409H14.875C14.875 33.2142 15.5504 31.4595 16.7814 30.0962L15.297 28.7558ZM12.875 35.0409V52.6071H14.875V35.0409H12.875ZM12.875 52.6071C12.875 57.792 17.113 62 22.3125 62V60C18.2075 60 14.875 56.6774 14.875 52.6071H12.875ZM22.3126 62L39.1001 61.9979L39.0998 59.9979L22.3124 60L22.3126 62ZM39.1 61.9979C43.3371 61.9979 47.0807 59.1617 48.202 55.0904L46.2738 54.5594C45.3933 57.7563 42.4439 59.9979 39.1 59.9979V61.9979ZM48.2148 55.0389L51.8176 38.5942L49.8639 38.1661L46.2611 54.6109L48.2148 55.0389ZM51.8152 38.6048C51.9371 38.0758 52.0011 37.5315 52.0011 36.9848H50.0011C50.0011 37.376 49.9553 37.7696 49.8663 38.1555L51.8152 38.6048ZM52.0011 36.9845C51.9998 33.0095 48.7502 29.7857 44.7679 29.7857V31.7857C47.6557 31.7857 50.0002 34.1243 50.0011 36.9852L52.0011 36.9845ZM45.4016 14.1087L50.4016 11.9158L49.5984 10.0842L44.5984 12.2771L45.4016 14.1087ZM38.9 7.62884L41.9 1.43597L40.1 0.564033L37.1 6.7569L38.9 7.62884ZM27.9229 8.80793L24.9229 1.61506L23.0771 2.38494L26.0771 9.57781L27.9229 8.80793Z" fill="#6800BE"/>
</svg>
