<svg width="50" height="55" viewBox="0 0 50 55" fill="none" xmlns="http://www.w3.org/2000/svg">
<path d="M37.3646 50.9194C24.7791 57.2482 9.63632 51.7824 3.5389 38.721C-2.55851 25.6596 2.70272 9.9418 15.2943 3.61307C20.1222 1.17705 25.6153 0.418096 30.9193 1.44636C29.9549 1.75239 29.015 2.13187 28.1056 2.57868C17.8516 7.73225 13.5609 20.5427 18.5291 31.1865C23.4974 41.8303 35.8387 46.28 46.0926 41.1264C46.9959 40.6613 47.8687 40.1288 48.6927 39.5351C46.2269 44.4499 42.2596 48.4406 37.3646 50.9194Z" stroke="#6800BE" stroke-width="2" stroke-linecap="round" stroke-linejoin="round"/>
<path d="M39 24.4078C36.129 23.9391 33.8967 21.3038 33.5807 18H33.4193C33.11 21.2961 30.8778 23.9391 28 24.4078V24.5922C30.871 25.0609 33.1033 27.6962 33.4193 31H33.5807C33.8967 27.7039 36.1222 25.0686 39 24.5922V24.4078Z" stroke="#6800BE" stroke-width="2" stroke-linecap="round" stroke-linejoin="round"/>
</svg>
