<svg width="21" height="20" viewBox="0 0 21 20" fill="none" xmlns="http://www.w3.org/2000/svg">
<path d="M18.8461 11.579H4.84615L3.76923 3.1579H19.9231L18.8461 11.579Z" stroke="#001F86" stroke-width="1.5" stroke-miterlimit="10" stroke-linecap="round" stroke-linejoin="round"/>
<path d="M17.7692 14.7368H5.38459L4.84613 11.5789" stroke="#001F86" stroke-width="1.5" stroke-miterlimit="10" stroke-linecap="round" stroke-linejoin="round"/>
<path d="M16.1538 20C17.046 20 17.7692 19.2931 17.7692 18.421C17.7692 17.549 17.046 16.8421 16.1538 16.8421C15.2617 16.8421 14.5385 17.549 14.5385 18.421C14.5385 19.2931 15.2617 20 16.1538 20Z" fill="#001F86"/>
<path d="M7.00003 20C7.89218 20 8.61541 19.2931 8.61541 18.421C8.61541 17.549 7.89218 16.8421 7.00003 16.8421C6.10788 16.8421 5.38464 17.549 5.38464 18.421C5.38464 19.2931 6.10788 20 7.00003 20Z" fill="#001F86"/>
<path d="M1.0769 1.05264H3.23075L3.76921 3.15791" stroke="#001F86" stroke-width="1.5" stroke-miterlimit="10" stroke-linecap="round" stroke-linejoin="round"/>
</svg>
