<svg width="88" height="30" viewBox="0 0 88 30" fill="none" xmlns="http://www.w3.org/2000/svg">
<g clip-path="url(#clip0)">
<path d="M2.10092 28.0997C1.57904 28.0997 1.08014 27.8043 0.843821 27.3021C0.715814 27.033 0.610783 26.7769 0.522162 26.5275C-1.11896 21.9651 1.25738 16.917 5.81969 15.2758C6.63697 14.9804 7.49035 14.813 8.35029 14.7704C7.63477 12.0953 7.88422 9.27913 9.07567 6.74521C10.4115 3.90276 12.778 1.75287 15.732 0.692693C20.5733 -1.0502 25.9234 0.600789 28.9857 4.5428C29.9408 3.49576 31.1356 2.6916 32.4879 2.20582C37.0502 0.564684 42.0982 2.94105 43.7393 7.50342C43.9986 8.22552 43.6245 9.01983 42.9024 9.27913C42.1803 9.53843 41.386 9.16425 41.1267 8.44215C40.0042 5.3207 36.5513 3.69269 33.4298 4.81851C32.0218 5.32398 30.8599 6.33821 30.1542 7.67409C29.9113 8.13361 29.4321 8.41261 28.9168 8.41589C28.3982 8.41261 27.9255 8.12048 27.6892 7.66096C25.6411 3.65659 20.9016 1.78569 16.6708 3.30867C14.4126 4.11939 12.6074 5.76381 11.5866 7.93339C10.5658 10.103 10.4509 12.5417 11.2616 14.7966C11.3667 15.092 11.498 15.394 11.6588 15.7222C11.8951 16.2014 11.8327 16.7758 11.5012 17.196C11.1697 17.6161 10.6282 17.8098 10.1063 17.6916C8.98705 17.4389 7.82842 17.5111 6.75513 17.8951C3.637 19.0111 2.00901 22.464 3.13154 25.5855C3.19062 25.7529 3.26611 25.9268 3.35473 26.1172C3.67967 26.8098 3.38427 27.6369 2.68844 27.9651C2.49807 28.057 2.29785 28.0997 2.10092 28.0997Z" fill="url(#paint0_linear)"/>
<path d="M25.6178 12.5219V29.7866H22.4144V28.267H22.3389C21.4264 29.4223 20.1431 30 18.4954 30C17.9998 30 17.5238 29.9508 17.0643 29.849C16.6048 29.7473 16.1748 29.5963 15.7777 29.3961C15.3805 29.1958 15.0096 28.9562 14.665 28.6805C14.3204 28.4048 14.0151 28.0831 13.7493 27.7122C13.4801 27.3446 13.2537 26.9442 13.0633 26.5175C12.8762 26.0908 12.7318 25.6247 12.63 25.116C12.5283 24.6105 12.479 24.0821 12.479 23.5405C12.479 22.6017 12.63 21.7254 12.932 20.9147C13.234 20.1007 13.6475 19.4114 14.1694 18.8403C14.6946 18.2691 15.3215 17.8228 16.0534 17.4945C16.7853 17.1663 17.5665 17.0055 18.3969 17.0055C19.979 17.0055 21.2459 17.5503 22.1912 18.64H22.2535V12.5219C22.2535 11.593 23.0085 10.8381 23.9373 10.8381C24.8662 10.8381 25.6178 11.593 25.6178 12.5219ZM20.7831 26.5635C21.2853 26.2845 21.6857 25.8775 21.9844 25.3523C22.2831 24.8238 22.4308 24.2265 22.4308 23.5536C22.4308 22.5492 22.119 21.7123 21.4953 21.0394C20.8717 20.3698 20.0807 20.035 19.1256 20.035C18.2033 20.035 17.4352 20.3567 16.8214 21.0033C16.2044 21.6499 15.8991 22.5 15.8991 23.5536C15.8991 24.5678 16.1978 25.3917 16.7985 26.0284C17.3958 26.6652 18.1704 26.9836 19.1157 26.9836C19.7229 26.9869 20.2776 26.8457 20.7831 26.5635Z" fill="#001F86"/>
<path d="M39.0061 24.5974H30.1966C30.3968 25.3424 30.7808 25.93 31.3454 26.3567C31.9099 26.7834 32.5959 27.0033 33.4001 27.0098C34.6145 27.0197 35.6156 26.5438 36.4033 25.5886L38.5893 27.6236C38.0182 28.3424 37.2731 28.9201 36.3541 29.3501C35.4318 29.7801 34.3683 29.9967 33.1637 29.9967C31.9395 29.9967 30.8399 29.7308 29.8585 29.1991C28.8771 28.6674 28.1058 27.9026 27.5413 26.9048C26.9767 25.907 26.6945 24.768 26.6945 23.488C26.6945 22.5492 26.852 21.6761 27.1704 20.8687C27.4888 20.0613 27.922 19.372 28.4701 18.8074C29.0183 18.2429 29.678 17.7998 30.4493 17.4814C31.2206 17.163 32.0445 17.0055 32.9241 17.0055C34.1386 17.0055 35.2151 17.2812 36.1538 17.8293C37.0926 18.3775 37.8179 19.1357 38.3267 20.1039C38.8387 21.0722 39.0947 22.1685 39.0947 23.3895C39.0947 23.9869 39.0652 24.3873 39.0061 24.5974ZM31.2469 20.5405C30.748 20.9179 30.4034 21.4628 30.2097 22.175H35.7501C35.5729 21.4891 35.2545 20.9508 34.795 20.5602C34.3355 20.1696 33.748 19.9759 33.0357 19.9759C32.3432 19.9726 31.7458 20.163 31.2469 20.5405Z" fill="#001F86"/>
<path d="M58.706 18.3545C59.4807 19.2506 59.868 20.6291 59.868 22.4902V29.8031H56.5004V23.3042C56.5004 21.1247 55.7684 20.0383 54.3013 20.0383C53.8254 20.0383 53.3921 20.1696 53.0081 20.4289C52.6241 20.6882 52.3155 21.0853 52.0858 21.6171C51.856 22.1488 51.7411 22.779 51.7411 23.5077V29.8031H48.3736V23.3042C48.3736 21.1247 47.6318 20.0383 46.1482 20.0383C45.6362 20.0383 45.1832 20.1696 44.7926 20.4289C44.3988 20.6882 44.0837 21.0853 43.8506 21.6171C43.6176 22.1488 43.4994 22.779 43.4994 23.5077V29.7899H40.1319V18.8797C40.1319 17.9639 40.8737 17.2221 41.7894 17.2221H41.8386C42.7544 17.2221 43.4962 17.9639 43.4962 18.8797H43.5323C44.0279 18.2757 44.599 17.8129 45.2554 17.4913C45.9086 17.1696 46.588 17.0088 47.2904 17.0088C49.0399 17.0088 50.2838 17.6816 51.0223 19.0306H51.0584C51.5705 18.3775 52.2007 17.8753 52.949 17.5306C53.6974 17.1827 54.5245 17.0088 55.4304 17.0088C56.8417 17.0088 57.9314 17.4551 58.706 18.3545Z" fill="#001F86"/>
<path d="M61.6568 29.5011C61.3154 29.1663 61.1447 28.7593 61.1447 28.2801C61.1447 27.8009 61.3154 27.3939 61.6568 27.0558C61.9981 26.7177 62.415 26.547 62.9106 26.547C63.3898 26.547 63.8001 26.7177 64.1414 27.0591C64.4828 27.4004 64.6534 27.8074 64.6534 28.2801C64.6534 28.7527 64.4828 29.1564 64.1414 29.4945C63.8001 29.8326 63.3898 30.0033 62.9106 30.0033C62.415 30 61.9981 29.8326 61.6568 29.5011Z" fill="#001F86"/>
<path d="M74.7135 18.3217L70.207 29.7867H67.0659L62.5496 18.3217C62.3428 17.7932 62.7301 17.2221 63.2979 17.2221H65.671L68.625 25.6674H68.6611L71.5527 17.2221H73.9652C74.533 17.2221 74.9203 17.7932 74.7135 18.3217Z" fill="#001F86"/>
<path d="M85.2921 17.3042C85.8337 17.5011 86.3096 17.8064 86.7232 18.2166C87.1368 18.6269 87.4551 19.1816 87.6718 19.8742C87.8884 20.57 88 21.3906 88 22.3359V29.7998H84.6324V23.1794C84.6324 22.0241 84.4355 21.2101 84.0416 20.7407C83.6477 20.2713 83.0405 20.0383 82.22 20.0383C81.3502 20.0383 80.6543 20.337 80.139 20.9311C79.6237 21.5252 79.3677 22.372 79.3677 23.4683V29.7899H76.0001V18.8436C76.0001 17.9475 76.7255 17.2221 77.6215 17.2221H77.7463C78.6423 17.2221 79.3677 17.9475 79.3677 18.8436H79.4038C79.9158 18.2495 80.5198 17.7932 81.2189 17.4814C81.918 17.1696 82.6565 17.0088 83.4377 17.0088C84.1335 17.0088 84.7538 17.1072 85.2921 17.3042Z" fill="#001F86"/>
</g>
<defs>
<linearGradient id="paint0_linear" x1="0.000287047" y1="14.0497" x2="43.8222" y2="14.0497" gradientUnits="userSpaceOnUse">
<stop offset="0.0974" stop-color="#E562FF"/>
<stop offset="1" stop-color="#8C00FF"/>
</linearGradient>
<clipPath id="clip0">
<rect width="88" height="30" fill="white"/>
</clipPath>
</defs>
</svg>
