<svg width="32" height="29" viewBox="0 0 32 29" fill="none" xmlns="http://www.w3.org/2000/svg">
<path d="M12.1719 16.5156V28.7617H0.863281V19.0938C0.863281 13.8594 1.48828 10.0703 2.73828 7.72656C4.37891 4.60156 6.97656 2.23828 10.5312 0.636719L13.1094 4.73828C10.9609 5.63672 9.37891 6.98438 8.36328 8.78125C7.34766 10.5391 6.78125 13.1172 6.66406 16.5156H12.1719ZM30.3359 16.5156V28.7617H19.0273V19.0938C19.0273 13.8594 19.6523 10.0703 20.9023 7.72656C22.543 4.60156 25.1406 2.23828 28.6953 0.636719L31.2734 4.73828C29.125 5.63672 27.543 6.98438 26.5273 8.78125C25.5117 10.5391 24.9453 13.1172 24.8281 16.5156H30.3359Z" fill="#000F40"/>
</svg>
