<svg width="22" height="22" viewBox="0 0 22 22" fill="none" xmlns="http://www.w3.org/2000/svg">
<circle cx="11" cy="11" r="11" fill="#14B506"/>
<path d="M16.0006 8.00221C15.9459 8.2773 15.7767 8.476 15.5864 8.66795C13.6001 10.6721 11.6163 12.6787 9.63323 14.6862C9.36201 14.9606 9.0471 15.0777 8.67772 14.946C8.5447 14.8986 8.41469 14.8091 8.31373 14.7077C7.30184 13.694 6.29511 12.6748 5.28967 11.6545C4.87832 11.2371 4.90996 10.6371 5.36048 10.2911C5.68379 10.0427 6.17521 10.0495 6.53726 10.4195C7.3126 11.2119 8.09547 11.9967 8.87468 12.7851C8.89986 12.8106 8.91945 12.8415 8.947 12.877C8.98984 12.8365 9.02084 12.8089 9.04989 12.7795C10.8543 10.9548 12.6592 9.13064 14.4633 7.30557C14.725 7.04092 15.0289 6.93015 15.391 7.04528C15.707 7.14582 15.8966 7.37086 15.9788 7.69252C15.9849 7.71646 15.9933 7.73974 16.0006 7.76325C16.0006 7.8429 16.0006 7.92256 16.0006 8.00221Z" fill="white"/>
</svg>
